<svg xmlns="http://www.w3.org/2000/svg" xmlns:xlink="http://www.w3.org/1999/xlink" width="85" height="85" viewBox="0 0 85 85">
  <defs>
    <clipPath id="clip-path">
      <path id="path3667" d="M0-682.665H85v85H0Z" transform="translate(0 682.665)" fill="#916aab"/>
    </clipPath>
  </defs>
  <g id="g3657" transform="translate(0 682.665)">
    <g id="g3659" transform="translate(46.014 -675.203)">
      <path id="path3661" d="M-36.422-2a1.239,1.239,0,0,1-.658-.189,1.245,1.245,0,0,1-.4-1.716l3.445-5.515a1.245,1.245,0,0,1,1.716-.4,1.245,1.245,0,0,1,.4,1.716l-3.445,5.515A1.244,1.244,0,0,1-36.422-2Z" transform="translate(37.667 10.001)" fill="#916aab"/>
    </g>
    <g id="g3663" transform="translate(0 -682.665)">
      <g id="g3665" clip-path="url(#clip-path)">
        <g id="g3671" transform="translate(43.115 9.9)">
          <path id="path3673" d="M-39.349,40.35a9.337,9.337,0,0,1-4.962-1.431A9.41,9.41,0,0,1-47.3,25.968L-34.717,5.82A6.864,6.864,0,0,0-33.845.6a6.864,6.864,0,0,0-3.072-4.3l-6.4-4a1.245,1.245,0,0,1-.4-1.716A1.245,1.245,0,0,1-42-9.812l6.4,4A9.338,9.338,0,0,1-31.419.043a9.338,9.338,0,0,1-1.186,7.1L-45.191,27.287a6.917,6.917,0,0,0,2.2,9.52,6.863,6.863,0,0,0,5.216.872,6.864,6.864,0,0,0,4.3-3.071l5.546-8.879a9.338,9.338,0,0,1,5.856-4.178,9.338,9.338,0,0,1,7.1,1.186l5.456,3.408a1.245,1.245,0,0,1,.4,1.716,1.245,1.245,0,0,1-1.716.4l-5.456-3.408a6.864,6.864,0,0,0-5.216-.872,6.864,6.864,0,0,0-4.3,3.071l-5.546,8.879a9.337,9.337,0,0,1-5.856,4.179A9.475,9.475,0,0,1-39.349,40.35Z" transform="translate(48.728 10.001)" fill="#916aab"/>
        </g>
        <g id="g3675" transform="translate(36.177 2.554)">
          <path id="path3677" d="M-57.182-37.758a1.239,1.239,0,0,1-.658-.189l-6.887-4.3a1.245,1.245,0,0,1-.4-1.716,1.245,1.245,0,0,1,1.716-.4l6.887,4.3a1.245,1.245,0,0,1,.4,1.716A1.244,1.244,0,0,1-57.182-37.758Z" transform="translate(65.313 44.551)" fill="#916aab"/>
        </g>
        <g id="g3679" transform="translate(2.088 -0.003)">
          <path id="path3681" d="M-434.341,2.466a2.589,2.589,0,0,1-1.374-.406,2.477,2.477,0,0,1-.872-3.387l43.242-77.624a6.927,6.927,0,0,1,4.363-3.367,6.927,6.927,0,0,1,5.447.84,6.942,6.942,0,0,1,3.11,4.366,6.94,6.94,0,0,1-.883,5.264q-.093.148-.194.294a1.245,1.245,0,0,1-1.733.31,1.245,1.245,0,0,1-.31-1.733l.126-.191a4.466,4.466,0,0,0,.567-3.387,4.468,4.468,0,0,0-2-2.81,4.46,4.46,0,0,0-3.507-.541,4.459,4.459,0,0,0-2.808,2.168L-434.412-.115-389.04-65.09a1.245,1.245,0,0,1,1.733-.31,1.245,1.245,0,0,1,.31,1.733L-432.289,1.358A2.49,2.49,0,0,1-434.341,2.466Z" transform="translate(436.927 82.544)" fill="#916aab"/>
        </g>
      </g>
    </g>
  </g>
</svg>
