<svg id="_28-sewing_machine" data-name="28-sewing machine" xmlns="http://www.w3.org/2000/svg" width="84.544" height="84.543" viewBox="0 0 84.544 84.543">
  <path id="Trazado_894059" data-name="Trazado 894059" d="M16,43h2.642v2.642H16Z" transform="translate(5.136 13.802)" fill="#916aab"/>
  <path id="Trazado_894060" data-name="Trazado 894060" d="M23.778,54.778H14.531a1.321,1.321,0,0,1-1.141-.66L4.526,38.926h-3.2A1.321,1.321,0,0,1,0,37.6V32.321A1.321,1.321,0,0,1,1.321,31h6.6a1.321,1.321,0,0,1,1.141.66l8.864,15.191h.563v2.642H17.173a1.321,1.321,0,0,1-1.141-.66L7.168,33.642H2.642v2.642H5.284a1.321,1.321,0,0,1,1.141.66l8.864,15.191h8.489Z" transform="translate(0 9.951)" fill="#916aab"/>
  <path id="Trazado_894061" data-name="Trazado 894061" d="M40.1,61.383H36.136a1.321,1.321,0,0,1-.452-.081L21.153,56.018a1.321,1.321,0,0,1-.869-1.24V43.921L16,42.849a1.321,1.321,0,0,1-1-1.281V32.321A1.321,1.321,0,0,1,16.321,31H26.889a1.321,1.321,0,0,1,1.321,1.321v7.926h2.642a1.321,1.321,0,0,1,1.321,1.321v1.321H40.1A1.321,1.321,0,0,1,41.42,44.21V60.062A1.321,1.321,0,0,1,40.1,61.383Zm-3.73-2.642h2.409V45.531H30.852a1.321,1.321,0,0,1-1.321-1.321V42.889H26.889a1.321,1.321,0,0,1-1.321-1.321V33.642H17.642v6.894l4.283,1.071a1.321,1.321,0,0,1,1,1.281V53.853Z" transform="translate(4.815 9.951)" fill="#916aab"/>
  <path id="Trazado_894062" data-name="Trazado 894062" d="M25.963,49.926a3.963,3.963,0,1,1,3.963-3.963,3.963,3.963,0,0,1-3.963,3.963Zm0-5.284a1.321,1.321,0,1,0,1.321,1.321A1.321,1.321,0,0,0,25.963,44.642Z" transform="translate(7.062 13.481)" fill="#916aab"/>
  <path id="Trazado_894063" data-name="Trazado 894063" d="M17.713,34.4l-1.427-1.9a3.434,3.434,0,0,1,5.494-4.123l3.33,4.441L23,34.4l-3.328-4.44a.8.8,0,0,0-.635-.316A.793.793,0,0,0,18.4,30.91l1.427,1.9Z" transform="translate(5.008 8.667)" fill="#916aab"/>
  <path id="Trazado_894064" data-name="Trazado 894064" d="M36.568,46.457H33.926V30.6c0-1.637-1.366-3.963-2.642-3.963s-2.642,2.326-2.642,3.963v13.21H26V30.6c0-2.629,2.114-6.6,5.284-6.6s5.284,3.976,5.284,6.6Z" transform="translate(8.346 7.704)" fill="#916aab"/>
  <path id="Trazado_894065" data-name="Trazado 894065" d="M34.475,33.479,32.11,32.3l2.5-5.005V21h2.642v6.6a1.321,1.321,0,0,1-.132.59Z" transform="translate(10.307 6.741)" fill="#916aab"/>
  <path id="Trazado_894066" data-name="Trazado 894066" d="M39.852,25.1H37.21V2.642H26.642V5.284H24V1.321A1.321,1.321,0,0,1,25.321,0h13.21a1.321,1.321,0,0,1,1.321,1.321Z" transform="translate(7.704)" fill="#916aab"/>
  <path id="Trazado_894067" data-name="Trazado 894067" d="M24,6h2.642V8.642H24Z" transform="translate(7.704 1.926)" fill="#916aab"/>
  <path id="Trazado_894068" data-name="Trazado 894068" d="M26.781,37.01l-2.642-5.284a1.321,1.321,0,0,1-.139-.59V10h2.642V30.824l2.51,5.005Z" transform="translate(7.704 3.21)" fill="#916aab"/>
  <path id="Trazado_894069" data-name="Trazado 894069" d="M36.39,50.249H32.427a1.321,1.321,0,0,1-.59-.132l-5.284-2.642,1.181-2.365,5.005,2.5H36.39Z" transform="translate(8.523 14.48)" fill="#916aab"/>
  <path id="Trazado_894070" data-name="Trazado 894070" d="M30,53h2.642V63.568H30Z" transform="translate(9.63 17.012)" fill="#916aab"/>
  <path id="Trazado_894071" data-name="Trazado 894071" d="M48.824,66.787,42.438,55.295,33.606,51.51l1.041-2.428,9.247,3.963a1.306,1.306,0,0,1,.634.573l6.6,11.889Z" transform="translate(10.787 15.755)" fill="#916aab"/>
  <path id="Trazado_894072" data-name="Trazado 894072" d="M22.038,57.384a4.279,4.279,0,0,1-3.82-6.189l1.321-2.642L21.9,49.734l-1.321,2.642A1.633,1.633,0,1,0,23.5,53.837l1.321-2.642,2.365,1.181-1.321,2.642a4.291,4.291,0,0,1-3.828,2.366Z" transform="translate(5.703 15.585)" fill="#916aab"/>
  <path id="Trazado_894073" data-name="Trazado 894073" d="M68.592,68.173H68.47L28.576,64.448A3.952,3.952,0,0,1,25,60.5V57.6h2.642V60.5a1.321,1.321,0,0,0,1.189,1.321l39.352,3.668,5.693-4.553V59.586a.66.66,0,1,0-1.321,0v.66a1.321,1.321,0,0,1-.73,1.189l-2.642,1.321a1.321,1.321,0,0,1-.59.132H64.63a1.321,1.321,0,0,1-1.057-2.114l3.7-4.931V54.3a.66.66,0,0,0-1.321,0v.66a1.321,1.321,0,0,1-.387.934l-2.642,2.642a1.308,1.308,0,0,1-1.057.382L47.334,57.6l.243-2.637,13.914,1.266,1.818-1.812V54.3a3.3,3.3,0,0,1,6.6,0v1.981a1.321,1.321,0,0,1-.264.793l-2.378,3.17h1.009l1.633-.818a3.3,3.3,0,1,1,6.6.157v1.981a1.321,1.321,0,0,1-.5,1.032l-6.6,5.284A1.321,1.321,0,0,1,68.592,68.173Z" transform="translate(8.025 16.37)" fill="#916aab"/>
  <path id="Trazado_894074" data-name="Trazado 894074" d="M0,0H2.642V14.59H0Z" transform="translate(58.041 77.958) rotate(-84.78)" fill="#916aab"/>
  <path id="Trazado_894075" data-name="Trazado 894075" d="M56.531,25.852H45.963A3.963,3.963,0,0,1,42,21.889V13.963A3.963,3.963,0,0,1,45.963,10H56.531a3.963,3.963,0,0,1,3.963,3.963v7.926a3.963,3.963,0,0,1-3.963,3.963ZM45.963,12.642a1.321,1.321,0,0,0-1.321,1.321v7.926a1.321,1.321,0,0,0,1.321,1.321H56.531a1.321,1.321,0,0,0,1.321-1.321V13.963a1.321,1.321,0,0,0-1.321-1.321Z" transform="translate(13.481 3.21)" fill="#916aab"/>
  <path id="Trazado_894076" data-name="Trazado 894076" d="M49.963,20.926a3.963,3.963,0,1,1,3.963-3.963A3.963,3.963,0,0,1,49.963,20.926Zm0-5.284a1.321,1.321,0,1,0,1.321,1.321A1.321,1.321,0,0,0,49.963,15.642Z" transform="translate(14.765 4.173)" fill="#916aab"/>
  <path id="Trazado_894077" data-name="Trazado 894077" d="M46.642,14.531H44V1.321A1.321,1.321,0,0,1,45.321,0H55.889A1.321,1.321,0,0,1,57.21,1.321v9.247H54.568V2.642H46.642Z" transform="translate(14.123)" fill="#916aab"/>
  <path id="Trazado_894078" data-name="Trazado 894078" d="M53.247,26.284H47.963A3.963,3.963,0,0,1,44,22.321V21h2.642v1.321a1.321,1.321,0,0,0,1.321,1.321h5.284a1.321,1.321,0,0,0,1.321-1.321V21H57.21v1.321a3.963,3.963,0,0,1-3.963,3.963Z" transform="translate(14.123 6.741)" fill="#916aab"/>
  <path id="Trazado_894079" data-name="Trazado 894079" d="M48,24h2.642V62.309H48Z" transform="translate(15.407 7.704)" fill="#916aab"/>
</svg>
