<svg id="Grupo_1102773" data-name="Grupo 1102773" xmlns="http://www.w3.org/2000/svg" xmlns:xlink="http://www.w3.org/1999/xlink" width="70.448" height="94.92" viewBox="0 0 70.448 94.92">
  <defs>
    <clipPath id="clip-path">
      <rect id="Rectángulo_402750" data-name="Rectángulo 402750" width="70.448" height="94.92" fill="none"/>
    </clipPath>
  </defs>
  <g id="Grupo_1102772" data-name="Grupo 1102772" clip-path="url(#clip-path)">
    <path id="Trazado_894093" data-name="Trazado 894093" d="M39.068,13.335l24.505,4.432V46.149a16.548,16.548,0,0,0,16.5,16.5v41.9H13.333V32.431a26.893,26.893,0,0,0,25.735-19.1" transform="translate(-11.479 -11.481)" fill="#ff9256" fill-rule="evenodd"/>
    <path id="Trazado_894094" data-name="Trazado 894094" d="M68.594,94.919H61.179a1.854,1.854,0,1,1,0-3.708H66.74V52.928a18.38,18.38,0,0,1-16.5-18.261V7.834l-21.4-3.871A28.7,28.7,0,0,1,26.988,8a1.854,1.854,0,1,1-3.241-1.8,24.92,24.92,0,0,0,2.067-4.883,1.854,1.854,0,0,1,2.1-1.288L52.424,4.461a1.854,1.854,0,0,1,1.524,1.824V34.667A14.663,14.663,0,0,0,68.594,49.313a1.854,1.854,0,0,1,1.854,1.854v41.9a1.854,1.854,0,0,1-1.854,1.854m-22.247,0H1.854A1.854,1.854,0,0,1,0,93.065V20.949a1.854,1.854,0,0,1,1.854-1.854A25.041,25.041,0,0,0,13.98,15.966a1.854,1.854,0,1,1,1.8,3.242A28.734,28.734,0,0,1,3.708,22.743V91.211h42.64a1.854,1.854,0,0,1,0,3.708" transform="translate(0 0.001)"/>
    <path id="Trazado_894095" data-name="Trazado 894095" d="M104.68,139.244h-3.708a1.854,1.854,0,0,1,0-3.708h3.708a1.854,1.854,0,1,1,0,3.708m-14.831,0H86.141a1.854,1.854,0,1,1,0-3.708h3.708a1.854,1.854,0,0,1,0,3.708m-14.831,0H71.31a1.854,1.854,0,0,1,0-3.708h3.708a1.854,1.854,0,0,1,0,3.708m-14.831,0H56.479a1.854,1.854,0,1,1,0-3.708h3.708a1.854,1.854,0,1,1,0,3.708m46.909-8.708a1.854,1.854,0,0,1-1.854-1.854v-3.708a1.854,1.854,0,0,1,3.708,0v3.708a1.854,1.854,0,0,1-1.854,1.854m-51.909-1.124a1.854,1.854,0,0,1-1.854-1.854v-3.708a1.854,1.854,0,0,1,3.708,0v3.708a1.854,1.854,0,0,1-1.854,1.854M107.1,115.705a1.854,1.854,0,0,1-1.854-1.854v-3.708a1.854,1.854,0,0,1,3.708,0v3.708a1.854,1.854,0,0,1-1.854,1.854m-51.909-1.124a1.854,1.854,0,0,1-1.854-1.854V109.02a1.854,1.854,0,0,1,3.708,0v3.708a1.854,1.854,0,0,1-1.854,1.854m43.235-8.654a1.847,1.847,0,0,1-1.248-.484,26.119,26.119,0,0,1-2.732-2.9,1.854,1.854,0,0,1,2.888-2.326,22.37,22.37,0,0,0,2.343,2.491,1.854,1.854,0,0,1-1.25,3.224M55.187,99.75A1.854,1.854,0,0,1,53.333,97.9V94.189a1.854,1.854,0,1,1,3.708,0V97.9a1.854,1.854,0,0,1-1.854,1.854m35.941-6.463a1.854,1.854,0,0,1-1.81-1.464,25.723,25.723,0,0,1-.534-3.956,1.854,1.854,0,0,1,3.7-.209,21.978,21.978,0,0,0,.456,3.384,1.855,1.855,0,0,1-1.814,2.245M55.187,84.919a1.854,1.854,0,0,1-1.854-1.854V79.358a1.854,1.854,0,0,1,3.708,0v3.708a1.854,1.854,0,0,1-1.854,1.854M90.6,78.494a1.854,1.854,0,0,1-1.854-1.854V72.933a1.854,1.854,0,1,1,3.708,0V76.64A1.854,1.854,0,0,1,90.6,78.494M65.419,77.072a1.854,1.854,0,0,1-.956-3.444,32.664,32.664,0,0,0,2.9-1.963,1.854,1.854,0,0,1,2.239,2.956,36.425,36.425,0,0,1-3.236,2.187,1.844,1.844,0,0,1-.952.265m10.7-10.1a1.854,1.854,0,0,1-1.53-2.9,32.377,32.377,0,0,0,1.814-3,1.854,1.854,0,1,1,3.272,1.745,36.17,36.17,0,0,1-2.023,3.342,1.852,1.852,0,0,1-1.533.81m12.1-1.329a1.868,1.868,0,0,1-.332-.03l-3.648-.66a1.854,1.854,0,0,1,.66-3.649l3.648.66a1.854,1.854,0,0,1-.328,3.679" transform="translate(-45.917 -51.74)"/>
    <path id="Trazado_894096" data-name="Trazado 894096" d="M375.188,659.709a1.854,1.854,0,0,1,0-3.708h0a1.854,1.854,0,0,1,0,3.708" transform="translate(-321.424 -564.789)"/>
    <path id="Trazado_894097" data-name="Trazado 894097" d="M138.53,84.438a1.854,1.854,0,1,1,1.312-.544h0a1.848,1.848,0,0,1-1.311.543" transform="translate(-117.672 -69.505)"/>
  </g>
</svg>
