<svg xmlns="http://www.w3.org/2000/svg" xmlns:xlink="http://www.w3.org/1999/xlink" width="295" height="217" viewBox="0 0 295 217">
  <defs>
    <clipPath id="clip-path">
      <rect id="Rectángulo_402818" data-name="Rectángulo 402818" width="173.279" height="213.236" fill="none"/>
    </clipPath>
  </defs>
  <g id="Grupo_1102833" data-name="Grupo 1102833" transform="translate(-180 -10790)">
    <rect id="_2148877382" data-name="2148877382" width="295" height="124" rx="10" transform="translate(180 10883)" fill="#e8e0ee"/>
    <g id="Grupo_1102832" data-name="Grupo 1102832" transform="translate(240 10790)">
      <g id="Grupo_1102831" data-name="Grupo 1102831" clip-path="url(#clip-path)">
        <path id="Trazado_894114" data-name="Trazado 894114" d="M140.979,176.233H88.749a2.88,2.88,0,0,1-2.88-2.88v-5.238a2.88,2.88,0,0,1,2.88-2.88h52.23a2.88,2.88,0,0,1,2.88,2.88v5.238a2.88,2.88,0,0,1-2.88,2.88" transform="translate(-18.61 -35.81)" fill="#a6a6a6"/>
        <rect id="Rectángulo_402794" data-name="Rectángulo 402794" width="57.99" height="10.998" rx="3.677" transform="translate(67.259 129.424)" fill="none" stroke="#263238" stroke-linecap="round" stroke-linejoin="round" stroke-width="1"/>
        <path id="Trazado_894115" data-name="Trazado 894115" d="M89.906,245.464h-2.94l.94-66.188h4.2Z" transform="translate(-18.848 -38.853)" fill="#263238"/>
        <path id="Trazado_894116" data-name="Trazado 894116" d="M89.906,245.464h-2.94l.94-66.188h4.2Z" transform="translate(-18.848 -38.853)" fill="none" stroke="#263238" stroke-linecap="round" stroke-linejoin="round" stroke-width="1"/>
        <path id="Trazado_894117" data-name="Trazado 894117" d="M152.913,245.464h2.94l-.94-66.188h-4.2Z" transform="translate(-32.663 -38.853)" fill="#263238"/>
        <path id="Trazado_894118" data-name="Trazado 894118" d="M152.913,245.464h2.94l-.94-66.188h-4.2Z" transform="translate(-32.663 -38.853)" fill="none" stroke="#263238" stroke-linecap="round" stroke-linejoin="round" stroke-width="1"/>
        <path id="Trazado_894119" data-name="Trazado 894119" d="M137.114,64.278c-1.021-1.729-17.751-9.174-17.751-9.174l-8.557-1.729L102.249,55.1S85.519,62.55,84.5,64.278s-20.7,23.8-20.959,24.864,6.78,4.051,8.244,4.388c2.89.664,14.63-10.107,14.63-10.107l7.152,20.209L84.5,119.322h52.616l-9.067-15.689L135.2,83.424s11.264,14.165,12.669,13.633,9.4-1.125,9.141-2.188-18.872-28.861-19.894-30.59" transform="translate(-13.769 -11.568)" fill="#263238"/>
        <path id="Trazado_894120" data-name="Trazado 894120" d="M137.114,64.278c-1.021-1.729-17.751-9.174-17.751-9.174l-8.557-1.729L102.249,55.1S85.519,62.55,84.5,64.278s-20.7,23.8-20.959,24.864,6.78,4.051,8.244,4.388c2.89.664,14.63-10.107,14.63-10.107l7.152,20.209L84.5,119.322h52.616l-9.067-15.689L135.2,83.424s11.264,14.165,12.669,13.633,9.4-1.125,9.141-2.188S138.135,66.007,137.114,64.278Z" transform="translate(-13.769 -11.568)" fill="none" stroke="#263238" stroke-linecap="round" stroke-linejoin="round" stroke-width="1"/>
        <path id="Trazado_894121" data-name="Trazado 894121" d="M130.838,55.421c0,7.649-3.926,13.85-8.769,13.85s-8.768-6.2-8.768-13.85,3.926-13.85,8.768-13.85,8.769,6.2,8.769,13.85" transform="translate(-24.555 -9.009)" fill="#fff"/>
        <path id="Trazado_894122" data-name="Trazado 894122" d="M130.838,55.421c0,7.649-3.926,13.85-8.769,13.85s-8.768-6.2-8.768-13.85,3.926-13.85,8.768-13.85S130.838,47.771,130.838,55.421Z" transform="translate(-24.555 -9.009)" fill="none" stroke="#263238" stroke-linecap="round" stroke-linejoin="round" stroke-width="1"/>
        <path id="Trazado_894123" data-name="Trazado 894123" d="M141.488,137.531l-24.289-.12v-.019l-1.9.009-1.9-.009v.019l-24.289.12s-4.866,4.549-4.28,13.193,9.962,11.134,15.09,12.453c3.874,1,11.758.488,15.384.179,3.626.309,11.509.817,15.383-.179,5.128-1.318,14.5-3.809,15.09-12.453s-4.279-13.193-4.279-13.193" transform="translate(-18.372 -29.776)" fill="#fddde1"/>
        <path id="Trazado_894124" data-name="Trazado 894124" d="M141.488,137.531l-24.289-.12v-.019l-1.9.009-1.9-.009v.019l-24.289.12s-4.866,4.549-4.28,13.193,9.962,11.134,15.09,12.453c3.874,1,11.758.488,15.384.179,3.626.309,11.509.817,15.383-.179,5.128-1.318,14.5-3.809,15.09-12.453S141.488,137.531,141.488,137.531Z" transform="translate(-18.372 -29.776)" fill="none" stroke="#263238" stroke-linecap="round" stroke-linejoin="round" stroke-width="1"/>
        <path id="Trazado_894125" data-name="Trazado 894125" d="M101.075,151.688s-3.956,12.746-3.809,25.638,7.179,46.882,7.179,46.882-.439,7.472,2.93,13.479,5.714,6.592,6.446,4.981,1.025-5.421,0-10.695c-.538-2.767-4.1-9.23-4.1-9.23s4.541-48.054,5.567-52.01,3.077-13.478.586-19.924-9.816-10.4-15.676-9.523a16.868,16.868,0,0,0-9.377,4.834" transform="translate(-19.683 -30.594)" fill="#fddde1"/>
        <path id="Trazado_894126" data-name="Trazado 894126" d="M101.075,151.688s-3.956,12.746-3.809,25.638,7.179,46.882,7.179,46.882-.439,7.472,2.93,13.479,5.714,6.592,6.446,4.981,1.025-5.421,0-10.695c-.538-2.767-4.1-9.23-4.1-9.23s4.541-48.054,5.567-52.01,3.077-13.478.586-19.924-9.816-10.4-15.676-9.523a16.868,16.868,0,0,0-9.377,4.834" transform="translate(-19.683 -30.594)" fill="none" stroke="#263238" stroke-linecap="round" stroke-linejoin="round" stroke-width="1"/>
        <path id="Trazado_894127" data-name="Trazado 894127" d="M113.329,244.926s.039-.417.112-1.176a10.243,10.243,0,0,1-5.967-.231c.361,1.812.58,2.873.58,2.873s-.439,7.472,2.93,13.478,5.714,6.593,6.446,4.982,1.025-5.421,0-10.695c-.538-2.767-4.1-9.23-4.1-9.23" transform="translate(-23.292 -52.776)" fill="#fff"/>
        <path id="Trazado_894128" data-name="Trazado 894128" d="M113.329,244.926s.039-.417.112-1.176a10.243,10.243,0,0,1-5.967-.231c.361,1.812.58,2.873.58,2.873s-.439,7.472,2.93,13.478,5.714,6.593,6.446,4.982,1.025-5.421,0-10.695C116.893,251.389,113.329,244.926,113.329,244.926Z" transform="translate(-23.292 -52.776)" fill="none" stroke="#263238" stroke-linecap="round" stroke-linejoin="round" stroke-width="1"/>
        <path id="Trazado_894129" data-name="Trazado 894129" d="M141.8,151.688s3.956,12.746,3.809,25.638-7.179,46.882-7.179,46.882.439,7.472-2.93,13.479-5.714,6.592-6.446,4.981-1.025-5.421,0-10.695c.538-2.767,4.1-9.23,4.1-9.23s-4.541-48.054-5.567-52.01-3.077-13.478-.586-19.924,9.815-10.4,15.676-9.523a16.867,16.867,0,0,1,9.377,4.834" transform="translate(-27.267 -30.594)" fill="#fddde1"/>
        <path id="Trazado_894130" data-name="Trazado 894130" d="M141.8,151.688s3.956,12.746,3.809,25.638-7.179,46.882-7.179,46.882.439,7.472-2.93,13.479-5.714,6.592-6.446,4.981-1.025-5.421,0-10.695c.538-2.767,4.1-9.23,4.1-9.23s-4.541-48.054-5.567-52.01-3.077-13.478-.586-19.924,9.815-10.4,15.676-9.523a16.867,16.867,0,0,1,9.377,4.834" transform="translate(-27.267 -30.594)" fill="none" stroke="#263238" stroke-linecap="round" stroke-linejoin="round" stroke-width="1"/>
        <path id="Trazado_894131" data-name="Trazado 894131" d="M133.863,244.926s-.039-.417-.112-1.176a10.243,10.243,0,0,0,5.967-.231c-.361,1.812-.58,2.873-.58,2.873s.439,7.472-2.93,13.478-5.714,6.593-6.446,4.982-1.025-5.421,0-10.695c.538-2.767,4.1-9.23,4.1-9.23" transform="translate(-27.979 -52.776)" fill="#fff"/>
        <path id="Trazado_894132" data-name="Trazado 894132" d="M133.863,244.926s-.039-.417-.112-1.176a10.243,10.243,0,0,0,5.967-.231c-.361,1.812-.58,2.873-.58,2.873s.439,7.472-2.93,13.478-5.714,6.593-6.446,4.982-1.025-5.421,0-10.695C130.3,251.389,133.863,244.926,133.863,244.926Z" transform="translate(-27.979 -52.776)" fill="none" stroke="#263238" stroke-linecap="round" stroke-linejoin="round" stroke-width="1"/>
        <path id="Trazado_894133" data-name="Trazado 894133" d="M71.545,94.359a23.563,23.563,0,0,1,6.683,3.855c3,2.571,11.859,8.011,12.458,8.44s7.026,2.656,7.026,2.656l-1.285,4.712s-2.056.514-6-.514S67.518,104.9,65.547,102.67s-3.316-3.036-2.13-4.645a8.54,8.54,0,0,1,2.322-2.256" transform="translate(-13.648 -20.45)" fill="#263238"/>
        <path id="Trazado_894134" data-name="Trazado 894134" d="M71.545,94.359a23.563,23.563,0,0,1,6.683,3.855c3,2.571,11.859,8.011,12.458,8.44s7.026,2.656,7.026,2.656l-1.285,4.712s-2.056.514-6-.514S67.518,104.9,65.547,102.67s-3.316-3.036-2.13-4.645a8.54,8.54,0,0,1,2.322-2.256" transform="translate(-13.648 -20.45)" fill="none" stroke="#263238" stroke-linecap="round" stroke-linejoin="round" stroke-width="1"/>
        <path id="Trazado_894135" data-name="Trazado 894135" d="M102.464,114.1s5.717-3.856,7.578-3.856,5.452,5.185,6.515,6.117.931,2.127.4,2.26-7.578-.132-8.509-.132-3.828-1.463-5.186-2-1.595-1.861-.8-2.393" transform="translate(-22.107 -23.892)" fill="#fff"/>
        <path id="Trazado_894136" data-name="Trazado 894136" d="M102.464,114.1s5.717-3.856,7.578-3.856,5.452,5.185,6.515,6.117.931,2.127.4,2.26-7.578-.132-8.509-.132-3.828-1.463-5.186-2S101.666,114.628,102.464,114.1Z" transform="translate(-22.107 -23.892)" fill="none" stroke="#263238" stroke-linecap="round" stroke-linejoin="round" stroke-width="1"/>
        <path id="Trazado_894137" data-name="Trazado 894137" d="M104.042,114.541s4.37,2.741,5.826,4.8" transform="translate(-22.548 -24.824)" fill="none" stroke="#263238" stroke-linecap="round" stroke-linejoin="round" stroke-width="1"/>
        <path id="Trazado_894138" data-name="Trazado 894138" d="M107.324,112.572s4.884,3.256,6.169,6.511" transform="translate(-23.26 -24.397)" fill="none" stroke="#263238" stroke-linecap="round" stroke-linejoin="round" stroke-width="1"/>
        <path id="Trazado_894139" data-name="Trazado 894139" d="M110.386,110.931s5.484,4.627,6.854,7.8" transform="translate(-23.923 -24.041)" fill="none" stroke="#263238" stroke-linecap="round" stroke-linejoin="round" stroke-width="1"/>
        <path id="Trazado_894140" data-name="Trazado 894140" d="M144.5,107.3a27.948,27.948,0,0,0-6.271.88,43.362,43.362,0,0,0-8.912,4.95c-1.65,1.321-5.831,3.631-5.5,4.071s4.621.331,6.381.44,5.831-1.43,5.831-1.43,5.061-.99,6.711-1.98,3.19-1.76,3.19-1.76a44.524,44.524,0,0,1,12.785.932c7.261,1.54,12.683-.791,13.673-2.771s-.983-4.511-3.733-6.051-4.668-1.065-9.4-.515S144.5,107.3,144.5,107.3" transform="translate(-26.829 -22.44)" fill="#fff"/>
        <path id="Trazado_894141" data-name="Trazado 894141" d="M144.5,107.3a27.948,27.948,0,0,0-6.271.88,43.362,43.362,0,0,0-8.912,4.95c-1.65,1.321-5.831,3.631-5.5,4.071s4.621.331,6.381.44,5.831-1.43,5.831-1.43,5.061-.99,6.711-1.98,3.19-1.76,3.19-1.76a44.524,44.524,0,0,1,12.785.932c7.261,1.54,12.683-.791,13.673-2.771s-.983-4.511-3.733-6.051-4.668-1.065-9.4-.515S144.5,107.3,144.5,107.3Z" transform="translate(-26.829 -22.44)" fill="none" stroke="#263238" stroke-linecap="round" stroke-linejoin="round" stroke-width="1"/>
        <path id="Trazado_894142" data-name="Trazado 894142" d="M174.475,104.581c-2.752-1.539-4.668-1.064-9.4-.515a142.955,142.955,0,0,0-14.411,3.143,8.685,8.685,0,0,1,1.085,5.262,44.573,44.573,0,0,1,12.785.931c7.262,1.541,12.683-.791,13.673-2.771s-.983-4.509-3.732-6.051" transform="translate(-32.653 -22.44)" fill="#263238"/>
        <path id="Trazado_894143" data-name="Trazado 894143" d="M174.475,104.581c-2.752-1.539-4.668-1.064-9.4-.515a142.955,142.955,0,0,0-14.411,3.143,8.685,8.685,0,0,1,1.085,5.262,44.573,44.573,0,0,1,12.785.931c7.262,1.541,12.683-.791,13.673-2.771S177.224,106.123,174.475,104.581Z" transform="translate(-32.653 -22.44)" fill="none" stroke="#263238" stroke-linecap="round" stroke-linejoin="round" stroke-width="1"/>
        <path id="Trazado_894144" data-name="Trazado 894144" d="M126.109,119.863s6.085-4.733,7.438-5.216" transform="translate(-27.331 -24.847)" fill="none" stroke="#263238" stroke-linecap="round" stroke-linejoin="round" stroke-width="1"/>
        <path id="Trazado_894145" data-name="Trazado 894145" d="M129.809,120.13a73.968,73.968,0,0,1,6.085-4.25" transform="translate(-28.133 -25.114)" fill="none" stroke="#263238" stroke-linecap="round" stroke-linejoin="round" stroke-width="1"/>
        <path id="Trazado_894146" data-name="Trazado 894146" d="M131.965,120.53s2.947-1.828,4.01-2.311,2.608-1.352,2.608-1.352" transform="translate(-28.6 -25.328)" fill="none" stroke="#263238" stroke-linecap="round" stroke-linejoin="round" stroke-width="1"/>
        <path id="Trazado_894147" data-name="Trazado 894147" d="M122.083.5s-6.545,1.134-7.854,4.451,3.927,7.592,5.323,8.116,8.639-.436,9.25-3.4-.785-7.33-2.967-8.2A13.146,13.146,0,0,0,122.083.5" transform="translate(-24.711 -0.108)" fill="#263238"/>
        <path id="Trazado_894148" data-name="Trazado 894148" d="M122.083.5s-6.545,1.134-7.854,4.451,3.927,7.592,5.323,8.116,8.639-.436,9.25-3.4-.785-7.33-2.967-8.2A13.146,13.146,0,0,0,122.083.5Z" transform="translate(-24.711 -0.108)" fill="none" stroke="#263238" stroke-linecap="round" stroke-linejoin="round" stroke-width="1"/>
        <path id="Trazado_894149" data-name="Trazado 894149" d="M115.46,14.331l-.027.005a17.347,17.347,0,0,0-6.411,2.524c-1.725,1.26-2.188,3.4-2.3,5.429-.314,5.744,1.072,11.424,1.917,17.114a26.154,26.154,0,0,0,1.212,5.654c1,2.572,2.879,4.684,4.681,6.773a16.187,16.187,0,0,0,3.63,3.448,5.2,5.2,0,0,0,4.8.537,7.428,7.428,0,0,0,2.582-2.454Q127.872,50.254,130,47a13.348,13.348,0,0,0,1.6-3,14.134,14.134,0,0,0,.546-3c.674-6.253,1.348-12.518,1.426-18.807a7.8,7.8,0,0,0-.588-3.711,6.919,6.919,0,0,0-3.593-2.85,23.047,23.047,0,0,0-13.934-1.3" transform="translate(-23.12 -2.991)" fill="#fff"/>
        <path id="Trazado_894150" data-name="Trazado 894150" d="M115.46,14.331l-.027.005a17.347,17.347,0,0,0-6.411,2.524c-1.725,1.26-2.188,3.4-2.3,5.429-.314,5.744,1.072,11.424,1.917,17.114a26.154,26.154,0,0,0,1.212,5.654c1,2.572,2.879,4.684,4.681,6.773a16.187,16.187,0,0,0,3.63,3.448,5.2,5.2,0,0,0,4.8.537,7.428,7.428,0,0,0,2.582-2.454Q127.872,50.254,130,47a13.348,13.348,0,0,0,1.6-3,14.134,14.134,0,0,0,.546-3c.674-6.253,1.348-12.518,1.426-18.807a7.8,7.8,0,0,0-.588-3.711,6.919,6.919,0,0,0-3.593-2.85A23.047,23.047,0,0,0,115.46,14.331Z" transform="translate(-23.12 -2.991)" fill="none" stroke="#263238" stroke-linecap="round" stroke-linejoin="round" stroke-width="1"/>
        <path id="Trazado_894151" data-name="Trazado 894151" d="M129.394,15.632a23.046,23.046,0,0,0-13.934-1.3l-.027,0a17.365,17.365,0,0,0-6.411,2.524c-1.725,1.26-2.188,3.4-2.3,5.428A55.742,55.742,0,0,0,107.867,34.7,35.3,35.3,0,0,0,121.1,26.158s7.011,5.5,11.715,8.4c.4-4.114.707-8.235.758-12.366a7.787,7.787,0,0,0-.588-3.711,6.915,6.915,0,0,0-3.593-2.85" transform="translate(-23.12 -2.991)" fill="#263238"/>
        <path id="Trazado_894152" data-name="Trazado 894152" d="M129.394,15.632a23.046,23.046,0,0,0-13.934-1.3l-.027,0a17.365,17.365,0,0,0-6.411,2.524c-1.725,1.26-2.188,3.4-2.3,5.428A55.742,55.742,0,0,0,107.867,34.7,35.3,35.3,0,0,0,121.1,26.158s7.011,5.5,11.715,8.4c.4-4.114.707-8.235.758-12.366a7.787,7.787,0,0,0-.588-3.711A6.915,6.915,0,0,0,129.394,15.632Z" transform="translate(-23.12 -2.991)" fill="none" stroke="#263238" stroke-linecap="round" stroke-linejoin="round" stroke-width="1"/>
        <path id="Trazado_894153" data-name="Trazado 894153" d="M106.619,34.73s-1.309-2.007-2.356-.611.262,4.189.873,5.323a4.976,4.976,0,0,0,2.443,1.745Z" transform="translate(-22.511 -7.287)" fill="#fff"/>
        <path id="Trazado_894154" data-name="Trazado 894154" d="M106.619,34.73s-1.309-2.007-2.356-.611.262,4.189.873,5.323a4.976,4.976,0,0,0,2.443,1.745Z" transform="translate(-22.511 -7.287)" fill="none" stroke="#263238" stroke-linecap="round" stroke-linejoin="round" stroke-width="1"/>
        <path id="Trazado_894155" data-name="Trazado 894155" d="M140.648,34.73s1.309-2.007,2.356-.611-.262,4.189-.873,5.323a4.976,4.976,0,0,1-2.443,1.745Z" transform="translate(-30.274 -7.287)" fill="#fff"/>
        <path id="Trazado_894156" data-name="Trazado 894156" d="M140.648,34.73s1.309-2.007,2.356-.611-.262,4.189-.873,5.323a4.976,4.976,0,0,1-2.443,1.745Z" transform="translate(-30.274 -7.287)" fill="none" stroke="#263238" stroke-linecap="round" stroke-linejoin="round" stroke-width="1"/>
        <path id="Trazado_894157" data-name="Trazado 894157" d="M113.73,48.962s2.618,2.007,4.887.175" transform="translate(-24.648 -10.611)" fill="none" stroke="#263238" stroke-linecap="round" stroke-linejoin="round" stroke-width="1"/>
        <path id="Trazado_894158" data-name="Trazado 894158" d="M118.492,44.111s-4.538-1.658-6.545.436" transform="translate(-24.262 -9.425)" fill="none" stroke="#263238" stroke-linecap="round" stroke-linejoin="round" stroke-width="1"/>
        <path id="Trazado_894159" data-name="Trazado 894159" d="M133.014,48.962s-2.618,2.007-4.887.175" transform="translate(-27.768 -10.611)" fill="none" stroke="#263238" stroke-linecap="round" stroke-linejoin="round" stroke-width="1"/>
        <path id="Trazado_894160" data-name="Trazado 894160" d="M127.793,44.111s4.538-1.658,6.545.436" transform="translate(-27.696 -9.425)" fill="none" stroke="#263238" stroke-linecap="round" stroke-linejoin="round" stroke-width="1"/>
        <path id="Trazado_894161" data-name="Trazado 894161" d="M121.751,56.315a4.34,4.34,0,0,0,2.181,1.134,2.105,2.105,0,0,0,1.92-.96" transform="translate(-26.386 -12.205)" fill="none" stroke="#263238" stroke-linecap="round" stroke-linejoin="round" stroke-width="1"/>
        <path id="Trazado_894162" data-name="Trazado 894162" d="M120.3,59.03s3.49,2.443,6.283-.117" transform="translate(-26.073 -12.768)" fill="none" stroke="#263238" stroke-linecap="round" stroke-linejoin="round" stroke-width="1"/>
        <rect id="Rectángulo_402795" data-name="Rectángulo 402795" width="74.615" height="3.665" transform="translate(11.947 91.491)" fill="#fff"/>
        <rect id="Rectángulo_402796" data-name="Rectángulo 402796" width="74.615" height="3.665" transform="translate(11.947 91.491)" fill="none" stroke="#263238" stroke-linecap="round" stroke-linejoin="round" stroke-width="1"/>
        <line id="Línea_615" data-name="Línea 615" y2="8.252" transform="translate(83.022 82.738)" fill="none" stroke="#fff" stroke-linecap="round" stroke-linejoin="round" stroke-width="1"/>
        <path id="Trazado_894163" data-name="Trazado 894163" d="M111.21,89.454H97.546L99.6,101.766h9.565Z" transform="translate(-21.141 -19.387)" fill="#fff"/>
        <path id="Trazado_894164" data-name="Trazado 894164" d="M111.21,89.454H97.546L99.6,101.766h9.565Z" transform="translate(-21.141 -19.387)" fill="none" stroke="#263238" stroke-linecap="round" stroke-linejoin="round" stroke-width="1"/>
        <path id="Trazado_894165" data-name="Trazado 894165" d="M94.44,72.084H20.169v34.842h28.7V88.134H94.44Z" transform="translate(-4.371 -15.622)" fill="#fff"/>
        <path id="Trazado_894166" data-name="Trazado 894166" d="M94.44,72.084H20.169v34.842h28.7V88.134H94.44Z" transform="translate(-4.371 -15.622)" fill="none" stroke="#263238" stroke-linecap="round" stroke-linejoin="round" stroke-width="1"/>
        <rect id="Rectángulo_402797" data-name="Rectángulo 402797" width="2.488" height="14.601" transform="translate(13.309 56.462)" fill="#fff"/>
        <rect id="Rectángulo_402798" data-name="Rectángulo 402798" width="2.488" height="14.601" transform="translate(13.309 56.462)" fill="none" stroke="#263238" stroke-linecap="round" stroke-linejoin="round" stroke-width="1"/>
        <path id="Trazado_894167" data-name="Trazado 894167" d="M20.169,72.084l27.542,3.484V88.134l-6.3,2.7V106.6" transform="translate(-4.371 -15.622)" fill="#fff"/>
        <path id="Trazado_894168" data-name="Trazado 894168" d="M20.169,72.084l27.542,3.484V88.134l-6.3,2.7V106.6" transform="translate(-4.371 -15.622)" fill="none" stroke="#263238" stroke-linecap="round" stroke-linejoin="round" stroke-width="1"/>
        <path id="Trazado_894169" data-name="Trazado 894169" d="M103.106,85.91a1.327,1.327,0,1,1-1.328-1.328A1.328,1.328,0,0,1,103.106,85.91Z" transform="translate(-21.77 -18.331)" fill="none" stroke="#263238" stroke-linecap="round" stroke-linejoin="round" stroke-width="1"/>
        <path id="Trazado_894170" data-name="Trazado 894170" d="M62.637,82.947h0a1.162,1.162,0,0,1-1.162-1.162V78.965a1.162,1.162,0,0,1,2.323,0v2.821A1.162,1.162,0,0,1,62.637,82.947Z" transform="translate(-13.323 -16.862)" fill="none" stroke="#263238" stroke-linecap="round" stroke-linejoin="round" stroke-width="1"/>
        <path id="Trazado_894171" data-name="Trazado 894171" d="M79.583,82.947h0a1.162,1.162,0,0,1-1.162-1.162V78.965a1.162,1.162,0,0,1,2.323,0v2.821A1.162,1.162,0,0,1,79.583,82.947Z" transform="translate(-16.996 -16.862)" fill="none" stroke="#263238" stroke-linecap="round" stroke-linejoin="round" stroke-width="1"/>
        <rect id="Rectángulo_402799" data-name="Rectángulo 402799" width="4.48" height="2.157" transform="translate(81.169 54.305)" fill="none" stroke="#263238" stroke-linecap="round" stroke-linejoin="round" stroke-width="1"/>
        <rect id="Rectángulo_402800" data-name="Rectángulo 402800" width="2.979" height="90.396" transform="translate(3.039 4.351)" fill="#a6a6a6"/>
        <rect id="Rectángulo_402801" data-name="Rectángulo 402801" width="2.979" height="90.396" transform="translate(3.039 4.351)" fill="none" stroke="#263238" stroke-linecap="round" stroke-linejoin="round" stroke-width="1"/>
        <path id="Trazado_894172" data-name="Trazado 894172" d="M51.767,12.8H30.891a5.368,5.368,0,0,1-5.369-5.369H57.136A5.368,5.368,0,0,1,51.767,12.8" transform="translate(-5.531 -1.61)" fill="#fff"/>
        <path id="Trazado_894173" data-name="Trazado 894173" d="M51.767,12.8H30.891a5.368,5.368,0,0,1-5.369-5.369H57.136A5.368,5.368,0,0,1,51.767,12.8Z" transform="translate(-5.531 -1.61)" fill="none" stroke="#263238" stroke-linecap="round" stroke-linejoin="round" stroke-width="1"/>
        <rect id="Rectángulo_402802" data-name="Rectángulo 402802" width="48.582" height="1.834" transform="translate(3.039 4.35)" fill="#a6a6a6"/>
        <rect id="Rectángulo_402803" data-name="Rectángulo 402803" width="48.582" height="1.834" transform="translate(3.039 4.35)" fill="none" stroke="#263238" stroke-linecap="round" stroke-linejoin="round" stroke-width="1"/>
        <rect id="Rectángulo_402804" data-name="Rectángulo 402804" width="48.582" height="1.833" transform="translate(3.039 44.315)" fill="#a6a6a6"/>
        <rect id="Rectángulo_402805" data-name="Rectángulo 402805" width="48.582" height="1.833" transform="translate(3.039 44.315)" fill="none" stroke="#263238" stroke-linecap="round" stroke-linejoin="round" stroke-width="1"/>
        <path id="Trazado_894174" data-name="Trazado 894174" d="M50.267,50.757H38.536l1.76-21.2h8.211Z" transform="translate(-8.352 -6.406)" fill="#916aab"/>
        <path id="Trazado_894175" data-name="Trazado 894175" d="M50.267,50.757H38.536l1.76-21.2h8.211Z" transform="translate(-8.352 -6.406)" fill="none" stroke="#263238" stroke-linecap="round" stroke-linejoin="round" stroke-width="1"/>
        <line id="Línea_616" data-name="Línea 616" y1="3.829" x2="9.974" transform="translate(30.746 39.217)" fill="none" stroke="#263238" stroke-linecap="round" stroke-linejoin="round" stroke-width="1"/>
        <line id="Línea_617" data-name="Línea 617" y1="3.384" x2="8.015" transform="translate(32.795 36.724)" fill="none" stroke="#263238" stroke-linecap="round" stroke-linejoin="round" stroke-width="1"/>
        <line id="Línea_618" data-name="Línea 618" y1="3.206" x2="7.392" transform="translate(33.151 33.963)" fill="none" stroke="#263238" stroke-linecap="round" stroke-linejoin="round" stroke-width="1"/>
        <line id="Línea_619" data-name="Línea 619" x2="5.611" y2="3.117" transform="translate(31.904 31.113)" fill="none" stroke="#263238" stroke-linecap="round" stroke-linejoin="round" stroke-width="1"/>
        <line id="Línea_620" data-name="Línea 620" x2="5.433" y2="3.295" transform="translate(31.726 28.174)" fill="none" stroke="#263238" stroke-linecap="round" stroke-linejoin="round" stroke-width="1"/>
        <line id="Línea_621" data-name="Línea 621" x2="5.344" y2="3.028" transform="translate(35.377 27.551)" fill="none" stroke="#263238" stroke-linecap="round" stroke-linejoin="round" stroke-width="1"/>
        <line id="Línea_622" data-name="Línea 622" x1="3.473" y2="1.514" transform="translate(33.329 23.187)" fill="none" stroke="#263238" stroke-linecap="round" stroke-linejoin="round" stroke-width="1"/>
        <line id="Línea_623" data-name="Línea 623" x1="3.652" y2="2.315" transform="translate(35.911 23.543)" fill="none" stroke="#263238" stroke-linecap="round" stroke-linejoin="round" stroke-width="1"/>
        <line id="Línea_624" data-name="Línea 624" x1="2.226" y2="1.158" transform="translate(37.871 26.571)" fill="none" stroke="#263238" stroke-linecap="round" stroke-linejoin="round" stroke-width="1"/>
        <path id="Trazado_894176" data-name="Trazado 894176" d="M27.39,50.757H15.66l1.759-21.2h8.212Z" transform="translate(-3.394 -6.406)" fill="#263238"/>
        <path id="Trazado_894177" data-name="Trazado 894177" d="M27.39,50.757H15.66l1.759-21.2h8.212Z" transform="translate(-3.394 -6.406)" fill="none" stroke="#263238" stroke-linecap="round" stroke-linejoin="round" stroke-width="1"/>
        <line id="Línea_625" data-name="Línea 625" y1="3.829" x2="9.974" transform="translate(12.827 39.217)" fill="none" stroke="#fff" stroke-linecap="round" stroke-linejoin="round" stroke-width="1"/>
        <line id="Línea_626" data-name="Línea 626" y1="3.384" x2="8.015" transform="translate(14.876 36.724)" fill="none" stroke="#fff" stroke-linecap="round" stroke-linejoin="round" stroke-width="1"/>
        <line id="Línea_627" data-name="Línea 627" y1="3.206" x2="7.392" transform="translate(15.232 33.963)" fill="none" stroke="#fff" stroke-linecap="round" stroke-linejoin="round" stroke-width="1"/>
        <line id="Línea_628" data-name="Línea 628" x2="5.611" y2="3.117" transform="translate(13.985 31.113)" fill="none" stroke="#fff" stroke-linecap="round" stroke-linejoin="round" stroke-width="1"/>
        <line id="Línea_629" data-name="Línea 629" x2="5.433" y2="3.295" transform="translate(13.807 28.174)" fill="none" stroke="#fff" stroke-linecap="round" stroke-linejoin="round" stroke-width="1"/>
        <line id="Línea_630" data-name="Línea 630" x2="5.344" y2="3.028" transform="translate(17.458 27.551)" fill="none" stroke="#fff" stroke-linecap="round" stroke-linejoin="round" stroke-width="1"/>
        <line id="Línea_631" data-name="Línea 631" x1="3.473" y2="1.514" transform="translate(15.41 23.187)" fill="none" stroke="#fff" stroke-linecap="round" stroke-linejoin="round" stroke-width="1"/>
        <line id="Línea_632" data-name="Línea 632" x1="3.652" y2="2.315" transform="translate(17.992 23.543)" fill="none" stroke="#fff" stroke-linecap="round" stroke-linejoin="round" stroke-width="1"/>
        <line id="Línea_633" data-name="Línea 633" x1="2.226" y2="1.158" transform="translate(19.952 26.571)" fill="none" stroke="#fff" stroke-linecap="round" stroke-linejoin="round" stroke-width="1"/>
        <rect id="Rectángulo_402806" data-name="Rectángulo 402806" width="150.721" height="5.09" transform="translate(11.986 160.543)" fill="#a6a6a6"/>
        <rect id="Rectángulo_402807" data-name="Rectángulo 402807" width="150.721" height="5.09" transform="translate(11.986 160.543)" fill="none" stroke="#263238" stroke-linecap="round" stroke-linejoin="round" stroke-width="1"/>
        <rect id="Rectángulo_402808" data-name="Rectángulo 402808" width="7.353" height="107.456" transform="translate(6.047 99.179)" fill="#a6a6a6"/>
        <rect id="Rectángulo_402809" data-name="Rectángulo 402809" width="7.353" height="107.456" transform="translate(6.047 99.179)" fill="none" stroke="#263238" stroke-linecap="round" stroke-linejoin="round" stroke-width="1"/>
        <rect id="Rectángulo_402810" data-name="Rectángulo 402810" width="13.008" height="9.897" transform="translate(3.219 198.152)" fill="#a6a6a6"/>
        <rect id="Rectángulo_402811" data-name="Rectángulo 402811" width="13.008" height="9.897" transform="translate(3.219 198.152)" fill="none" stroke="#263238" stroke-linecap="round" stroke-linejoin="round" stroke-width="1"/>
        <path id="Trazado_894178" data-name="Trazado 894178" d="M167.628,171.322a2.5,2.5,0,0,0,.3,1.858c.566,1.05,7.187,5.734,7.187,5.734v-6.7s-6.163-2.989-7.483-.889" transform="translate(-36.315 -36.967)" fill="#644977"/>
        <path id="Trazado_894179" data-name="Trazado 894179" d="M167.628,171.322a2.5,2.5,0,0,0,.3,1.858c.566,1.05,7.187,5.734,7.187,5.734v-6.7S168.948,169.222,167.628,171.322Z" transform="translate(-36.315 -36.967)" fill="none" stroke="#263238" stroke-linecap="round" stroke-linejoin="round" stroke-width="1"/>
        <path id="Trazado_894180" data-name="Trazado 894180" d="M202.326,123.88v53.176l-29.459-14.238a16.491,16.491,0,0,0-5.221-1.616V132.468Z" transform="translate(-36.333 -26.848)" fill="#916aab"/>
        <path id="Trazado_894181" data-name="Trazado 894181" d="M202.326,123.88v53.176l-29.459-14.238a16.491,16.491,0,0,0-5.221-1.616V132.468Z" transform="translate(-36.333 -26.848)" fill="none" stroke="#263238" stroke-linecap="round" stroke-linejoin="round" stroke-width="1"/>
        <rect id="Rectángulo_402812" data-name="Rectángulo 402812" width="7.353" height="107.456" transform="translate(161.01 99.179)" fill="#a6a6a6"/>
        <rect id="Rectángulo_402813" data-name="Rectángulo 402813" width="7.353" height="107.456" transform="translate(161.01 99.179)" fill="none" stroke="#263238" stroke-linecap="round" stroke-linejoin="round" stroke-width="1"/>
        <rect id="Rectángulo_402814" data-name="Rectángulo 402814" width="13.008" height="9.897" transform="translate(158.183 198.152)" fill="#a6a6a6"/>
        <rect id="Rectángulo_402815" data-name="Rectángulo 402815" width="13.008" height="9.897" transform="translate(158.183 198.152)" fill="none" stroke="#263238" stroke-linecap="round" stroke-linejoin="round" stroke-width="1"/>
        <rect id="Rectángulo_402816" data-name="Rectángulo 402816" width="172.495" height="5.938" transform="translate(0.392 94.938)" fill="#a6a6a6"/>
        <rect id="Rectángulo_402817" data-name="Rectángulo 402817" width="172.495" height="5.938" transform="translate(0.392 94.938)" fill="none" stroke="#263238" stroke-linecap="round" stroke-linejoin="round" stroke-width="1"/>
        <path id="Trazado_894182" data-name="Trazado 894182" d="M101.874,117.183s23.2,25.734,53.376,26.156S190.072,119.7,190.072,119.7h-76.4s-4.512-4-6.543-3.8a31.845,31.845,0,0,0-5.257,1.281" transform="translate(-22.079 -25.117)" fill="#916aab"/>
        <path id="Trazado_894183" data-name="Trazado 894183" d="M101.874,117.183s23.2,25.734,53.376,26.156S190.072,119.7,190.072,119.7h-76.4s-4.512-4-6.543-3.8A31.845,31.845,0,0,0,101.874,117.183Z" transform="translate(-22.079 -25.117)" fill="none" stroke="#263238" stroke-linecap="round" stroke-linejoin="round" stroke-width="1"/>
        <path id="Trazado_894184" data-name="Trazado 894184" d="M149.717,140.21q1.129.266,2.3.5" transform="translate(-32.447 -30.387)" fill="none" stroke="#263238" stroke-linecap="round" stroke-linejoin="round" stroke-width="1"/>
        <path id="Trazado_894185" data-name="Trazado 894185" d="M117.5,123.634s8.04,8.28,22.919,12.392" transform="translate(-25.466 -26.794)" fill="none" stroke="#263238" stroke-linecap="round" stroke-linejoin="round" stroke-width="1"/>
        <path id="Trazado_894186" data-name="Trazado 894186" d="M128.884,125.022c3.424,1.163,9.4,2.615,18.913,3.26" transform="translate(-27.932 -27.095)" fill="none" stroke="#263238" stroke-linecap="round" stroke-linejoin="round" stroke-width="1"/>
        <path id="Trazado_894187" data-name="Trazado 894187" d="M123.979,122.894a14.775,14.775,0,0,0,2.608,1.222" transform="translate(-26.869 -26.634)" fill="none" stroke="#263238" stroke-linecap="round" stroke-linejoin="round" stroke-width="1"/>
      </g>
    </g>
  </g>
</svg>
