<svg xmlns="http://www.w3.org/2000/svg" width="53.067" height="41.152" viewBox="0 0 53.067 41.152">
  <g id="de-coser_1_" data-name="de-coser (1)" transform="translate(0 -57.48)">
    <g id="Grupo_1102156" data-name="Grupo 1102156" transform="translate(36.126 78.196)">
      <g id="Grupo_1102155" data-name="Grupo 1102155" transform="translate(0 0)">
        <path id="Trazado_892660" data-name="Trazado 892660" d="M353.394,258.181a2.837,2.837,0,1,0,.831,2.006A2.818,2.818,0,0,0,353.394,258.181Zm-1.068,2.943a1.326,1.326,0,1,1,.388-.938A1.327,1.327,0,0,1,352.326,261.124Z" transform="translate(-348.551 -257.35)" fill="#4598eb"/>
      </g>
    </g>
    <g id="Grupo_1102158" data-name="Grupo 1102158" transform="translate(36.126 85.652)">
      <g id="Grupo_1102157" data-name="Grupo 1102157" transform="translate(0 0)">
        <path id="Trazado_892661" data-name="Trazado 892661" d="M353.393,330.116a2.835,2.835,0,1,0,0,4.012h0a2.837,2.837,0,0,0,0-4.012Zm-1.068,2.944a1.326,1.326,0,1,1,.388-.938A1.328,1.328,0,0,1,352.325,333.06Z" transform="translate(-348.55 -329.286)" fill="#4598eb"/>
      </g>
    </g>
    <g id="Grupo_1102160" data-name="Grupo 1102160" transform="translate(0 57.48)">
      <g id="Grupo_1102159" data-name="Grupo 1102159">
        <path id="Trazado_892662" data-name="Trazado 892662" d="M50.225,66.629a2.845,2.845,0,0,0-2.842,2.842v3.609H45.864a6.829,6.829,0,0,0-7.471-6.417v-.9h.024a1.526,1.526,0,0,0,1.524-1.524V59a1.526,1.526,0,0,0-1.524-1.524H36.859A1.526,1.526,0,0,0,35.335,59v5.232a1.526,1.526,0,0,0,1.524,1.524h.024V66.8l-2.447.223a.755.755,0,0,0,.137,1.5l3.14-.286h0l.756-.069h.011a5.322,5.322,0,0,1,5.882,5.292V93.255h-11.2l1.347-7.569a5.824,5.824,0,0,0-5.118-6.83h-.016L9.558,77.172l.333-6.4L29.9,68.952a.755.755,0,0,0-.137-1.5L9.97,69.25l.007-.144a1.567,1.567,0,0,0-1.565-1.648H8.4v-.51a1.82,1.82,0,0,0-3.641,0v.51h-.2A1.567,1.567,0,0,0,3,69.105l.3,5.86a.755.755,0,1,0,1.508-.079l-.3-5.86a.057.057,0,0,1,.056-.059h3.85a.057.057,0,0,1,.056.059l-.614,11.8a.057.057,0,0,1-.056.054H5.176a.057.057,0,0,1-.056-.054l-.064-1.223a.755.755,0,1,0-1.508.079l.064,1.223A1.563,1.563,0,0,0,4.259,82.1v1.829a2.232,2.232,0,0,0,1.473,2.1v3.944a.755.755,0,0,0,1.511,0V86.023a2.232,2.232,0,0,0,1.473-2.1V82.1a1.563,1.563,0,0,0,.648-1.188l.116-2.229,19.767,1.678a4.314,4.314,0,0,1,3.782,5.06l-1.395,7.836H2.349A2.351,2.351,0,0,0,0,95.6v.68a2.351,2.351,0,0,0,2.349,2.349H47.881a2.351,2.351,0,0,0,2.349-2.349V95.6a2.351,2.351,0,0,0-2.349-2.349H45.876V77.419h1.508v3.609a2.842,2.842,0,1,0,5.684,0V69.471A2.845,2.845,0,0,0,50.225,66.629ZM36.859,64.25a.014.014,0,0,1-.014-.014V59a.014.014,0,0,1,.014-.014h1.559a.014.014,0,0,1,.014.014v5.232a.014.014,0,0,1-.014.014ZM6.894,67.457h-.62v-.51a.31.31,0,0,1,.62,0Zm.31,16.47a.718.718,0,0,1-1.435,0V82.4H7.2ZM47.881,94.765a.839.839,0,0,1,.838.838v.68a.839.839,0,0,1-.838.838H2.349a.839.839,0,0,1-.838-.838V95.6a.839.839,0,0,1,.838-.838Zm-.5-18.857H45.876V74.59h1.508Zm4.173,5.119a1.331,1.331,0,0,1-2.663,0V69.471a1.331,1.331,0,0,1,2.663,0Z" transform="translate(0 -57.48)" fill="#4598eb"/>
      </g>
    </g>
  </g>
</svg>
