<svg xmlns="http://www.w3.org/2000/svg" width="85" height="85" viewBox="0 0 85 85">
  <g id="Grupo_1103251" data-name="Grupo 1103251" transform="translate(-1335.05 -1193)">
    <g id="Grupo_1101762" data-name="Grupo 1101762" transform="translate(83.668 780.001)">
      <g id="Grupo_1098742" data-name="Grupo 1098742" transform="translate(1251.332 412.999)">
        <rect id="Rect치ngulo_400898" data-name="Rect치ngulo 400898" width="85" height="85" rx="42.5" transform="translate(0.051 0)" fill="#d2c3dd"/>
        <g id="Rect치ngulo_400907" data-name="Rect치ngulo 400907" transform="translate(0.051 0)" fill="none" stroke="#0f1f33" stroke-linecap="round" stroke-width="2" stroke-dasharray="7">
          <rect width="85" height="85" rx="42.5" stroke="none"/>
          <rect x="1" y="1" width="83" height="83" rx="41.5" fill="none"/>
        </g>
      </g>
      <g id="maquina-de-coser" transform="translate(1266.138 426.264)">
        <path id="Trazado_892624" data-name="Trazado 892624" d="M49.608,51.235a3.887,3.887,0,0,0-3.887-3.887H9.947A3.887,3.887,0,0,0,6.06,51.235v8.454H27.428a5.83,5.83,0,0,1,5.831,5.831V76.5H28.381v7.385H8.4V76.5H8a1.914,1.914,0,0,0-.96.255,1.943,1.943,0,0,0-.983,1.689V84.8A1.943,1.943,0,0,0,8,86.741H47.665A1.943,1.943,0,0,0,49.608,84.8Z" transform="translate(-2.014 -35.54)" fill="#eee"/>
        <path id="Trazado_892625" data-name="Trazado 892625" d="M172.451,82.439a3.766,3.766,0,1,1,3.766-3.766A3.77,3.77,0,0,1,172.451,82.439Z" transform="translate(-133.033 -57.742)" fill="#afafaf"/>
        <path id="Trazado_892626" data-name="Trazado 892626" d="M33.818,197.57v7.385a1.359,1.359,0,0,1-1.36,1.36H12.48a1.359,1.359,0,0,1-1.36-1.36v-7.131a1.914,1.914,0,0,1,.96-.255h.4v7.385H32.458V197.57Z" transform="translate(-6.091 -156.566)" fill="#afafaf"/>
        <path id="Trazado_892627" data-name="Trazado 892627" d="M17.82,111.07v3.693a1.944,1.944,0,0,1-1.944,1.944H8a1.944,1.944,0,0,1-1.944-1.944V111.07Z" transform="translate(-2.014 -86.877)" fill="#7d7b79"/>
        <path id="Trazado_892628" data-name="Trazado 892628" d="M6.06,111.07H17.82v1.36H6.06Z" transform="translate(-2.014 -86.877)" fill="#4c4944"/>
        <path id="Trazado_892629" data-name="Trazado 892629" d="M178.458,20.579H173.5V14.651a.583.583,0,0,1,.583-.583h3.79a.583.583,0,0,1,.583.583Z" transform="translate(-136.914 -8.728)" fill="#fc5d3d"/>
        <path id="Trazado_892630" data-name="Trazado 892630" d="M43.095,35.785H38.139V33.915a.972.972,0,0,1,.972-.972h3.012a.972.972,0,0,1,.972.972Z" transform="translate(-27.859 -23.934)" fill="#f0c020"/>
        <circle id="Elipse_11489" data-name="Elipse 11489" cx="2.406" cy="2.406" r="2.406" transform="translate(37.013 18.525)" fill="#71c1e8"/>
        <path id="Trazado_892631" data-name="Trazado 892631" d="M29.527,140.07v1.846a.972.972,0,0,1-.972.972H26.182a.972.972,0,0,1-.972-.972V140.07Z" transform="translate(-17.442 -110.241)" fill="#f0c020"/>
        <path id="Trazado_892632" data-name="Trazado 892632" d="M25.21,140.07h4.317v1.36H25.21Z" transform="translate(-17.442 -110.241)" fill="#e8a61e"/>
        <path id="Trazado_892633" data-name="Trazado 892633" d="M233.98,75.424v7.16a1.944,1.944,0,0,1-1.944,1.944H230.13V73.48h1.907A1.944,1.944,0,0,1,233.98,75.424Z" transform="translate(-182.536 -56.593)" fill="#f0c020"/>
        <path id="Trazado_892634" data-name="Trazado 892634" d="M230.13,73.48h1.36V84.527h-1.36Z" transform="translate(-182.536 -56.593)" fill="#e8a61e"/>
        <path id="Trazado_892635" data-name="Trazado 892635" d="M38.1,192.542v7.58H18.12v-7.58a.972.972,0,0,1,.972-.972H37.126A.972.972,0,0,1,38.1,192.542Z" transform="translate(-11.73 -151.732)" fill="#fc5d3d"/>
        <path id="Trazado_892636" data-name="Trazado 892636" d="M63.632,153.023c-.716-.237-1.455-.443-1.87-2.231-.382,1.647-.995,1.942-1.87,2.231a2.484,2.484,0,0,1,1.87,2.231C62.153,153.568,62.8,153.3,63.632,153.023Z" transform="translate(-45.384 -118.879)" fill="#f0c020"/>
        <path id="Trazado_892637" data-name="Trazado 892637" d="M59.305,153.428c-.207-.894-.344-1.484-1.553-1.883a.481.481,0,0,1,0-.913c.727-.24,1.208-.4,1.553-1.884a.481.481,0,0,1,.936,0c.352,1.518.879,1.661,1.553,1.883a.481.481,0,0,1,0,.913c-.7.232-1.208.4-1.553,1.883A.481.481,0,0,1,59.305,153.428Zm-.275-2.329a2.5,2.5,0,0,1,.753.8,2.378,2.378,0,0,1,.711-.8,2.454,2.454,0,0,1-.719-.832A2.382,2.382,0,0,1,59.031,151.1Z" transform="translate(-43.395 -116.934)"/>
        <path id="Trazado_892638" data-name="Trazado 892638" d="M61.764,91.547a.486.486,0,0,1-.486-.486v-.583a.486.486,0,0,1,.972,0v.583A.486.486,0,0,1,61.764,91.547Zm0-2.527a.486.486,0,0,1-.486-.486V57.5a1.459,1.459,0,0,0-1.458-1.458H24.047a.486.486,0,1,1,0-.972H59.82A2.432,2.432,0,0,1,62.25,57.5V88.535A.486.486,0,0,1,61.764,89.02Z" transform="translate(-16.114 -41.76)" fill="#fff"/>
        <path id="Trazado_892639" data-name="Trazado 892639" d="M108.9,204.706a.486.486,0,0,1-.486-.486v-2.138a.486.486,0,0,1,.972,0v2.138A.486.486,0,0,1,108.9,204.706Zm0-4.081a.486.486,0,0,1-.486-.486v-.583a.486.486,0,0,1,.972,0v.583A.486.486,0,0,1,108.9,200.625Z" transform="translate(-84.472 -157.774)" fill="#ffcbc3"/>
        <path id="Trazado_892640" data-name="Trazado 892640" d="M21.919,123.651H16.573a.486.486,0,0,1,0-.972h4.86v-.693a.486.486,0,1,1,.972,0v1.179A.486.486,0,0,1,21.919,123.651Zm-7.289,0h-.583a.486.486,0,0,1,0-.972h.583a.486.486,0,0,1,0,.972Z" transform="translate(-8.057 -95.28)" fill="#efefef"/>
        <path id="Trazado_892641" data-name="Trazado 892641" d="M167.754,140.352h-.923v-.923a.486.486,0,1,0-.972,0v.923h-.923a.486.486,0,0,0,0,.972h.923v3.11a.486.486,0,0,0,.972,0v-3.11h.923a.486.486,0,1,0,0-.972Z" transform="translate(-129.621 -109.333)"/>
        <path id="Trazado_892642" data-name="Trazado 892642" d="M195.483,142.538h-.923v-3.11a.486.486,0,1,0-.972,0v3.11h-.923a.486.486,0,0,0,0,.972h.923v.923a.486.486,0,0,0,.972,0v-.923h.923a.486.486,0,0,0,0-.972Z" transform="translate(-151.961 -109.333)"/>
        <path id="Trazado_892643" data-name="Trazado 892643" d="M34.3,207.068a.486.486,0,0,0-.486.486v1.555a.486.486,0,0,0,.972,0v-1.555A.486.486,0,0,0,34.3,207.068Z" transform="translate(-24.374 -164.218)"/>
        <path id="Trazado_892644" data-name="Trazado 892644" d="M186.05,67.542a.486.486,0,0,0,.486-.486v-.4a.486.486,0,1,0-.972,0v.4A.486.486,0,0,0,186.05,67.542Z" transform="translate(-146.631 -50.701)"/>
        <path id="Trazado_892645" data-name="Trazado 892645" d="M186.05,115.33a.486.486,0,0,0-.486.486v.4a.486.486,0,1,0,.972,0v-.4A.486.486,0,0,0,186.05,115.33Z" transform="translate(-146.631 -90.309)"/>
        <path id="Trazado_892646" data-name="Trazado 892646" d="M202.7,74.927a.484.484,0,0,0,.344-.142l.285-.285a.486.486,0,1,0-.687-.687l-.285.285a.486.486,0,0,0,.344.829Z" transform="translate(-160.045 -56.746)"/>
        <path id="Trazado_892647" data-name="Trazado 892647" d="M168.279,109.548l.285-.285a.486.486,0,1,0-.687-.687l-.285.285a.486.486,0,0,0,.687.687Z" transform="translate(-132.037 -84.753)"/>
        <path id="Trazado_892648" data-name="Trazado 892648" d="M209.6,92.757h.4a.486.486,0,0,0,0-.972h-.4a.486.486,0,1,0,0,.972Z" transform="translate(-165.601 -71.34)"/>
        <path id="Trazado_892649" data-name="Trazado 892649" d="M160.432,92.757h.4a.486.486,0,0,0,0-.972h-.4a.486.486,0,1,0,0,.972Z" transform="translate(-125.992 -71.34)"/>
        <path id="Trazado_892650" data-name="Trazado 892650" d="M202.984,109.691a.486.486,0,0,0,.344-.829l-.285-.285a.486.486,0,0,0-.687.687l.285.285A.484.484,0,0,0,202.984,109.691Z" transform="translate(-160.045 -84.754)"/>
        <path id="Trazado_892651" data-name="Trazado 892651" d="M167.876,74.784a.486.486,0,1,0,.687-.687l-.285-.285a.486.486,0,0,0-.687.687Z" transform="translate(-132.036 -56.745)"/>
        <path id="Trazado_892652" data-name="Trazado 892652" d="M40.126,78.26H34.3a.486.486,0,0,0,0,.972h5.831a.486.486,0,0,0,0-.972Z" transform="translate(-24.371 -60.444)"/>
        <circle id="Elipse_11490" data-name="Elipse 11490" cx="0.486" cy="0.486" r="0.486" transform="translate(17.213 17.816)"/>
        <path id="Trazado_892653" data-name="Trazado 892653" d="M93.747,78.26H84.3a.486.486,0,1,0,0,.972h9.451a.486.486,0,0,0,0-.972Z" transform="translate(-64.653 -60.444)"/>
        <path id="Trazado_892654" data-name="Trazado 892654" d="M176.077,85.19a2.892,2.892,0,1,0-2.892-2.892A2.895,2.895,0,0,0,176.077,85.19Zm-.486-4.747v.9a.486.486,0,1,0,.972,0v-.9a1.92,1.92,0,1,1-.972,0Z" transform="translate(-136.658 -61.368)"/>
        <circle id="Elipse_11491" data-name="Elipse 11491" cx="0.486" cy="0.486" r="0.486" transform="translate(20.743 39.352)"/>
        <circle id="Elipse_11492" data-name="Elipse 11492" cx="0.486" cy="0.486" r="0.486" transform="translate(50.958 22.232)"/>
        <path id="Trazado_892655" data-name="Trazado 892655" d="M51.93,18.831A2.433,2.433,0,0,0,49.5,16.4H48.079v-.663a4.378,4.378,0,0,0-4.373-4.373H42.03V5.923a1.07,1.07,0,0,0-1.069-1.069h-.17V3.721a.486.486,0,0,0-.486-.486H37.828a.486.486,0,0,0-.486.486V4.855h-.17A1.07,1.07,0,0,0,36.1,5.923V7.038H13.244v-1a.486.486,0,1,0-.972,0V8.523h-1.02A1.459,1.459,0,0,0,9.795,9.981v1.385H7.933A4.378,4.378,0,0,0,3.56,15.738v8.454h0v3.693a2.432,2.432,0,0,0,2.429,2.429H7.282v1.36a1.459,1.459,0,0,0,1.458,1.458h.7V37.02a.486.486,0,0,0,.972,0v-.875h.655a.486.486,0,1,0,0-.972h-.655v-2.04h.7a1.459,1.459,0,0,0,1.458-1.458v-1.36h1.292a2.432,2.432,0,0,0,2.429-2.429V24.678h9.121a5.351,5.351,0,0,1,5.345,5.345v10.5H26.824A1.461,1.461,0,0,0,25.4,39.352H23.172a.486.486,0,0,0,0,.972H25.4a.487.487,0,0,1,.486.486V47.9H10.412V46.835a.486.486,0,1,0-.972,0V47.9H6.876V40.81a.487.487,0,0,1,.486-.486H9.44v1.069a.486.486,0,0,0,.972,0V40.324h8.873a.486.486,0,1,0,0-.972H7.362a1.462,1.462,0,0,0-1.429,1.17A2.427,2.427,0,0,0,3.56,42.948V49.3a2.432,2.432,0,0,0,2.429,2.429H45.651A2.432,2.432,0,0,0,48.08,49.3c0-4.775,0-9.016,0-20.881H49.5a2.433,2.433,0,0,0,2.429-2.429V24.661a.486.486,0,1,0-.972,0v1.329A1.463,1.463,0,0,1,49.5,27.448H48.08V17.373H49.5a1.463,1.463,0,0,1,1.458,1.458v1.944a.486.486,0,1,0,.972,0ZM38.313,4.207H39.82v.648H38.313Zm-1.239,5.882h1.992a.486.486,0,0,0,0-.972H37.074V5.923a.1.1,0,0,1,.1-.1h3.79a.1.1,0,0,1,.1.1v.829H39.066a.486.486,0,0,0,0,.972h1.992v3.641H37.074ZM13.244,8.01H36.1v3.355H15.722V9.981a1.459,1.459,0,0,0-1.458-1.458h-1.02Zm-2.478,1.97a.487.487,0,0,1,.486-.486h3.012a.487.487,0,0,1,.486.486v1.385H10.766ZM11.6,31.675a.487.487,0,0,1-.486.486H8.739a.487.487,0,0,1-.486-.486v-1.36H11.6Zm3.722-3.79a1.459,1.459,0,0,1-1.458,1.458H5.989a1.459,1.459,0,0,1-1.458-1.458V24.679H15.32Zm10.093-4.179H4.532V15.738a3.405,3.405,0,0,1,3.4-3.4H43.707a3.405,3.405,0,0,1,3.4,3.4v24.78H31.73V30.023a6.324,6.324,0,0,0-6.317-6.316ZM47.108,49.3a1.459,1.459,0,0,1-1.458,1.458H5.989A1.459,1.459,0,0,1,4.532,49.3V42.948A1.462,1.462,0,0,1,5.9,41.492v6.9a.491.491,0,0,0,.486.486c.076,0,19.93,0,20.006,0a.481.481,0,0,0,.457-.483v-6.9H47.108Z"/>
        <path id="Trazado_892656" data-name="Trazado 892656" d="M177.8,220.413a.486.486,0,0,0,.486-.486v-1.056a.486.486,0,1,0-.972,0v1.056A.486.486,0,0,0,177.8,220.413Z" transform="translate(-139.985 -173.336)"/>
        <path id="Trazado_892657" data-name="Trazado 892657" d="M186.05,220.413a.486.486,0,0,0,.486-.486v-1.056a.486.486,0,1,0-.972,0v1.056A.486.486,0,0,0,186.05,220.413Z" transform="translate(-146.631 -173.336)"/>
        <path id="Trazado_892658" data-name="Trazado 892658" d="M194.3,220.413a.486.486,0,0,0,.486-.486v-1.056a.486.486,0,1,0-.972,0v1.056A.486.486,0,0,0,194.3,220.413Z" transform="translate(-153.278 -173.336)"/>
      </g>
    </g>
  </g>
</svg>
