<svg xmlns="http://www.w3.org/2000/svg" width="400" height="223.038" viewBox="0 0 400 223.038">
  <g id="Grupo_1102167" data-name="Grupo 1102167" transform="translate(-1020.051 -1728.481)">
    <rect id="_2148614698" data-name="2148614698" width="400" height="125" rx="10" transform="translate(1020.051 1826)" fill="#e6efbf"/>
    <g id="Seamstress-bro" transform="translate(1033.446 1580.908)">
      <g id="freepik--Table--inject-6" transform="translate(19.088 358.451)">
        <line id="Línea_569" data-name="Línea 569" x2="338.491" fill="none" stroke="#263238" stroke-linecap="round" stroke-linejoin="round" stroke-width="1"/>
      </g>
      <g id="freepik--Plant--inject-6" transform="translate(15.63 295.028)">
        <path id="Trazado_893280" data-name="Trazado 893280" d="M35.167,372.2a18.059,18.059,0,0,0-2.038-7.476c-1.869-3.061-8.661-5.269-12.23-3.738a49.226,49.226,0,0,0-5.269,2.546,40.061,40.061,0,0,1,10.022,4.761,25.269,25.269,0,0,0,9.515,3.907Z" transform="translate(-15.63 -351.128)" fill="#916aab" stroke="#263238" stroke-linecap="round" stroke-linejoin="round" stroke-width="1"/>
        <path id="Trazado_893281" data-name="Trazado 893281" d="M50.144,371.045A17.461,17.461,0,0,1,45.39,361.7c-.677-5.438,5.1-13.93,5.1-13.93a60.591,60.591,0,0,1,4.584,11.384C56.774,365.268,50.144,371.045,50.144,371.045Z" transform="translate(-23.477 -347.77)" fill="#916aab" stroke="#263238" stroke-linecap="round" stroke-linejoin="round" stroke-width="1"/>
        <path id="Trazado_893282" data-name="Trazado 893282" d="M62.391,372.978s-1.015-5.1.854-8.661,6.792-3.23,11.715-1.7,6.461,1.531,6.461,1.531a73.273,73.273,0,0,1-10.707,5.946,65.617,65.617,0,0,1-8.322,2.884Z" transform="translate(-27.909 -351.403)" fill="#916aab" stroke="#263238" stroke-linecap="round" stroke-linejoin="round" stroke-width="1"/>
        <path id="Trazado_893283" data-name="Trazado 893283" d="M51.782,392.966a.441.441,0,0,1-.442-.441V368.241a.441.441,0,0,1,.442-.441.434.434,0,0,1,.434.441v24.283a.434.434,0,0,1-.434.441Z" transform="translate(-25.063 -353.061)" fill="#263238"/>
        <path id="Trazado_893284" data-name="Trazado 893284" d="M54.551,393.522h-.066a.449.449,0,0,1-.375-.493c.088-.611,2.141-15,9.11-23a.442.442,0,0,1,.662.581c-6.8,7.793-8.882,22.384-8.9,22.532a.441.441,0,0,1-.434.375Z" transform="translate(-25.793 -353.617)" fill="#263238"/>
        <path id="Trazado_893285" data-name="Trazado 893285" d="M46.037,393.694h0a.434.434,0,0,1-.434-.442c0-.14.066-13.981-8.161-20.545a.442.442,0,0,1,.552-.684c8.558,6.851,8.492,20.655,8.484,21.237a.434.434,0,0,1-.442.434Z" transform="translate(-21.356 -354.157)" fill="#263238"/>
        <path id="Trazado_893286" data-name="Trazado 893286" d="M58.242,398.033a.323.323,0,0,1-.118,0,.442.442,0,0,1-.309-.537,28.464,28.464,0,0,1,3.974-8.3.449.449,0,0,1,.618-.1.441.441,0,0,1,.1.618,27.963,27.963,0,0,0-3.819,7.991A.434.434,0,0,1,58.242,398.033Z" transform="translate(-26.769 -358.665)" fill="#263238"/>
        <path id="Trazado_893287" data-name="Trazado 893287" d="M62,390.085s-.169-4.754,1.869-5.431,3.907,1.015,5.438,2.038,3.223,2.038,3.223,5.092a57.637,57.637,0,0,1-1.185,8.668s-1.7-5.269-4.592-7.645S62,390.085,62,390.085Z" transform="translate(-27.877 -357.472)" fill="#916aab" stroke="#263238" stroke-linecap="round" stroke-linejoin="round" stroke-width="1"/>
        <path id="Trazado_893288" data-name="Trazado 893288" d="M43.2,398.747a.442.442,0,0,1-.419-.3,15.565,15.565,0,0,0-4.415-6.586.434.434,0,0,1-.074-.618.449.449,0,0,1,.618-.074,16.309,16.309,0,0,1,4.732,7.005.442.442,0,0,1-.287.552Z" transform="translate(-21.591 -359.209)" fill="#263238"/>
        <path id="Trazado_893289" data-name="Trazado 893289" d="M37.24,391.77a7.075,7.075,0,0,0-1.023-5.276c-1.7-2.208-5.776-1.7-7.815.677s-4.923,9.515-4.923,9.515,4.077-3.23,8.83-3.23S37.24,391.77,37.24,391.77Z" transform="translate(-17.704 -357.627)" fill="#916aab" stroke="#263238" stroke-linecap="round" stroke-linejoin="round" stroke-width="1"/>
        <path id="Trazado_893290" data-name="Trazado 893290" d="M53.272,428.841H39.717L32.94,406.42H60.049Z" transform="translate(-20.202 -363.262)" fill="#fff" stroke="#263238" stroke-linecap="round" stroke-linejoin="round" stroke-width="1"/>
        <rect id="Rectángulo_402198" data-name="Rectángulo 402198" width="27.263" height="3.716" transform="translate(12.657 39.442)" fill="#fff" stroke="#263238" stroke-linecap="round" stroke-linejoin="round" stroke-width="1"/>
      </g>
      <g id="freepik--Threads--inject-6" transform="translate(292.95 320.01)">
        <rect id="Rectángulo_402199" data-name="Rectángulo 402199" width="6.372" height="3.687" transform="translate(25.931)" fill="#fff" stroke="#263238" stroke-linecap="round" stroke-linejoin="round" stroke-width="1"/>
        <path id="Trazado_893291" data-name="Trazado 893291" d="M439.794,423.281H415.71l5.7-37.911h12.679Z" transform="translate(-398.631 -382.684)" fill="#858585" stroke="#263238" stroke-linecap="round" stroke-linejoin="round" stroke-width="1"/>
        <line id="Línea_570" data-name="Línea 570" y1="6.211" x2="11.656" transform="translate(22.009 2.737)" fill="none" stroke="#263238" stroke-linecap="round" stroke-linejoin="round" stroke-width="1"/>
        <line id="Línea_571" data-name="Línea 571" y1="6.203" x2="11.656" transform="translate(22.009 5.909)" fill="none" stroke="#263238" stroke-linecap="round" stroke-linejoin="round" stroke-width="1"/>
        <line id="Línea_572" data-name="Línea 572" x1="11.788" y2="6.593" transform="translate(24.415 9.198)" fill="none" stroke="#263238" stroke-linecap="round" stroke-linejoin="round" stroke-width="1"/>
        <line id="Línea_573" data-name="Línea 573" y1="2.031" x2="4.055" transform="translate(24.04 17.815)" fill="none" stroke="#263238" stroke-linecap="round" stroke-linejoin="round" stroke-width="1"/>
        <line id="Línea_574" data-name="Línea 574" x1="16.983" y2="8.874" transform="translate(21.502 24.025)" fill="none" stroke="#263238" stroke-linecap="round" stroke-linejoin="round" stroke-width="1"/>
        <line id="Línea_575" data-name="Línea 575" y1="7.101" x2="13.562" transform="translate(23.275 29.221)" fill="none" stroke="#263238" stroke-linecap="round" stroke-linejoin="round" stroke-width="1"/>
        <line id="Línea_576" data-name="Línea 576" x1="3.297" y2="1.898" transform="translate(18.462 36.954)" fill="none" stroke="#263238" stroke-linecap="round" stroke-linejoin="round" stroke-width="1"/>
        <line id="Línea_577" data-name="Línea 577" x1="8.742" y2="4.562" transform="translate(31.009 34.165)" fill="none" stroke="#263238" stroke-linecap="round" stroke-linejoin="round" stroke-width="1"/>
        <rect id="Rectángulo_402200" data-name="Rectángulo 402200" width="6.372" height="3.687" transform="translate(8.852)" fill="#fff" stroke="#263238" stroke-linecap="round" stroke-linejoin="round" stroke-width="1"/>
        <path id="Trazado_893292" data-name="Trazado 893292" d="M416.577,423.281H392.5l5.7-37.911h12.686Z" transform="translate(-392.5 -382.684)" fill="#fff" stroke="#263238" stroke-linecap="round" stroke-linejoin="round" stroke-width="1"/>
        <line id="Línea_578" data-name="Línea 578" y1="6.211" x2="11.656" transform="translate(4.93 2.737)" fill="none" stroke="#263238" stroke-linecap="round" stroke-linejoin="round" stroke-width="1"/>
        <line id="Línea_579" data-name="Línea 579" y1="6.203" x2="11.656" transform="translate(4.93 5.909)" fill="none" stroke="#263238" stroke-linecap="round" stroke-linejoin="round" stroke-width="1"/>
        <line id="Línea_580" data-name="Línea 580" x1="11.781" y2="6.593" transform="translate(7.336 9.198)" fill="none" stroke="#263238" stroke-linecap="round" stroke-linejoin="round" stroke-width="1"/>
        <line id="Línea_581" data-name="Línea 581" y1="2.031" x2="4.055" transform="translate(6.954 17.815)" fill="none" stroke="#263238" stroke-linecap="round" stroke-linejoin="round" stroke-width="1"/>
        <line id="Línea_582" data-name="Línea 582" x1="16.976" y2="8.874" transform="translate(4.422 24.025)" fill="none" stroke="#263238" stroke-linecap="round" stroke-linejoin="round" stroke-width="1"/>
        <line id="Línea_583" data-name="Línea 583" y1="7.101" x2="13.554" transform="translate(6.196 29.221)" fill="none" stroke="#263238" stroke-linecap="round" stroke-linejoin="round" stroke-width="1"/>
        <line id="Línea_584" data-name="Línea 584" x1="3.297" y2="1.898" transform="translate(1.376 36.954)" fill="none" stroke="#263238" stroke-linecap="round" stroke-linejoin="round" stroke-width="1"/>
        <line id="Línea_585" data-name="Línea 585" x1="8.742" y2="4.562" transform="translate(13.922 34.165)" fill="none" stroke="#263238" stroke-linecap="round" stroke-linejoin="round" stroke-width="1"/>
      </g>
      <g id="freepik--Character--inject-6" transform="translate(73.055 148.105)">
        <path id="Trazado_893293" data-name="Trazado 893293" d="M243.538,257.46s-29.184,5.637-37.035,7.6-10.795,7.852-13.488,14.474S171.182,328.1,170.2,330.552s5.151,3.922,12.752,6.623,12.016,5.644,14.224,2.7,7.852-14.231,7.852-14.231l-2.45,61.583H293.09l-3.929-64.262s3.436-50.038,3.194-52-30.17-13.738-33.363-13.981S243.538,257.46,243.538,257.46Z" transform="translate(-113.859 -176.852)" fill="#916aab"/>
        <g id="Grupo_1102165" data-name="Grupo 1102165" transform="translate(61.827 90.579)" opacity="0.4">
          <path id="Trazado_893294" data-name="Trazado 893294" d="M215.867,391.62l-.147,3.768a314.148,314.148,0,0,0,87.831,1.369l-.228-3.679a308.488,308.488,0,0,1-87.456-1.457Z" transform="translate(-187.736 -303.009)" fill="#fff"/>
          <path id="Trazado_893295" data-name="Trazado 893295" d="M287.614,308.207c-1.714,1.516-17.41,14.975-35.593,16.189-19.257,1.273-35.968-8.536-36.057-8.595l-22.031-14.32c-.486,1.089-.993,2.208-1.523,3.4l21.612,14.047c.736.427,17.837,10.478,38.264,9.139s37.286-16.623,37.992-17.27a1.8,1.8,0,0,0,.287-.339,67.13,67.13,0,0,1,6.578-8.057c.118-1.9.235-3.76.346-5.541A70.145,70.145,0,0,0,287.614,308.207Z" transform="translate(-181.578 -277.978)" fill="#fff"/>
          <path id="Trazado_893296" data-name="Trazado 893296" d="M179.206,335.76l-1.516,3.355,27.035,11.869c.677-1.3,1.266-2.458,1.685-3.275Z" transform="translate(-177.69 -288.254)" fill="#fff"/>
          <path id="Trazado_893297" data-name="Trazado 893297" d="M201.8,282.3c9.625,4.945,36.991,18.691,45.733,19.537s38.066-19.529,50.906-28.794c-.993-.545-2.266-1.17-3.731-1.847-17.329,12.392-40.8,27.558-46.822,26.976-7.2-.692-30.722-12.075-44.57-19.228C202.779,280.03,202.278,281.149,201.8,282.3Z" transform="translate(-184.059 -271.2)" fill="#fff"/>
          <path id="Trazado_893298" data-name="Trazado 893298" d="M217.685,353.69c1.251.383,30.906,9.3,53.717,6.623,19.544-2.266,28.058-8.83,30.427-11.1l-.235-3.856s.088-1.3.243-3.481a14.032,14.032,0,0,0-2.347,4.5c-1.472,1.472-9.286,8.094-28.477,10.3-21.428,2.48-50.222-5.887-52.157-6.483l-1.42-.625-.155,3.944.2.1Z" transform="translate(-188.148 -289.87)" fill="#fff"/>
          <path id="Trazado_893299" data-name="Trazado 893299" d="M237.436,312.161c15.894,2.7,35.188-6.527,47.264-16.873,4.334-3.716,9.691-7.785,14.665-11.4.1-1.9.184-3.5.235-4.709-5.659,4.055-12.171,8.919-17.292,13.312-11.42,9.794-29.537,18.551-44.254,16.042-11.972-2.038-31.531-15.4-38.809-20.6-.427.979-.935,2.141-1.516,3.451C205.648,297.024,224.92,310.034,237.436,312.161Z" transform="translate(-182.984 -273.308)" fill="#fff"/>
          <path id="Trazado_893300" data-name="Trazado 893300" d="M304.253,417.959l-.228-3.679c-18.83.971-56.278,2.281-89.038-.39l-.147,3.679c14.533,1.177,29.949,1.589,44.276,1.589C277.292,419.159,293.694,418.5,304.253,417.959Z" transform="translate(-187.503 -308.892)" fill="#fff"/>
          <path id="Trazado_893301" data-name="Trazado 893301" d="M229.24,378.423c22.34,3.23,63.813.044,73.71-.795l-.662-10.9a9.991,9.991,0,0,0-.434.986,1.788,1.788,0,0,0-.1.979l.957,5.254c-9.566.8-51.237,3.974-72.952.831-4.3-.625-8.779-1.391-13.245-2.207l-.147,3.716C220.712,377.076,225.046,377.812,229.24,378.423Z" transform="translate(-187.907 -296.434)" fill="#fff"/>
          <path id="Trazado_893302" data-name="Trazado 893302" d="M209.847,335.306c1.472.868,22.134,13.069,44.247,10.427,22.429-2.671,37.33-17.344,37.955-17.969a1.472,1.472,0,0,0,.375-.552,9.154,9.154,0,0,1,1.7-2q.166-2.461.339-5.151c-3.436,2.62-4.746,4.415-5.217,5.261-1.81,1.714-15.8,14.371-35.586,16.733-21.148,2.531-41.745-9.824-41.943-9.949l-.1-.059L186.786,319c-.508,1.111-1.015,2.208-1.516,3.355Z" transform="translate(-179.692 -283.826)" fill="#fff"/>
        </g>
        <line id="Línea_586" data-name="Línea 586" y1="29.508" x2="6.122" transform="translate(91.172 119.285)" fill="#fff" stroke="#263238" stroke-linecap="round" stroke-linejoin="round" stroke-width="1"/>
        <path id="Trazado_893303" data-name="Trazado 893303" d="M211.93,267.632c8.83,6.159,34.585,23.827,39.471,23.422,4.474-.368,24.835-19.456,34.335-28.588-7.226-2.885-14.239-5.394-15.7-5.5-3.186-.243-15.453.493-15.453.493s-29.184,5.637-37.035,7.6A15.982,15.982,0,0,0,211.93,267.632Z" transform="translate(-124.908 -176.847)" fill="#fff" stroke="#263238" stroke-linecap="round" stroke-linejoin="round" stroke-width="1"/>
        <path id="Trazado_893304" data-name="Trazado 893304" d="M243.538,257.46s-29.184,5.637-37.035,7.6-10.795,7.852-13.488,14.474S171.182,328.1,170.2,330.552s5.151,3.922,12.752,6.623,12.016,5.644,14.224,2.7,7.852-14.231,7.852-14.231l-2.45,61.583H293.09l-3.929-64.262s3.436-50.038,3.194-52-30.17-13.738-33.363-13.981S243.538,257.46,243.538,257.46Z" transform="translate(-113.859 -176.852)" fill="none" stroke="#263238" stroke-linecap="round" stroke-linejoin="round" stroke-width="1"/>
        <path id="Trazado_893305" data-name="Trazado 893305" d="M297.686,259s-.736,14.474-3.929,35.814-3.186,20.354-3.186,30.17,2.45,41.208,2.45,41.208h3.929s-3.194-33.113-2.943-41.7,2.208-25.755,4.415-33.356,2.943-30.17,2.943-30.17Z" transform="translate(-145.681 -177.398)" fill="#fff" stroke="#263238" stroke-linecap="round" stroke-linejoin="round" stroke-width="1"/>
        <path id="Trazado_893306" data-name="Trazado 893306" d="M256.595,259.36l-5.224,1.207a143.021,143.021,0,0,0-1.222,27.962c.986,13.738,2.45,17.9,2.45,17.9s1.229-33.356,2.208-39.486S256.595,259.36,256.595,259.36Z" transform="translate(-134.937 -177.493)" fill="#fff" stroke="#263238" stroke-linecap="round" stroke-linejoin="round" stroke-width="1"/>
        <path id="Trazado_893307" data-name="Trazado 893307" d="M253.042,323.31s.493,15.453-.493,31.642-.979,30.42-.979,30.42l4.415.243s-.493-18.639-.493-34.342A158.587,158.587,0,0,0,253.042,323.31Z" transform="translate(-135.379 -194.386)" fill="#fff" stroke="#263238" stroke-linecap="round" stroke-linejoin="round" stroke-width="1"/>
        <path id="Trazado_893308" data-name="Trazado 893308" d="M262.9,269.756l.736-24.776h25.512l-.493,22.569" transform="translate(-138.372 -173.695)" fill="#fff" stroke="#263238" stroke-linecap="round" stroke-linejoin="round" stroke-width="1"/>
        <path id="Trazado_893309" data-name="Trazado 893309" d="M289.082,251.77l-6.2-6.77H263.747l-.537,18.117c1.428.559,4.82,1.332,10.721-.39,7.616-2.208,14.342-9.787,15.173-10.751Z" transform="translate(-138.454 -173.7)" fill="#263238" stroke="#263238" stroke-linecap="round" stroke-linejoin="round" stroke-width="1"/>
        <path id="Trazado_893310" data-name="Trazado 893310" d="M240.641,158.926c-5.107,5.107-9.389,12.178-9.6,18.4-.258,7.322-4.54,17.66-6.814,18.669a10.919,10.919,0,0,0-3.024,1.766s4.79,2.274,6.807,2.016a15.733,15.733,0,0,0,3.79-.971,37.093,37.093,0,0,1-2.524,3.032l-1.008,1.008,4.032,1.008a21.03,21.03,0,0,1-4.79,2.266,14.9,14.9,0,0,1-3.282.508,7.653,7.653,0,0,0,5.806,6.056,22.385,22.385,0,0,0,9.331.736l-3.024,3.046s.736.736,5.8,1.008,7.565-1.258,7.565-1.258l31.031-1.266s.736,2.524,4.29,3.782,5.3,1.766,5.3,1.766-.508-2.016-.736-3.024-.736-5.048-.736-5.048,1.766,4.54,10.089,4.8,11.1-4.54,11.1-4.54a6.7,6.7,0,0,1-5.092-2.84,14.443,14.443,0,0,1-2.274-3.79,15.508,15.508,0,0,0,5.806,1.015,9.213,9.213,0,0,0,4.54-2.024s-9.838-7.064-10.346-11.855-1.766-23.459-5.3-29.765-9.566-12.1-25.225-14.886c-8.455-1.472-17.337.979-24.725,5.092A31.561,31.561,0,0,0,240.641,158.926Z" transform="translate(-127.357 -148.105)" fill="#263238" stroke="#263238" stroke-linecap="round" stroke-linejoin="round" stroke-width="1"/>
        <path id="Trazado_893311" data-name="Trazado 893311" d="M288.527,194.07a82.786,82.786,0,0,1-38.4,16.652s.066,14.842,8.094,24.754c8.7,10.765,14.04,10.854,16.277,10.677,6.085-.478,18.492-14.849,19.044-17.351a130.29,130.29,0,0,0,1.376-18.08C294.921,204.615,287.688,200.465,288.527,194.07Z" transform="translate(-134.999 -160.247)" fill="#fff" stroke="#263238" stroke-linecap="round" stroke-linejoin="round" stroke-width="1"/>
        <path id="Trazado_893312" data-name="Trazado 893312" d="M243.367,215.347a.787.787,0,0,1,0-1.575c30.825-.854,41.907-17.925,42.017-18.1a.787.787,0,0,1,1.325.839c-.456.736-11.575,17.955-43.3,18.838Z" transform="translate(-133.004 -160.589)" fill="#263238"/>
        <path id="Trazado_893313" data-name="Trazado 893313" d="M262.73,228.78a14.164,14.164,0,0,0,5.372,0" transform="translate(-138.327 -169.415)" fill="none" stroke="#263238" stroke-linecap="round" stroke-linejoin="round" stroke-width="1"/>
        <path id="Trazado_893314" data-name="Trazado 893314" d="M293.42,228.352a15.034,15.034,0,0,0,6.2-.132" transform="translate(-146.434 -169.267)" fill="none" stroke="#263238" stroke-linecap="round" stroke-linejoin="round" stroke-width="1"/>
        <path id="Trazado_893315" data-name="Trazado 893315" d="M297.2,224.858c0,1.222-.493,2.208-1.111,2.208s-1.1-.993-1.1-2.208.493-2.208,1.1-2.208S297.2,223.643,297.2,224.858Z" transform="translate(-146.848 -167.796)" fill="#263238"/>
        <path id="Trazado_893316" data-name="Trazado 893316" d="M295.572,220.38c-.449-.861-1.472-1.413-3.12-1.641-2.583-.361-16.586.574-17.182.611l-.243.051a3.472,3.472,0,0,0-.434.221v-.074h-4.364v.074a3.461,3.461,0,0,0-.434-.221l-.243-.051c-.6-.037-14.6-.979-17.182-.611-1.619.228-2.671.78-3.12,1.641a2.149,2.149,0,0,0,0,2.016c.059.125.132.331.228.6.809,2.281,2.943,8.345,10.552,8.639h1c7.587,0,9.441-3.584,10.574-6.976a7.025,7.025,0,0,0,.213-.839h1.126a7.019,7.019,0,0,0,.213.839c1.133,3.392,2.98,6.976,10.574,6.976h1c7.594-.294,9.743-6.358,10.552-8.639.1-.272.169-.478.228-.6A2.149,2.149,0,0,0,295.572,220.38Zm-23.959.817h1.6a3.387,3.387,0,0,0-.294,1h-1.008a3.386,3.386,0,0,0-.294-1.008Zm-1.538,2.943c-1.119,3.355-2.634,6.1-9.949,5.835-6.476-.25-8.293-5.364-9.073-7.55-.125-.353-.221-.625-.3-.787a.574.574,0,0,1-.044-.515c.066-.125.4-.567,1.9-.78a16.62,16.62,0,0,1,1.781-.066c3.753,0,11.516.456,14.9.684.383.213,1.508,1.015.787,3.194Zm24-2.5c-.081.162-.177.434-.3.787-.78,2.208-2.6,7.3-9.073,7.55-7.307.272-8.83-2.48-9.949-5.835-.736-2.208.4-2.943.787-3.179,4.113-.272,14.717-.9,16.682-.618,1.472.213,1.832.655,1.9.78a.552.552,0,0,1-.044.53Z" transform="translate(-134.7 -166.741)" fill="#fff" stroke="#263238" stroke-linecap="round" stroke-linejoin="round" stroke-width="1"/>
        <path id="Trazado_893317" data-name="Trazado 893317" d="M274.92,239.351s2.664,2.075,4.584,1.928a5.984,5.984,0,0,0,4.29-2.369" transform="translate(-141.547 -172.091)" fill="none" stroke="#263238" stroke-linecap="round" stroke-linejoin="round" stroke-width="1"/>
        <path id="Trazado_893318" data-name="Trazado 893318" d="M272.11,244.387s1.082,3.547,7.69,3.252c4.68-.213,5.769-3.679,5.769-3.679" transform="translate(-140.805 -173.425)" fill="none" stroke="#263238" stroke-linecap="round" stroke-linejoin="round" stroke-width="1"/>
        <path id="Trazado_893319" data-name="Trazado 893319" d="M288,216.19s4.871-2.649,8.72-2.208,5.467,1.773,5.467,1.773" transform="translate(-145.002 -165.493)" fill="none" stroke="#263238" stroke-linecap="round" stroke-linejoin="round" stroke-width="2"/>
        <path id="Trazado_893320" data-name="Trazado 893320" d="M268.778,216.368a17.373,17.373,0,0,0-7.285-1.177,18.779,18.779,0,0,0-6.623,1.773" transform="translate(-136.251 -165.819)" fill="none" stroke="#263238" stroke-linecap="round" stroke-linejoin="round" stroke-width="2"/>
        <path id="Trazado_893321" data-name="Trazado 893321" d="M266.2,224.858c0,1.222-.5,2.208-1.111,2.208s-1.111-.993-1.111-2.208.5-2.208,1.111-2.208S266.2,223.643,266.2,224.858Z" transform="translate(-138.657 -167.796)" fill="#263238"/>
        <path id="Trazado_893322" data-name="Trazado 893322" d="M328.106,273.31s12.267,3.929,14.717,6.38,17.66,38.507,22.075,44.394,2.208,8.587,0,10.795-16.189,8.094-21.582,8.587-11.038,1.729-13.5-7.837-2.943-23.3-5.394-30.413-3.186-8.094-3.186-8.094" transform="translate(-153.782 -181.178)" fill="#916aab"/>
        <g id="Grupo_1102166" data-name="Grupo 1102166" transform="translate(168.937 92.117)" opacity="0.4">
          <path id="Trazado_893323" data-name="Trazado 893323" d="M338.317,312.511c-6.284,3.679-9.22,6.461-10.567,8.094.258,1.523.5,3.127.736,4.783.7-.625,1.111-1.038,1.207-1.126a1.472,1.472,0,0,0,.375-.552s1.545-3.032,10.118-8.05a94.476,94.476,0,0,1,14.673-6.475l-1.553-3.355a96.285,96.285,0,0,0-14.989,6.681Z" transform="translate(-324.439 -281.885)" fill="#fff"/>
          <path id="Trazado_893324" data-name="Trazado 893324" d="M345.027,326.008c-9.117,4.776-12.98,9.463-14.607,12.428.28,1.928.581,3.826.927,5.644a11.58,11.58,0,0,0,1.118-1.1,1.965,1.965,0,0,0,.412-.9c0-.059,1.266-6.225,13.856-12.819a48.682,48.682,0,0,1,14.084-4.849c-.537-1.119-1.089-2.274-1.641-3.459a52.8,52.8,0,0,0-14.15,5.048Z" transform="translate(-325.144 -285.882)" fill="#fff"/>
          <path id="Trazado_893325" data-name="Trazado 893325" d="M335,356.852a8.1,8.1,0,0,0,2.553,2.9A31.949,31.949,0,0,1,351.836,347.1a70.148,70.148,0,0,1,17.1-5.247l-.39-.552a27.336,27.336,0,0,1-1.737-2.8,72.153,72.153,0,0,0-16.549,5.276A36.057,36.057,0,0,0,335,356.852Z" transform="translate(-326.354 -290.515)" fill="#fff"/>
          <path id="Trazado_893326" data-name="Trazado 893326" d="M323.25,303.7c.4,1.038.9,2.391,1.472,4.143a.279.279,0,0,0,.066-.059,1.8,1.8,0,0,0,.287-.339c.118-.169,9.838-14.68,21.516-18.61-.625-1.273-1.185-2.392-1.67-3.311C334.685,289.221,326.289,299.56,323.25,303.7Z" transform="translate(-323.25 -276.521)" fill="#fff"/>
          <path id="Trazado_893327" data-name="Trazado 893327" d="M329.76,275.38l2.163-1.567-1.567-.522Z" transform="translate(-324.97 -273.29)" fill="#fff"/>
          <path id="Trazado_893328" data-name="Trazado 893328" d="M326.3,283.509,324.59,289.4c5.2-4.04,10.795-8.058,15.225-11.148-1.251-.581-2.649-1.148-4.018-1.678C332.876,278.645,329.594,281.007,326.3,283.509Z" transform="translate(-323.604 -274.156)" fill="#fff"/>
        </g>
        <path id="Trazado_893329" data-name="Trazado 893329" d="M328.106,273.31s12.267,3.929,14.717,6.38,17.66,38.507,22.075,44.394,2.208,8.587,0,10.795-16.189,8.094-21.582,8.587-11.038,1.729-13.5-7.837-2.943-23.3-5.394-30.413-3.186-8.094-3.186-8.094" transform="translate(-153.782 -181.178)" fill="none" stroke="#263238" stroke-miterlimit="10" stroke-width="1"/>
        <path id="Trazado_893330" data-name="Trazado 893330" d="M344.023,369.768s-2.208-9.566-4.165-13-16.682-.486-22.326,1.722S282.7,368.3,273.631,370.5s-14.967,4.908-18.153,8.094-17.9,10.545-16.925,12.016,5.644,1.472,8.83,1.472,11.038-2.45,11.774-2.943a3.539,3.539,0,0,1,1.715-.486l-5.394,4.165s.736,2.208,3.436.493,7.6-5.151,8.58-5.887,5.644-2.45,7.116-3.922a13.68,13.68,0,0,0,2.45-3.929s33.363.986,48.816-1.472S343.287,371.468,344.023,369.768Z" transform="translate(-131.928 -202.808)" fill="#fff" stroke="#263238" stroke-linecap="round" stroke-linejoin="round" stroke-width="1"/>
        <path id="Trazado_893331" data-name="Trazado 893331" d="M246.57,402.14s0-1.222,2.7-2.208,7.358-2.208,12.752-6.623" transform="translate(-134.058 -212.876)" fill="none" stroke="#263238" stroke-linecap="round" stroke-linejoin="round" stroke-width="1"/>
        <path id="Trazado_893332" data-name="Trazado 893332" d="M268.9,399.152s3.436-2.458,5.4-4.172" transform="translate(-139.957 -213.317)" fill="none" stroke="#263238" stroke-linecap="round" stroke-linejoin="round" stroke-width="1"/>
        <path id="Trazado_893333" data-name="Trazado 893333" d="M242.238,400.862s-.25-1.965,2.943-3.436a45.73,45.73,0,0,0,12.259-7.116" transform="translate(-132.913 -212.084)" fill="none" stroke="#263238" stroke-linecap="round" stroke-linejoin="round" stroke-width="1"/>
        <path id="Trazado_893334" data-name="Trazado 893334" d="M196.13,381.255s-1.715-6.365-4.172-17.4-12.016-12.267-16.189-11.281-6.865,4.165-5.637,10.788,11.523,25.755,13,27.477,11.774.486,14.474-2.7S196.13,381.255,196.13,381.255Z" transform="translate(-113.788 -202.043)" fill="#fff" stroke="#263238" stroke-linecap="round" stroke-linejoin="round" stroke-width="1"/>
        <path id="Trazado_893335" data-name="Trazado 893335" d="M190.6,399.915s8.587-6.38,11.281-7.6,12.267-1.229,15.453-.493,7.358,9.566,7.358,9.566-27.226,1.472-31.148,1.472-5.394.736-5.644-1.715" transform="translate(-118.56 -212.351)" fill="#fff" stroke="#263238" stroke-linecap="round" stroke-linejoin="round" stroke-width="1"/>
        <path id="Trazado_893336" data-name="Trazado 893336" d="M213.171,403.494s-6.372-6.623-7.6-7.844" transform="translate(-123.228 -213.494)" fill="none" stroke="#263238" stroke-linecap="round" stroke-linejoin="round" stroke-width="1"/>
        <line id="Línea_587" data-name="Línea 587" x1="7.358" y1="8.58" transform="translate(87.493 180.684)" fill="none" stroke="#263238" stroke-linecap="round" stroke-linejoin="round" stroke-width="1"/>
        <path id="Trazado_893337" data-name="Trazado 893337" d="M228.171,402.309s-4.9-7.1-7.6-9.309" transform="translate(-127.19 -212.794)" fill="none" stroke="#263238" stroke-linecap="round" stroke-linejoin="round" stroke-width="1"/>
        <rect id="Rectángulo_402201" data-name="Rectángulo 402201" width="7.874" height="12.2" transform="translate(10.163 133.163)" fill="#916aab" stroke="#263238" stroke-linecap="round" stroke-linejoin="round" stroke-width="1"/>
        <line id="Línea_588" data-name="Línea 588" y1="3.436" x2="4.628" transform="translate(10.074 133.413)" fill="none" stroke="#263238" stroke-linecap="round" stroke-linejoin="round" stroke-width="1"/>
        <line id="Línea_589" data-name="Línea 589" y1="6.601" x2="7.793" transform="translate(10.243 133.163)" fill="none" stroke="#263238" stroke-linecap="round" stroke-linejoin="round" stroke-width="1"/>
        <line id="Línea_590" data-name="Línea 590" x2="2.575" y2="3.775" transform="translate(11.443 138.733)" fill="none" stroke="#263238" stroke-linecap="round" stroke-linejoin="round" stroke-width="1"/>
        <line id="Línea_591" data-name="Línea 591" x2="2.921" y2="4.459" transform="translate(13.673 137.019)" fill="none" stroke="#263238" stroke-linecap="round" stroke-linejoin="round" stroke-width="1"/>
        <line id="Línea_592" data-name="Línea 592" x2="2.053" y2="3.768" transform="translate(15.91 135.135)" fill="none" stroke="#263238" stroke-linecap="round" stroke-linejoin="round" stroke-width="1"/>
        <line id="Línea_593" data-name="Línea 593" y1="5.144" x2="7.204" transform="translate(10.759 140.279)" fill="none" stroke="#263238" stroke-linecap="round" stroke-linejoin="round" stroke-width="1"/>
        <line id="Línea_594" data-name="Línea 594" y1="1.715" x2="2.914" transform="translate(14.879 143.369)" fill="none" stroke="#263238" stroke-linecap="round" stroke-linejoin="round" stroke-width="1"/>
        <path id="Trazado_893338" data-name="Trazado 893338" d="M159.814,345.18l-1.575,1.8H120.49l-1.567-1.8H96.95v16.814h84.829V345.18Z" transform="translate(-94.536 -200.162)" fill="#fff" stroke="#263238" stroke-linecap="round" stroke-linejoin="round" stroke-width="1"/>
        <path id="Trazado_893339" data-name="Trazado 893339" d="M223.171,379.28H199.108l-5.158-42.23h34.379Z" transform="translate(-120.159 -198.015)" fill="#fff" stroke="#263238" stroke-linecap="round" stroke-linejoin="round" stroke-width="1"/>
        <path id="Trazado_893340" data-name="Trazado 893340" d="M230.561,337.05l-.361,42.23h2.546l5.158-42.23Z" transform="translate(-129.734 -198.015)" fill="#fff" stroke="#263238" stroke-linecap="round" stroke-linejoin="round" stroke-width="1"/>
        <rect id="Rectángulo_402202" data-name="Rectángulo 402202" width="37.786" height="2.627" rx="1.313" transform="translate(26.3 150.088)" fill="#fff" stroke="#263238" stroke-linecap="round" stroke-linejoin="round" stroke-width="1"/>
        <path id="Trazado_893341" data-name="Trazado 893341" d="M101.94,368v52.407H229.735V402.342a4.739,4.739,0,0,0-4.746-4.739h-88.53a3.547,3.547,0,0,1-3.547-3.547V387a22.613,22.613,0,0,1,10.236-18.919h0Z" transform="translate(-95.854 -206.19)" fill="#fff" stroke="#263238" stroke-linecap="round" stroke-linejoin="round" stroke-width="1"/>
        <path id="Trazado_893342" data-name="Trazado 893342" d="M97,368v52.407H224.751V397.6H131.475a3.547,3.547,0,0,1-3.539-3.547v-7.057a22.613,22.613,0,0,1,10.272-18.911h0Z" transform="translate(-94.549 -206.19)" fill="#fff" stroke="#263238" stroke-linecap="round" stroke-linejoin="round" stroke-width="1"/>
        <circle id="Elipse_11506" data-name="Elipse 11506" cx="8.065" cy="8.065" r="8.065" transform="translate(5.446 195.35)" fill="#858585" stroke="#263238" stroke-linecap="round" stroke-linejoin="round" stroke-width="1"/>
        <path id="Trazado_893343" data-name="Trazado 893343" d="M199.77,384.69l.876,7.175h24.062l.876-7.175Z" transform="translate(-121.696 -210.599)" fill="#858585" stroke="#263238" stroke-linecap="round" stroke-linejoin="round" stroke-width="1"/>
        <path id="Trazado_893344" data-name="Trazado 893344" d="M230.259,384.69l-.059,7.175h2.546l.876-7.175Z" transform="translate(-129.734 -210.599)" fill="#666" stroke="#263238" stroke-linecap="round" stroke-linejoin="round" stroke-width="1"/>
        <path id="Trazado_893345" data-name="Trazado 893345" d="M142.986,444.519s-45.483,1.339-48.824.67,10.7-5.35,29.434-7.69,49.493,7.358,49.493,7.358Z" transform="translate(-93.669 -224.452)" fill="#916aab" stroke="#263238" stroke-linecap="round" stroke-linejoin="round" stroke-width="1"/>
        <path id="Trazado_893346" data-name="Trazado 893346" d="M211.082,402.046c-3.348.1-6.7.39-10.03.773-6.093.692-17.83-.088-22.436,4.518,0,0-6.689,10.368-9.36,14.717s-4.68,7.02-7.359,8.021-14.047,5.688-14.047,5.688h94.976s13.981.486,18.639-5.2c5.055-6.137-3.547-13.128-7.94-16.417-7.248-5.431-15.225-7.763-23.893-10.162A62.221,62.221,0,0,0,211.082,402.046Z" transform="translate(-107.981 -215.166)" fill="#916aab" stroke="#263238" stroke-linecap="round" stroke-linejoin="round" stroke-width="1"/>
        <path id="Trazado_893347" data-name="Trazado 893347" d="M272,436.849s14.96-2.943,28.095-.368,31.737.368,40.472,1.1,22.988,2.553,22.988,2.553-21.892,3.679-33.2,4.378-21.892,1.472-21.892,1.472-5.835.368-21.163-4.378Z" transform="translate(-140.775 -224.001)" fill="#916aab" stroke="#263238" stroke-linecap="round" stroke-linejoin="round" stroke-width="1"/>
        <path id="Trazado_893348" data-name="Trazado 893348" d="M229.37,444.835a80.588,80.588,0,0,0,20.427-5.107c11.31-4.378,17.881-3.679,26.27-.368s11.31,6.2,21.163,6.932Z" transform="translate(-129.515 -224.327)" fill="#263238" stroke="#263238" stroke-linecap="round" stroke-linejoin="round" stroke-width="1"/>
      </g>
    </g>
  </g>
</svg>
