<svg xmlns="http://www.w3.org/2000/svg" xmlns:xlink="http://www.w3.org/1999/xlink" width="190" height="119.711" viewBox="0 0 190 119.711">
  <defs>
    <clipPath id="clip-path">
      <rect id="Rectángulo_402847" data-name="Rectángulo 402847" width="81" height="119.71" fill="none"/>
    </clipPath>
    <clipPath id="clip-path-3">
      <rect id="Rectángulo_402820" data-name="Rectángulo 402820" width="23.476" height="20.172" fill="none"/>
    </clipPath>
    <clipPath id="clip-path-4">
      <rect id="Rectángulo_402821" data-name="Rectángulo 402821" width="22.016" height="20.172" fill="none"/>
    </clipPath>
    <clipPath id="clip-path-5">
      <rect id="Rectángulo_402822" data-name="Rectángulo 402822" width="1.46" height="8.67" fill="none"/>
    </clipPath>
    <clipPath id="clip-path-6">
      <rect id="Rectángulo_402823" data-name="Rectángulo 402823" width="22.509" height="16.303" fill="none"/>
    </clipPath>
    <clipPath id="clip-path-7">
      <rect id="Rectángulo_402824" data-name="Rectángulo 402824" width="38.688" height="22.537" fill="none"/>
    </clipPath>
    <clipPath id="clip-path-8">
      <rect id="Rectángulo_402825" data-name="Rectángulo 402825" width="17.935" height="14.979" fill="none"/>
    </clipPath>
    <clipPath id="clip-path-9">
      <rect id="Rectángulo_402826" data-name="Rectángulo 402826" width="31.681" height="42.625" fill="none"/>
    </clipPath>
    <clipPath id="clip-path-11">
      <rect id="Rectángulo_402829" data-name="Rectángulo 402829" width="45.66" height="27.126" fill="none"/>
    </clipPath>
    <clipPath id="clip-path-12">
      <rect id="Rectángulo_402828" data-name="Rectángulo 402828" width="0.623" height="1.519" fill="none"/>
    </clipPath>
    <clipPath id="clip-path-13">
      <rect id="Rectángulo_402830" data-name="Rectángulo 402830" width="42.897" height="42.724" fill="none"/>
    </clipPath>
    <clipPath id="clip-path-14">
      <rect id="Rectángulo_402831" data-name="Rectángulo 402831" width="18.805" height="28.756" fill="none"/>
    </clipPath>
    <clipPath id="clip-path-15">
      <rect id="Rectángulo_402832" data-name="Rectángulo 402832" width="4.898" height="12.14" fill="none"/>
    </clipPath>
    <clipPath id="clip-path-16">
      <rect id="Rectángulo_402833" data-name="Rectángulo 402833" width="30.485" height="18.132" fill="none"/>
    </clipPath>
    <clipPath id="clip-path-17">
      <rect id="Rectángulo_402834" data-name="Rectángulo 402834" width="6.275" height="3.13" fill="none"/>
    </clipPath>
    <clipPath id="clip-path-18">
      <rect id="Rectángulo_402835" data-name="Rectángulo 402835" width="5.287" height="10.408" fill="none"/>
    </clipPath>
    <clipPath id="clip-path-19">
      <rect id="Rectángulo_402836" data-name="Rectángulo 402836" width="2.553" height="6.533" fill="none"/>
    </clipPath>
    <clipPath id="clip-path-20">
      <rect id="Rectángulo_402837" data-name="Rectángulo 402837" width="19.297" height="9.672" fill="none"/>
    </clipPath>
    <clipPath id="clip-path-21">
      <rect id="Rectángulo_402838" data-name="Rectángulo 402838" width="3.121" height="1.808" fill="none"/>
    </clipPath>
    <clipPath id="clip-path-22">
      <rect id="Rectángulo_402841" data-name="Rectángulo 402841" width="8.032" height="14.746" fill="none"/>
    </clipPath>
    <clipPath id="clip-path-24">
      <rect id="Rectángulo_402840" data-name="Rectángulo 402840" width="5.983" height="3.466" fill="none"/>
    </clipPath>
  </defs>
  <g id="Grupo_1103251" data-name="Grupo 1103251" transform="translate(-180 -370.289)">
    <g id="Grupo_1102918" data-name="Grupo 1102918">
      <rect id="Rectángulo_402183" data-name="Rectángulo 402183" width="190" height="77" rx="17" transform="translate(180 413)" fill="#c2d960"/>
      <g id="Grupo_1102917" data-name="Grupo 1102917" transform="translate(234.5 370.289)">
        <g id="Grupo_1102916" data-name="Grupo 1102916" clip-path="url(#clip-path)">
          <g id="Grupo_1102915" data-name="Grupo 1102915">
            <g id="Grupo_1102914" data-name="Grupo 1102914" clip-path="url(#clip-path)">
              <path id="Trazado_894188" data-name="Trazado 894188" d="M55.327,177.645l4.6,28.077a.876.876,0,0,0,1.735-.239l-3.228-28.966Z" transform="translate(-33.471 -106.789)" fill="#263238"/>
              <path id="Trazado_894189" data-name="Trazado 894189" d="M101.2,152.043l4.6,28.077a.876.876,0,0,0,1.735-.239l-3.228-28.966Z" transform="translate(-61.225 -91.3)" fill="#263238"/>
              <path id="Trazado_894190" data-name="Trazado 894190" d="M4.416,97.7l.946,18.188a6.42,6.42,0,0,1-.062,1.283L.952,146.262a.738.738,0,0,0,1.455.245L7.7,118.27a6.421,6.421,0,0,0,.1-1.587L6.524,96.433Z" transform="translate(-0.571 -58.339)" fill="#263238"/>
              <path id="Trazado_894191" data-name="Trazado 894191" d="M43.13,76.821l.946,18.188a6.42,6.42,0,0,1-.062,1.283l-4.348,29.087a.738.738,0,0,0,1.455.245l5.3-28.237a6.421,6.421,0,0,0,.1-1.587L45.238,75.549Z" transform="translate(-23.992 -45.705)" fill="#263238"/>
              <path id="Trazado_894192" data-name="Trazado 894192" d="M22.016,60.095C8.254,59.795,0,72.481,0,72.481v7.78S8.254,67.575,22.016,67.875l1.46-6.891Z" transform="translate(0 -36.353)" fill="#ba68c8"/>
              <g id="Grupo_1102838" data-name="Grupo 1102838" transform="translate(0 23.737)" opacity="0.2">
                <g id="Grupo_1102837" data-name="Grupo 1102837">
                  <g id="Grupo_1102836" data-name="Grupo 1102836" clip-path="url(#clip-path-3)">
                    <path id="Trazado_894193" data-name="Trazado 894193" d="M22.016,60.095C8.254,59.795,0,72.481,0,72.481v7.78S8.254,67.575,22.016,67.875l1.46-6.891Z" transform="translate(0 -60.09)"/>
                  </g>
                </g>
              </g>
              <path id="Trazado_894194" data-name="Trazado 894194" d="M25.712,62.347c-13.763-.3-22.017,12.386-22.017,12.386v7.78s8.254-12.687,22.017-12.386Z" transform="translate(-2.235 -37.715)" fill="#ba68c8"/>
              <g id="Grupo_1102841" data-name="Grupo 1102841" transform="translate(1.46 24.627)" opacity="0.4">
                <g id="Grupo_1102840" data-name="Grupo 1102840">
                  <g id="Grupo_1102839" data-name="Grupo 1102839" clip-path="url(#clip-path-4)">
                    <path id="Trazado_894195" data-name="Trazado 894195" d="M25.712,62.347c-13.763-.3-22.017,12.386-22.017,12.386v7.78s8.254-12.687,22.017-12.386Z" transform="translate(-3.695 -62.342)"/>
                  </g>
                </g>
              </g>
              <path id="Trazado_894196" data-name="Trazado 894196" d="M0,91.459l1.46.89v7.78L0,99.24Z" transform="translate(0 -55.33)" fill="#ba68c8"/>
              <g id="Grupo_1102844" data-name="Grupo 1102844" transform="translate(0 36.129)" opacity="0.6">
                <g id="Grupo_1102843" data-name="Grupo 1102843">
                  <g id="Grupo_1102842" data-name="Grupo 1102842" clip-path="url(#clip-path-5)">
                    <path id="Trazado_894197" data-name="Trazado 894197" d="M0,91.459l1.46.89v7.78L0,99.24Z" transform="translate(0 -91.459)"/>
                  </g>
                </g>
              </g>
              <path id="Trazado_894198" data-name="Trazado 894198" d="M75.121,140.019l-1.479,2.307.4.5c-6.14,5-15.748,9.311-18.878,10.647a2.961,2.961,0,0,1-.887.215A2.043,2.043,0,0,0,53.7,155.1a1.3,1.3,0,0,0,.644,1.221,2.955,2.955,0,0,0,.826-.207c3.355-1.431,14.153-6.275,20.145-11.733a2.773,2.773,0,0,0,.895-2.126,2.339,2.339,0,0,0-1.085-2.236" transform="translate(-32.485 -84.708)" fill="#ba68c8"/>
              <g id="Grupo_1102847" data-name="Grupo 1102847" transform="translate(21.211 55.311)" opacity="0.7">
                <g id="Grupo_1102846" data-name="Grupo 1102846">
                  <g id="Grupo_1102845" data-name="Grupo 1102845" clip-path="url(#clip-path-6)">
                    <path id="Trazado_894199" data-name="Trazado 894199" d="M75.121,140.019l-1.479,2.307.4.5c-6.14,5-15.748,9.311-18.878,10.647a2.961,2.961,0,0,1-.887.215A2.043,2.043,0,0,0,53.7,155.1a1.3,1.3,0,0,0,.644,1.221,2.955,2.955,0,0,0,.826-.207c3.355-1.431,14.153-6.275,20.145-11.733a2.773,2.773,0,0,0,.895-2.126,2.339,2.339,0,0,0-1.085-2.236" transform="translate(-53.696 -140.019)"/>
                  </g>
                </g>
              </g>
              <path id="Trazado_894200" data-name="Trazado 894200" d="M28.9,117.682c-2.343.561-10.938,3.022-17.156,10.134a1.6,1.6,0,0,0,.1,2.211c2.373,2.268,8.463,7.6,15.57,9.977a3,3,0,0,0,2.131-.083c3.355-1.432,14.152-6.275,20.144-11.733a1.073,1.073,0,0,0-.19-1.717,106.435,106.435,0,0,0-19.428-8.739,2.156,2.156,0,0,0-1.175-.049" transform="translate(-6.867 -71.159)" fill="#ba68c8"/>
              <g id="Grupo_1102850" data-name="Grupo 1102850" transform="translate(4.484 46.464)" opacity="0.4">
                <g id="Grupo_1102849" data-name="Grupo 1102849">
                  <g id="Grupo_1102848" data-name="Grupo 1102848" clip-path="url(#clip-path-7)">
                    <path id="Trazado_894201" data-name="Trazado 894201" d="M28.9,117.682c-2.343.561-10.938,3.022-17.156,10.134a1.6,1.6,0,0,0,.1,2.211c2.373,2.268,8.463,7.6,15.57,9.977a3,3,0,0,0,2.131-.083c3.355-1.432,14.152-6.275,20.144-11.733a1.073,1.073,0,0,0-.19-1.717,106.435,106.435,0,0,0-19.428-8.739,2.156,2.156,0,0,0-1.175-.049" transform="translate(-11.351 -117.623)"/>
                  </g>
                </g>
              </g>
              <path id="Trazado_894202" data-name="Trazado 894202" d="M27.216,157.161a2.044,2.044,0,0,1,.583-1.416,3,3,0,0,1-1.243-.132c-7.107-2.381-13.2-7.709-15.57-9.977a1.6,1.6,0,0,1-.1-2.211,4.329,4.329,0,0,0-.956,2.536,3.276,3.276,0,0,0,1.06,2.32c2.373,2.268,8.463,7.6,15.57,9.977a3,3,0,0,0,1.3.124,1.3,1.3,0,0,1-.644-1.221" transform="translate(-6.004 -86.768)" fill="#ba68c8"/>
              <g id="Grupo_1102853" data-name="Grupo 1102853" transform="translate(3.921 56.657)" opacity="0.6">
                <g id="Grupo_1102852" data-name="Grupo 1102852">
                  <g id="Grupo_1102851" data-name="Grupo 1102851" clip-path="url(#clip-path-8)">
                    <path id="Trazado_894203" data-name="Trazado 894203" d="M27.216,157.161a2.044,2.044,0,0,1,.583-1.416,3,3,0,0,1-1.243-.132c-7.107-2.381-13.2-7.709-15.57-9.977a1.6,1.6,0,0,1-.1-2.211,4.329,4.329,0,0,0-.956,2.536,3.276,3.276,0,0,0,1.06,2.32c2.373,2.268,8.463,7.6,15.57,9.977a3,3,0,0,0,1.3.124,1.3,1.3,0,0,1-.644-1.221" transform="translate(-9.925 -143.425)"/>
                  </g>
                </g>
              </g>
              <path id="Trazado_894204" data-name="Trazado 894204" d="M80.185,147.02c-.9-5.7-2.04-14.821-2.7-20.213q-.065-.531-.178-1.051a11.18,11.18,0,0,0-5.276-7.144l-13.436-8-9.122-4.8s-2.428,7.035.393,11.335c2.348,3.579,12.711,8.019,15.79,9.514s3.146,1.9,3.082,3.9-.066,4.545,3.719,12.524c1.088,2.293,1.846,4.008,2.375,5.321a8.4,8.4,0,0,0,5.35-1.391" transform="translate(-29.344 -64.015)" fill="#ba68c8"/>
              <path id="Trazado_894205" data-name="Trazado 894205" d="M117.143,223.055a1.046,1.046,0,0,0-.664.892c.006.63.024,2.043.033,2.643a3.037,3.037,0,0,0,1.739,3.289,15.139,15.139,0,0,1,3.641,2.962c.354.375,2.205,2.489,4.788,2.549s5.3-.749,4.857-2.405c-.111-.418-2.281-1.858-2.281-1.858Z" transform="translate(-70.467 -134.943)" fill="#263238"/>
              <g id="Grupo_1102856" data-name="Grupo 1102856" transform="translate(19.16 41.8)" opacity="0.7">
                <g id="Grupo_1102855" data-name="Grupo 1102855">
                  <g id="Grupo_1102854" data-name="Grupo 1102854" clip-path="url(#clip-path-9)">
                    <path id="Trazado_894206" data-name="Trazado 894206" d="M80.185,147.02c-.9-5.7-2.04-14.821-2.7-20.213a11.429,11.429,0,0,0-.3-1.566,11.141,11.141,0,0,0-5.129-6.615L58.6,110.613l-9.122-4.8s-2.428,7.035.393,11.335c2.348,3.579,12.711,8.019,15.79,9.514s3.146,1.9,3.082,3.9-.066,4.545,3.719,12.524c1.088,2.293,1.846,4.008,2.375,5.321a8.4,8.4,0,0,0,5.35-1.391" transform="translate(-48.504 -105.815)"/>
                  </g>
                </g>
              </g>
              <path id="Trazado_894207" data-name="Trazado 894207" d="M116.354,216.164a1.344,1.344,0,0,0,.163.68,9.466,9.466,0,0,0,2.021,2.4c1.81,1.633,7.81,8.021,9.92,4.055,0,0-6.2-5.937-7.021-8.379a41.474,41.474,0,0,1-.928-4.8,8.4,8.4,0,0,1-5.35,1.391c1.163,2.887,1.214,3.829,1.194,4.649" transform="translate(-69.669 -127.12)" fill="#945a59"/>
              <path id="Trazado_894208" data-name="Trazado 894208" d="M55.751,162.539c-.9-5.7-2.04-14.821-2.7-20.213a11.359,11.359,0,0,0-3.92-7.282l-16.126-13.71H25.041s-2.428,7.035.393,11.335c2.348,3.579,12.711,8.019,15.79,9.514s3.146,1.9,3.082,3.9-.066,4.546,3.719,12.524c1.088,2.293,1.846,4.008,2.375,5.321a8.4,8.4,0,0,0,5.35-1.39" transform="translate(-14.562 -73.404)" fill="#ba68c8"/>
              <path id="Trazado_894209" data-name="Trazado 894209" d="M92.709,238.574a1.046,1.046,0,0,0-.664.892c.006.63.024,2.043.033,2.643a3.037,3.037,0,0,0,1.738,3.289,15.135,15.135,0,0,1,3.642,2.962c.354.375,2.205,2.489,4.789,2.549s5.3-.749,4.857-2.405c-.111-.418-2.281-1.858-2.281-1.858Z" transform="translate(-55.685 -144.331)" fill="#263238"/>
              <g id="Grupo_1102859" data-name="Grupo 1102859" transform="translate(9.508 47.93)" opacity="0.7">
                <g id="Grupo_1102858" data-name="Grupo 1102858">
                  <g id="Grupo_1102857" data-name="Grupo 1102857" clip-path="url(#clip-path-9)">
                    <path id="Trazado_894210" data-name="Trazado 894210" d="M55.751,162.539c-.9-5.7-2.04-14.821-2.7-20.213a11.359,11.359,0,0,0-3.92-7.282l-16.126-13.71H25.041s-2.428,7.035.393,11.335c2.348,3.579,12.711,8.019,15.79,9.514s3.146,1.9,3.082,3.9-.066,4.546,3.719,12.524c1.088,2.293,1.846,4.008,2.375,5.321a8.4,8.4,0,0,0,5.35-1.39" transform="translate(-24.07 -121.334)"/>
                  </g>
                </g>
              </g>
              <path id="Trazado_894211" data-name="Trazado 894211" d="M91.92,231.683a1.344,1.344,0,0,0,.163.68,9.466,9.466,0,0,0,2.021,2.4c1.81,1.633,7.81,8.021,9.92,4.055,0,0-6.2-5.937-7.021-8.379a41.473,41.473,0,0,1-.928-4.8,8.4,8.4,0,0,1-5.35,1.39c1.163,2.887,1.214,3.829,1.194,4.649" transform="translate(-54.887 -136.508)" fill="#945a59"/>
              <path id="Trazado_894212" data-name="Trazado 894212" d="M20.892,22.653s-.38,7.979-1.061,9.982S14,41.317,21.7,45.223s16.686-1.336,16.686-4.76-2.567-2.784-3.052-11.875-14.444-5.936-14.444-5.936" transform="translate(-10.596 -13.384)" fill="#263238"/>
              <path id="Trazado_894213" data-name="Trazado 894213" d="M196.348,155.281v33.108l1.861-1.1V155.281Z" transform="translate(-118.786 -93.941)" fill="#455a64"/>
              <path id="Trazado_894214" data-name="Trazado 894214" d="M193.5,155.281v33.108l-1.861-1.1V155.281Z" transform="translate(-115.936 -93.941)" fill="#37474f"/>
              <path id="Trazado_894215" data-name="Trazado 894215" d="M31.24,189.044v31.98l1.861-1.1V187.916Z" transform="translate(-18.899 -113.684)" fill="#455a64"/>
              <path id="Trazado_894216" data-name="Trazado 894216" d="M28.39,187.916v33.108l-1.861-1.1V187.916Z" transform="translate(-16.049 -113.684)" fill="#37474f"/>
              <path id="Trazado_894217" data-name="Trazado 894217" d="M49.908,193.3,26.529,179.8v-5.3L49.908,188Z" transform="translate(-16.049 -105.568)" fill="#37474f"/>
              <path id="Trazado_894218" data-name="Trazado 894218" d="M141.875,125.093v31.979l1.861-1.1V123.964Z" transform="translate(-85.831 -74.995)" fill="#455a64"/>
              <path id="Trazado_894219" data-name="Trazado 894219" d="M139.025,125.093v31.979l-1.861-1.1V123.964Z" transform="translate(-82.981 -74.995)" fill="#37474f"/>
              <path id="Trazado_894220" data-name="Trazado 894220" d="M85.713,173.555l45.565-26.391v-5.3l-45.565,26.39Z" transform="translate(-51.854 -85.824)" fill="#455a64"/>
              <path id="Trazado_894221" data-name="Trazado 894221" d="M20.662,123.7,63.526,99.054a7.314,7.314,0,0,1,7.3.006l21.012,12.128a2.067,2.067,0,0,1,0,3.581L49.348,139.307a7.313,7.313,0,0,1-7.243.041L20.679,127.293a2.067,2.067,0,0,1-.017-3.594" transform="translate(-11.873 -59.336)" fill="#455a64"/>
              <path id="Trazado_894222" data-name="Trazado 894222" d="M91.839,137.583,49.348,162.122a7.312,7.312,0,0,1-7.242.041L20.679,150.108a2.046,2.046,0,0,1-1.052-1.808h0v1.735h0a2.045,2.045,0,0,0,1.051,1.756l21.427,12.054a7.312,7.312,0,0,0,7.242-.041l42.492-24.539a2.045,2.045,0,0,0,1.031-1.748h0v-1.723a2.047,2.047,0,0,1-1.033,1.79" transform="translate(-11.873 -82.151)" fill="#263238"/>
              <path id="Trazado_894223" data-name="Trazado 894223" d="M205.045,135.713v-.051h0c0,.017,0,.034,0,.051" transform="translate(-124.045 -82.072)" fill="#263238"/>
              <path id="Trazado_894224" data-name="Trazado 894224" d="M85.713,219.232V252.34l1.861-1.1V219.232Z" transform="translate(-51.854 -132.63)" fill="#455a64"/>
              <path id="Trazado_894225" data-name="Trazado 894225" d="M82.863,219.232V252.34L81,251.239V219.232Z" transform="translate(-49.004 -132.63)" fill="#37474f"/>
              <g id="Grupo_1102865" data-name="Grupo 1102865" transform="translate(31.273 40.352)" style="isolation: isolate">
                <g id="Grupo_1102864" data-name="Grupo 1102864">
                  <g id="Grupo_1102863" data-name="Grupo 1102863" clip-path="url(#clip-path-11)">
                    <path id="Trazado_894226" data-name="Trazado 894226" d="M149.929,125.389l-28.256,16.42,0,.651,28.256-16.421a1.046,1.046,0,0,0,.612-.857l0-.651a1.046,1.046,0,0,1-.612.857" transform="translate(-104.881 -115.691)" fill="#e0e0e0"/>
                    <path id="Trazado_894227" data-name="Trazado 894227" d="M92.981,155.276l-13.19-7.615a1.053,1.053,0,0,1-.621-.868l0,.651a1.053,1.053,0,0,0,.621.868l13.19,7.615a3.284,3.284,0,0,0,2.979,0l0-.651a3.282,3.282,0,0,1-2.978,0" transform="translate(-79.168 -129.158)" fill="#e0e0e0"/>
                    <g id="Grupo_1102862" data-name="Grupo 1102862" transform="translate(0 17.634)" opacity="0.5">
                      <g id="Grupo_1102861" data-name="Grupo 1102861">
                        <g id="Grupo_1102860" data-name="Grupo 1102860" clip-path="url(#clip-path-12)">
                          <path id="Trazado_894228" data-name="Trazado 894228" d="M79.17,146.792l0,.651a1.053,1.053,0,0,0,.621.868l0-.651a1.053,1.053,0,0,1-.621-.868" transform="translate(-79.168 -146.792)" fill="#cfd4dc"/>
                        </g>
                      </g>
                    </g>
                    <path id="Trazado_894229" data-name="Trazado 894229" d="M124.208,110.123l-13.19-7.615a3.286,3.286,0,0,0-2.979,0L79.783,118.929a.911.911,0,0,0,.01,1.724l13.19,7.615a3.282,3.282,0,0,0,2.978,0l28.256-16.42a.912.912,0,0,0-.01-1.726" transform="translate(-79.171 -102.151)" fill="#fafafa"/>
                  </g>
                </g>
              </g>
              <path id="Trazado_894230" data-name="Trazado 894230" d="M101.858,151.188a.305.305,0,0,1-.154.267l-4.562,2.634-.081-.046,4.6-2.657a.229.229,0,0,0,0-.4l-5.491-3.17a.227.227,0,0,0-.114-.031.229.229,0,0,0-.115.031l-4.83,2.789-.081-.046L95.9,147.75a.314.314,0,0,1,.309,0l5.491,3.17a.305.305,0,0,1,.154.268m-6.649.737-.7-.406a.3.3,0,0,0-.272,0l-.222.128a.083.083,0,0,0,0,.157l.7.406a.3.3,0,0,0,.272,0l.222-.128a.083.083,0,0,0,0-.157" transform="translate(-55.073 -89.36)" fill="#e0e0e0"/>
              <path id="Trazado_894231" data-name="Trazado 894231" d="M52.736,135.474l7.206,4.348a5,5,0,0,1,.189,8.444l7.922,4.337a8.1,8.1,0,0,1,4.206,6.821l.339,9.614L95.633,154.8v-9a7.886,7.886,0,0,0-4.073-6.9L68.778,126.313Z" transform="translate(-31.904 -76.416)" fill="#ba68c8"/>
              <g id="Grupo_1102868" data-name="Grupo 1102868" transform="translate(20.832 49.897)" opacity="0.5">
                <g id="Grupo_1102867" data-name="Grupo 1102867">
                  <g id="Grupo_1102866" data-name="Grupo 1102866" clip-path="url(#clip-path-13)">
                    <path id="Trazado_894232" data-name="Trazado 894232" d="M52.736,135.474l7.206,4.348a5,5,0,0,1,.189,8.444l7.922,4.337a8.1,8.1,0,0,1,4.206,6.821l.339,9.614L95.633,154.8v-9a7.886,7.886,0,0,0-4.073-6.9L68.778,126.313Z" transform="translate(-52.736 -126.313)" fill="#fff"/>
                  </g>
                </g>
              </g>
              <path id="Trazado_894233" data-name="Trazado 894233" d="M62.857,55.763s4.877-.3,5.875,4.365S71.956,72.92,71.956,72.92s8.576,5.014,9.423,5.495,4.174,1.532,5.311,4.512c.342.9-.259,3.4-1.58,3.55s-1.862-1.947-3.123-2.846l-1.261-.9s.823,2.051.281,2.992-2.867-3.473-3.086-3.829-4.279-1.923-5.292-2.334c-.486-.2-1.767-.727-2.968-1.225a5.518,5.518,0,0,1-3.216-3.667l-1.479-5.506Z" transform="translate(-38.027 -33.733)" fill="#945a59"/>
              <path id="Trazado_894234" data-name="Trazado 894234" d="M39.716,55.863,33.646,56s-2.575.444-3.795.8c0,0-1.838,4.506,0,15.214.062.361-1.1,8.571-1.1,8.571a16.458,16.458,0,0,0,12.7,3.769c3.124-.485,4.674-1.78,5.2-4.016,0,0-2.092-1.815-2.031-3.889s.52-6.56.52-6.56a4.807,4.807,0,0,0,2.42-4.415c0-3.272-2.874-7.124-5.332-9.7Z" transform="translate(-17.394 -33.739)" fill="#ba68c8"/>
              <g id="Grupo_1102871" data-name="Grupo 1102871" transform="translate(11.358 22.03)" opacity="0.4">
                <g id="Grupo_1102870" data-name="Grupo 1102870">
                  <g id="Grupo_1102869" data-name="Grupo 1102869" clip-path="url(#clip-path-14)">
                    <path id="Trazado_894235" data-name="Trazado 894235" d="M39.716,55.863,33.646,56s-2.575.444-3.795.8c0,0-1.838,4.506,0,15.214.062.361-1.1,8.571-1.1,8.571a16.458,16.458,0,0,0,12.7,3.769c3.124-.485,4.674-1.78,5.2-4.016,0,0-2.092-1.815-2.031-3.889s.52-6.56.52-6.56a4.807,4.807,0,0,0,2.42-4.415c0-3.272-2.874-7.124-5.332-9.7Z" transform="translate(-28.752 -55.769)"/>
                  </g>
                </g>
              </g>
              <path id="Trazado_894236" data-name="Trazado 894236" d="M31.477,2.434S31.162.013,30.739,0,30.1,2.044,30.1,2.044s-1.925-.423-1.793.164,2.327,1.447,2.327,1.447Z" transform="translate(-17.123 0)" fill="#263238"/>
              <path id="Trazado_894237" data-name="Trazado 894237" d="M26,11.738a7.883,7.883,0,0,0,5.981,7.954l11.968-4.151a4.374,4.374,0,0,0,1.477-2.4,7.785,7.785,0,0,0,.284-2.189c0-.006,0-.015,0-.02C45.693,8.105,44,4.846,39.583,3.346a15.072,15.072,0,0,0-2.978-.675,13.521,13.521,0,0,0-1.468-.113c-3.579-.109-6.245,1.22-7.748,3.624a8.305,8.305,0,0,0-.814,1.731A11.536,11.536,0,0,0,26,11.738" transform="translate(-15.728 -1.543)" fill="#263238"/>
              <path id="Trazado_894238" data-name="Trazado 894238" d="M41.141,42.815l.273.474a13.864,13.864,0,0,0,5.609,5.369l.758.4a.761.761,0,0,0,1.113-.678,10.5,10.5,0,0,0-1.414-5.229l-.27-.467v-8.7h-6.07Z" transform="translate(-24.889 -20.555)" fill="#945a59"/>
              <path id="Trazado_894239" data-name="Trazado 894239" d="M41.141,35.283V35.5a12.435,12.435,0,0,0,6.07,7.176v-8.7h-5.9Z" transform="translate(-24.889 -20.554)" fill="#703838"/>
              <path id="Trazado_894240" data-name="Trazado 894240" d="M45.2,8.278a7.185,7.185,0,0,1,6.368,7.748c-.194,5.689-1.263,9.985-4.218,10.03A10.1,10.1,0,0,1,37.96,15.745C37.992,8.352,43.1,8.009,45.2,8.278" transform="translate(-22.965 -4.972)" fill="#945a59"/>
              <path id="Trazado_894241" data-name="Trazado 894241" d="M61.206,33.831l-.425,3.315L62.8,36.8Z" transform="translate(-36.771 -20.467)" fill="#703838"/>
              <path id="Trazado_894242" data-name="Trazado 894242" d="M54.642,31.754a.681.681,0,1,0,.721-.639.681.681,0,0,0-.721.639" transform="translate(-33.056 -18.823)" fill="#263238"/>
              <path id="Trazado_894243" data-name="Trazado 894243" d="M66.031,31.232a.681.681,0,1,0,.72-.639.681.681,0,0,0-.72.639" transform="translate(-39.946 -18.507)" fill="#263238"/>
              <path id="Trazado_894244" data-name="Trazado 894244" d="M68.1,27.107l-1.282-.869s.542-.5,1.031-.151a.93.93,0,0,1,.251,1.02" transform="translate(-40.424 -15.707)" fill="#263238"/>
              <path id="Trazado_894245" data-name="Trazado 894245" d="M60.622,43.09a2.905,2.905,0,0,1-1.834-.491s-.125.966.684,1.15a1.048,1.048,0,0,0,1.15-.659" transform="translate(-35.561 -25.771)" fill="#703838"/>
              <path id="Trazado_894246" data-name="Trazado 894246" d="M49.942,9.424s-1.8,7.659-12.388,6.547c0,0-2.2-8.123,4.425-9.82s7.963,3.273,7.963,3.273" transform="translate(-22.507 -3.508)" fill="#263238"/>
              <path id="Trazado_894247" data-name="Trazado 894247" d="M36.261,30.206s-.422-2.266-2.011-2.184A1.969,1.969,0,0,0,32.473,30.4a3.581,3.581,0,0,0,3.953,3.034Z" transform="translate(-19.636 -16.951)" fill="#945a59"/>
              <path id="Trazado_894248" data-name="Trazado 894248" d="M24.938,57.971s2.435,1.493,1.6,8.834l.535,12.54S31.55,82,34.794,83.468s7.987,4.041,9.7,4.994,2.922,1.466,2.922,2.095c0,.451-1.058.21-1.058.21s2.559,1.623,2.256,2.809-4.279,2.012-6.8.323a24.6,24.6,0,0,1-4.493-4.044L24.969,86.009a5.783,5.783,0,0,1-4.043-5c-.485-5.368-1.3-14.683-1.3-16.857-.008-4.346,3-5.814,5.313-6.179" transform="translate(-11.873 -35.071)" fill="#945a59"/>
              <path id="Trazado_894249" data-name="Trazado 894249" d="M147.015,114.873l-4.892-2.843.006-9.3,4.893,2.843Z" transform="translate(-85.981 -62.151)" fill="#ba68c8"/>
              <g id="Grupo_1102874" data-name="Grupo 1102874" transform="translate(56.142 40.582)" opacity="0.2">
                <g id="Grupo_1102873" data-name="Grupo 1102873">
                  <g id="Grupo_1102872" data-name="Grupo 1102872" clip-path="url(#clip-path-15)">
                    <path id="Trazado_894250" data-name="Trazado 894250" d="M147.015,114.873l-4.892-2.843.006-9.3,4.893,2.843Z" transform="translate(-142.123 -102.733)"/>
                  </g>
                </g>
              </g>
              <path id="Trazado_894251" data-name="Trazado 894251" d="M169.3,80.641a6.757,6.757,0,0,1,3.066,5.31c-.006,1.953-1.386,2.74-3.086,1.758a6.755,6.755,0,0,1-3.065-5.31c.006-1.951,1.388-2.739,3.086-1.759" transform="translate(-100.555 -48.531)" fill="#37474f"/>
              <path id="Trazado_894252" data-name="Trazado 894252" d="M171.988,84.715a6.714,6.714,0,0,0-1.079-1.7,4.956,4.956,0,0,0-1.22-1.027,1.969,1.969,0,0,0-1.986-.2l-.566.329a1.969,1.969,0,0,1,1.986.195,4.948,4.948,0,0,1,1.22,1.027,6.706,6.706,0,0,1,1.079,1.7,5.257,5.257,0,0,1,.483,2.094,1.953,1.953,0,0,1-.814,1.79l.566-.329a1.954,1.954,0,0,0,.814-1.791,5.252,5.252,0,0,0-.483-2.094" transform="translate(-101.114 -49.371)" fill="#263238"/>
              <path id="Trazado_894253" data-name="Trazado 894253" d="M168.278,87.134a6.179,6.179,0,0,0-.568-2.462,7.905,7.905,0,0,0-1.27-2,5.824,5.824,0,0,0-1.434-1.207,2.316,2.316,0,0,0-2.336-.228l-2.2,1.28a2.316,2.316,0,0,1,2.336.229,5.831,5.831,0,0,1,1.434,1.207,7.914,7.914,0,0,1,1.27,2,6.177,6.177,0,0,1,.568,2.462,2.292,2.292,0,0,1-.959,2.1l2.2-1.281a1.769,1.769,0,0,0,.728-.864h0l0-.008a3.171,3.171,0,0,0,.228-1.231" transform="translate(-97.078 -49.013)" fill="#455a64"/>
              <path id="Trazado_894254" data-name="Trazado 894254" d="M174.439,101.828l-2.2,1.281.863,5.735,2.2-1.28Z" transform="translate(-104.198 -61.603)" fill="#37474f"/>
              <path id="Trazado_894255" data-name="Trazado 894255" d="M173.831,82.725a7.41,7.41,0,0,0-1.189-1.871,5.458,5.458,0,0,0-1.344-1.131,2.17,2.17,0,0,0-2.188-.214l-.623.363a2.168,2.168,0,0,1,2.188.214,5.458,5.458,0,0,1,1.344,1.131,7.39,7.39,0,0,1,1.189,1.87,5.8,5.8,0,0,1,.533,2.308,2.19,2.19,0,0,1-.838,1.932l0,.008.566-.329a2.154,2.154,0,0,0,.9-1.974,5.794,5.794,0,0,0-.532-2.308" transform="translate(-101.93 -47.975)" fill="#455a64"/>
              <path id="Trazado_894256" data-name="Trazado 894256" d="M164.608,90.375a7.213,7.213,0,0,0-3.272-5.667c-1.813-1.046-3.287-.206-3.293,1.877a6.632,6.632,0,0,0,.942,3.2l-.89,4.723,6.418,3.705-.863-5.735a2.293,2.293,0,0,0,.959-2.1" transform="translate(-95.612 -50.974)" fill="#263238"/>
              <path id="Trazado_894257" data-name="Trazado 894257" d="M123.319,84.1l-2.966,1.7-8.981,5.165L98.86,98.153l-1.233,1.229-.881-.651-3.912-2.273a3.151,3.151,0,0,1,1.149-1.153l2.038-1.175,22.407-12.879,1.917,1.114Z" transform="translate(-56.162 -49.155)" fill="#ba68c8"/>
              <g id="Grupo_1102877" data-name="Grupo 1102877" transform="translate(36.672 32.096)" opacity="0.2">
                <g id="Grupo_1102876" data-name="Grupo 1102876">
                  <g id="Grupo_1102875" data-name="Grupo 1102875" clip-path="url(#clip-path-16)">
                    <path id="Trazado_894258" data-name="Trazado 894258" d="M123.319,84.1l-2.966,1.7-8.981,5.165L98.86,98.153l-1.233,1.229-.881-.651-3.912-2.273a3.151,3.151,0,0,1,1.149-1.153l2.038-1.175,22.407-12.879,1.917,1.114Z" transform="translate(-92.834 -81.251)" fill="#fff"/>
                  </g>
                </g>
              </g>
              <path id="Trazado_894259" data-name="Trazado 894259" d="M107.341,149.413l-2.252-1.3a.048.048,0,0,0-.049,0l-.555.322a.05.05,0,0,1,.049,0l2.252,1.3a.372.372,0,0,0,.167.054l.555-.322a.376.376,0,0,1-.167-.054" transform="translate(-63.211 -89.598)" fill="#455a64"/>
              <path id="Trazado_894260" data-name="Trazado 894260" d="M110.733,151.878l.555-.322.675.02-.555.322Z" transform="translate(-66.991 -91.687)" fill="#37474f"/>
              <path id="Trazado_894261" data-name="Trazado 894261" d="M113.091,151.7l-.006-.015a.177.177,0,0,0-.026-.042.118.118,0,0,0-.03-.025.062.062,0,0,0-.03-.009l-.555.322a.068.068,0,0,1,.031.009.116.116,0,0,1,.03.025.155.155,0,0,1,.026.041s0,.01.006.015c.012.039.006.072-.013.083l.555-.322c.02-.012.026-.045.013-.083" transform="translate(-68.026 -91.717)" fill="#455a64"/>
              <path id="Trazado_894262" data-name="Trazado 894262" d="M107.628,150.312a.152.152,0,0,1,.062.081c.016.049,0,.089-.033.088l-.676-.019a.5.5,0,0,1-.227-.072l-2.253-1.3a.155.155,0,0,1-.069-.12c0-.045.032-.063.07-.041l2.252,1.3a.369.369,0,0,0,.167.054l.676.02a.067.067,0,0,1,.03.009" transform="translate(-63.179 -90.093)" fill="#263238"/>
              <path id="Trazado_894263" data-name="Trazado 894263" d="M105.192,135.229l.52-.31,0,6.14-.52.31Z" transform="translate(-63.638 -81.622)" fill="#37474f"/>
              <path id="Trazado_894264" data-name="Trazado 894264" d="M104.667,134.922l.52-.31.207.121-.519.31Z" transform="translate(-63.321 -81.437)" fill="#8a8d93"/>
              <path id="Trazado_894265" data-name="Trazado 894265" d="M104.874,135.517l0,6.14-.207-.121,0-6.14Z" transform="translate(-63.321 -81.911)" fill="#263238"/>
              <path id="Trazado_894266" data-name="Trazado 894266" d="M106.368,132.171l.957-.556-.007,6.14-.957.556Z" transform="translate(-64.346 -79.624)" fill="#263238"/>
              <path id="Trazado_894267" data-name="Trazado 894267" d="M103.941,130.763l.957-.556.963.556-.957.556Z" transform="translate(-62.882 -78.772)" fill="#8a8d93"/>
              <path id="Trazado_894268" data-name="Trazado 894268" d="M104.893,132.171l-.007,6.14-.963-.556.007-6.14Z" transform="translate(-62.871 -79.624)" fill="#455a64"/>
              <path id="Trazado_894269" data-name="Trazado 894269" d="M104.948,150.808l-2.253-1.3a.048.048,0,0,0-.049,0l-.555.322a.05.05,0,0,1,.049,0l2.252,1.3a.371.371,0,0,0,.167.054l.555-.322a.369.369,0,0,1-.166-.054" transform="translate(-61.762 -90.443)" fill="#455a64"/>
              <path id="Trazado_894270" data-name="Trazado 894270" d="M108.34,153.273l.555-.322.676.02-.555.322Z" transform="translate(-65.543 -92.531)" fill="#37474f"/>
              <path id="Trazado_894271" data-name="Trazado 894271" d="M110.7,153.091l-.006-.015a.165.165,0,0,0-.026-.041.125.125,0,0,0-.03-.025.062.062,0,0,0-.03-.009l-.555.323a.06.06,0,0,1,.03.009.111.111,0,0,1,.03.025.155.155,0,0,1,.026.041.112.112,0,0,1,.006.015c.013.039.007.072-.013.083l.555-.322c.02-.012.026-.045.013-.083" transform="translate(-66.578 -92.561)" fill="#455a64"/>
              <path id="Trazado_894272" data-name="Trazado 894272" d="M105.234,151.707a.152.152,0,0,1,.062.081c.016.049,0,.089-.033.088l-.676-.019a.494.494,0,0,1-.227-.072l-2.252-1.3a.154.154,0,0,1-.07-.12c0-.045.032-.063.07-.041l2.252,1.3a.37.37,0,0,0,.167.054l.676.02a.061.061,0,0,1,.03.009" transform="translate(-61.731 -90.937)" fill="#263238"/>
              <path id="Trazado_894273" data-name="Trazado 894273" d="M108.966,145.935a.069.069,0,0,0-.067.071l.057,1.964a.012.012,0,0,0,.011.011.012.012,0,0,0,.012-.011l.058-1.964v0a.069.069,0,0,0-.071-.067" transform="translate(-65.881 -88.287)" fill="#263238"/>
              <path id="Trazado_894274" data-name="Trazado 894274" d="M108.912,145.912l0,.436a.148.148,0,0,1-.087.121.465.465,0,0,1-.422,0,.15.15,0,0,1-.088-.123l0-.435a.151.151,0,0,0,.088.123.465.465,0,0,0,.422,0,.148.148,0,0,0,.087-.122" transform="translate(-65.526 -88.272)" fill="#37474f"/>
              <path id="Trazado_894275" data-name="Trazado 894275" d="M108.827,145.524a.13.13,0,0,1,0,.245.466.466,0,0,1-.423,0,.129.129,0,0,1,0-.245.466.466,0,0,1,.423,0" transform="translate(-65.529 -88.008)" fill="#263238"/>
              <path id="Trazado_894276" data-name="Trazado 894276" d="M108.946,133.176l0,5a.115.115,0,0,1-.068.095.363.363,0,0,1-.33,0,.117.117,0,0,1-.069-.1l0-5a.115.115,0,0,0,.069.1.363.363,0,0,0,.33,0,.115.115,0,0,0,.068-.095" transform="translate(-65.626 -80.567)" fill="#455a64"/>
              <path id="Trazado_894277" data-name="Trazado 894277" d="M108.881,132.873a.1.1,0,0,1,0,.191.363.363,0,0,1-.33,0,.1.1,0,0,1,0-.191.363.363,0,0,1,.33,0" transform="translate(-65.629 -80.361)" fill="#8a8d93"/>
              <path id="Trazado_894278" data-name="Trazado 894278" d="M104.919,146.78a.467.467,0,0,0-.076-.12.347.347,0,0,0-.088-.073.14.14,0,0,0-.142-.015l-.226.132a.141.141,0,0,1,.142.014.358.358,0,0,1,.088.074.467.467,0,0,1,.076.12.38.38,0,0,1,.034.15.139.139,0,0,1-.058.128l.226-.132a.139.139,0,0,0,.058-.128.38.38,0,0,0-.034-.15" transform="translate(-63.151 -88.665)" fill="#37474f"/>
              <path id="Trazado_894279" data-name="Trazado 894279" d="M104.44,146.92a.434.434,0,0,1,.2.343c0,.127-.089.178-.2.114a.433.433,0,0,1-.2-.343c0-.127.089-.178.2-.114" transform="translate(-63.063 -88.866)" fill="#263238"/>
              <path id="Trazado_894280" data-name="Trazado 894280" d="M157.624,81.078l4.893,2.843,1.382.171-5.127-3a1.387,1.387,0,0,0-1.148-.019" transform="translate(-95.358 -48.98)" fill="#ba68c8"/>
              <g id="Grupo_1102880" data-name="Grupo 1102880" transform="translate(62.266 31.982)" opacity="0.2">
                <g id="Grupo_1102879" data-name="Grupo 1102879">
                  <g id="Grupo_1102878" data-name="Grupo 1102878" clip-path="url(#clip-path-17)">
                    <path id="Trazado_894281" data-name="Trazado 894281" d="M157.624,81.078l4.893,2.843,1.382.171-5.127-3a1.387,1.387,0,0,0-1.148-.019" transform="translate(-157.624 -80.962)"/>
                  </g>
                </g>
              </g>
              <path id="Trazado_894282" data-name="Trazado 894282" d="M132.062,89.495l.007,11.88-8.036,4.64,0-6.659a1.522,1.522,0,0,0-2.284-1.319l-13.46,7.771.008,2.8L104.136,111l0-6.013a3.119,3.119,0,0,1,1.56-2.7l24.26-14.007a1.4,1.4,0,0,1,2.107,1.215" transform="translate(-62.998 -53.292)" fill="#ba68c8"/>
              <path id="Trazado_894283" data-name="Trazado 894283" d="M96.676,130.156v-1.905l0-4.108h0a3.116,3.116,0,0,1,.416-1.556l-.968-.564-3.907-2.273A3.133,3.133,0,0,0,91.8,121.3v6.011l4.874,2.845h0Z" transform="translate(-55.538 -72.445)" fill="#ba68c8"/>
              <g id="Grupo_1102883" data-name="Grupo 1102883" transform="translate(36.264 47.304)" opacity="0.2">
                <g id="Grupo_1102882" data-name="Grupo 1102882">
                  <g id="Grupo_1102881" data-name="Grupo 1102881" clip-path="url(#clip-path-18)">
                    <path id="Trazado_894284" data-name="Trazado 894284" d="M96.676,130.156v-1.905l0-4.108h0a3.116,3.116,0,0,1,.416-1.556l-.968-.564-3.907-2.273A3.133,3.133,0,0,0,91.8,121.3v6.011l4.874,2.845h0Z" transform="translate(-91.802 -119.749)"/>
                  </g>
                </g>
              </g>
              <path id="Trazado_894285" data-name="Trazado 894285" d="M104.024,119.858l-.468.271,2.085,1.206v5.056l.468-.271v-5.054Z" transform="translate(-62.649 -72.511)" fill="#ba68c8"/>
              <g id="Grupo_1102886" data-name="Grupo 1102886" transform="translate(40.907 47.347)" opacity="0.2">
                <g id="Grupo_1102885" data-name="Grupo 1102885">
                  <g id="Grupo_1102884" data-name="Grupo 1102884" clip-path="url(#clip-path-19)">
                    <path id="Trazado_894286" data-name="Trazado 894286" d="M104.024,119.858l-.468.271,2.085,1.206v5.056l.468-.271v-5.054Z" transform="translate(-103.556 -119.858)"/>
                  </g>
                </g>
              </g>
              <path id="Trazado_894287" data-name="Trazado 894287" d="M165.627,106.758a2.667,2.667,0,0,0-1.3,2.042c-.038.781.484,1.131,1.164.784a2.667,2.667,0,0,0,1.3-2.042c.038-.78-.484-1.131-1.164-.783" transform="translate(-99.413 -64.505)" fill="#455a64"/>
              <path id="Trazado_894288" data-name="Trazado 894288" d="M162.622,108.333l.813-.171c-.509.107-.867-.228-.852-.856,0-.014,0-.028,0-.041a2.666,2.666,0,0,1,1.3-2.042c.552-.282,1-.1,1.128.39l-.21-.8c-.178-.683-.8-.929-1.56-.539a3.687,3.687,0,0,0-1.8,2.823q0,.029,0,.057c-.02.869.475,1.332,1.178,1.184" transform="translate(-97.669 -62.968)" fill="#263238"/>
              <path id="Trazado_894289" data-name="Trazado 894289" d="M140.92,110.082a1.465,1.465,0,0,0-.714,1.122c-.021.429.266.621.64.43a1.464,1.464,0,0,0,.714-1.121c.021-.429-.265-.621-.639-.431" transform="translate(-84.82 -66.552)" fill="#455a64"/>
              <path id="Trazado_894290" data-name="Trazado 894290" d="M139.269,110.947l.446-.094c-.279.059-.476-.125-.468-.471v-.023a1.465,1.465,0,0,1,.714-1.122c.3-.155.549-.057.62.214l-.115-.442c-.1-.375-.437-.51-.856-.3a2.024,2.024,0,0,0-.987,1.55v.031c-.011.478.261.732.647.651" transform="translate(-83.862 -65.708)" fill="#263238"/>
              <path id="Trazado_894291" data-name="Trazado 894291" d="M148.182,105.9a1.466,1.466,0,0,0-.714,1.122c-.021.429.266.621.64.43a1.465,1.465,0,0,0,.714-1.121c.021-.429-.265-.621-.639-.431" transform="translate(-89.213 -64.024)" fill="#455a64"/>
              <path id="Trazado_894292" data-name="Trazado 894292" d="M146.531,106.768l.446-.094c-.279.059-.476-.125-.468-.471v-.023a1.465,1.465,0,0,1,.714-1.122c.3-.155.549-.057.62.215l-.115-.442c-.1-.375-.437-.51-.856-.3a2.025,2.025,0,0,0-.987,1.55v.031c-.011.478.261.732.647.651" transform="translate(-88.256 -63.18)" fill="#263238"/>
              <path id="Trazado_894293" data-name="Trazado 894293" d="M161.332,93.46l-7.094,4.1v.589l7.094-4.1Z" transform="translate(-93.31 -56.541)" fill="#455a64"/>
              <path id="Trazado_894294" data-name="Trazado 894294" d="M170.265,95.978l-.9-.521v-.364l.9.521Z" transform="translate(-102.463 -57.529)" fill="#263238"/>
              <path id="Trazado_894295" data-name="Trazado 894295" d="M170.264,94.626l-.9-.521,1.118-.645.9.521Z" transform="translate(-102.463 -56.541)" fill="#37474f"/>
              <path id="Trazado_894296" data-name="Trazado 894296" d="M172.755,94.779v.364l-1.118.645v-.364Z" transform="translate(-103.836 -57.339)" fill="#455a64"/>
              <path id="Trazado_894297" data-name="Trazado 894297" d="M115.859,125.8a.242.242,0,0,1-.061-.052.344.344,0,0,1-.055-.086.269.269,0,0,1-.024-.106.1.1,0,0,1,.041-.09l-.207.12a.1.1,0,0,0-.041.09.266.266,0,0,0,.024.105.339.339,0,0,0,.055.087.248.248,0,0,0,.061.052.1.1,0,0,0,.1.009l.207-.12a.1.1,0,0,1-.1-.009" transform="translate(-69.882 -75.904)" fill="#455a64"/>
              <path id="Trazado_894298" data-name="Trazado 894298" d="M112.106,124.961a.837.837,0,0,0-.135-.213.642.642,0,0,0-.122-.109l-.016-.009-.012-.007a.384.384,0,0,0-.072-.034,5.775,5.775,0,0,0-2.906.113l-.009.005v.075a5.393,5.393,0,0,1,2.708-.073.384.384,0,0,1,.072.034l.012.007.016.009a.643.643,0,0,1,.122.109.837.837,0,0,1,.136.213.594.594,0,0,1,.054.336.21.21,0,0,1-.094.146l.206-.12a.208.208,0,0,0,.094-.146.59.59,0,0,0-.053-.336" transform="translate(-65.841 -75.285)" fill="#455a64"/>
              <path id="Trazado_894299" data-name="Trazado 894299" d="M111.641,124.943l-.016-.009-.012-.007a.409.409,0,0,0-.072-.034,5.394,5.394,0,0,0-2.709.073v.58a13.184,13.184,0,0,1,1.446-.241,2.256,2.256,0,0,1,1.27.382l.057.034a.538.538,0,0,0,.085.039.191.191,0,0,0,.262-.158.741.741,0,0,0-.311-.659m-.03.543a.31.31,0,0,1-.141-.244c0-.089.064-.125.141-.081a.311.311,0,0,1,.141.244c0,.089-.064.125-.141.081" transform="translate(-65.841 -75.469)" fill="#263238"/>
              <path id="Trazado_894300" data-name="Trazado 894300" d="M135.486,85.89a.619.619,0,0,1-.273.325l-15.22,8.767a1.748,1.748,0,0,1-1.748,0L116.537,94a.593.593,0,0,1-.273-.33.628.628,0,0,1,.256-.746L131.492,84.3a2.293,2.293,0,0,1,2.277,0l1.457.841a.628.628,0,0,1,.26.75" transform="translate(-70.314 -50.816)" fill="#ba68c8"/>
              <path id="Trazado_894301" data-name="Trazado 894301" d="M135.486,85.89a.719.719,0,0,1-.2-.074L133.86,85a2.443,2.443,0,0,0-2.459,0l-14.929,8.6a.594.594,0,0,1-.208.073.628.628,0,0,1,.256-.746L131.492,84.3a2.293,2.293,0,0,1,2.277,0l1.457.841a.628.628,0,0,1,.26.75" transform="translate(-70.314 -50.816)" fill="#ba68c8"/>
              <g id="Grupo_1102889" data-name="Grupo 1102889" transform="translate(45.912 33.181)" opacity="0.2">
                <g id="Grupo_1102888" data-name="Grupo 1102888">
                  <g id="Grupo_1102887" data-name="Grupo 1102887" clip-path="url(#clip-path-20)">
                    <path id="Trazado_894302" data-name="Trazado 894302" d="M135.486,85.89a.719.719,0,0,1-.2-.074L133.86,85a2.443,2.443,0,0,0-2.459,0l-14.929,8.6a.594.594,0,0,1-.208.073.628.628,0,0,1,.256-.746L131.492,84.3a2.293,2.293,0,0,1,2.277,0l1.457.841a.628.628,0,0,1,.26.75" transform="translate(-116.226 -83.996)"/>
                  </g>
                </g>
              </g>
              <path id="Trazado_894303" data-name="Trazado 894303" d="M153.161,77.192a.556.556,0,0,0-.341-.567,1.861,1.861,0,0,0-1.69,0,.591.591,0,0,0-.347.488v0l-.015,5.219a.6.6,0,0,0,.353.493,1.862,1.862,0,0,0,1.69,0,.594.594,0,0,0,.348-.486l.015-5.219a.429.429,0,0,1-.012.074" transform="translate(-91.211 -46.234)" fill="#e0e0e0"/>
              <path id="Trazado_894304" data-name="Trazado 894304" d="M148.931,69.93a9.182,9.182,0,0,0-8.333-.084c-2.334,1.31-2.387,3.47-.118,4.826a9.184,9.184,0,0,0,8.333.084c2.333-1.31,2.386-3.47.118-4.826" transform="translate(-83.978 -41.675)" fill="#ebebeb"/>
              <path id="Trazado_894305" data-name="Trazado 894305" d="M149.424,70.71a8.239,8.239,0,0,0-7.477-.075c-2.094,1.175-2.142,3.114-.106,4.331a8.239,8.239,0,0,0,7.477.075c2.094-1.175,2.142-3.114.106-4.331" transform="translate(-84.905 -42.212)" fill="#e0e0e0"/>
              <g id="Grupo_1102892" data-name="Grupo 1102892" transform="translate(59.167 29.722)" opacity="0.4">
                <g id="Grupo_1102891" data-name="Grupo 1102891">
                  <g id="Grupo_1102890" data-name="Grupo 1102890" clip-path="url(#clip-path-21)">
                    <path id="Trazado_894306" data-name="Trazado 894306" d="M152.46,75.516a2.431,2.431,0,0,0-2.207-.022c-.618.346-.632.919-.031,1.278a2.431,2.431,0,0,0,2.207.022c.618-.346.632-.919.031-1.278" transform="translate(-149.78 -75.24)" fill="#b8bcc3"/>
                  </g>
                </g>
              </g>
              <g id="Grupo_1102901" data-name="Grupo 1102901" transform="translate(56.733 17.954)" style="isolation: isolate">
                <g id="Grupo_1102900" data-name="Grupo 1102900">
                  <g id="Grupo_1102899" data-name="Grupo 1102899" clip-path="url(#clip-path-22)">
                    <path id="Trazado_894307" data-name="Trazado 894307" d="M151.646,57.749l-1-10.654a1.534,1.534,0,0,0-.842-1.115,4.662,4.662,0,0,0-4.231-.043,1.565,1.565,0,0,0-.9,1.141l-1.056,10.648c0,.016,0,.032,0,.048,0,.041,0,.083,0,.125s0,.07.006.105.012.083.021.125.013.069.023.1.027.083.043.125.025.068.04.1.042.083.066.124.035.065.056.1.059.083.09.124.045.062.071.092.077.083.118.124.052.056.081.083c.049.045.1.087.158.13.028.022.053.045.082.066.086.064.179.126.278.185a6.262,6.262,0,0,0,5.683.057c.093-.052.18-.107.262-.163l.025-.017c.078-.054.149-.109.217-.166l.031-.026c.065-.056.125-.113.18-.171l.028-.03a2.094,2.094,0,0,0,.148-.178l.021-.029a1.79,1.79,0,0,0,.119-.188l.011-.021a1.579,1.579,0,0,0,.091-.2v0a1.444,1.444,0,0,0,.057-.205c0-.007,0-.013,0-.02a1.352,1.352,0,0,0,.021-.2c0-.01,0-.019,0-.029a1.327,1.327,0,0,0,0-.148" transform="translate(-143.619 -45.45)" fill="#ba68c8"/>
                    <g id="Grupo_1102895" data-name="Grupo 1102895" opacity="0.3">
                      <g id="Grupo_1102894" data-name="Grupo 1102894">
                        <g id="Grupo_1102893" data-name="Grupo 1102893" clip-path="url(#clip-path-22)">
                          <path id="Trazado_894308" data-name="Trazado 894308" d="M151.646,57.749l-1-10.654a1.534,1.534,0,0,0-.842-1.115,4.662,4.662,0,0,0-4.231-.043,1.565,1.565,0,0,0-.9,1.141l-1.056,10.648c0,.016,0,.032,0,.048,0,.041,0,.083,0,.125s0,.07.006.105.012.083.021.125.013.069.023.1.027.083.043.125.025.068.04.1.042.083.066.124.035.065.056.1.059.083.09.124.045.062.071.092.077.083.118.124.052.056.081.083c.049.045.1.087.158.13.028.022.053.045.082.066.086.064.179.126.278.185a6.262,6.262,0,0,0,5.683.057c.093-.052.18-.107.262-.163l.025-.017c.078-.054.149-.109.217-.166l.031-.026c.065-.056.125-.113.18-.171l.028-.03a2.094,2.094,0,0,0,.148-.178l.021-.029a1.79,1.79,0,0,0,.119-.188l.011-.021a1.579,1.579,0,0,0,.091-.2v0a1.444,1.444,0,0,0,.057-.205c0-.007,0-.013,0-.02a1.352,1.352,0,0,0,.021-.2c0-.01,0-.019,0-.029a1.327,1.327,0,0,0,0-.148" transform="translate(-143.619 -45.45)" fill="#fff"/>
                        </g>
                      </g>
                    </g>
                    <path id="Trazado_894309" data-name="Trazado 894309" d="M151.363,48.43a4.662,4.662,0,0,1-4.231-.043c-1.151-.689-1.125-1.786.06-2.45a4.662,4.662,0,0,1,4.231.043c1.152.689,1.125,1.786-.06,2.45" transform="translate(-145.232 -45.45)" fill="#ba68c8"/>
                    <g id="Grupo_1102898" data-name="Grupo 1102898" transform="translate(1.053)" opacity="0.5">
                      <g id="Grupo_1102897" data-name="Grupo 1102897">
                        <g id="Grupo_1102896" data-name="Grupo 1102896" clip-path="url(#clip-path-24)">
                          <path id="Trazado_894310" data-name="Trazado 894310" d="M151.363,48.43a4.662,4.662,0,0,1-4.231-.043c-1.151-.689-1.125-1.786.06-2.45a4.662,4.662,0,0,1,4.231.043c1.152.689,1.125,1.786-.06,2.45" transform="translate(-146.285 -45.45)" fill="#fff"/>
                        </g>
                      </g>
                    </g>
                  </g>
                </g>
              </g>
              <path id="Trazado_894311" data-name="Trazado 894311" d="M153.3,48.006l0-.794a.457.457,0,0,0-.27-.377,1.419,1.419,0,0,0-1.29,0,.455.455,0,0,0-.266.372l0,.8Z" transform="translate(-91.638 -28.241)" fill="#e0e0e0"/>
              <path id="Trazado_894312" data-name="Trazado 894312" d="M152.623,48.782a2.208,2.208,0,0,1-2,0,.706.706,0,0,1-.417-.583l0,.532a.707.707,0,0,0,.417.583,2.208,2.208,0,0,0,2,0,.75.75,0,0,0,.4-.5.468.468,0,0,0,.006-.078l0-.532a.7.7,0,0,1-.41.575" transform="translate(-90.869 -29.159)" fill="#e0e0e0"/>
              <path id="Trazado_894313" data-name="Trazado 894313" d="M152.617,46.374a2.206,2.206,0,0,0-2,0,.613.613,0,0,0,.006,1.159,2.208,2.208,0,0,0,2,0,.612.612,0,0,0-.008-1.159m-.368.942a1.382,1.382,0,0,1-1.253,0,.383.383,0,0,1,0-.725,1.378,1.378,0,0,1,1.252,0,.384.384,0,0,1,0,.726" transform="translate(-90.871 -27.91)" fill="#fafafa"/>
              <path id="Trazado_894314" data-name="Trazado 894314" d="M126.57,92.562a.555.555,0,0,0-.341-.567,1.861,1.861,0,0,0-1.69,0,.592.592,0,0,0-.347.488v0l-.015,5.219a.6.6,0,0,0,.352.493,1.863,1.863,0,0,0,1.69,0,.593.593,0,0,0,.348-.486l.015-5.219a.4.4,0,0,1-.012.074" transform="translate(-75.124 -55.532)" fill="#e0e0e0"/>
              <path id="Trazado_894315" data-name="Trazado 894315" d="M122.34,85.3a9.182,9.182,0,0,0-8.333-.084c-2.334,1.31-2.387,3.47-.118,4.826a9.184,9.184,0,0,0,8.333.084c2.333-1.31,2.386-3.47.118-4.826" transform="translate(-67.891 -50.974)" fill="#ebebeb"/>
              <path id="Trazado_894316" data-name="Trazado 894316" d="M122.833,86.08A8.239,8.239,0,0,0,115.356,86c-2.094,1.175-2.142,3.114-.106,4.331a8.239,8.239,0,0,0,7.477.075c2.094-1.175,2.142-3.114.106-4.331" transform="translate(-68.818 -51.51)" fill="#e0e0e0"/>
              <g id="Grupo_1102904" data-name="Grupo 1102904" transform="translate(48.663 35.793)" opacity="0.4">
                <g id="Grupo_1102903" data-name="Grupo 1102903">
                  <g id="Grupo_1102902" data-name="Grupo 1102902" clip-path="url(#clip-path-21)">
                    <path id="Trazado_894317" data-name="Trazado 894317" d="M125.869,90.886a2.431,2.431,0,0,0-2.207-.022c-.618.347-.632.919-.031,1.278a2.431,2.431,0,0,0,2.207.022c.618-.346.632-.919.031-1.278" transform="translate(-123.189 -90.61)" fill="#b8bcc3"/>
                  </g>
                </g>
              </g>
              <g id="Grupo_1102913" data-name="Grupo 1102913" transform="translate(46.229 24.025)" style="isolation: isolate">
                <g id="Grupo_1102912" data-name="Grupo 1102912">
                  <g id="Grupo_1102911" data-name="Grupo 1102911" clip-path="url(#clip-path-22)">
                    <path id="Trazado_894318" data-name="Trazado 894318" d="M125.055,73.119l-1-10.654a1.534,1.534,0,0,0-.842-1.115,4.661,4.661,0,0,0-4.231-.043,1.566,1.566,0,0,0-.9,1.141L117.031,73.1c0,.016,0,.032,0,.048,0,.041,0,.083,0,.124s0,.07.006.105.012.083.02.125.014.07.023.1.027.083.043.125.025.068.04.1.043.083.066.124.036.065.056.1.059.083.09.124.045.061.071.092.077.083.119.124.052.056.081.083c.049.045.1.087.158.13.028.022.053.045.082.066.086.064.179.126.278.185a6.262,6.262,0,0,0,5.683.057c.093-.052.18-.107.262-.163l.025-.017c.077-.054.149-.109.217-.166l.031-.025q.1-.084.18-.171l.028-.03a2.169,2.169,0,0,0,.148-.178l.021-.029a1.858,1.858,0,0,0,.119-.188l.011-.022a1.573,1.573,0,0,0,.09-.2v0a1.444,1.444,0,0,0,.056-.205c0-.007,0-.013,0-.02a1.352,1.352,0,0,0,.021-.2c0-.01,0-.02,0-.029a1.324,1.324,0,0,0,0-.148" transform="translate(-117.028 -60.82)" fill="#ba68c8"/>
                    <g id="Grupo_1102907" data-name="Grupo 1102907" opacity="0.3">
                      <g id="Grupo_1102906" data-name="Grupo 1102906">
                        <g id="Grupo_1102905" data-name="Grupo 1102905" clip-path="url(#clip-path-22)">
                          <path id="Trazado_894319" data-name="Trazado 894319" d="M125.055,73.119l-1-10.654a1.534,1.534,0,0,0-.842-1.115,4.661,4.661,0,0,0-4.231-.043,1.566,1.566,0,0,0-.9,1.141L117.031,73.1c0,.016,0,.032,0,.048,0,.041,0,.083,0,.124s0,.07.006.105.012.083.02.125.014.07.023.1.027.083.043.125.025.068.04.1.043.083.066.124.036.065.056.1.059.083.09.124.045.061.071.092.077.083.119.124.052.056.081.083c.049.045.1.087.158.13.028.022.053.045.082.066.086.064.179.126.278.185a6.262,6.262,0,0,0,5.683.057c.093-.052.18-.107.262-.163l.025-.017c.077-.054.149-.109.217-.166l.031-.025q.1-.084.18-.171l.028-.03a2.169,2.169,0,0,0,.148-.178l.021-.029a1.858,1.858,0,0,0,.119-.188l.011-.022a1.573,1.573,0,0,0,.09-.2v0a1.444,1.444,0,0,0,.056-.205c0-.007,0-.013,0-.02a1.352,1.352,0,0,0,.021-.2c0-.01,0-.02,0-.029a1.324,1.324,0,0,0,0-.148" transform="translate(-117.028 -60.82)" fill="#fff"/>
                        </g>
                      </g>
                    </g>
                    <path id="Trazado_894320" data-name="Trazado 894320" d="M124.772,63.8a4.662,4.662,0,0,1-4.231-.043c-1.152-.689-1.125-1.786.06-2.45a4.662,4.662,0,0,1,4.231.043c1.152.689,1.125,1.786-.06,2.45" transform="translate(-118.641 -60.82)" fill="#ba68c8"/>
                    <g id="Grupo_1102910" data-name="Grupo 1102910" transform="translate(1.053)" opacity="0.5">
                      <g id="Grupo_1102909" data-name="Grupo 1102909">
                        <g id="Grupo_1102908" data-name="Grupo 1102908" clip-path="url(#clip-path-24)">
                          <path id="Trazado_894321" data-name="Trazado 894321" d="M124.772,63.8a4.662,4.662,0,0,1-4.231-.043c-1.152-.689-1.125-1.786.06-2.45a4.662,4.662,0,0,1,4.231.043c1.152.689,1.125,1.786-.06,2.45" transform="translate(-119.694 -60.82)" fill="#fff"/>
                        </g>
                      </g>
                    </g>
                  </g>
                </g>
              </g>
              <path id="Trazado_894322" data-name="Trazado 894322" d="M126.709,63.376l0-.794a.457.457,0,0,0-.27-.377,1.419,1.419,0,0,0-1.289,0,.455.455,0,0,0-.267.372v.8Z" transform="translate(-75.552 -37.539)" fill="#e0e0e0"/>
              <path id="Trazado_894323" data-name="Trazado 894323" d="M126.032,64.152a2.208,2.208,0,0,1-2,0,.706.706,0,0,1-.417-.583l0,.532a.706.706,0,0,0,.417.583,2.208,2.208,0,0,0,2,0,.75.75,0,0,0,.4-.5.467.467,0,0,0,.006-.078l0-.532a.7.7,0,0,1-.41.575" transform="translate(-74.782 -38.458)" fill="#e0e0e0"/>
              <path id="Trazado_894324" data-name="Trazado 894324" d="M126.026,61.744a2.206,2.206,0,0,0-2,0,.613.613,0,0,0,.006,1.159,2.208,2.208,0,0,0,2,0,.612.612,0,0,0-.008-1.159m-.368.942a1.383,1.383,0,0,1-1.253,0,.383.383,0,0,1,0-.725,1.378,1.378,0,0,1,1.252,0,.384.384,0,0,1,0,.726" transform="translate(-74.784 -37.208)" fill="#fafafa"/>
            </g>
          </g>
        </g>
      </g>
    </g>
  </g>
</svg>
