<svg xmlns="http://www.w3.org/2000/svg" width="51" height="51" viewBox="0 0 51 51">
  <g id="Grupo_1103251" data-name="Grupo 1103251" transform="translate(-180.052 -541)">
    <g id="Grupo_1102150" data-name="Grupo 1102150" transform="translate(-1071.281 128)">
      <g id="Grupo_1098742" data-name="Grupo 1098742" transform="translate(1251.333 413)">
        <rect id="Rect치ngulo_400898" data-name="Rect치ngulo 400898" width="51" height="51" rx="25.5" transform="translate(0)" fill="#e6efbf"/>
        <g id="Rect치ngulo_400907" data-name="Rect치ngulo 400907" fill="none" stroke="#0f1f33" stroke-linecap="round" stroke-width="2" stroke-dasharray="7">
          <rect width="51" height="51" rx="25.5" stroke="none"/>
          <rect x="1" y="1" width="49" height="49" rx="24.5" fill="none"/>
        </g>
      </g>
      <g id="ropa-interior" transform="translate(1258.333 381.382)">
        <path id="Trazado_892469" data-name="Trazado 892469" d="M36.256,56.3H19.541a10.732,10.732,0,0,0,3.942-8.3v-3a.539.539,0,0,0-.539-.539H16.4a1.436,1.436,0,0,0-.351-.35,1.465,1.465,0,0,0-1.252-.21l-1.623.467a1.737,1.737,0,0,0-2.869,0l-1.623-.467a1.465,1.465,0,0,0-1.251.21,1.436,1.436,0,0,0-.351.35H.539A.539.539,0,0,0,0,45.007v3a10.663,10.663,0,0,0,1.672,5.746.539.539,0,1,0,.909-.58A9.575,9.575,0,0,1,1.1,48.621a9.645,9.645,0,0,1,8.394,8.933,9.541,9.541,0,0,1-5.642-2.791.539.539,0,1,0-.768.757A10.622,10.622,0,0,0,10.7,58.707h.166v4.681a.539.539,0,0,0,.158.381L21.241,73.986a.539.539,0,0,0,.381.158h4.417a.539.539,0,0,0,.381-.158L36.637,63.769a.539.539,0,0,0,.158-.381V56.84a.539.539,0,0,0-.539-.539ZM26.649,69.723a.539.539,0,0,0-.67.363,12.018,12.018,0,0,0-.468,2.98h-3.36a10.063,10.063,0,0,0-2.417-6.518l1.81-7.155H26.05L27.874,66.6a8.951,8.951,0,0,0-1.038,1.459.539.539,0,1,0,.937.533,9,9,0,0,1,5.174-4.017,13.186,13.186,0,0,1,1.827-.472l-8.122,8.122a10.352,10.352,0,0,1,.361-1.837.539.539,0,0,0-.363-.67Zm-7.8-4.055a10.453,10.453,0,0,0-2.085-1.4,13.813,13.813,0,0,0-4.814-1.387V59.393h8.487Zm-2.576-.437a8.416,8.416,0,0,1,4.743,7l-8.124-8.124a12.481,12.481,0,0,1,3.38,1.124Zm16.366-1.684a11.255,11.255,0,0,0-3.873,2.17l-1.6-6.325h8.555v3.493A14.2,14.2,0,0,0,32.635,63.548Zm3.082-5.233H11.945v-.935H35.717ZM17.659,56.3H14.151a9.635,9.635,0,0,1,8.233-7.681A9.652,9.652,0,0,1,17.659,56.3ZM15.1,44.945a.392.392,0,0,1,.334.056.335.335,0,0,1,.146.252c0,.009,0,.018,0,.027a.385.385,0,0,1-.385.385.539.539,0,0,0,0,1.078.385.385,0,0,1,.385.385c0,.009,0,.018,0,.027a.335.335,0,0,1-.146.252.392.392,0,0,1-.334.056L13.48,47V45.41Zm-4.016.412a.66.66,0,1,1,1.321,0v1.695a.66.66,0,0,1-1.321,0ZM8.051,45a.392.392,0,0,1,.334-.056L10,45.41V47l-1.617.465a.391.391,0,0,1-.334-.056.335.335,0,0,1-.146-.252q0-.013,0-.026a.385.385,0,0,1,.385-.385.539.539,0,1,0,0-1.078A.385.385,0,0,1,7.9,45.28c0-.009,0-.018,0-.027A.334.334,0,0,1,8.051,45ZM10.7,57.629l-.124,0a10.726,10.726,0,0,0-9.5-10.095V45.546H6.851a1.458,1.458,0,0,0,.3.657,1.456,1.456,0,0,0-.329.924c0,.034,0,.067,0,.1a1.409,1.409,0,0,0,.6,1.062,1.465,1.465,0,0,0,1.251.21l1.623-.467a1.737,1.737,0,0,0,2.869,0L14.8,48.5a1.465,1.465,0,0,0,1.252-.21,1.41,1.41,0,0,0,.6-1.062q0-.049,0-.1a1.456,1.456,0,0,0-.329-.924,1.458,1.458,0,0,0,.3-.657H22.4v1.986a10.714,10.714,0,0,0-9.35,8.769H11.406a.539.539,0,0,0-.539.539v.789H10.7Z" fill="#224b74"/>
      </g>
    </g>
  </g>
</svg>
