<svg xmlns="http://www.w3.org/2000/svg" width="85" height="85" viewBox="0 0 85 85">
  <g id="Grupo_1101762" data-name="Grupo 1101762" transform="translate(-1251.382 -412.999)">
    <g id="Grupo_1098742" data-name="Grupo 1098742" transform="translate(1251.332 412.999)">
      <rect id="Rect치ngulo_400898" data-name="Rect치ngulo 400898" width="85" height="85" rx="42.5" transform="translate(0.051 0)" fill="#d2c3dd"/>
      <g id="Rect치ngulo_400907" data-name="Rect치ngulo 400907" transform="translate(0.051 0)" fill="none" stroke="#0f1f33" stroke-linecap="round" stroke-width="2" stroke-dasharray="7">
        <rect width="85" height="85" rx="42.5" stroke="none"/>
        <rect x="1" y="1" width="83" height="83" rx="41.5" fill="none"/>
      </g>
    </g>
    <g id="aguja" transform="translate(1263.045 427.999)">
      <path id="Trazado_893991" data-name="Trazado 893991" d="M218.341,7.494a5.235,5.235,0,0,0-5.23,5.24c0,1.777,1.971,31.556,3.493,54.287a1.741,1.741,0,0,0,3.474,0c1.522-22.731,3.493-52.511,3.493-54.287A5.235,5.235,0,0,0,218.341,7.494Zm0,17.173c-.8,0-1.445-2.83-1.445-6.321s.647-6.321,1.445-6.321,1.445,2.83,1.445,6.321S219.139,24.667,218.341,24.667Z" transform="translate(-184.75 -6.572)" fill="#ccc"/>
      <path id="Trazado_893992" data-name="Trazado 893992" d="M244.662,7.494a5.219,5.219,0,0,0-1.537.23,5.241,5.241,0,0,1,3.693,5.01c0,1.777-1.971,31.556-3.493,54.287a1.85,1.85,0,0,1-.2.739,1.751,1.751,0,0,0,3.274-.739c1.522-22.731,3.493-52.511,3.493-54.287A5.235,5.235,0,0,0,244.662,7.494Z" transform="translate(-211.071 -6.572)" fill="#afafaf"/>
      <path id="Trazado_893993" data-name="Trazado 893993" d="M221.546,213.47a.923.923,0,0,0-.981.859c-.164,2.463-.327,4.89-.484,7.241a.819.819,0,0,1-1.634,0c-1.028-15.356-1.85-27.775-2.441-36.91a.922.922,0,0,0-1.84.119c.591,9.137,1.413,21.556,2.441,36.914a2.663,2.663,0,0,0,5.314,0c.158-2.351.32-4.778.484-7.242A.921.921,0,0,0,221.546,213.47Z" transform="translate(-185.673 -161.182)"/>
      <path id="Trazado_893994" data-name="Trazado 893994" d="M465.812,148a17.835,17.835,0,0,0-4.518-8.163.922.922,0,0,0-1.339,1.269,16.015,16.015,0,0,1,4.063,7.325.922.922,0,0,0,1.793-.431Z" transform="translate(-401 -122.382)"/>
      <path id="Trazado_893995" data-name="Trazado 893995" d="M57.927,15.3A33.145,33.145,0,0,0,39.619,8.74c.082-1.448.124-2.31.124-2.577a6.152,6.152,0,1,0-12.3,0c0,.456.118,2.592.357,6.475-2.815,1.542-4.882,2.528-10.066,2.121-4.055-.319-7.544-2.735-10.371-7.18A28.159,28.159,0,0,1,4.251.768a.922.922,0,0,0-1.78.483A29.506,29.506,0,0,0,5.776,8.526c3.114,4.917,7.2,7.708,11.809,8.07.85.067,1.625.1,2.34.1a15.176,15.176,0,0,0,8-2.03q.16,2.561.375,5.9a.922.922,0,1,0,1.84-.118c-.175-2.724-.316-4.947-.428-6.758.482-.263.99-.535,1.536-.812a20.055,20.055,0,0,0,.425,3.571c.145.635.587,2.568,1.921,2.568s1.776-1.933,1.921-2.568a21.968,21.968,0,0,0,.447-4.675A21.969,21.969,0,0,0,35.512,7.1c-.145-.635-.587-2.568-1.921-2.568S31.815,6.463,31.67,7.1a20.344,20.344,0,0,0-.431,3.726c-.594.285-1.141.565-1.655.839-.238-3.9-.3-5.207-.3-5.5a4.308,4.308,0,1,1,8.616,0c0,.845-.48,9.058-2.767,43.381a.922.922,0,0,0,.859.981l.062,0a.922.922,0,0,0,.919-.861c1.309-19.647,2.158-32.722,2.539-39.085a31.048,31.048,0,0,1,17.272,6.168A.922.922,0,0,0,57.927,15.3ZM33.591,16.526a17.624,17.624,0,0,1-.522-4.514q.5-.22,1.044-.442c0,.068,0,.135,0,.2A18,18,0,0,1,33.591,16.526Zm0-9.5a13.888,13.888,0,0,1,.435,2.6q-.465.18-.9.359A14.688,14.688,0,0,1,33.591,7.021Z" transform="translate(0)"/>
    </g>
  </g>
</svg>
