<svg xmlns="http://www.w3.org/2000/svg" width="85" height="85" viewBox="0 0 85 85">
  <g id="Grupo_1102659" data-name="Grupo 1102659" transform="translate(-1251.382 -412.999)">
    <g id="Grupo_1098742" data-name="Grupo 1098742" transform="translate(1251.332 412.999)">
      <rect id="Rectángulo_400898" data-name="Rectángulo 400898" width="85" height="85" rx="42.5" transform="translate(0.051 0)" fill="#d2c3dd"/>
      <g id="Rectángulo_400907" data-name="Rectángulo 400907" transform="translate(0.051 0)" fill="none" stroke="#0f1f33" stroke-linecap="round" stroke-width="2" stroke-dasharray="7">
        <rect width="85" height="85" rx="42.5" stroke="none"/>
        <rect x="1" y="1" width="83" height="83" rx="41.5" fill="none"/>
      </g>
    </g>
    <g id="aguja" transform="translate(1267.842 427.999)">
      <path id="Trazado_893991" data-name="Trazado 893991" d="M218.341,7.494a5.235,5.235,0,0,0-5.23,5.24c0,1.777,1.971,31.556,3.493,54.287a1.741,1.741,0,0,0,3.474,0c1.522-22.731,3.493-52.511,3.493-54.287A5.235,5.235,0,0,0,218.341,7.494Zm0,17.173c-.8,0-1.445-2.83-1.445-6.321s.647-6.321,1.445-6.321,1.445,2.83,1.445,6.321S219.139,24.667,218.341,24.667Z" transform="translate(-184.75 -6.572)" fill="#ccc"/>
      <path id="Trazado_893992" data-name="Trazado 893992" d="M244.662,7.494a5.219,5.219,0,0,0-1.537.23,5.241,5.241,0,0,1,3.693,5.01c0,1.777-1.971,31.556-3.493,54.287a1.85,1.85,0,0,1-.2.739,1.751,1.751,0,0,0,3.274-.739c1.522-22.731,3.493-52.511,3.493-54.287A5.235,5.235,0,0,0,244.662,7.494Z" transform="translate(-211.071 -6.572)" fill="#afafaf"/>
      <path id="Trazado_893993" data-name="Trazado 893993" d="M221.546,213.47a.923.923,0,0,0-.981.859c-.164,2.463-.327,4.89-.484,7.241a.819.819,0,0,1-1.634,0c-1.028-15.356-1.85-27.775-2.441-36.91a.922.922,0,0,0-1.84.119c.591,9.137,1.413,21.556,2.441,36.914a2.663,2.663,0,0,0,5.314,0c.158-2.351.32-4.778.484-7.242A.921.921,0,0,0,221.546,213.47Z" transform="translate(-185.673 -161.182)"/>
      <path id="Trazado_893995" data-name="Trazado 893995" d="M39.743,6.162a6.152,6.152,0,1,0-12.3,0c0,.456.715,12.175.858,14.4a.922.922,0,1,0,1.84-.118c-.175-2.724-.316-4.947-.428-6.758.482-.263.99-.535,1.536-.812a20.055,20.055,0,0,0,.425,3.571c.145.635.587,2.568,1.921,2.568s1.776-1.933,1.921-2.568a21.968,21.968,0,0,0,.447-4.675A21.969,21.969,0,0,0,35.512,7.1c-.145-.635-.587-2.568-1.921-2.568S31.815,6.463,31.67,7.1a20.344,20.344,0,0,0-.431,3.726c-.594.285-1.141.565-1.655.839-.238-3.9-.3-5.207-.3-5.5a4.308,4.308,0,1,1,8.616,0c0,.845-.48,9.058-2.767,43.381a.922.922,0,0,0,.859.981l.062,0a.922.922,0,0,0,.919-.861C38.281,30.019,39.743,6.43,39.743,6.162ZM33.591,16.526a17.624,17.624,0,0,1-.522-4.514q.5-.22,1.044-.442c0,.068,0,.135,0,.2A18,18,0,0,1,33.591,16.526Zm0-9.5a13.888,13.888,0,0,1,.435,2.6q-.465.18-.9.359A14.688,14.688,0,0,1,33.591,7.021Z" transform="translate(0)"/>
      <path id="Trazado_894001" data-name="Trazado 894001" d="M23.461,5.063a1.493,1.493,0,0,1-.788-.225L18.106,2.011,12.962,4.364a1.5,1.5,0,1,1-1.248-2.728l5.875-2.687A1.5,1.5,0,0,1,19-.963l5.25,3.25a1.5,1.5,0,0,1-.791,2.776Z"/>
      <path id="Trazado_894002" data-name="Trazado 894002" d="M23.461,5.063a1.493,1.493,0,0,1-.788-.225L18.106,2.011,12.962,4.364a1.5,1.5,0,1,1-1.248-2.728l5.875-2.687A1.5,1.5,0,0,1,19-.963l5.25,3.25a1.5,1.5,0,0,1-.791,2.776Z" transform="translate(35.801 57.875) rotate(180)"/>
      <path id="Línea_606" data-name="Línea 606" d="M1.5,57h-3V0h3Z" transform="translate(17.838 0.5)"/>
    </g>
  </g>
</svg>
