<svg xmlns="http://www.w3.org/2000/svg" width="85" height="85" viewBox="0 0 85 85">
  <g id="Grupo_1102670" data-name="Grupo 1102670" transform="translate(-1251.382 -412.999)">
    <g id="Grupo_1098742" data-name="Grupo 1098742" transform="translate(1251.332 412.999)">
      <rect id="Rectángulo_400898" data-name="Rectángulo 400898" width="85" height="85" rx="42.5" transform="translate(0.051 0)" fill="#fddde1"/>
      <g id="Rectángulo_400907" data-name="Rectángulo 400907" transform="translate(0.051 0)" fill="none" stroke="#0f1f33" stroke-linecap="round" stroke-width="2" stroke-dasharray="7">
        <rect width="85" height="85" rx="42.5" stroke="none"/>
        <rect x="1" y="1" width="83" height="83" rx="41.5" fill="none"/>
      </g>
    </g>
    <g id="_28-sewing_machine" data-name="28-sewing machine" transform="translate(1257.383 420.999)">
      <path id="Trazado_894001" data-name="Trazado 894001" d="M63,57.5V59l-5,4L45.93,61.87l-2.1-3.78L44,58l11,1h3l2-1v-.5a1.5,1.5,0,0,1,3,0Z" fill="#e4e4e4"/>
      <path id="Trazado_894002" data-name="Trazado 894002" d="M42.12,55.01,53,56l2-2v-.5a1.5,1.5,0,0,1,3,0V55l-3,4L44,58l-.17.09Z" fill="#cfcfcf"/>
      <path id="Trazado_894003" data-name="Trazado 894003" d="M19.48,28.64,22,32H18l-1.08-1.44a1.6,1.6,0,0,1,2.56-1.92Z" fill="#adadad"/>
      <path id="Trazado_894004" data-name="Trazado 894004" d="M20,44v4H11L4,36H1V32H6l7,12Z" fill="#adadad"/>
      <path id="Trazado_894005" data-name="Trazado 894005" d="M42.12,55.01l1.71,3.08,2.1,3.78L31,60.48V53h3V50l7,3Z" fill="#adadad"/>
      <path id="Trazado_894006" data-name="Trazado 894006" d="M25,47a2,2,0,1,0-2-2,2,2,0,0,0,2,2Zm9,3v3H31L20,49V40l-4-1V32h8v7h3v2h7Z" fill="#e4e4e4"/>
      <circle id="Elipse_11516" data-name="Elipse 11516" cx="2" cy="2" r="2" transform="translate(23 43)" fill="#595959"/>
      <path id="Trazado_894007" data-name="Trazado 894007" d="M45,21h8v1a2.006,2.006,0,0,1-2,2H47a2.006,2.006,0,0,1-2-2Z" fill="#848484"/>
      <path id="Trazado_894008" data-name="Trazado 894008" d="M45,1h8V11H45Z" fill="#e4e4e4"/>
      <path id="Trazado_894009" data-name="Trazado 894009" d="M45,11h8a2.006,2.006,0,0,1,2,2v6a2.006,2.006,0,0,1-2,2H45a2.006,2.006,0,0,1-2-2V13A2.006,2.006,0,0,1,45,11Z" fill="#adadad"/>
      <path id="Trazado_894010" data-name="Trazado 894010" d="M33,30V41H27V29c0-1.66,1.34-4,3-4a2.722,2.722,0,0,1,2.12,1.38A4.946,4.946,0,0,1,33,29Z" fill="#adadad"/>
      <path id="Trazado_894011" data-name="Trazado 894011" d="M35,26l-2,4V29a4.946,4.946,0,0,0-.88-2.62A2.722,2.722,0,0,0,30,25c-1.66,0-3,2.34-3,4v1l-2-4V1H35Z" fill="#e4e4e4"/>
      <path id="Trazado_894012" data-name="Trazado 894012" d="M24.23,50.54,23,53a2.236,2.236,0,0,1-2.01,1.23A2.207,2.207,0,0,1,20,54a2.243,2.243,0,0,1-1-3l1-2Z" fill="#adadad"/>
      <path id="Trazado_894013" data-name="Trazado 894013" d="M33,1V30l2-4V1Z" fill="#e4e4e4"/>
      <path id="Trazado_894014" data-name="Trazado 894014" d="M27,1H25V26l2,4V1Z" fill="#e4e4e4"/>
      <path id="Trazado_894015" data-name="Trazado 894015" d="M51,23H47a2.006,2.006,0,0,1-2-2v1a2.006,2.006,0,0,0,2,2h4a2.006,2.006,0,0,0,2-2V21a2.006,2.006,0,0,1-2,2Z" fill="#adadad"/>
      <path id="Trazado_894016" data-name="Trazado 894016" d="M47,1V7a2,2,0,0,0,2,2h4v2H45V1Z" fill="#cfcfcf"/>
      <ellipse id="Elipse_11517" data-name="Elipse 11517" cx="1.642" cy="2.286" rx="1.642" ry="2.286" transform="translate(35.894 54.26) rotate(-45)" fill="#f6fafd"/>
      <ellipse id="Elipse_11518" data-name="Elipse 11518" cx="0.825" cy="1.148" rx="0.825" ry="1.148" transform="translate(40.273 57.502) rotate(-45)" fill="#f6fafd"/>
      <ellipse id="Elipse_11519" data-name="Elipse 11519" cx="0.825" cy="1.148" rx="0.825" ry="1.148" transform="translate(50.29 12.499) rotate(-45)" fill="#f6fafd"/>
      <ellipse id="Elipse_11520" data-name="Elipse 11520" cx="0.413" cy="0.574" rx="0.413" ry="0.574" transform="translate(48.733 7.113) rotate(-45)" fill="#f6fafd"/>
      <rect id="Rectángulo_402650" data-name="Rectángulo 402650" width="16" height="2" rx="1" transform="translate(30 23) rotate(-90)" fill="#f0f0f0"/>
      <rect id="Rectángulo_402651" data-name="Rectángulo 402651" width="2" height="3" rx="1" transform="translate(30 3)" fill="#f0f0f0"/>
      <rect id="Rectángulo_402652" data-name="Rectángulo 402652" width="8" height="2" rx="1" transform="translate(51 9) rotate(-90)" fill="#f0f0f0"/>
      <circle id="Elipse_11521" data-name="Elipse 11521" cx="2" cy="2" r="2" transform="translate(47 14)" fill="#595959"/>
      <g id="Grupo_1102671" data-name="Grupo 1102671">
        <path id="Trazado_894017" data-name="Trazado 894017" d="M53,11H51.667C52.4,11,53,11.9,53,13v6c0,1.1-.6,2-1.333,2H53a2.006,2.006,0,0,0,2-2V13a2.006,2.006,0,0,0-2-2Z" fill="#cfcfcf"/>
        <path id="Trazado_894018" data-name="Trazado 894018" d="M45,19V13c0-1.1.6-2,1.333-2H45a2.006,2.006,0,0,0-2,2v6a2.006,2.006,0,0,0,2,2h1.333C45.6,21,45,20.1,45,19Z" fill="#cfcfcf"/>
        <path id="Trazado_894019" data-name="Trazado 894019" d="M31.816,26a4.361,4.361,0,0,1,.3.38A4.946,4.946,0,0,1,33,29V26Z" fill="#cfcfcf"/>
        <path id="Trazado_894020" data-name="Trazado 894020" d="M27,29a4.971,4.971,0,0,1,1.182-3H27Z" fill="#cfcfcf"/>
      </g>
      <path id="Trazado_894021" data-name="Trazado 894021" d="M33,29v1l2-4H33Z" fill="#c1c1c1"/>
      <path id="Trazado_894022" data-name="Trazado 894022" d="M33,1h2V26H33Z" fill="#cfcfcf"/>
      <path id="Trazado_894023" data-name="Trazado 894023" d="M25,1h2V26H25Z" fill="#cfcfcf"/>
      <path id="Trazado_894024" data-name="Trazado 894024" d="M25,26l2,4V26Z" fill="#c1c1c1"/>
      <path id="Trazado_894025" data-name="Trazado 894025" d="M32,39a2,2,0,0,1-2-2V25c-1.66,0-3,2.34-3,4V41h6V39Z" fill="#848484"/>
      <path id="Trazado_894026" data-name="Trazado 894026" d="M18,44a2,2,0,0,1-2,2H12L5,34H1v2H4l7,12h9V44Z" fill="#848484"/>
      <path id="Trazado_894027" data-name="Trazado 894027" d="M22,47V38l-4-1V32H16v7l4,1v9l11,4h3V50H31Z" fill="#cfcfcf"/>
      <circle id="Elipse_11522" data-name="Elipse 11522" cx="2" cy="2" r="2" transform="translate(23 43)" fill="#595959"/>
      <path id="Trazado_894028" data-name="Trazado 894028" d="M22,39h5v2H22Z" fill="#cfcfcf"/>
      <rect id="Rectángulo_402653" data-name="Rectángulo 402653" width="8" height="2" rx="1" transform="translate(31 50) rotate(-90)" fill="#f0f0f0"/>
      <path id="Trazado_894029" data-name="Trazado 894029" d="M35.736,58.231A2,2,0,0,1,34,56.249V53H31v7.48l14.93,1.39-1.368-2.462Z" fill="#9c9c9c"/>
      <path id="Trazado_894030" data-name="Trazado 894030" d="M56.5,52A1.5,1.5,0,0,0,55,53.5V54l-.014.014a2,2,0,0,1,.1,2.35L54,58l-9-1-.9-1.81-1.975-.18,1.71,3.08L44,58l11,1,3-4V53.5A1.5,1.5,0,0,0,56.5,52Z" fill="#c1c1c1"/>
      <path id="Trazado_894031" data-name="Trazado 894031" d="M61.5,56A1.5,1.5,0,0,0,60,57.5V58l.185.185a1,1,0,0,1-.107,1.507L57,62l-9-1-1.871-2.806L44,58l-.17.09,2.1,3.78L58,63l5-4V57.5A1.5,1.5,0,0,0,61.5,56Z" fill="#cfcfcf"/>
      <path id="Trazado_894032" data-name="Trazado 894032" d="M16,43h2v2H16Z"/>
      <path id="Trazado_894033" data-name="Trazado 894033" d="M18,47H11.574L4.864,35.5A1,1,0,0,0,4,35H2V33H5.426l6.71,11.5A1,1,0,0,0,13,45h1V43h-.426L6.864,31.5A1,1,0,0,0,6,31H1a1,1,0,0,0-1,1v4a1,1,0,0,0,1,1H3.426l6.71,11.5A1,1,0,0,0,11,49h7Z"/>
      <path id="Trazado_894034" data-name="Trazado 894034" d="M26,2h8V19h2V1a1,1,0,0,0-1-1H25a1,1,0,0,0-1,1V4h2Z"/>
      <path id="Trazado_894035" data-name="Trazado 894035" d="M24,6h2V8H24Z"/>
      <path id="Trazado_894036" data-name="Trazado 894036" d="M61.5,55A2.5,2.5,0,0,0,59,57.381L57.764,58H57l1.8-2.4A1,1,0,0,0,59,55V53.5a2.5,2.5,0,0,0-5,0v.086l-1.376,1.376-9.89-.9-.86-1.547a.989.989,0,0,0-.48-.434L35,49.341V41a1,1,0,0,0-1-1V30.236l1.9-3.789A1,1,0,0,0,36,26V21H34v4.764L33.483,26.8C32.83,25.325,31.6,24,30,24s-2.83,1.325-3.483,2.8L26,25.764V10H24V26a1,1,0,0,0,.105.447L26,30.236V38H25V32a1,1,0,0,0-1-1H22.5l-2.221-2.962A2.617,2.617,0,0,0,18.2,27a2.581,2.581,0,0,0-2.168,4H16a1,1,0,0,0-1,1v7a1,1,0,0,0,.758.97L19,40.781v7.983l-.9,1.789a3.236,3.236,0,1,0,5.79,2.894l.832-1.664L30,53.7v5.681l-2.1-.2a1,1,0,0,1-.9-1V56H25v2.19a2.992,2.992,0,0,0,2.708,2.986L57.907,64H58a1,1,0,0,0,.625-.219l5-4A1,1,0,0,0,64,59V57.5A2.5,2.5,0,0,0,61.5,55Zm-8.591,2a.99.99,0,0,0,.8-.289l2-2A1,1,0,0,0,56,54v-.5a.5.5,0,0,1,1,0v1.167l-2.465,3.286L44.383,57.03l-.474-.852ZM28,29c0-1.239,1.034-3,2-3s2,1.761,2,3V40H28Zm-10.28.96A.6.6,0,0,1,18.2,29a.608.608,0,0,1,.481.239L20,31H18.5ZM17,38.219V33h6v6a1,1,0,0,0,1,1h2v1a1,1,0,0,0,1,1h6v5H31.236l-3.273-1.637A2.9,2.9,0,0,0,28,45a3.015,3.015,0,1,0-.923,2.156L30.553,48.9A1,1,0,0,0,31,49h2v3H31.176L21,48.3V40a1,1,0,0,0-.758-.97ZM26,45a1,1,0,1,1-1-1A1,1,0,0,1,26,45Zm-3.9,7.553a1.236,1.236,0,1,1-2.21-1.106l.6-1.2,2.339.85ZM32,54h2a1,1,0,0,0,1-1V51.516l5.292,2.268L44.135,60.7,32,59.568Zm30,4.52-4.31,3.447L46.547,60.926l-.989-1.78,9.351.85v-.009A.886.886,0,0,0,55,60h3a1,1,0,0,0,.447-.1l2-1A1,1,0,0,0,61,58v-.5a.5.5,0,0,1,1,0Z"/>
      <path id="Trazado_894037" data-name="Trazado 894037" d="M44,21.816V22a3,3,0,0,0,3,3h1V53h2V25h1a3,3,0,0,0,3-3v-.184A3,3,0,0,0,56,19V13a3,3,0,0,0-3-3H46V2h6V8h2V1a1,1,0,0,0-1-1H45a1,1,0,0,0-1,1v9.184A3,3,0,0,0,42,13v6a3,3,0,0,0,2,2.816ZM51,23H47a1,1,0,0,1-1-1h6A1,1,0,0,1,51,23ZM44,13a1,1,0,0,1,1-1h8a1,1,0,0,1,1,1v6a1,1,0,0,1-1,1H45a1,1,0,0,1-1-1Z"/>
      <path id="Trazado_894038" data-name="Trazado 894038" d="M49,19a3,3,0,1,0-3-3A3,3,0,0,0,49,19Zm0-4a1,1,0,1,1-1,1A1,1,0,0,1,49,15Z"/>
    </g>
  </g>
</svg>
