<svg id="sastre" xmlns="http://www.w3.org/2000/svg" width="75.865" height="75.865" viewBox="0 0 75.865 75.865">
  <path id="Trazado_893542" data-name="Trazado 893542" d="M112.973,307.553a26.479,26.479,0,0,1-10.546-2.185,1.111,1.111,0,0,1,.885-2.039,24.322,24.322,0,0,0,19.518-.085,1.111,1.111,0,1,1,.9,2.031A26.5,26.5,0,0,1,112.973,307.553Z" transform="translate(-86.68 -258.229)" fill="#916aab"/>
  <path id="Trazado_893543" data-name="Trazado 893543" d="M108.811,351.717A26.537,26.537,0,0,1,97.5,349.195a1.111,1.111,0,1,1,.949-2.01,24.39,24.39,0,0,0,18.953.747,1.111,1.111,0,0,1,.787,2.078A26.478,26.478,0,0,1,108.811,351.717Z" transform="translate(-82.506 -295.65)" fill="#916aab"/>
  <path id="Trazado_893544" data-name="Trazado 893544" d="M218.528,54.274h-6.243a1.111,1.111,0,1,1,0-2.223h6.243a4.309,4.309,0,0,0,4.3-4.3V30.185a13.107,13.107,0,0,0-11.338-12.963,1.111,1.111,0,0,1,.292-2.2,15.336,15.336,0,0,1,13.268,15.166V47.748A6.534,6.534,0,0,1,218.528,54.274Z" transform="translate(-179.334 -12.785)" fill="#916aab"/>
  <path id="Trazado_893545" data-name="Trazado 893545" d="M63.97,41.489H57.726A6.533,6.533,0,0,1,51.2,34.963V18.449A18.47,18.47,0,0,1,69.649,0,11.075,11.075,0,0,1,80.712,11.063v1.369a1.111,1.111,0,1,1-2.223,0V11.063a8.85,8.85,0,0,0-8.84-8.84A16.245,16.245,0,0,0,53.423,18.449V34.963a4.308,4.308,0,0,0,4.3,4.3H63.97a1.111,1.111,0,1,1,0,2.223Z" transform="translate(-43.613)" fill="#916aab"/>
  <path id="Trazado_893546" data-name="Trazado 893546" d="M222.474,264.195a1.119,1.119,0,0,1-.192-.017l-4.955-.865a2.95,2.95,0,0,1-2.446-2.911v-5.06a1.111,1.111,0,1,1,2.223,0v5.06a.731.731,0,0,0,.606.722l4.955.865a1.111,1.111,0,0,1-.19,2.206Z" transform="translate(-183.04 -216.56)" fill="#916aab"/>
  <path id="Trazado_893547" data-name="Trazado 893547" d="M263.1,129.448h-.649a1.111,1.111,0,1,1,0-2.223h.649a3,3,0,1,0,0-6h-.662a1.111,1.111,0,0,1,0-2.223h.662a5.224,5.224,0,1,1,0,10.448Z" transform="translate(-222.608 -101.367)" fill="#916aab"/>
  <path id="Trazado_893548" data-name="Trazado 893548" d="M57.074,129.448h-.649a5.224,5.224,0,1,1,0-10.448h.662a1.111,1.111,0,1,1,0,2.223h-.662a3,3,0,1,0,0,6h.649a1.111,1.111,0,0,1,0,2.223Z" transform="translate(-43.613 -101.367)" fill="#916aab"/>
  <path id="Trazado_893549" data-name="Trazado 893549" d="M97.641,100.292a14.321,14.321,0,0,1-14.3-14.3V78A8.979,8.979,0,0,1,92.3,69.032h10.672A8.979,8.979,0,0,1,111.945,78v7.987A14.321,14.321,0,0,1,97.641,100.292ZM92.3,71.255A6.754,6.754,0,0,0,85.559,78v7.987a12.082,12.082,0,1,0,24.164,0V78a6.754,6.754,0,0,0-6.746-6.746Z" transform="translate(-70.988 -58.803)" fill="#916aab"/>
  <path id="Línea_596" data-name="Línea 596" d="M-6.389,1.9h0A1.111,1.111,0,0,1-7.5.793l0-7.182A1.111,1.111,0,0,1-6.385-7.5,1.111,1.111,0,0,1-5.274-6.388l0,7.182A1.111,1.111,0,0,1-6.389,1.9Z" transform="translate(19.627 73.961)" fill="#916aab"/>
  <path id="Línea_597" data-name="Línea 597" d="M-6.389-3.944A1.111,1.111,0,0,1-7.5-5.055V-6.389A1.111,1.111,0,0,1-6.389-7.5,1.111,1.111,0,0,1-5.277-6.389v1.334A1.111,1.111,0,0,1-6.389-3.944Z" transform="translate(39.176 28.579)" fill="#916aab"/>
  <path id="Línea_598" data-name="Línea 598" d="M-6.389-3.944A1.111,1.111,0,0,1-7.5-5.055V-6.389A1.111,1.111,0,0,1-6.389-7.5,1.111,1.111,0,0,1-5.277-6.389v1.334A1.111,1.111,0,0,1-6.389-3.944Z" transform="translate(26.908 28.579)" fill="#916aab"/>
  <path id="Trazado_893550" data-name="Trazado 893550" d="M158.738,219.254a5.465,5.465,0,0,1-3.219-1.05,1.111,1.111,0,0,1,1.307-1.8,3.242,3.242,0,0,0,3.824,0,1.111,1.111,0,0,1,1.307,1.8A5.465,5.465,0,0,1,158.738,219.254Z" transform="translate(-132.085 -184.159)" fill="#916aab"/>
  <path id="Línea_599" data-name="Línea 599" d="M-5.648-5.277h-.741A1.111,1.111,0,0,1-7.5-6.389,1.111,1.111,0,0,1-6.389-7.5h.741A1.111,1.111,0,0,1-4.537-6.389,1.111,1.111,0,0,1-5.648-5.277Z" transform="translate(32.671 35.504)" fill="#916aab"/>
  <path id="Trazado_893551" data-name="Trazado 893551" d="M71.524,321.062H68.857a2,2,0,0,1-2-2V298.28a2,2,0,0,1,2-2h2.667a2,2,0,0,1,2,2v20.781A2,2,0,0,1,71.524,321.062Zm-2.445-2.223H71.3V298.5H69.08Z" transform="translate(-56.951 -252.379)" fill="#916aab"/>
  <path id="Trazado_893552" data-name="Trazado 893552" d="M235.877,345.886h-1.765a3.487,3.487,0,0,1-3.482-3.484v-3.909a3.487,3.487,0,0,1,3.482-3.484h1.765a1.111,1.111,0,1,1,0,2.223h-1.765a1.262,1.262,0,0,0-1.259,1.261V342.4a1.262,1.262,0,0,0,1.259,1.261h1.765a1.111,1.111,0,0,1,0,2.223Z" transform="translate(-196.457 -285.37)" fill="#916aab"/>
  <path id="Trazado_893553" data-name="Trazado 893553" d="M259.651,316.489a1.111,1.111,0,0,1-1.111-1.111V292.295a4.079,4.079,0,0,1,4.075-4.075h27.863a4.079,4.079,0,0,1,4.075,4.075v5.343a1.111,1.111,0,0,1-2.223,0v-5.343a1.854,1.854,0,0,0-1.852-1.852H262.615a1.854,1.854,0,0,0-1.852,1.852v23.083A1.111,1.111,0,0,1,259.651,316.489Z" transform="translate(-220.231 -245.513)" fill="#916aab"/>
  <path id="Trazado_893554" data-name="Trazado 893554" d="M344.241,394.056a1.111,1.111,0,0,1-1.111-1.111V381.952a2.3,2.3,0,0,1,2.3-2.3h9.545a2.3,2.3,0,0,1,2.3,2.3v1.99l7.043.074.074-3.624a1.111,1.111,0,1,1,2.223,0v3.55a2.3,2.3,0,0,1-2.3,2.3h-6.969a2.3,2.3,0,0,1-2.3-2.3v-1.99l-9.619-.074-.074,11.067A1.111,1.111,0,0,1,344.241,394.056Z" transform="translate(-292.287 -323.08)" fill="#916aab"/>
  <path id="Trazado_893555" data-name="Trazado 893555" d="M273.844,471.112h-37.62A1.111,1.111,0,0,1,235.113,470v-3.7a2.3,2.3,0,0,1,2.3-2.3h36.434a2.3,2.3,0,0,1,2.3,2.3v2.519A2.3,2.3,0,0,1,273.844,471.112Zm-36.486-2.223h36.486a.074.074,0,0,0,.074-.074V466.3l-36.508-.074Z" transform="translate(-200.275 -395.247)" fill="#916aab"/>
  <path id="Línea_600" data-name="Línea 600" d="M-6.389-2.251A1.111,1.111,0,0,1-7.5-3.362V-6.389A1.111,1.111,0,0,1-6.389-7.5,1.111,1.111,0,0,1-5.277-6.389v3.026A1.111,1.111,0,0,1-6.389-2.251Z" transform="translate(74.928 68.436)" fill="#916aab"/>
  <path id="Línea_601" data-name="Línea 601" d="M-6.389,2.45A1.111,1.111,0,0,1-7.5,1.339V-6.389A1.111,1.111,0,0,1-6.389-7.5,1.111,1.111,0,0,1-5.277-6.389V1.339A1.111,1.111,0,0,1-6.389,2.45Z" transform="translate(74.928 50.206)" fill="#916aab"/>
  <path id="Elipse_11509" data-name="Elipse 11509" d="M-4.166-7.5A3.338,3.338,0,0,1-.832-4.166,3.338,3.338,0,0,1-4.166-.832,3.338,3.338,0,0,1-7.5-4.166,3.338,3.338,0,0,1-4.166-7.5Zm0,4.445A1.113,1.113,0,0,0-3.055-4.166,1.113,1.113,0,0,0-4.166-5.277,1.113,1.113,0,0,0-5.277-4.166,1.113,1.113,0,0,0-4.166-3.055Z" transform="translate(50.253 54.918)" fill="#916aab"/>
  <path id="Elipse_11510" data-name="Elipse 11510" d="M-4.166-7.5A3.338,3.338,0,0,1-.832-4.166,3.338,3.338,0,0,1-4.166-.832,3.338,3.338,0,0,1-7.5-4.166,3.338,3.338,0,0,1-4.166-7.5Zm0,4.445A1.113,1.113,0,0,0-3.055-4.166,1.113,1.113,0,0,0-4.166-5.277,1.113,1.113,0,0,0-5.277-4.166,1.113,1.113,0,0,0-4.166-3.055Z" transform="translate(59.144 54.918)" fill="#916aab"/>
  <path id="Línea_602" data-name="Línea 602" d="M-2.825-5.277H-6.389A1.111,1.111,0,0,1-7.5-6.389,1.111,1.111,0,0,1-6.389-7.5h3.564A1.111,1.111,0,0,1-1.713-6.389,1.111,1.111,0,0,1-2.825-5.277Z" transform="translate(50.414 71.363)" fill="#916aab"/>
  <path id="Línea_603" data-name="Línea 603" d="M-2.825-5.277H-6.389A1.111,1.111,0,0,1-7.5-6.389,1.111,1.111,0,0,1-6.389-7.5h3.564A1.111,1.111,0,0,1-1.713-6.389,1.111,1.111,0,0,1-2.825-5.277Z" transform="translate(50.414 66.708)" fill="#916aab"/>
  <path id="Línea_604" data-name="Línea 604" d="M-1.943-5.277H-6.389A1.111,1.111,0,0,1-7.5-6.389,1.111,1.111,0,0,1-6.389-7.5h4.445A1.111,1.111,0,0,1-.832-6.389,1.111,1.111,0,0,1-1.943-5.277Z" transform="translate(17.406 69.224)" fill="#916aab"/>
  <path id="Trazado_893556" data-name="Trazado 893556" d="M1.111,324.434A1.111,1.111,0,0,1,0,323.322V321.15a11.236,11.236,0,0,1,9.319-11.089l1.576-.276a1.111,1.111,0,1,1,.383,2.189l-1.577.276a9.017,9.017,0,0,0-7.479,8.9v2.172A1.111,1.111,0,0,1,1.111,324.434Z" transform="translate(0 -263.869)" fill="#916aab"/>
  <path id="Trazado_893557" data-name="Trazado 893557" d="M52.194,441.077H2.956A2.959,2.959,0,0,1,0,438.121v-8.27a1.111,1.111,0,1,1,2.223,0v8.27a.734.734,0,0,0,.733.733H52.194a1.111,1.111,0,0,1,0,2.223Z" transform="translate(0 -365.212)" fill="#916aab"/>
  <path id="Trazado_893558" data-name="Trazado 893558" d="M97.969,263.918a1.111,1.111,0,0,1-.191-2.206l3.366-.588a.732.732,0,0,0,.608-.722v-5.06a1.111,1.111,0,1,1,2.223,0v5.06a2.95,2.95,0,0,1-2.448,2.911l-3.364.588A1.119,1.119,0,0,1,97.969,263.918Z" transform="translate(-82.507 -216.56)" fill="#916aab"/>
</svg>
