<svg xmlns="http://www.w3.org/2000/svg" width="85" height="85" viewBox="0 0 85 85">
  <g id="Grupo_1103252" data-name="Grupo 1103252" transform="translate(-180.05 -7891.745)">
    <g id="Grupo_1101762" data-name="Grupo 1101762" transform="translate(-1071.332 7478.746)">
      <g id="Grupo_1098742" data-name="Grupo 1098742" transform="translate(1251.332 412.999)">
        <rect id="Rect치ngulo_400898" data-name="Rect치ngulo 400898" width="85" height="85" rx="42.5" transform="translate(0.051 0)" fill="#d2c3dd"/>
        <g id="Rect치ngulo_400907" data-name="Rect치ngulo 400907" transform="translate(0.051 0)" fill="none" stroke="#0f1f33" stroke-linecap="round" stroke-width="2" stroke-dasharray="7">
          <rect width="85" height="85" rx="42.5" stroke="none"/>
          <rect x="1" y="1" width="83" height="83" rx="41.5" fill="none"/>
        </g>
      </g>
      <g id="textil" transform="translate(1267.626 429.331)">
        <path id="Trazado_892624" data-name="Trazado 892624" d="M48.825,18.41h1.3a2.3,2.3,0,0,0,0-4.6H48.935a8.105,8.105,0,0,0-1.361-2.621,2.942,2.942,0,0,1-.788-2.077,2.138,2.138,0,0,1,.249-1.005c.084-.205.175-.429.268-.689h2.825a2.3,2.3,0,0,0,0-4.6H48a2.347,2.347,0,1,0-4.6,0H36.086a2.348,2.348,0,1,0-4.6,0H24.176a2.347,2.347,0,1,0-4.6,0h-2.59a.767.767,0,0,0,0,1.534H31.39a6.793,6.793,0,0,1-.336,1.534H11.988a14.881,14.881,0,0,0,.2-1.534h1.176a.767.767,0,0,0,0-1.534h-1.1a2.348,2.348,0,1,0-4.6,0H2.385a2.3,2.3,0,0,0,0,4.6H6.673a7.5,7.5,0,0,0,1.389,6.391H2.385a2.3,2.3,0,0,0,0,4.6h5.43A7.674,7.674,0,0,0,8.1,27.5c.071.1.136.191.2.278H2.385a2.3,2.3,0,0,0,0,4.6H7.6a7.681,7.681,0,0,0,.5,8.762l.161.227H2.385a2.3,2.3,0,0,0,0,4.6H7.632a7.1,7.1,0,0,0-1.176,4.068,2.3,2.3,0,1,0,4.6,0,2.942,2.942,0,0,1,.788-2.076,9.02,9.02,0,0,0,1.149-1.992h6.548a7.1,7.1,0,0,0-1.176,4.068,2.3,2.3,0,1,0,4.6,0,2.942,2.942,0,0,1,.788-2.076A9.045,9.045,0,0,0,24.9,45.966h6.548a7.1,7.1,0,0,0-1.176,4.068,2.3,2.3,0,1,0,4.6,0,2.942,2.942,0,0,1,.788-2.076,9.02,9.02,0,0,0,1.149-1.992h6.548a7.1,7.1,0,0,0-1.176,4.068,2.3,2.3,0,0,0,4.6,0,2.941,2.941,0,0,1,.788-2.076,9.047,9.047,0,0,0,1.149-1.992h1.406a2.3,2.3,0,0,0,0-4.6H49.008a7.852,7.852,0,0,0-1.434-2.9,3.13,3.13,0,0,1,0-4.152A9.152,9.152,0,0,0,48.7,32.377h1.426a2.3,2.3,0,0,0,0-4.6h-1.11a7.823,7.823,0,0,0-1.445-2.947,3.13,3.13,0,0,1,0-4.152,8.548,8.548,0,0,0,1.252-2.268ZM21.113,2.291a.767.767,0,0,1,1.534,0q0,.269-.005.527H21.108C21.111,2.647,21.113,2.472,21.113,2.291ZM50.9,16.11a.768.768,0,0,1-.767.767H37.253a8.835,8.835,0,0,0,.031-1.534H50.129A.768.768,0,0,1,50.9,16.11ZM35.664,24.83a3.13,3.13,0,0,1,0-4.152,8.557,8.557,0,0,0,1.251-2.268h6.63a7.674,7.674,0,0,0,.281,9.088c.071.1.135.191.2.278H37.109A7.871,7.871,0,0,0,35.664,24.83ZM35.126,8.107c.085-.208.177-.433.269-.689H42.4a7.5,7.5,0,0,0,1.389,6.391H37.026a8.143,8.143,0,0,0-1.361-2.621,2.942,2.942,0,0,1-.788-2.077A2.137,2.137,0,0,1,35.126,8.107Zm11.2,3.971a7.4,7.4,0,0,1,1,1.731H45.631a9.459,9.459,0,0,0-.556-.842,5.9,5.9,0,0,1-1.063-5.549H45.66l-.044.108A4.307,4.307,0,0,0,46.325,12.078ZM44.933,2.291a.767.767,0,0,1,1.534,0q0,.269-.005.527H44.928C44.931,2.647,44.933,2.471,44.933,2.291Zm5.2,2.06a.767.767,0,0,1,0,1.534H35.808a14.882,14.882,0,0,0,.2-1.534ZM11.844,38.47a3.13,3.13,0,0,1,0-4.152,9.119,9.119,0,0,0,1.129-1.941h6.536a7.681,7.681,0,0,0,.5,8.762l.16.227h-6.89a7.906,7.906,0,0,0-1.433-2.9Zm9.411-25.5a5.9,5.9,0,0,1-1.064-5.549h1.649l-.044.108a4.307,4.307,0,0,0,.709,4.552,7.4,7.4,0,0,1,1,1.731H21.811A9.463,9.463,0,0,0,21.256,12.967Zm11.407,2.376a3.7,3.7,0,0,1-.085,1.534H13.434a8.836,8.836,0,0,0,.031-1.534ZM22.5,25.719a6.874,6.874,0,0,1,1.107,2.057H21.978a6.949,6.949,0,0,0-.722-1.168A5.92,5.92,0,0,1,19.9,22.753c.029-2.292.856-3.087,1.7-4.344h1.76a8.508,8.508,0,0,1-.85,1.378,4.638,4.638,0,0,0,0,5.931Zm10.2,3.855a2.572,2.572,0,0,1-.263,1.269H13.391a8.527,8.527,0,0,0,.089-1.534H32.7c0,.083.008.17.008.264ZM13.1,18.41h6.63a7.674,7.674,0,0,0,.281,9.088c.07.1.135.19.2.278H13.29a7.868,7.868,0,0,0-1.445-2.947,3.13,3.13,0,0,1,0-4.152A8.561,8.561,0,0,0,13.1,18.41Zm8.858,22.956a7.22,7.22,0,0,0-.7-1.117,6.143,6.143,0,0,1,0-7.71l.115-.162h1.817a10.37,10.37,0,0,1-.683,1.052,4.638,4.638,0,0,0,0,5.931A6.851,6.851,0,0,1,23.6,41.366Zm3.234,0a7.869,7.869,0,0,0-1.433-2.9,3.13,3.13,0,0,1,0-4.152,9.149,9.149,0,0,0,1.129-1.941h6.536a7.681,7.681,0,0,0,.5,8.762l.161.227ZM25.2,27.776a7.815,7.815,0,0,0-1.446-2.947,3.13,3.13,0,0,1,0-4.152,8.558,8.558,0,0,0,1.251-2.268h6.63a7.674,7.674,0,0,0,.281,9.088c.071.1.136.191.2.278Zm-.084-13.967a8.107,8.107,0,0,0-1.362-2.621,2.942,2.942,0,0,1-.788-2.077,2.138,2.138,0,0,1,.249-1.005c.084-.205.175-.429.268-.689h7.009a7.5,7.5,0,0,0,1.389,6.391ZM18.583,7.418a7.5,7.5,0,0,0,1.389,6.391H13.206a8.143,8.143,0,0,0-1.361-2.621,2.942,2.942,0,0,1-.788-2.077,2.138,2.138,0,0,1,.249-1.005c.085-.208.177-.433.269-.689ZM1.618,5.118a.768.768,0,0,1,.767-.767H7.57a6.793,6.793,0,0,1-.336,1.534H2.385a.768.768,0,0,1-.767-.767Zm0,10.992a.768.768,0,0,1,.767-.767H8.842a3.7,3.7,0,0,1-.085,1.534H2.385a.768.768,0,0,1-.767-.767Zm0,13.967a.768.768,0,0,1,.767-.767H8.876a2.924,2.924,0,0,1-.256,1.534H2.385a.768.768,0,0,1-.767-.767Zm0,13.589a.768.768,0,0,1,.767-.767H8.873a3.055,3.055,0,0,1-.227,1.534H2.385a.768.768,0,0,1-.767-.767Zm8.977,3.4a4.449,4.449,0,0,0-1.072,2.966.767.767,0,1,1-1.534,0A5.92,5.92,0,0,1,9.346,46.18a4.638,4.638,0,0,0,0-5.931,6.144,6.144,0,0,1,0-7.71,4.638,4.638,0,0,0,0-5.931A5.92,5.92,0,0,1,7.99,22.753c-.024-3.64,2.4-3.679,2.428-6.82a4.45,4.45,0,0,0-1.072-2.966,5.849,5.849,0,0,1-.878-6.022A10.377,10.377,0,0,0,9.2,2.291a.767.767,0,0,1,1.534,0,11.937,11.937,0,0,1-.851,5.235,4.307,4.307,0,0,0,.709,4.552,6.144,6.144,0,0,1,0,7.71,4.638,4.638,0,0,0,0,5.931,6.145,6.145,0,0,1,0,7.71,4.638,4.638,0,0,0,0,5.931,6.144,6.144,0,0,1,0,7.71Zm2.884-4.17H32.693a3.055,3.055,0,0,1-.227,1.534H13.4a8.554,8.554,0,0,0,.08-1.534Zm9.026,4.17a4.45,4.45,0,0,0-1.072,2.966.767.767,0,1,1-1.534,0,5.922,5.922,0,0,1,1.357-3.856l.15-.212h1.809A9.991,9.991,0,0,1,22.5,47.069Zm11.91,0a4.449,4.449,0,0,0-1.072,2.966.767.767,0,0,1-1.534,0,5.92,5.92,0,0,1,1.356-3.855,4.638,4.638,0,0,0,0-5.931,6.144,6.144,0,0,1,0-7.71,4.638,4.638,0,0,0,0-5.931,5.92,5.92,0,0,1-1.356-3.855c-.024-3.64,2.4-3.679,2.428-6.82a4.45,4.45,0,0,0-1.072-2.966,5.849,5.849,0,0,1-.878-6.022,10.377,10.377,0,0,0,.736-4.654.767.767,0,0,1,1.534,0,11.937,11.937,0,0,1-.851,5.235,4.307,4.307,0,0,0,.709,4.552,6.144,6.144,0,0,1,0,7.71,4.638,4.638,0,0,0,0,5.931,6.145,6.145,0,0,1,0,7.71,4.638,4.638,0,0,0,0,5.931,6.144,6.144,0,0,1,0,7.71Zm11.91,0a4.45,4.45,0,0,0-1.072,2.966.767.767,0,1,1-1.534,0,5.92,5.92,0,0,1,1.356-3.855l.151-.214h1.81a9.993,9.993,0,0,1-.712,1.1Zm4.571-3.4a.768.768,0,0,1-.767.767H37.218A8.554,8.554,0,0,0,37.3,42.9h12.83a.768.768,0,0,1,.767.767ZM46.325,33.429a4.638,4.638,0,0,0,0,5.931,6.95,6.95,0,0,1,1.091,2.006H45.773a7.23,7.23,0,0,0-.7-1.117,6.864,6.864,0,0,1-1.093-2.007.767.767,0,1,0-1.463.46,8.355,8.355,0,0,0,1.307,2.436l.16.227H37.1a7.906,7.906,0,0,0-1.433-2.9,3.13,3.13,0,0,1,0-4.152,9.119,9.119,0,0,0,1.129-1.941h6.536a6.922,6.922,0,0,0-.98,2.36.767.767,0,0,0,1.5.315,6.276,6.276,0,0,1,1.227-2.514l.114-.16h1.817A10.355,10.355,0,0,1,46.325,33.429ZM50.9,30.076a.768.768,0,0,1-.767.767H37.211A8.527,8.527,0,0,0,37.3,29.31H50.129A.768.768,0,0,1,50.9,30.076Zm-4.571-4.357a6.872,6.872,0,0,1,1.107,2.057H45.8a6.957,6.957,0,0,0-.722-1.168,6.144,6.144,0,0,1,0-7.71c.118-.166.232-.327.338-.489h1.76a8.521,8.521,0,0,1-.849,1.378,4.638,4.638,0,0,0,0,5.931Z" transform="translate(0)"/>
      </g>
    </g>
  </g>
</svg>
