<svg xmlns="http://www.w3.org/2000/svg" width="78.799" height="89.791" viewBox="0 0 78.799 89.791">
  <g id="bloc" transform="translate(-31.337 0)">
    <path id="Trazado_894080" data-name="Trazado 894080" d="M105.09,29.92,38.849,42.765,52.5,113.146l47.036-9.121L115.014,81.1Z" transform="translate(-6.194 -24.673)" fill="#f6a7c5"/>
    <g id="Grupo_1102720" data-name="Grupo 1102720" transform="translate(45.248 11.164)">
      <path id="Trazado_894081" data-name="Trazado 894081" d="M367.364,344.662l15.481-22.929-19.205,3.724Z" transform="translate(-319.274 -276.474)" fill="#f082a6"/>
      <path id="Trazado_894082" data-name="Trazado 894082" d="M110.66,68.146l6.265,13.783h14.057l2.81-18.268Z" transform="translate(-110.66 -63.661)" fill="#f082a6"/>
    </g>
    <path id="Trazado_894083" data-name="Trazado 894083" d="M163.252,35.63H146.383V7.515l4.217,2.811,4.217-2.811,4.217,2.811,4.217-2.811Z" transform="translate(-94.87 -6.197)" fill="#fcde76"/>
    <path id="Trazado_894084" data-name="Trazado 894084" d="M110.017,56.969a1.327,1.327,0,0,0,.1-.8l-6.482-33.43a1.318,1.318,0,0,0-2.588.5l6.232,32.136L89.363,58.853A1.318,1.318,0,0,0,88.32,60.4L91.793,78.31,47.345,86.928,34.2,19.135l16-3.1v13.4a1.318,1.318,0,0,0,1.318,1.318H68.382A1.318,1.318,0,0,0,69.7,29.432V12.251L97.853,6.792l2.016,10.4a1.318,1.318,0,0,0,2.588-.5L100.19,5a1.331,1.331,0,0,0-1.545-1.043L69.7,9.566V1.318a1.33,1.33,0,0,0-2.049-1.1L64.165,2.545,60.679.221a1.317,1.317,0,0,0-1.462,0L55.73,2.545,52.244.221a1.33,1.33,0,0,0-2.049,1.1v12.03L32.4,16.8a1.331,1.331,0,0,0-1.043,1.545L45.008,88.724a1.33,1.33,0,0,0,1.545,1.043l47.036-9.121a1.333,1.333,0,0,0,.841-.556l15.481-22.93A1.306,1.306,0,0,0,110.017,56.969ZM52.831,3.78,55,5.226a1.317,1.317,0,0,0,1.462,0L59.947,2.9l3.486,2.324a1.318,1.318,0,0,0,1.462,0L67.064,3.78V28.114H52.831V3.78Zm53.116,54.542L94.026,75.978,91.159,61.19Z" transform="translate(0 0)"/>
  </g>
</svg>
