<svg xmlns="http://www.w3.org/2000/svg" xmlns:xlink="http://www.w3.org/1999/xlink" width="364" height="418" viewBox="0 0 364 418">
  <defs>
    <clipPath id="clip-path">
      <rect id="Rectángulo_402426" data-name="Rectángulo 402426" width="364" height="418" transform="translate(180.051 9827.3)" fill="#916aab"/>
    </clipPath>
  </defs>
  <g id="Grupo_1103252" data-name="Grupo 1103252" transform="translate(-206.051 -10218.745)">
    <g id="Enmascarar_grupo_1098712" data-name="Enmascarar grupo 1098712" transform="translate(26 391.445)" clip-path="url(#clip-path)">
      <g id="Seamstress-cuate" transform="translate(180.051 9856.265)">
        <g id="freepik--background-complete--inject-4" transform="translate(0 0)">
          <path id="Trazado_893362" data-name="Trazado 893362" d="M329.55,206.2H189.134V32.855H329.55Zm-137.087-3.329H326.221V36.184H192.463Z" transform="translate(-43.108 -32.205)" fill="#ebebeb"/>
          <rect id="Rectángulo_402429" data-name="Rectángulo 402429" width="3.329" height="167.476" transform="translate(214.52 4.853)" fill="#ebebeb"/>
          <rect id="Rectángulo_402430" data-name="Rectángulo 402430" width="146.451" height="4.636" transform="translate(143.013 7.383)" fill="#ebebeb"/>
          <rect id="Rectángulo_402431" data-name="Rectángulo 402431" width="146.451" height="4.636" transform="translate(143.013 12.593)" fill="#ebebeb"/>
          <rect id="Rectángulo_402432" data-name="Rectángulo 402432" width="146.451" height="4.636" transform="translate(143.013 17.812)" fill="#ebebeb"/>
          <rect id="Rectángulo_402433" data-name="Rectángulo 402433" width="146.451" height="4.636" transform="translate(143.013 23.031)" fill="#ebebeb"/>
          <rect id="Rectángulo_402434" data-name="Rectángulo 402434" width="146.451" height="4.636" transform="translate(143.013 28.241)" fill="#ebebeb"/>
          <rect id="Rectángulo_402435" data-name="Rectángulo 402435" width="146.451" height="4.636" transform="translate(143.013 33.46)" fill="#ebebeb"/>
          <rect id="Rectángulo_402436" data-name="Rectángulo 402436" width="146.451" height="4.636" transform="translate(143.013 38.679)" fill="#ebebeb"/>
          <rect id="Rectángulo_402437" data-name="Rectángulo 402437" width="146.451" height="4.636" transform="translate(143.013 43.889)" fill="#ebebeb"/>
          <rect id="Rectángulo_402438" data-name="Rectángulo 402438" width="146.451" height="4.636" transform="translate(143.013 49.108)" fill="#ebebeb"/>
          <rect id="Rectángulo_402439" data-name="Rectángulo 402439" width="0.832" height="90.218" transform="translate(278.735 6.442)" fill="#263238"/>
          <path id="Trazado_893363" data-name="Trazado 893363" d="M336.761,142.194h-2.955l.741-4.245h1.473Z" transform="translate(-56.128 -41.664)" fill="#263238"/>
          <rect id="Rectángulo_402440" data-name="Rectángulo 402440" width="0.832" height="137.944" transform="translate(281.74 6.442)" fill="#263238"/>
          <path id="Trazado_893364" data-name="Trazado 893364" d="M340.053,193.818H337.1l.741-4.245h1.473Z" transform="translate(-56.424 -46.31)" fill="#263238"/>
          <rect id="Rectángulo_402441" data-name="Rectángulo 402441" width="156.78" height="9.697" transform="translate(137.844)" fill="#dbdbdb"/>
          <rect id="Rectángulo_402442" data-name="Rectángulo 402442" width="22.04" height="9.314" transform="translate(12.294 200.037)" fill="#ebebeb"/>
          <rect id="Rectángulo_402443" data-name="Rectángulo 402443" width="22.04" height="9.314" transform="translate(0 211.781)" fill="#ebebeb"/>
          <rect id="Rectángulo_402444" data-name="Rectángulo 402444" width="22.04" height="9.314" transform="translate(79.772 94.155)" fill="#ebebeb"/>
          <rect id="Rectángulo_402445" data-name="Rectángulo 402445" width="22.04" height="9.314" transform="translate(67.47 105.899)" fill="#ebebeb"/>
          <rect id="Rectángulo_402446" data-name="Rectángulo 402446" width="22.04" height="9.314" transform="translate(55.226 94.155)" fill="#ebebeb"/>
          <rect id="Rectángulo_402447" data-name="Rectángulo 402447" width="22.04" height="9.314" transform="translate(341.96 211.781)" fill="#ebebeb"/>
          <rect id="Rectángulo_402448" data-name="Rectángulo 402448" width="22.04" height="9.314" transform="translate(329.666 1.049)" fill="#ebebeb"/>
          <rect id="Rectángulo_402449" data-name="Rectángulo 402449" width="22.04" height="9.314" transform="translate(341.96 12.793)" fill="#ebebeb"/>
          <rect id="Rectángulo_402450" data-name="Rectángulo 402450" width="22.04" height="9.314" transform="translate(12.294 1.049)" fill="#ebebeb"/>
        </g>
        <g id="freepik--Floor--inject-4" transform="translate(0.549 299.169)">
          <path id="Trazado_893365" data-name="Trazado 893365" d="M29.269,361.306l45.363-.2,45.363-.075,90.725-.133,90.725.133,45.363.075,45.363.2-45.363.208-45.363.075-90.725.133-90.725-.133-45.363-.075Z" transform="translate(-29.269 -360.898)" fill="#263238"/>
        </g>
        <g id="freepik--Shadow--inject-4" transform="translate(15.989 325.562)">
          <ellipse id="Elipse_11507" data-name="Elipse 11507" cx="166.011" cy="17.254" rx="166.011" ry="17.254" fill="#ebebeb"/>
        </g>
        <g id="freepik--Plant--inject-4" transform="translate(1.547 196.263)">
          <ellipse id="Elipse_11508" data-name="Elipse 11508" cx="24.438" cy="5.976" rx="24.438" ry="5.976" transform="translate(6.236 108.216)" fill="#ebebeb"/>
          <path id="Trazado_893366" data-name="Trazado 893366" d="M65.467,305.858a44.421,44.421,0,0,0-1.415,7.99c.075.142.058.633,0,.5,0,.433-.683.358-.683-.075v-.832c-1.565-1.939-3.837-3.171-5.668-4.853a10.646,10.646,0,0,1-3.1-4.952c-1.515-5.244-.092-10.82-1.923-16.023-1.573-4.511-4.4-8.423-6.8-12.485-2.5-4.32-4.386-8.856-4.57-13.917-.15-3.87.308-9.031,3.263-11.927,3.121-3.08,7-.774,9.4,1.973,6.942,7.966,10.146,18.029,11.445,28.3a111.022,111.022,0,0,1,1.29,17.18A46.728,46.728,0,0,1,65.467,305.858Z" transform="translate(-31.348 -247.815)" fill="#916aab"/>
          <path id="Trazado_893367" data-name="Trazado 893367" d="M64.808,317.325a98.558,98.558,0,0,0-.191-16.139s0,0,0-.058c.092-4.37.433-8.715.266-13.076a78.107,78.107,0,0,0-1.923-14.025c0-.058-.1,0-.083,0a92.592,92.592,0,0,1,1.515,13.717c.092,2.5.075,4.936-.058,7.4,0,.832-.117,1.606-.175,2.414h0a86.272,86.272,0,0,0-12.976-34.351c-.092-.142-.341,0-.258.158A89.7,89.7,0,0,1,61.5,288.834c-3.329-6.184-8.382-11.27-12.119-17.213h-.058c3.329,6.617,8.906,11.836,12.485,18.353.608,2.655,1.115,5.335,1.49,8.032a91.144,91.144,0,0,1,.832,11.162A128.372,128.372,0,0,1,58.3,297.716c-.05-.108-.2,0-.166.075a45.156,45.156,0,0,0,5.985,12.235c0,2.639-.067,5.285-.225,7.924-.416,7.042-1.615,14-2.172,21.017a.166.166,0,0,0,.325.042,161.555,161.555,0,0,0,2.763-21.683Z" transform="translate(-32.071 -249.195)" fill="#263238"/>
          <path id="Trazado_893368" data-name="Trazado 893368" d="M58.109,262.961a.042.042,0,1,0-.083,0c1.29,3.562,2.014,7.166,2.946,10.82a.133.133,0,1,0,.266,0A38.954,38.954,0,0,0,58.109,262.961Z" transform="translate(-32.855 -249.175)" fill="#263238"/>
          <path id="Trazado_893369" data-name="Trazado 893369" d="M91.515,278.961a53.943,53.943,0,0,1-2.955,6.084c-2.322,4.162-4.736,8.065-5.177,12.96a30.023,30.023,0,0,1-.932,6.5,19.42,19.42,0,0,1-2.589,5.086c-2.5,3.654-5.652,6.809-7.974,10.6a44.6,44.6,0,0,0-5.3,12.785c-.058.25-.449.183-.391-.067a.53.53,0,0,0,0-.058.075.075,0,0,1,0-.05c-.366-10.5.466-21.1,3.679-31.163a107.574,107.574,0,0,1,5.077-12.96,30.681,30.681,0,0,1,6.875-9.888c1.956-1.765,6.193-5.1,8.981-3.329C92.139,276.305,92.04,277.654,91.515,278.961Z" transform="translate(-33.583 -250.258)" fill="#916aab"/>
          <path id="Trazado_893370" data-name="Trazado 893370" d="M80.692,303.636a86.069,86.069,0,0,1-6.1,8.781l-3.063,3.97c-.483.633-1.024,1.257-1.465,1.931.283-1.107.549-2.214.832-3.329a130.973,130.973,0,0,1,4.711-15.723,106.541,106.541,0,0,1,7.3-14.3c.067-.125-.125-.208-.2-.092-2.222,3.646-4.47,7.3-6.342,11.145a59.2,59.2,0,0,0-2.688,6.617,102.463,102.463,0,0,1,3.579-14.15c0-.042,0-.075-.058,0a48.418,48.418,0,0,0-3.721,14.7h0c-.458,1.365-.832,2.747-1.265,4.162-1.665,5.885-3.1,11.819-4.453,17.787a63.258,63.258,0,0,1,1.007-11.653c0-.092-.117-.108-.133,0A37.206,37.206,0,0,0,67.616,325.8q-.757,3.4-1.49,6.809c-1.032,4.844-2.3,9.772-2.9,14.691a.1.1,0,0,0,.191,0c.724-2.655,1.157-5.4,1.748-8.09s1.2-5.377,1.831-8.057c.907-3.912,1.864-7.816,2.838-11.711a20.81,20.81,0,0,1,2.855-3.887c1.032-1.315,2.064-2.63,3.071-3.97a59.5,59.5,0,0,0,5.061-7.824A.11.11,0,0,0,80.692,303.636Z" transform="translate(-33.322 -251.146)" fill="#263238"/>
          <path id="Trazado_893371" data-name="Trazado 893371" d="M82.323,300.593a55.716,55.716,0,0,0-5.976,9.5c0,.042.05.092.075.042,2.014-3.146,3.987-6.326,5.993-9.48C82.448,300.6,82.365,300.543,82.323,300.593Z" transform="translate(-34.504 -252.563)" fill="#263238"/>
          <path id="Trazado_893372" data-name="Trazado 893372" d="M33.455,289.136c1.365,2.347,2.922,5.161,2.331,7.982-.366,1.781-1.665,3.229-1.906,5.044-.533,4.012,3.471,6.659,6.367,8.565,7.208,4.719,17.1,8.956,18.42,18.62.05.341.641.258.6-.075a.158.158,0,0,0,0-.067v-.058a37.064,37.064,0,0,0-.141-14.766A46.611,46.611,0,0,0,53.3,300.548c-4.336-7.408-8.939-14.982-15.507-20.675-1.815-1.565-5.535-4.386-6.983-.832S31.79,286.315,33.455,289.136Z" transform="translate(-30.365 -250.471)" fill="#916aab"/>
          <path id="Trazado_893373" data-name="Trazado 893373" d="M41.012,306.549c4.778,5.177,12.385,8.082,16.505,13.883A58.139,58.139,0,0,0,44.832,296.6a.185.185,0,0,1,.258-.266,47.061,47.061,0,0,1,10.371,14.982A67.5,67.5,0,0,0,51,299.9a.119.119,0,0,1,.208-.117,43.515,43.515,0,0,1,4.811,12.826c5.427,13.143,5.926,28.541,4.794,42.391a.159.159,0,0,1-.316,0c.316-10.912.133-22.015-2.5-32.669-.05-.225-.117-.441-.166-.666-4.486-6.243-12.052-9.156-16.922-15.065C40.879,306.574,40.954,306.491,41.012,306.549Z" transform="translate(-31.314 -252.177)" fill="#263238"/>
          <path id="Trazado_893374" data-name="Trazado 893374" d="M39.781,302.677c2.5,2.3,4.994,4.661,7.491,6.958v.05a37.1,37.1,0,0,1-7.616-6.858C39.548,302.743,39.681,302.577,39.781,302.677Z" transform="translate(-31.198 -252.75)" fill="#263238"/>
          <path id="Trazado_893375" data-name="Trazado 893375" d="M39.321,291.7a78.883,78.883,0,0,0,7.491,10.338.044.044,0,0,1-.058.067,36.257,36.257,0,0,1-7.533-10.338.075.075,0,0,1,.1-.067Z" transform="translate(-31.162 -251.765)" fill="#263238"/>
          <path id="Trazado_893376" data-name="Trazado 893376" d="M51.788,368.645h22l-2.963-29.6H55.176Z" transform="translate(-32.293 -256.026)" fill="#455a64"/>
          <path id="Trazado_893377" data-name="Trazado 893377" d="M54.907,343.858h16.68l-.483-4.811H55.457Z" transform="translate(-32.574 -256.026)" fill="#263238"/>
          <rect id="Rectángulo_402451" data-name="Rectángulo 402451" width="20.617" height="4.728" transform="translate(40.803 84.469) rotate(180)" fill="#455a64"/>
        </g>
        <g id="freepik--Mannequin--inject-4" transform="translate(292.785 32.669)">
          <rect id="Rectángulo_402452" data-name="Rectángulo 402452" width="3.945" height="137.486" transform="translate(28.425 128.206)" fill="#263238"/>
          <path id="Trazado_893378" data-name="Trazado 893378" d="M411.2,379.078v2.888h-4.02V380.21L380.8,369.273,354.427,380.21v1.756h-4.02v-2.888L377.774,364.2v-5.5h6.059v5.5Z" transform="translate(-350.407 -94.2)" fill="#263238"/>
          <path id="Trazado_893379" data-name="Trazado 893379" d="M406.844,206.334H355.73a103,103,0,0,1,2.988-22.14c1.881-7.633,6.767-15.814,6.834-20.317s-6.417-25.528-7.117-27.467-2.963-14.416-2.639-15.715,16.78-5.077,18.2-7.624,1.415-11.287,1.415-11.287h11.844s0,8.748,1.407,11.287,17.912,6.384,18.162,7.624-1.973,13.684-2.688,15.648-7.166,23-7.117,27.467,4.994,12.685,6.833,20.317A102.724,102.724,0,0,1,406.844,206.334Z" transform="translate(-350.886 -71.078)" fill="#ebebeb"/>
          <path id="Trazado_893380" data-name="Trazado 893380" d="M389.273,105.717a13.7,13.7,0,0,1-6.059,1.39,11.728,11.728,0,0,1-6.034-1.54c.116-2.073.116-3.729.116-3.729H389.14S389.14,103.561,389.273,105.717Z" transform="translate(-352.817 -71.083)" fill="#dbdbdb"/>
          <path id="Trazado_893381" data-name="Trazado 893381" d="M394.874,82.533c0,9.838-4.561,19.252-12.269,19.252s-12.277-9.414-12.277-19.252c0-8.14,6.567-14.491,12.277-14.491S394.874,74.376,394.874,82.533Z" transform="translate(-352.2 -68.042)" fill="#ebebeb"/>
        </g>
        <g id="freepik--Shelf--inject-4" transform="translate(11.428 23.114)">
          <path id="Trazado_893382" data-name="Trazado 893382" d="M148.032,80.173H99.166A5.394,5.394,0,0,1,93.78,74.78h0a5.394,5.394,0,0,1,5.385-5.394h48.842Z" transform="translate(-45.954 -58.607)" fill="#916aab"/>
          <path id="Trazado_893383" data-name="Trazado 893383" d="M155.014,80.173h-32.2a5.394,5.394,0,0,1-5.385-5.394h0a5.394,5.394,0,0,1,5.385-5.394h32.2Z" transform="translate(-48.083 -58.607)" fill="#916aab"/>
          <path id="Trazado_893384" data-name="Trazado 893384" d="M155.014,80.173h-32.2a5.394,5.394,0,0,1-5.385-5.394h0a5.394,5.394,0,0,1,5.385-5.394h32.2Z" transform="translate(-48.083 -58.607)" opacity="0.1"/>
          <path id="Trazado_893385" data-name="Trazado 893385" d="M155.853,77.016h-27.2a1.889,1.889,0,0,1-1.889-1.889h0a1.889,1.889,0,0,1,1.889-1.889h27.2Z" transform="translate(-48.922 -58.954)" opacity="0.1"/>
          <path id="Trazado_893386" data-name="Trazado 893386" d="M148.032,68.32H99.166a5.385,5.385,0,0,1-5.385-5.385h0a5.394,5.394,0,0,1,5.385-5.394h48.842Z" transform="translate(-45.954 -57.541)" fill="#ebebeb"/>
          <path id="Trazado_893387" data-name="Trazado 893387" d="M155.014,68.32h-32.2a5.385,5.385,0,0,1-5.385-5.385h0a5.394,5.394,0,0,1,5.385-5.394h32.2Z" transform="translate(-48.083 -57.541)" fill="#dbdbdb"/>
          <path id="Trazado_893388" data-name="Trazado 893388" d="M155.853,65.171h-27.2a1.889,1.889,0,0,1-1.889-1.889h0a1.889,1.889,0,0,1,1.889-1.889h27.2Z" transform="translate(-48.922 -57.888)" fill="#c7c7c7"/>
          <path id="Trazado_893389" data-name="Trazado 893389" d="M148.032,92.019H99.166a5.394,5.394,0,0,1-5.385-5.394h0a5.385,5.385,0,0,1,5.385-5.385h48.842Z" transform="translate(-45.954 -59.674)" fill="#455a64"/>
          <path id="Trazado_893390" data-name="Trazado 893390" d="M155.014,92.019h-32.2a5.394,5.394,0,0,1-5.385-5.394h0a5.385,5.385,0,0,1,5.385-5.385h32.2Z" transform="translate(-48.083 -59.674)" fill="#37474f"/>
          <path id="Trazado_893391" data-name="Trazado 893391" d="M155.853,88.867h-27.2a1.9,1.9,0,0,1-1.889-1.9h0a1.889,1.889,0,0,1,1.889-1.906h27.2Z" transform="translate(-48.922 -60.018)" fill="#263238"/>
          <rect id="Rectángulo_402453" data-name="Rectángulo 402453" width="111.209" height="8.007" transform="translate(0 32.386)" fill="#dbdbdb"/>
          <path id="Trazado_893392" data-name="Trazado 893392" d="M99.823,92.019H50.981A5.385,5.385,0,0,1,45.6,86.626h0a5.385,5.385,0,0,1,5.385-5.385H99.823Z" transform="translate(-41.617 -59.674)" fill="#916aab"/>
          <path id="Trazado_893393" data-name="Trazado 893393" d="M106.8,92.019H74.607a5.394,5.394,0,0,1-5.385-5.394h0a5.385,5.385,0,0,1,5.385-5.385H106.8Z" transform="translate(-43.744 -59.674)" fill="#916aab"/>
          <path id="Trazado_893394" data-name="Trazado 893394" d="M106.8,92.019H74.607a5.394,5.394,0,0,1-5.385-5.394h0a5.385,5.385,0,0,1,5.385-5.385H106.8Z" transform="translate(-43.744 -59.674)" opacity="0.1"/>
          <path id="Trazado_893395" data-name="Trazado 893395" d="M107.642,88.867h-27.2a1.9,1.9,0,0,1-1.889-1.9h0a1.889,1.889,0,0,1,1.889-1.906h27.2Z" transform="translate(-44.583 -60.018)" opacity="0.1"/>
          <path id="Trazado_893396" data-name="Trazado 893396" d="M99.823,80.173H50.981A5.385,5.385,0,0,1,45.6,74.78h0a5.385,5.385,0,0,1,5.385-5.394H99.823Z" transform="translate(-41.617 -58.607)" fill="#ebebeb"/>
          <path id="Trazado_893397" data-name="Trazado 893397" d="M106.8,80.173H74.607a5.394,5.394,0,0,1-5.385-5.394h0a5.394,5.394,0,0,1,5.385-5.394H106.8Z" transform="translate(-43.744 -58.607)" fill="#dbdbdb"/>
          <path id="Trazado_893398" data-name="Trazado 893398" d="M107.642,77.016h-27.2a1.889,1.889,0,0,1-1.889-1.889h0a1.889,1.889,0,0,1,1.889-1.889h27.2Z" transform="translate(-44.583 -58.954)" fill="#c7c7c7"/>
          <path id="Trazado_893399" data-name="Trazado 893399" d="M99.823,68.32H50.981A5.377,5.377,0,0,1,45.6,62.935h0a5.385,5.385,0,0,1,5.385-5.394H99.823Z" transform="translate(-41.617 -57.541)" fill="#455a64"/>
          <path id="Trazado_893400" data-name="Trazado 893400" d="M106.8,68.32H74.607a5.385,5.385,0,0,1-5.385-5.385h0a5.394,5.394,0,0,1,5.385-5.394H106.8Z" transform="translate(-43.744 -57.541)" fill="#37474f"/>
          <path id="Trazado_893401" data-name="Trazado 893401" d="M107.642,65.171h-27.2a1.889,1.889,0,0,1-1.889-1.889h0a1.889,1.889,0,0,1,1.889-1.889h27.2Z" transform="translate(-44.583 -57.888)" fill="#263238"/>
        </g>
        <g id="freepik--Character--inject-4" transform="translate(51.114 63.17)">
          <path id="Trazado_893402" data-name="Trazado 893402" d="M194.411,276.155l2.4,14.375,16.239,87.712h2.622l-11.811-87.712-1.748-14.375Z" transform="translate(-94.697 -117.273)" fill="#dbdbdb"/>
          <path id="Trazado_893403" data-name="Trazado 893403" d="M202.111,276.155h-7.7l2.4,14.375h7.05Z" transform="translate(-94.697 -117.273)" fill="#a6a6a6"/>
          <path id="Trazado_893404" data-name="Trazado 893404" d="M138.361,378.242h2.622l16.239-87.712,2.4-14.375h-7.7l-1.748,14.375Z" transform="translate(-89.652 -117.273)" fill="#dbdbdb"/>
          <path id="Trazado_893405" data-name="Trazado 893405" d="M153.088,276.155l-1.748,14.375h7.05l2.4-14.375Z" transform="translate(-90.82 -117.273)" fill="#a6a6a6"/>
          <path id="Trazado_893406" data-name="Trazado 893406" d="M84.835,378.242h2.614l16.239-87.712,2.4-14.375h-7.7l-1.74,14.375Z" transform="translate(-84.835 -117.273)" fill="#dbdbdb"/>
          <path id="Trazado_893407" data-name="Trazado 893407" d="M97.814,290.529h7.042l2.4-14.375h-7.7Z" transform="translate(-86.003 -117.273)" fill="#a6a6a6"/>
          <path id="Trazado_893408" data-name="Trazado 893408" d="M89.39,273.726H208.407V261.182H163.851l-14.974-87.113H93.935Z" transform="translate(-85.245 -108.085)" fill="#dbdbdb"/>
          <path id="Trazado_893409" data-name="Trazado 893409" d="M89.39,273.726h6.492l4.228-99.656H93.935Z" transform="translate(-85.245 -108.085)" fill="#a6a6a6"/>
          <path id="Trazado_893410" data-name="Trazado 893410" d="M199.345,388.066c-2.306-.308-60.262-29.232-61.735-31.671-.175-.275,2.314-5.568,5.868-12.768,8.015-16.3,24.046-43.856,24.046-43.856l34.892,19.61-19.21,36.373s6.451,7.8,11.653,14.424h0a92.131,92.131,0,0,1,6.5,8.79C202.716,381.84,201.642,388.391,199.345,388.066Z" transform="translate(-89.584 -119.398)" fill="#dd6a57"/>
          <path id="Trazado_893411" data-name="Trazado 893411" d="M137.61,360.736c1.473,2.439,59.438,31.363,61.735,31.671s3.329-6.218,2.039-9.056a89.967,89.967,0,0,0-6.492-8.79h0c-2.772-3.5-5.826-7.325-8.174-10.163,1.665,2.539,4.5,7.166,2.855,8.065-3.03,1.665-29.015-11.836-46.1-24.463C139.924,355.16,137.427,360.453,137.61,360.736Z" transform="translate(-89.584 -123.739)" fill="#263238"/>
          <path id="Trazado_893412" data-name="Trazado 893412" d="M188.348,344.2l-40.427-21.333s30.847-60.445,30.014-61.493c-2.83-3.654-36.981-1.989-51.73-16.647-15.623-15.523-3.687-37.622-3.687-37.622H163.3s-.375,11.07,1.39,12.485c1.157.966,61.152,6.759,63.5,22.59C232.287,269.616,188.348,344.2,188.348,344.2Z" transform="translate(-87.834 -111.059)" fill="#455a64"/>
          <path id="Trazado_893413" data-name="Trazado 893413" d="M192.939,346.135c-4.561-2.763-9.239-5.294-13.942-7.816s-9.43-4.994-14.216-7.325c-2.7-1.323-5.46-2.5-8.165-3.82-.083-.042-.158.092-.075.133,2.364,1.265,4.661,2.664,7.017,3.937s4.661,2.5,7,3.746c4.711,2.5,9.464,4.911,14.15,7.366,2.663,1.382,5.369,2.688,8.09,3.962a.116.116,0,0,0,.141-.183Z" transform="translate(-91.285 -121.864)" fill="#263238"/>
          <path id="Trazado_893414" data-name="Trazado 893414" d="M189.746,255.01c-1.007-2.073-3.671-2.372-5.652-2.872q-8.14-2.031-16.281-4.054c-9.614-2.38-19.518-4.628-28.133-9.722-4.162-2.43-8.107-5.51-10.171-9.946s-2.048-9.156-2.081-13.858c0-1.165.067-2.322.141-3.479,0-.1-.158-.092-.158,0-.3,4.62-.774,9.239.258,13.809a18.86,18.86,0,0,0,2.589,6.226,21.449,21.449,0,0,0,4.694,4.927c7.616,5.976,17.171,8.839,26.41,11.2,5.227,1.332,10.463,2.605,15.706,3.887l8.082,1.981a7.416,7.416,0,0,1,3.329,1.307,3.5,3.5,0,0,1,1,2.93,11.4,11.4,0,0,1-.832,3.221c-.483,1.265-1,2.5-1.507,3.779q-1.482,3.687-3.063,7.333-3.171,7.358-6.592,14.608c-4.536,9.63-9.381,19.144-14.325,28.541-.616,1.174-1.215,2.364-1.823,3.537a.067.067,0,1,0,.117.067c5.294-9.322,10.238-18.861,14.982-28.491s9.156-19.26,12.9-29.215C189.971,258.972,190.612,256.807,189.746,255.01Z" transform="translate(-88.633 -111.41)" fill="#263238"/>
          <path id="Trazado_893415" data-name="Trazado 893415" d="M315.481,385.043c-2.122.957-66.587,7.158-69.134,5.868-.308-.142-1.8-13.933-1.8-13.933-13.143-22.881-25.2-45.08-25.2-45.08l45.021-4.869,20.3,39.178s9.605,3.2,17.554,6.043h0c4.894,1.748,9.156,3.329,10.171,4.012C315.031,377.976,317.595,384.094,315.481,385.043Z" transform="translate(-96.941 -121.852)" fill="#dd6a57"/>
          <path id="Trazado_893416" data-name="Trazado 893416" d="M246.73,380.726c.092.158.191.308.275.474,0,0,1.5,13.8,1.806,13.942,2.539,1.29,67.012-4.911,69.134-5.868s-.449-7.067-3.071-8.765a89.109,89.109,0,0,0-10.163-4.012h0c-2.547-.916-5.269-1.864-7.782-2.73,2.672,1.373,5.885,3.379,5.086,4.719C300.133,381.558,267.98,383.314,246.73,380.726Z" transform="translate(-99.405 -126.058)" fill="#263238"/>
          <path id="Trazado_893417" data-name="Trazado 893417" d="M270.932,346.408l-50.773,6.159S195.072,287.486,191.1,283.25c-2.006-2.156-9.639-4.545-25.711-8.074H165.3c-5.935-1.307-12.227-2.763-18.428-4.428-16.131-4.312-31.629-9.988-38.712-17.787-14.774-16.331,0-45.854,0-45.854h41.617s1.032,12.851-2.156,20.717c0,0,30.63,4.495,56.424,12.868,14.616,4.736,21.849,10.737,26.91,17.862C240.851,272.5,270.932,346.408,270.932,346.408Z" transform="translate(-86.343 -111.059)" fill="#455a64"/>
          <path id="Trazado_893418" data-name="Trazado 893418" d="M275.537,351.23c-5.677.308-11.312.874-16.963,1.457s-11.287,1.24-16.913,2.014c-3.171.441-6.317,1.024-9.48,1.473-.1,0-.092.167,0,.15,2.847-.291,5.7-.441,8.548-.724s5.6-.574,8.4-.882c5.643-.616,11.278-1.307,16.922-1.964,3.18-.366,6.342-.832,9.505-1.307a.109.109,0,1,0-.017-.216Z" transform="translate(-98.089 -124.03)" fill="#263238"/>
          <path id="Trazado_893419" data-name="Trazado 893419" d="M130.566,213.759a3.6,3.6,0,0,1-.233.558.058.058,0,0,0,0,.092c-.549,1.665-.782,3.521-1.307,5.227a8.248,8.248,0,0,1-3.163,4.52c-3.229,2.239-7.117,3.254-10.87,4.162-.117,0-.083.2,0,.208a20.992,20.992,0,0,0,6.417-.982,16.955,16.955,0,0,0,5.4-2.589,8.49,8.49,0,0,0,3.1-4.669,28.038,28.038,0,0,0,.541-3,23.722,23.722,0,0,0,.375-3.512.158.158,0,0,0-.258-.008Z" transform="translate(-87.542 -111.652)" fill="#263238"/>
          <path id="Trazado_893420" data-name="Trazado 893420" d="M159.112,225.451a48.793,48.793,0,0,0-7.491,2.863l-.117.05a2.1,2.1,0,0,0,.117-.449,2.926,2.926,0,0,1,.083-.541,4.5,4.5,0,0,1,.058-.566v-.291h0a2.214,2.214,0,0,0,1.606-.832,6.01,6.01,0,0,0,1.007-2.356c.275-1.065.533-2.131.766-3.213s.483-2.4.674-3.612a23.568,23.568,0,0,0,.408-3.579.168.168,0,1,0-.333-.042c-.283,1.107-.408,2.247-.616,3.329s-.449,2.239-.708,3.329-.533,2.222-.832,3.329-.541,2.4-1.665,2.722c-2.331.658-1.282-4.586-1.182-5.61.241-2.38.383-4.8.832-7.158a.075.075,0,1,0-.15,0c-.508,2.164-1.09,4.287-1.473,6.484-.191,1.074-.325,2.156-.441,3.238a4.994,4.994,0,0,0,.216,2.788,2.023,2.023,0,0,0,1.54,1.14l-.075.25c-.05.175-.108.341-.15.524l-.125.524a1.256,1.256,0,0,0-.075.649.242.242,0,0,0,.117.142c-1,.433-2,.832-2.988,1.323a25.505,25.505,0,0,0-3.587,1.748c-.133.058,0,.25.1.216a27.093,27.093,0,0,0,3.762-1.357c1.249-.483,2.5-.991,3.721-1.507a46.445,46.445,0,0,0,7.117-3.329.125.125,0,0,0-.117-.208Z" transform="translate(-90.202 -111.565)" fill="#263238"/>
          <path id="Trazado_893421" data-name="Trazado 893421" d="M216.577,320.518q-3.87-9.564-8.19-18.952T199.273,283c-1.39-2.655-2.655-5.344-5.435-6.784a20.378,20.378,0,0,0-4-1.423q-2.43-.649-4.878-1.257C171.705,270.2,137.837,259.8,131.47,257.3c-5.169-2.023-10.338-4.37-14.641-7.941a23.564,23.564,0,0,1-5.252-5.976c-1.665-2.738-5.444-10.171.208-32.678,0-.1-.108-.175-.141-.083-4.5,16.039-3.554,24.771-2.73,27.95a20.268,20.268,0,0,0,3.7,7.491c3.329,4.262,8.04,7.216,12.86,9.514a133.481,133.481,0,0,0,17.854,6.659c13.126,4.112,40.785,11.753,44.073,12.6,2.955.757,6.4,1.357,8.515,3.754a19.6,19.6,0,0,1,2.5,4.078c.832,1.531,1.581,3.063,2.356,4.6q2.38,4.736,4.678,9.505,9.014,18.853,16.422,38.438c.608,1.615,1.207,3.229,1.831,4.836a.1.1,0,0,0,.191-.058C221.7,333.42,219.166,326.919,216.577,320.518Z" transform="translate(-86.94 -111.371)" fill="#263238"/>
          <path id="Trazado_893422" data-name="Trazado 893422" d="M202.8,298.509l-2.222-5.136c-.608-1.415-1.107-3.171-2.314-4.212a11.6,11.6,0,0,0-4.287-1.831q-2.589-.832-5.194-1.6c-3.987-1.165-8.024-2.272-12.119-3.038a.1.1,0,0,0,0,.191c3.379,1.2,6.834,2.231,10.254,3.329l5.094,1.59,2.639.832a15.293,15.293,0,0,1,2.164.791c1.507.766,2.014,2.339,2.647,3.787.741,1.665,1.473,3.329,2.206,5.036,1.457,3.329,2.9,6.659,4.386,9.988,1.665,3.671,3.263,7.375,4.994,11,.108.225.491.058.4-.175C208.764,312.093,205.734,305.309,202.8,298.509Z" transform="translate(-93.094 -117.861)" fill="#263238"/>
          <path id="Trazado_893423" data-name="Trazado 893423" d="M230.933,254.567a36.923,36.923,0,0,0-11.653-8.74,92.787,92.787,0,0,0-13.917-5.527,248.04,248.04,0,0,0-32.844-7.857c-3.121-.549-6.243-1.04-9.381-1.5-1.581-.225-3.171-.433-4.761-.641s-3.055-.433-4.595-.541c-.1,0-.108.141,0,.166,2.688.674,5.468,1.132,8.2,1.665l8.232,1.556c5.485,1.04,10.97,2.114,16.414,3.329s10.82,2.672,16.172,4.32a108.931,108.931,0,0,1,14.15,5.285,56.239,56.239,0,0,1,7.033,3.9,54.283,54.283,0,0,1,6.467,5.061C230.8,255.4,231.208,254.933,230.933,254.567Z" transform="translate(-91.033 -113.098)" fill="#263238"/>
          <path id="Trazado_893424" data-name="Trazado 893424" d="M146.291,102.7c-7.6,3.7-12.4,12.419-12.4,12.419s-8.64,7.491-8.848,13.076a9.8,9.8,0,0,0,3.737,8.3l.424-3s.591,4.228,6.176,7.774,14.283,4.42,19.194,3.729a16.988,16.988,0,0,0,8.015-3.329l-2.971,3.537a12.813,12.813,0,0,0,11.653-3.263c5.677-5.077-1.323-17.571-1.507-19.81s3.579-16.788-12.177-19.452C157.57,102.679,151.519,100.149,146.291,102.7Z" transform="translate(-88.452 -101.559)" fill="#263238"/>
          <path id="Trazado_893425" data-name="Trazado 893425" d="M126.578,136.554a10.1,10.1,0,0,1-2.5-5.485,9.156,9.156,0,0,1,.974-5.91,20.017,20.017,0,0,1,4.994-5.335c1.889-1.573,3.954-3.113,5.826-4.769.1-.092,0-.241-.15-.183a55.592,55.592,0,0,0-5.369,3.621,25.7,25.7,0,0,0-4.644,4,9.9,9.9,0,0,0-2.5,4.994,9.655,9.655,0,0,0,.524,4.561,20.484,20.484,0,0,0,2.763,4.6C126.52,136.745,126.662,136.629,126.578,136.554Z" transform="translate(-88.282 -102.756)" fill="#263238"/>
          <path id="Trazado_893426" data-name="Trazado 893426" d="M178.876,136.794c0-5.826-3.562-10.746-4.861-16.281-.7-2.988-.966-6.134-2.247-8.956,0-.083-.166,0-.133.058.99,2.5,1.157,5.136,1.6,7.749a39.952,39.952,0,0,0,2.322,7.674c1.748,4.561,3.854,9.988,1.473,14.691-1.1,2.189-3.329,4.262-5.91,4.162a.083.083,0,0,0,0,.158,7.774,7.774,0,0,0,5.5-2.713,9.88,9.88,0,0,0,2.256-6.542Z" transform="translate(-92.595 -102.456)" fill="#263238"/>
          <path id="Trazado_893427" data-name="Trazado 893427" d="M178.323,139.169a10.2,10.2,0,0,0,.633-6.109,14.458,14.458,0,0,0-2.9-5.435c-1.44-1.881-3-3.729-3.512-6.1a.075.075,0,0,0-.15,0c.766,3.887,3.82,6.659,5.31,10.18,1.665,4.07.141,8.623-2.98,11.536a16.647,16.647,0,0,1-6.842,3.712s0,.083,0,.075C172.214,145.953,176.533,143.464,178.323,139.169Z" transform="translate(-92.309 -103.349)" fill="#263238"/>
          <path id="Trazado_893428" data-name="Trazado 893428" d="M150.276,156.127c12,9.222,29.54,21.042,41.975,22.323,9.922,1.032,35.092-9.813,45.629-17.929,3.721-2.863-9.988-16.006-14.982-17.013-3.013-.608-27.7,14.1-32.137,13.85-6.734-.375-24.537-7.4-38.787-11.112C144.458,144.3,142.81,150.392,150.276,156.127Z" transform="translate(-90.289 -105.333)" fill="#dd6a57"/>
          <path id="Trazado_893429" data-name="Trazado 893429" d="M241.373,161.283c2.405-1.323,12.876-8.365,15.357-10.979s9.056-10.646,7.25-12.743-3.92.1-3.92.1,2.239-3.837.225-5.826-5.186,1.581-5.186,1.581,2.014-4.1-.133-5.9-4.744,2.281-4.744,2.281,2.014-3.662-.375-4.4c-2.88-.891-5.826,6.293-8.781,8.964-.674.608-14.458,11.361-14.458,11.361Z" transform="translate(-97.594 -103.697)" fill="#dd6a57"/>
          <path id="Trazado_893430" data-name="Trazado 893430" d="M251.954,129.868c-2.189,5.269-4.062,7.2-8.648,10.438-.092.067,0,.216.083.158,4.786-2.763,7.491-4.844,8.823-10.5C252.278,129.7,252.053,129.635,251.954,129.868Z" transform="translate(-99.094 -104.094)" fill="#263238"/>
          <path id="Trazado_893431" data-name="Trazado 893431" d="M257.175,133.786c-2.747,5.285-4.761,7.391-9.322,11.137a.078.078,0,0,0,.092.125c4.778-3.329,7.416-5.444,9.472-11.078C257.508,133.711,257.3,133.552,257.175,133.786Z" transform="translate(-99.504 -104.449)" fill="#263238"/>
          <path id="Trazado_893432" data-name="Trazado 893432" d="M262.111,139.065c-3.03,4.919-5.136,7.325-9.988,10.4a.108.108,0,0,0,.108.183c5.294-2.647,7.941-5.627,10.063-10.471C262.4,138.84,262.3,138.757,262.111,139.065Z" transform="translate(-99.887 -104.918)" fill="#263238"/>
          <path id="Trazado_893433" data-name="Trazado 893433" d="M222.007,146.35s2.331-6.759,4-9.505,11.7-10.679,13.534-8.615c2.372,2.663-2.5,8.39-5.269,10.879,0,0,5.493,6.159,2.88,11.029S222.007,146.35,222.007,146.35Z" transform="translate(-97.18 -103.929)" fill="#dd6a57"/>
          <path id="Trazado_893434" data-name="Trazado 893434" d="M241.14,129.331c.408,3.987-3.429,7.025-5.918,9.639a.325.325,0,0,0,.083.533c2.131,2.738,4.337,7.225,3.246,10.721a.084.084,0,1,0,.158.058c1.665-3.587-.133-8.165-2.655-11.02,2.6-2.639,6.3-5.826,5.119-9.938C241.165,129.3,241.132,129.306,241.14,129.331Z" transform="translate(-98.36 -104.057)" fill="#263238"/>
          <path id="Trazado_893435" data-name="Trazado 893435" d="M167.3,171.437l.874-21.483a161.36,161.36,0,0,0-16.356-3.87c-7.916-1.132-10.188,1.54-3.8,8.973C152.289,160.025,167.3,171.437,167.3,171.437Z" transform="translate(-90.188 -105.544)" fill="#916aab"/>
          <path id="Trazado_893436" data-name="Trazado 893436" d="M167.42,169.619c-.092-3.138-.133-6.268-.042-9.405.05-1.565.125-3.121.216-4.686s.35-3.113.424-4.669c0-.092.141-.075.133,0-.158,1.548-.1,3.138-.166,4.694s-.133,3.13-.183,4.694c-.108,3.121-.216,6.251-.25,9.372a.067.067,0,1,1-.133,0Z" transform="translate(-92.259 -105.991)" fill="#263238"/>
          <path id="Trazado_893437" data-name="Trazado 893437" d="M167.646,163.13l-.35,8.515s-14.982-11.411-19.277-16.381c-2.988-3.471-4.078-5.9-3.587-7.391Z" transform="translate(-90.188 -105.728)" fill="#263238"/>
          <path id="Trazado_893438" data-name="Trazado 893438" d="M162.855,206.124s-23.772,1.39-56.7,1.432c0,0,14.508-46.32,26.194-58.8,5.319-5.685,10.521-4.811,14.924-1.157,1.1.907,14.724,18.2,15.881,24.23,1.015,5.327-3.329,11.245-3.329,11.245Z" transform="translate(-86.754 -105.439)" fill="#916aab"/>
          <path id="Trazado_893439" data-name="Trazado 893439" d="M142.205,144.86h-3.829a8.157,8.157,0,0,1,3.829,0Zm5.069,2.7c-.216-.183-.433-.35-.658-.516H134.132c-.266.208-.533.441-.832.691h14.15Zm2.014,2.364h-18l-.541.691h19.086Zm2.256,2.88H129.171l-.458.691H152.06Zm2.147,2.88H127.348l-.4.691H154.2Zm2.064,2.872H125.717l-.375.691H156.23Zm1.964,2.88H124.2c-.125.225-.241.458-.35.691h34.326Zm1.848,2.88H122.753c-.1.233-.216.458-.325.691h37.555Zm1.665,2.88H121.413c-.108.225-.208.458-.316.691h40.51c-.117-.225-.233-.458-.366-.691Zm1.382,2.872h-42.5l-.3.691h43.057c-.075-.216-.166-.424-.25-.691Zm.674,2.88H118.866l-.275.716H163.33c-.017-.25-.025-.483-.033-.716Zm-45.637,2.88c-.1.233-.191.458-.283.691H162.9c.058-.233.108-.458.158-.691Zm-1.174,2.88-.275.691h45.671c.108-.225.2-.449.3-.691Zm-1.14,2.872c-.092.233-.183.466-.266.691h45.271c.125-.191.266-.424.424-.691Zm44.688,2.9H114.247c-.083.233-.166.458-.258.691h46.145Zm.383,2.88h-47.26c-.083.233-.175.458-.258.691h47.6Zm.375,2.88h-48.7l-.25.691h49.042Zm.375,2.872H111.051l-.25.691h50.448Zm.375,2.88H110.027c-.075.233-.158.458-.241.691h51.838Zm.375,2.88H109.028c-.075.233-.158.466-.233.691H162Zm.383,2.88H108.054c-.083.233-.158.466-.233.691h54.552Zm.375,2.872H107.1c-.075.241-.15.474-.225.691h55.875Zm-56.5,2.88a.1.1,0,0,1,0,.042q4.628,0,9.006-.042Z" transform="translate(-86.755 -105.436)" fill="#030402" opacity="0.1"/>
          <path id="Trazado_893440" data-name="Trazado 893440" d="M131.114,151.487c-9.647,16.381-22.1,43.64-14.516,48.451,12.485,7.916,46.262,9.231,53.977,9.214,3.329,0,7.275-22.249,4.753-24.754s-37.8-.183-38.288-2.306c-.291-1.2,1.273-12,3.1-25.436C142.243,141.175,133.869,146.793,131.114,151.487Z" transform="translate(-87.483 -105.604)" fill="#dd6a57"/>
          <path id="Trazado_893441" data-name="Trazado 893441" d="M173.479,186.625s9.863-2.306,16.389-3.5c3.637-.674,9.988-1.265,12.868-.533,4.337,1.09,21.766,8.423,20.076,12.685-1.523,3.862-15.7-4.336-15.7-4.336s15.032,7.008,12.344,11.32-17.479-7.092-17.479-7.092,15.282,7.558,11.8,11.561c-2.63,3.021-16.6-6.542-16.6-6.542s13.093,6.576,10.521,9.805c-2.838,3.571-16.289-4.453-16.289-4.453-7.916,7.108-14.591,7.258-19.352,6.792C170.907,212.219,173.479,186.625,173.479,186.625Z" transform="translate(-92.659 -108.822)" fill="#dd6a57"/>
          <path id="Trazado_893442" data-name="Trazado 893442" d="M205.061,188.759c1.8.766,3.621,1.523,5.335,2.439s3.421,1.889,5.044,2.963a33.387,33.387,0,0,1,5.943,4.778c-3.413-2.988-9.53-6.367-11.253-7.283s-3.388-1.914-5.111-2.83C204.978,188.8,205.02,188.742,205.061,188.759Z" transform="translate(-95.65 -109.407)" fill="#263238"/>
          <path id="Trazado_893443" data-name="Trazado 893443" d="M201.3,195.527c2.247,1.074,4.52,2.048,6.725,3.221s4.162,2.5,6.284,3.771c.158.1.05.15-.117.058-2.156-1.224-4.245-2.2-6.417-3.4s-4.3-2.5-6.509-3.6C201.227,195.56,201.227,195.51,201.3,195.527Z" transform="translate(-95.311 -110.016)" fill="#263238"/>
          <path id="Trazado_893444" data-name="Trazado 893444" d="M197.02,200.759a55.555,55.555,0,0,1,9.913,5.7c.158.108,0,.166-.15.067-3.263-1.964-5.826-3.521-9.813-5.652C196.911,200.842,196.953,200.725,197.02,200.759Z" transform="translate(-94.925 -110.487)" fill="#263238"/>
          <path id="Trazado_893445" data-name="Trazado 893445" d="M119.226,172.2l21.35-2.713a160.052,160.052,0,0,0,1.082-16.772c-.2-7.99-3.221-9.788-9.48-2.247C127.966,155.508,119.226,172.2,119.226,172.2Z" transform="translate(-87.93 -105.53)" fill="#916aab"/>
          <path id="Trazado_893446" data-name="Trazado 893446" d="M139.8,171.4c.225-.075,2.405-.424,2.564-.408.117-1.265.216-2.5.341-3.8q.1-.949.225-1.9c.092-.691.158-1.49.241-2.1a.067.067,0,1,1,.133,0c0,.832-.075,1.415-.1,2.114s-.067,1.257-.117,1.873c-.117,1.323-.175,2.73-.35,4.045a21.638,21.638,0,0,1-2.938.241S139.771,171.412,139.8,171.4Z" transform="translate(-89.781 -107.101)" fill="#263238"/>
          <path id="Trazado_893447" data-name="Trazado 893447" d="M121.315,172.054c3.071-.608,6.151-1.174,9.264-1.6q2.322-.325,4.653-.574c1.556-.166,3.13-.175,4.678-.358a.067.067,0,1,1,0,.133c-1.556.1-3.113.424-4.661.616s-3.1.391-4.661.6c-3.1.416-6.193.832-9.281,1.315C121.24,172.2,121.232,172.07,121.315,172.054Z" transform="translate(-88.113 -107.676)" fill="#263238"/>
          <path id="Trazado_893448" data-name="Trazado 893448" d="M141.956,144.975c.05,1.024,3.562,8.265,8.09,8.889,1.473.191,2.922-7.807,2.922-7.807l.241-.566,3.379-7.932-8.565-8.04-1.257-1.082s-.782,2.231-1.723,4.994a1.608,1.608,0,0,1-.133.4c-.042.141-.117.3-.166.449-.142.416-.291.832-.433,1.265s-.208.641-.308.982l-.316,1.015a55.327,55.327,0,0,0-1.731,7.433Z" transform="translate(-89.976 -103.978)" fill="#dd6a57"/>
          <path id="Trazado_893449" data-name="Trazado 893449" d="M145.349,133.456a17.3,17.3,0,0,0,8.165,12.036l3.379-7.932-8.565-8.04-1.257-1.082S146.256,130.668,145.349,133.456Z" transform="translate(-90.281 -103.978)" fill="#263238"/>
          <path id="Trazado_893450" data-name="Trazado 893450" d="M170.968,125.421c-1.873,14.982-11.078,15.59-14.316,15.19-2.938-.375-12.9-2.006-12.593-17.13s7.882-19.011,14.649-18.528S172.833,110.405,170.968,125.421Z" transform="translate(-90.164 -101.861)" fill="#dd6a57"/>
          <path id="Trazado_893451" data-name="Trazado 893451" d="M171.459,124.132a9.9,9.9,0,0,1-.982-.366,1.665,1.665,0,0,1-.932-.558.541.541,0,0,1,.1-.649,1.323,1.323,0,0,1,1.348-.117,1.956,1.956,0,0,1,1.115.832.574.574,0,0,1-.649.857Z" transform="translate(-92.453 -103.427)" fill="#263238"/>
          <path id="Trazado_893452" data-name="Trazado 893452" d="M160.322,122.471c.358,0,.691-.042,1.04-.067a1.756,1.756,0,0,0,1.049-.266.541.541,0,0,0,.1-.658,1.34,1.34,0,0,0-1.257-.5,1.989,1.989,0,0,0-1.323.508.583.583,0,0,0,.391.982Z" transform="translate(-91.579 -103.306)" fill="#263238"/>
          <path id="Trazado_893453" data-name="Trazado 893453" d="M162.247,127.037s-.083.042-.092.083c-.092,1.024-.375,2.181-1.34,2.414v.05C161.965,129.568,162.322,128.028,162.247,127.037Z" transform="translate(-91.673 -103.852)" fill="#263238"/>
          <path id="Trazado_893454" data-name="Trazado 893454" d="M161.375,125.736c-1.665-.325-2.164,2.955-.658,3.263S162.74,126.011,161.375,125.736Z" transform="translate(-91.583 -103.733)" fill="#263238"/>
          <path id="Trazado_893455" data-name="Trazado 893455" d="M160.6,125.773c-.316.141-.649.424-1,.4s-.658-.416-.832-.791h-.058a1.224,1.224,0,0,0,.683,1.515c.6.183,1.132-.3,1.4-.907C160.77,125.906,160.77,125.723,160.6,125.773Z" transform="translate(-91.478 -103.703)" fill="#263238"/>
          <path id="Trazado_893456" data-name="Trazado 893456" d="M168.614,127.814c0-.042.075.058.067.1-.208,1.015-.275,2.206.591,2.7v.058C168.156,130.319,168.306,128.738,168.614,127.814Z" transform="translate(-92.355 -103.921)" fill="#263238"/>
          <path id="Trazado_893457" data-name="Trazado 893457" d="M169.709,126.817c1.665.158,1.224,3.454-.308,3.329S168.31,126.684,169.709,126.817Z" transform="translate(-92.359 -103.832)" fill="#263238"/>
          <path id="Trazado_893458" data-name="Trazado 893458" d="M170.538,127.136c.241.208.458.558.766.624s.674-.258.949-.566h.042c-.067.633-.358,1.265-.982,1.307s-.9-.558-.966-1.207C170.33,127.236,170.446,127.07,170.538,127.136Z" transform="translate(-92.531 -103.86)" fill="#263238"/>
          <path id="Trazado_893459" data-name="Trazado 893459" d="M160.756,136.191c.191.283.358.658.724.766a2.6,2.6,0,0,0,1.132,0v.058a1.39,1.39,0,0,1-1.39.283,1.1,1.1,0,0,1-.608-1.057C160.639,136.149,160.723,136.149,160.756,136.191Z" transform="translate(-91.655 -104.674)" fill="#263238"/>
          <path id="Trazado_893460" data-name="Trazado 893460" d="M165.012,134.868a4.162,4.162,0,0,1-1.79,1.157,1.939,1.939,0,0,1-1.149,0c-.832-.291-.757-1.049-.549-1.665a4.4,4.4,0,0,1,.458-.966A5.394,5.394,0,0,0,165.012,134.868Z" transform="translate(-91.725 -104.424)" fill="#263238"/>
          <path id="Trazado_893461" data-name="Trazado 893461" d="M163.223,136.12a1.939,1.939,0,0,1-1.149,0c-.832-.291-.757-1.049-.549-1.665a1.939,1.939,0,0,1,1.7,1.665Z" transform="translate(-91.725 -104.52)" fill="#ff9cbd"/>
          <path id="Trazado_893462" data-name="Trazado 893462" d="M165.692,131.86a19.092,19.092,0,0,1-.125,2.272c0,.067-.191.075-.433.05h0a3.446,3.446,0,0,1-3.121-1.773.075.075,0,1,1,.125-.083,5.177,5.177,0,0,0,2.98,1.357c.083-.191-.058-2.655.058-2.647a6.143,6.143,0,0,1,1.573.616c.133-3.238-.25-6.467-.067-9.688a.1.1,0,0,1,.191,0,51.6,51.6,0,0,1,.516,10.429C167.356,132.792,165.958,132.026,165.692,131.86Z" transform="translate(-91.78 -103.389)" fill="#263238"/>
          <path id="Trazado_893463" data-name="Trazado 893463" d="M144.825,124.659c1.665.042,6.317-4.087,7.142-11.994,0,0-1.232,7.05-1.856,8.04s2.605-2.331,3.329-8.69a25.9,25.9,0,0,0,6.251,3.97c2.938,1.107,4.786,1.24,4.994,1.04s-4.078-1.981-5.152-3.471c0,0,7.691,4.428,11.361,4.994.424.075,1.665-8.673-3.679-12.91s-14.791-1-17.429,1.14c0,0-2.9.15-6.376,4.112S143.052,124.609,144.825,124.659Z" transform="translate(-89.965 -101.74)" fill="#263238"/>
          <path id="Trazado_893464" data-name="Trazado 893464" d="M158.086,131.125a4.753,4.753,0,1,1,5.951-4.561h0a4.744,4.744,0,0,1-4.786,4.711,4.471,4.471,0,0,1-1.165-.15Zm2.247-8.573a3.638,3.638,0,0,0-1.007-.133,4.112,4.112,0,1,0,1.007.133Z" transform="translate(-91.108 -103.379)" fill="#916aab"/>
          <path id="Trazado_893465" data-name="Trazado 893465" d="M170.047,132.734c-1.756-.466-2.88-2.68-2.5-5.136a5.652,5.652,0,0,1,1.457-3.146,2.955,2.955,0,0,1,4.994.707,5.676,5.676,0,0,1,.524,3.429c-.366,2.589-2.231,4.478-4.162,4.162a1.832,1.832,0,0,1-.316-.017Zm1.781-8.665a1.164,1.164,0,0,0-.233-.05,2.5,2.5,0,0,0-2.164.874,5.061,5.061,0,0,0-1.29,2.8c-.316,2.247.707,4.253,2.3,4.478s3.13-1.423,3.454-3.671a4.994,4.994,0,0,0-.466-3.038,2.613,2.613,0,0,0-1.6-1.39Z" transform="translate(-92.272 -103.523)" fill="#916aab"/>
          <path id="Trazado_893466" data-name="Trazado 893466" d="M164.689,127.506l-.333-.541c.832-.5,2.555-1.065,3.529.325l-.516.366C166.495,126.407,164.763,127.464,164.689,127.506Z" transform="translate(-91.992 -103.796)" fill="#916aab"/>
          <path id="Trazado_893467" data-name="Trazado 893467" d="M141.456,125.42l-.516-.366c.175-.241,1.715-2.364,3.155-2.389s9.655,1.956,9.988,2.039l-.141.616c-2.389-.574-8.814-2.048-9.855-2.023S141.872,124.838,141.456,125.42Z" transform="translate(-89.884 -103.459)" fill="#916aab"/>
          <path id="Trazado_893468" data-name="Trazado 893468" d="M143.048,130.456a2.954,2.954,0,0,0,.649.325,2.255,2.255,0,0,0,.691.166,2.039,2.039,0,0,0,.916-.092,2.755,2.755,0,0,0,.649-.308,3.071,3.071,0,0,0,.741-.716V125.67s-2.247-5.31-4.586-4.6S140.784,129.016,143.048,130.456Z" transform="translate(-89.87 -103.309)" fill="#dd6a57"/>
          <path id="Trazado_893469" data-name="Trazado 893469" d="M142.629,123.37c-.042,0-.058.042,0,.067,1.573,1.065,2.139,2.863,2.422,4.653a1.407,1.407,0,0,0-1.989-.832c-.05,0,0,.1,0,.1a1.565,1.565,0,0,1,1.573.9,7.708,7.708,0,0,1,.524,1.548c0,.166.341.142.325,0a.108.108,0,0,1,0-.05C146.008,127.54,144.943,124.094,142.629,123.37Z" transform="translate(-90.033 -103.522)" fill="#263238"/>
          <path id="Trazado_893470" data-name="Trazado 893470" d="M143.648,130.728a.7.7,0,1,0,.707-.691.691.691,0,0,0-.707.691Z" transform="translate(-90.128 -104.122)" fill="#fff"/>
          <path id="Trazado_893471" data-name="Trazado 893471" d="M142.34,129.239a.5.5,0,0,0,.491.508.491.491,0,0,0,.5-.491.508.508,0,0,0-.491-.508.491.491,0,0,0-.5.491Z" transform="translate(-90.01 -104.006)" fill="#fff"/>
        </g>
        <g id="freepik--Table--inject-4" transform="translate(41.492 175.483)">
          <rect id="Rectángulo_402454" data-name="Rectángulo 402454" width="281.015" height="8.249" fill="#37474f"/>
          <rect id="Rectángulo_402455" data-name="Rectángulo 402455" width="271.693" height="3.413" transform="translate(4.661 8.24)" fill="#263238"/>
          <rect id="Rectángulo_402456" data-name="Rectángulo 402456" width="38.18" height="155.681" transform="translate(16.522 11.653)" fill="#37474f"/>
          <rect id="Rectángulo_402457" data-name="Rectángulo 402457" width="38.18" height="18.212" transform="translate(16.53 11.653)" fill="#263238"/>
          <rect id="Rectángulo_402458" data-name="Rectángulo 402458" width="38.18" height="155.681" transform="translate(226.306 11.653)" fill="#37474f"/>
          <rect id="Rectángulo_402459" data-name="Rectángulo 402459" width="38.18" height="18.212" transform="translate(226.314 11.653)" fill="#263238"/>
        </g>
        <g id="freepik--sewing-machine--inject-4" transform="translate(162.257 88.587)">
          <path id="Trazado_893472" data-name="Trazado 893472" d="M305.938,382.936h-.4l.058-.832c.083,0,8.773.458,11.819-6.517,4.553-10.4-3.879-52.487-7.05-68.327-.35-1.765-.649-3.254-.874-4.428-1.848-9.514-1.423-23.772-1.007-37.555.458-15.265.932-31.063-1.79-39.644s-11.2-8.939-11.561-8.939v-.832c.092,0,9.4.275,12.335,9.53,2.763,8.715,2.314,23.88,1.831,39.952-.416,13.742-.832,27.95.99,37.372.225,1.174.524,2.664.874,4.42,3.488,17.413,11.653,58.181,7,68.826C315.293,382.529,307.761,382.936,305.938,382.936Z" transform="translate(-214.905 -137.263)" fill="#263238"/>
          <path id="Trazado_893473" data-name="Trazado 893473" d="M304.631,402.432h-40.76v-5.918l40.76-3.155Z" transform="translate(-212.091 -153.237)" fill="#916aab"/>
          <path id="Trazado_893474" data-name="Trazado 893474" d="M220.836,190.561l-.416,11.486L220,190.561Z" transform="translate(-208.143 -134.986)" fill="#a6a6a6"/>
          <path id="Trazado_893475" data-name="Trazado 893475" d="M278.406,131.71c-14.008,7.558-29.681,1.024-44.539,3-2.946.391-7.491.99-9.572,3.329s-2.688,5.993-3.03,8.931c-.441,3.845-.233,7.732-.333,11.595a43.614,43.614,0,0,1-2.331,12.543c-2.555,7.849-3.13,15.814-.05,23.6.067.183.316.058.258-.117-2.614-7.857-2.272-15.49.266-23.306a42.74,42.74,0,0,0,2.231-9.872c.291-3.737.075-7.491.233-11.245s.516-8.756,3.138-11.728,8.39-3.271,12.019-3.521c7.383-.508,14.724.774,22.1.99,6.809.2,13.784-.449,19.677-4.12C278.531,131.76,278.473,131.651,278.406,131.71Z" transform="translate(-207.824 -129.687)" fill="#dbdbdb"/>
          <path id="Trazado_893476" data-name="Trazado 893476" d="M222.958,146.041s-.574-7.824-.3-8.257,4.07-.724,4.495-.449.441,9.156.441,9.156Z" transform="translate(-208.375 -130.186)" fill="#916aab"/>
          <path id="Trazado_893477" data-name="Trazado 893477" d="M227.026,185.837s-1.715,6.342-1.989,6.517l-11.5-.916-.5-7.025Z" transform="translate(-207.515 -134.432)" fill="#916aab"/>
          <path id="Trazado_893478" data-name="Trazado 893478" d="M227.026,185.828s-.7,2.6-1.282,4.511c-4.162-.458-8.273-.982-12.4-1.54l-.308-4.395Z" transform="translate(-207.515 -134.432)" opacity="0.1"/>
          <path id="Trazado_893479" data-name="Trazado 893479" d="M305.041,172.753l-5.718.308,2.048-20.276,5.968,1.973Z" transform="translate(-215.282 -131.586)" fill="#916aab"/>
          <path id="Trazado_893480" data-name="Trazado 893480" d="M304.492,153.814c-.674,6.359-1.265,12.727-2.189,19.077l-2.98.158,2.056-20.3Z" transform="translate(-215.282 -131.582)" opacity="0.1"/>
          <path id="Trazado_893481" data-name="Trazado 893481" d="M294.216,144.8c-.516,5.044-3.812,33.835-3.812,33.835s-5.826,1.532-6.109,1.956c0,0-1.665,11.029-1.665,13.1-.075,4.819.067,9.555.067,9.555l-17.479-.757s.142-4.112.25-9.331c.083-4-.25-20.809-.25-20.809s-31.038-1.531-31.762-.907c-1.665,1.448-5.635,11.212-5.635,11.212l-18.178-1.806c-.732-2.8-2.672-35.791-2.672-35.791Z" transform="translate(-206.97 -130.867)" fill="#916aab"/>
          <path id="Trazado_893482" data-name="Trazado 893482" d="M288.439,208.03l-17.479-.757s.141-4.112.25-9.331c5.718.092,11.42.25,17.13.533C288.3,203.294,288.439,208.03,288.439,208.03Z" transform="translate(-212.729 -135.65)" opacity="0.1"/>
          <rect id="Rectángulo_402460" data-name="Rectángulo 402460" width="77.549" height="17.046" transform="translate(2.688 69.841)" fill="#916aab"/>
          <path id="Trazado_893483" data-name="Trazado 893483" d="M287.473,216.649l-77.549.832v-2.938l77.549.832Z" transform="translate(-207.236 -137.144)" opacity="0.1"/>
          <path id="Trazado_893484" data-name="Trazado 893484" d="M279.17,130.329c-.549.266-.258,12.2.05,12.152s6.759,0,7.075-.15,1.057-11.7.766-11.944S279.878,130,279.17,130.329Z" transform="translate(-213.44 -129.547)" fill="#dbdbdb"/>
          <rect id="Rectángulo_402461" data-name="Rectángulo 402461" width="1.665" height="11.994" transform="translate(63.535 1.665) rotate(-89.76)" fill="#263238"/>
          <rect id="Rectángulo_402462" data-name="Rectángulo 402462" width="1.665" height="11.994" transform="translate(63.225 13.968) rotate(-89.76)" fill="#263238"/>
          <path id="Trazado_893485" data-name="Trazado 893485" d="M220.114,203.183a.117.117,0,1,0,.086.112A.117.117,0,0,0,220.114,203.183Z" transform="translate(-208.145 -136.122)" fill="#9c9c9c"/>
          <path id="Trazado_893486" data-name="Trazado 893486" d="M284.3,159.791a1.665,1.665,0,0,0,0,3.329A1.665,1.665,0,0,0,284.3,159.791Z" transform="translate(-213.783 -132.216)" opacity="0.1"/>
          <path id="Trazado_893487" data-name="Trazado 893487" d="M220.748,174.929a1.665,1.665,0,0,0,0,3.329A1.665,1.665,0,0,0,220.748,174.929Z" transform="translate(-208.063 -133.579)" opacity="0.1"/>
          <path id="Trazado_893488" data-name="Trazado 893488" d="M280.339,188.713a1.665,1.665,0,0,0,0,3.329A1.665,1.665,0,0,0,280.339,188.713Z" transform="translate(-213.427 -134.819)" opacity="0.1"/>
          <path id="Trazado_893489" data-name="Trazado 893489" d="M216.089,205.747s6.809-3.379,12.685-3.113,11.411-1.29,16.647-1.615,8.948-1.19,21.133,4.728,17.313,44.3,24.063,54.452S316,287.133,316,304.479s-1.074,34.351-1.074,34.351-11.386-6.992-28.782,3.371c-8.815,5.252-24.912-1.565-30.264-2.947s-19.918,7.649-19.918,7.649,13.151-26.177,15.773-37.089c3.771-15.723-1.39-19.543-3.6-34.3s5.535-39.836-2.031-53.037S216.089,205.747,216.089,205.747Z" transform="translate(-207.79 -135.905)" fill="#dbdbdb"/>
          <path id="Trazado_893490" data-name="Trazado 893490" d="M271.409,315.471c-.757,7.583-4.786,23.514-7.233,32.744-1.964-.624-3.612-1.165-4.761-1.465a8.748,8.748,0,0,0-3.987.233c3.438-9.222,8.789-24.845,10.279-38.463.774-7.05-1.548-22.7,0-24.363S272.517,304.4,271.409,315.471Z" transform="translate(-211.331 -143.401)" fill="#c7c7c7"/>
          <path id="Trazado_893491" data-name="Trazado 893491" d="M313.923,345.9a31.63,31.63,0,0,0-13.85,2.439c1.556-4.378,4.47-14.749,5.826-33.851.624-8.973,2.772-15.357,6.093-4.561C314.548,318.3,314.206,337.655,313.923,345.9Z" transform="translate(-215.349 -145.218)" fill="#c7c7c7"/>
          <path id="Trazado_893492" data-name="Trazado 893492" d="M257.964,228.612c-1.523.275-4.287-12.036-7.491-16.472-2.863-4-11.836-8.665-16.813-9.422,2.172-.117,4.295-.416,6.367-.724,3.429,1.249,8.54,3.571,11,6.9C254.918,214.146,259.487,228.338,257.964,228.612Z" transform="translate(-209.372 -136.015)" fill="#c7c7c7"/>
        </g>
        <g id="freepik--Threads--inject-4" transform="translate(256.247 145.444)">
          <rect id="Rectángulo_402463" data-name="Rectángulo 402463" width="3.762" height="30.064" transform="translate(7.53)" fill="#ebebeb"/>
          <path id="Trazado_893493" data-name="Trazado 893493" d="M327.566,222.3H311.752a1.49,1.49,0,0,1-1.473-1.748l.117-.641v-.158l.558-3.1v-.2l.549-3.08.042-.216.549-3.088.042-.241.533-3.046.05-.275.549-3.063.042-.275.541-3.055.058-.3.533-3.055.058-.316.058-.316a1.473,1.473,0,0,1,1.465-1.224h7.2a1.49,1.49,0,0,1,1.473,1.224l.141.832.083.441.608,3.454.075.424.608,3.454.075.416.608,3.446.075.408.616,3.454.067.4.608,3.438.075.383.608,3.463.067.35v.058a1.482,1.482,0,0,1-1.44,1.756Z" transform="translate(-310.256 -192.233)" fill="#916aab"/>
          <g id="Grupo_1102294" data-name="Grupo 1102294" transform="translate(0.122 2.672)" opacity="0.1">
            <path id="Trazado_893494" data-name="Trazado 893494" d="M325.721,197.4a36.013,36.013,0,0,1-7.025-2.5h.949a42.1,42.1,0,0,0,5.993,2.064Z" transform="translate(-311.138 -194.905)"/>
            <path id="Trazado_893495" data-name="Trazado 893495" d="M326.062,201.433A37.148,37.148,0,0,1,314.9,196.9l.058-.316a41.616,41.616,0,0,0,11.029,4.42Z" transform="translate(-310.796 -195.057)"/>
            <path id="Trazado_893496" data-name="Trazado 893496" d="M326.686,205.636a37.015,37.015,0,0,1-12.435-5.044l.058-.3a41.526,41.526,0,0,0,12.3,4.927Z" transform="translate(-310.738 -195.39)"/>
            <path id="Trazado_893497" data-name="Trazado 893497" d="M327.311,209.794a37.022,37.022,0,0,1-13.7-5.568l.042-.275a41.767,41.767,0,0,0,13.584,5.435Z" transform="translate(-310.68 -195.719)"/>
            <path id="Trazado_893498" data-name="Trazado 893498" d="M327.934,214.006a37.589,37.589,0,0,1-14.982-6.084l.05-.275a41.617,41.617,0,0,0,14.866,5.96Z" transform="translate(-310.621 -196.052)"/>
            <path id="Trazado_893499" data-name="Trazado 893499" d="M328.587,218.155a37.139,37.139,0,0,1-16.239-6.617l.042-.241a41.684,41.684,0,0,0,16.122,6.476Z" transform="translate(-310.567 -196.38)"/>
            <path id="Trazado_893500" data-name="Trazado 893500" d="M329.178,222.3a37.114,37.114,0,0,1-17.479-7.125l.042-.216a41.909,41.909,0,0,0,17.4,6.992Z" transform="translate(-310.508 -196.71)"/>
            <path id="Trazado_893501" data-name="Trazado 893501" d="M322.647,224.428h-1.323a37.571,37.571,0,0,1-10.238-5.652v-.2a41.318,41.318,0,0,0,11.561,5.851Z" transform="translate(-310.453 -197.036)"/>
            <path id="Trazado_893502" data-name="Trazado 893502" d="M314.261,224.755h-.541a38.223,38.223,0,0,1-3.329-2.389v-.158a42.309,42.309,0,0,0,3.87,2.547Z" transform="translate(-310.391 -197.363)"/>
          </g>
          <rect id="Rectángulo_402464" data-name="Rectángulo 402464" width="3.762" height="30.064" transform="translate(43.659 23.82) rotate(99.87)" fill="#ebebeb"/>
          <path id="Trazado_893503" data-name="Trazado 893503" d="M323.853,221.438l2.713-15.606a1.482,1.482,0,0,1,1.981-1.149l.608.225.15.042,2.963,1.082.191.067,2.938,1.065.208.075,2.947,1.065.233.083,2.913,1.057.258.092,2.93,1.065.258.092,2.913,1.057.291.1,2.922,1.057.3.117.3.1a1.49,1.49,0,0,1,.957,1.665l-1.232,7.092a1.49,1.49,0,0,1-1.465,1.24h-24.8a1.49,1.49,0,0,1-1.473-1.681Z" transform="translate(-311.479 -193.105)" fill="#455a64"/>
          <path id="Trazado_893504" data-name="Trazado 893504" d="M351.3,224.31a34.675,34.675,0,0,1,3.679-6.492l-.167.941a41.719,41.719,0,0,0-3.063,5.543Z" transform="translate(-313.95 -194.296)" fill="#263238"/>
          <path id="Trazado_893505" data-name="Trazado 893505" d="M346.968,223.992a37.024,37.024,0,0,1,6.376-10.263l.3.117a41.083,41.083,0,0,0-6.243,10.1Z" transform="translate(-313.56 -193.928)" fill="#263238"/>
          <path id="Trazado_893506" data-name="Trazado 893506" d="M342.651,223.881a37.113,37.113,0,0,1,7.1-11.386l.291.1a41.883,41.883,0,0,0-6.967,11.287Z" transform="translate(-313.172 -193.817)" fill="#263238"/>
          <path id="Trazado_893507" data-name="Trazado 893507" d="M338.352,223.766a36.973,36.973,0,0,1,7.841-12.543l.258.092a41.9,41.9,0,0,0-7.683,12.485Z" transform="translate(-312.785 -193.702)" fill="#263238"/>
          <path id="Trazado_893508" data-name="Trazado 893508" d="M334.053,223.65a37.638,37.638,0,0,1,8.565-13.717l.258.092a41.692,41.692,0,0,0-8.415,13.625Z" transform="translate(-312.398 -193.586)" fill="#263238"/>
          <path id="Trazado_893509" data-name="Trazado 893509" d="M329.791,223.536a37.139,37.139,0,0,1,9.3-14.874l.233.083a41.683,41.683,0,0,0-9.164,14.791Z" transform="translate(-312.014 -193.472)" fill="#263238"/>
          <path id="Trazado_893510" data-name="Trazado 893510" d="M325.528,223.422a37.306,37.306,0,0,1,9.988-16.023l.208.075a41.916,41.916,0,0,0-9.83,15.948Z" transform="translate(-311.631 -193.358)" fill="#263238"/>
          <path id="Trazado_893511" data-name="Trazado 893511" d="M324.806,216.592l.225-1.3a37.93,37.93,0,0,1,7.325-9.156l.191.067a41.418,41.418,0,0,0-7.741,10.388Z" transform="translate(-311.566 -193.244)" fill="#263238"/>
          <path id="Trazado_893512" data-name="Trazado 893512" d="M326.37,208.31l.092-.524a33.686,33.686,0,0,1,2.922-2.847l.15.042a44.123,44.123,0,0,0-3.163,3.329Z" transform="translate(-311.706 -193.137)" fill="#263238"/>
        </g>
      </g>
    </g>
  </g>
</svg>
