<svg xmlns="http://www.w3.org/2000/svg" width="400" height="303" viewBox="0 0 400 303">
  <g id="Grupo_1101993" data-name="Grupo 1101993" transform="translate(-1019.757 -2102)">
    <rect id="_2148614698" data-name="2148614698" width="400" height="230" rx="10" transform="translate(1019.757 2175)" fill="#e6efbf"/>
    <g id="Hand_sewing-amico" data-name="Hand sewing-amico" transform="translate(1053.758 2077.9)">
      <g id="freepik--Floor--inject-12" transform="translate(14.73 152.105)">
        <path id="freepik--floor--inject-12-2" data-name="freepik--floor--inject-12" d="M59.037,248.785c-59.076,34.077-59.076,89.372,0,123.514s154.858,34.077,213.927,0,59.076-89.372,0-123.514S118.106,214.663,59.037,248.785Z" transform="translate(-14.73 -223.186)" fill="#fafafa"/>
      </g>
      <g id="freepik--Pictures--inject-12" transform="translate(263.95 28.581)">
        <g id="freepik--Picture--inject-12" transform="translate(0 58.69)">
          <g id="freepik--Frame--inject-12" transform="translate(0 0)">
            <path id="Trazado_893062" data-name="Trazado 893062" d="M445.138,210.759l-1.755,1.048-35.9-20.736,1.749-1.042Z" transform="translate(-404.175 -146.514)" fill="#fafafa"/>
            <path id="Trazado_893063" data-name="Trazado 893063" d="M410.2,170.175l34.154,19.713V154.12L410.2,134.42Z" transform="translate(-405.146 -126.659)" fill="#fff"/>
            <path id="Trazado_893064" data-name="Trazado 893064" d="M402.34,169.381l42.513,24.542V148.472L402.34,123.93Zm3.3-39.735,35.9,20.736v37.826l-35.9-20.736Z" transform="translate(-402.34 -122.914)" fill="#f0f0f0"/>
            <path id="Trazado_893065" data-name="Trazado 893065" d="M407.48,170.646l1.749-1.042V133.849l-1.749-1.029Z" transform="translate(-404.175 -126.088)" fill="#e0e0e0"/>
            <path id="Trazado_893066" data-name="Trazado 893066" d="M402.34,123.366l1.781-1.016,42.506,24.542-1.775,1.016Z" transform="translate(-402.34 -122.35)" fill="#fafafa"/>
            <path id="Trazado_893067" data-name="Trazado 893067" d="M470.235,160.52l-1.775,1.016v45.451l1.775-1.016Z" transform="translate(-425.947 -135.978)" fill="#e0e0e0"/>
          </g>
          <g id="freepik--Land--inject-12" transform="translate(6.385 22.272)">
            <path id="Trazado_893068" data-name="Trazado 893068" d="M412.27,177.166l31.492,18.177v-9.085l-7.876-18.183-4.9,4.546,1.762,7.619-10.873-23.25-9.606,11.085Z" transform="translate(-412.27 -156.99)" fill="#f0f0f0"/>
            <path id="Trazado_893069" data-name="Trazado 893069" d="M440.548,160.4a5.144,5.144,0,0,1,2.328,4.031c0,1.485-1.042,2.09-2.328,1.344a5.144,5.144,0,0,1-2.328-4.031C438.22,160.261,439.262,159.657,440.548,160.4Z" transform="translate(-421.535 -158.094)" fill="#f0f0f0"/>
          </g>
        </g>
        <g id="freepik--picture--inject-12-2" data-name="freepik--picture--inject-12">
          <g id="freepik--frame--inject-12-2" data-name="freepik--frame--inject-12">
            <path id="Trazado_893070" data-name="Trazado 893070" d="M445.138,119.479l-1.755,1.042-35.9-20.729,1.749-1.042Z" transform="translate(-404.175 -55.234)" fill="#fafafa"/>
            <path id="Trazado_893071" data-name="Trazado 893071" d="M410.2,78.9l34.154,19.713V62.84L410.2,43.14Z" transform="translate(-405.146 -35.379)" fill="#fff"/>
            <path id="Trazado_893072" data-name="Trazado 893072" d="M402.34,78.1l42.513,24.542V57.192L402.34,32.65Zm3.3-39.735,35.9,20.729V96.921l-35.9-20.729Z" transform="translate(-402.34 -31.634)" fill="#f0f0f0"/>
            <path id="Trazado_893073" data-name="Trazado 893073" d="M407.48,79.366l1.749-1.042V42.569L407.48,41.54Z" transform="translate(-404.175 -34.808)" fill="#e0e0e0"/>
            <path id="Trazado_893074" data-name="Trazado 893074" d="M402.34,32.086l1.781-1.016,42.506,24.542-1.775,1.016Z" transform="translate(-402.34 -31.07)" fill="#fafafa"/>
            <path id="Trazado_893075" data-name="Trazado 893075" d="M470.235,69.24l-1.775,1.016v45.451l1.775-1.016Z" transform="translate(-425.947 -44.698)" fill="#e0e0e0"/>
          </g>
          <g id="freepik--land--inject-12-2" data-name="freepik--land--inject-12" transform="translate(6.385 22.266)">
            <path id="Trazado_893076" data-name="Trazado 893076" d="M412.27,85.883l31.492,18.177V94.968l-7.876-18.177-4.9,4.546,1.762,7.619L421.876,65.7,412.27,76.791Z" transform="translate(-412.27 -65.7)" fill="#f0f0f0"/>
            <path id="Trazado_893077" data-name="Trazado 893077" d="M440.548,69.115a5.144,5.144,0,0,1,2.328,4.038c0,1.485-1.042,2.09-2.328,1.344a5.144,5.144,0,0,1-2.328-4.031C438.22,68.98,439.262,68.375,440.548,69.115Z" transform="translate(-421.535 -66.807)" fill="#f0f0f0"/>
          </g>
        </g>
      </g>
      <g id="freepik--Window--inject-12" transform="translate(23.269 24.1)">
        <g id="freepik--window--inject-12-2" data-name="freepik--window--inject-12">
          <g id="freepik--window--inject-12-3" data-name="freepik--window--inject-12">
            <g id="freepik--frame--inject-12-3" data-name="freepik--frame--inject-12">
              <path id="Trazado_893078" data-name="Trazado 893078" d="M33.45,263l1.839,1.1,60.7-35.054-1.839-1.1Z" transform="translate(-29.952 -96.882)" fill="#fafafa"/>
              <path id="Trazado_893079" data-name="Trazado 893079" d="M95.173,159.7,36.31,193.683V70.754L95.173,36.78Z" transform="translate(-30.973 -28.627)" fill="#fff"/>
              <path id="Trazado_893080" data-name="Trazado 893080" d="M98.556,25.76,30.91,64.82V197.914l67.64-39.06Zm-3.472,131.1-60.7,35.054V66.82l60.7-35.054Z" transform="translate(-29.045 -24.693)" fill="#f5f5f5"/>
              <path id="Trazado_893081" data-name="Trazado 893081" d="M129.7,160.2l-1.839-1.1V36.18L129.7,35.1Z" transform="translate(-63.66 -28.027)" fill="#e0e0e0"/>
              <path id="Trazado_893082" data-name="Trazado 893082" d="M36.31,195.034v2.16l60.7-35.054-1.839-1.1Z" transform="translate(-30.973 -72.992)" fill="#fafafa"/>
              <path id="Trazado_893083" data-name="Trazado 893083" d="M36.31,128.094v2.154l60.7-35.054L95.173,94.1Z" transform="translate(-30.973 -49.092)" fill="#fafafa"/>
              <path id="Trazado_893084" data-name="Trazado 893084" d="M97.521,25.167,95.65,24.1,28.01,63.16l1.865,1.067Z" transform="translate(-28.01 -24.1)" fill="#fafafa"/>
              <path id="Trazado_893085" data-name="Trazado 893085" d="M28.01,84.85l1.865,1.067v133.1L28.01,217.95Z" transform="translate(-28.01 -45.79)" fill="#e0e0e0"/>
              <path id="Trazado_893086" data-name="Trazado 893086" d="M77.91,65.01l1.865-1.08v125.1l-1.865-1.067Z" transform="translate(-45.826 -38.321)" fill="#e0e0e0"/>
            </g>
            <path id="Trazado_893087" data-name="Trazado 893087" d="M84.282,60.83,80.81,62.823v125.1l3.472-2.006Z" transform="translate(-46.861 -37.214)" fill="#f5f5f5"/>
            <path id="Trazado_893088" data-name="Trazado 893088" d="M98.556,92.69v4L30.91,135.749v-4Z" transform="translate(-29.045 -48.589)" fill="#f5f5f5"/>
            <path id="Trazado_893089" data-name="Trazado 893089" d="M98.556,159.62v4L30.91,202.679v-4Z" transform="translate(-29.045 -72.485)" fill="#f5f5f5"/>
            <path id="Trazado_893090" data-name="Trazado 893090" d="M64.922,124.03l-1.865-1.08L36.31,138.394v2.154Z" transform="translate(-30.973 -59.393)" fill="#fafafa"/>
            <path id="Trazado_893091" data-name="Trazado 893091" d="M64.922,190.94l-1.865-1.08L36.31,205.3v2.154Z" transform="translate(-30.973 -83.282)" fill="#fafafa"/>
          </g>
        </g>
      </g>
      <g id="freepik--Shadows--inject-12" transform="translate(19.835 211.126)">
        <ellipse id="freepik--Shadow--inject-12" cx="59.969" cy="34.624" rx="59.969" ry="34.624" transform="translate(146.319)" fill="#e0e0e0"/>
        <ellipse id="freepik--shadow--inject-12-2" data-name="freepik--shadow--inject-12" cx="59.969" cy="34.624" rx="59.969" ry="34.624" transform="translate(34.701 10.088)" fill="#e0e0e0"/>
        <ellipse id="freepik--shadow--inject-12-3" data-name="freepik--shadow--inject-12" cx="29.737" cy="17.167" rx="29.737" ry="17.167" transform="translate(0 46.988)" fill="#e0e0e0"/>
      </g>
      <g id="freepik--Needle--inject-12" transform="translate(222.787 197.148)">
        <g id="freepik--needle--inject-12-2" data-name="freepik--needle--inject-12">
          <path id="Trazado_893092" data-name="Trazado 893092" d="M405.806,364.593a7.6,7.6,0,0,1-3.388,3.961l-64.1,37.729,68.9-34.952a19.232,19.232,0,0,1,6.867-1.929,17.965,17.965,0,0,0,6.97-2.225c2.572-1.492,3.954-3.35,3.948-4.989V360.1a10.328,10.328,0,0,1-1.877-.739c-3.163-1.826-9.227-1.286-13.534,1.2A7.887,7.887,0,0,0,405.806,364.593Zm13.914-3.279c1.781,1.029,1.286,2.99-1.157,4.385s-5.819,1.7-7.6.643-1.254-2.99,1.164-4.385S417.945,360.31,419.719,361.313Z" transform="translate(-338.32 -316.46)" fill="#37474f"/>
          <path id="Trazado_893093" data-name="Trazado 893093" d="M405.806,361.4a7.6,7.6,0,0,1-3.388,3.961l-64.1,39.78,68.9-37a19.231,19.231,0,0,1,6.867-1.961,17.843,17.843,0,0,0,6.97-2.193c4.308-2.488,5.234-5.992,2.07-7.818s-9.227-1.286-13.534,1.2A7.75,7.75,0,0,0,405.806,361.4Zm13.914-3.253c1.781,1.022,1.286,2.99-1.157,4.385s-5.819,1.7-7.6.643-1.254-2.99,1.164-4.385,5.819-1.672,7.593-.643Z" transform="translate(-338.32 -315.321)" fill="#455a64"/>
          <path id="Trazado_893094" data-name="Trazado 893094" d="M446.012,310.767c-7.323-9.548-18.685-14.145-33.4-17.527v2.636c14.2,3.292,24.542,7.561,31.364,16.453a18.71,18.71,0,0,1,3.819,14.19c-.611,4.5-2.681,8.127-4.4,9.419A1.286,1.286,0,0,0,444.932,338c2.083-1.562,4.668-5.716,5.407-11.123A21.218,21.218,0,0,0,446.012,310.767Z" transform="translate(-364.844 -293.24)" fill="#916aab"/>
          <path id="Trazado_893095" data-name="Trazado 893095" d="M453.708,347.2a1.286,1.286,0,0,1-1.157-1.877,11.637,11.637,0,0,0-.958-12.351c-3.382-5.015-9.818-8.359-14.987-7.831a1.293,1.293,0,1,1-.276-2.572c6.14-.643,13.457,3.112,17.4,8.95,3.273,4.848,3.658,10.172,1.093,14.994a1.286,1.286,0,0,1-1.112.688Z" transform="translate(-372.9 -303.686)" fill="#916aab"/>
          <g id="Grupo_1101992" data-name="Grupo 1101992" transform="translate(47.766)" opacity="0.1">
            <path id="Trazado_893096" data-name="Trazado 893096" d="M446.012,310.767c-7.323-9.548-18.685-14.145-33.4-17.527v2.636c14.2,3.292,24.542,7.561,31.364,16.453a18.71,18.71,0,0,1,3.819,14.19c-.611,4.5-2.681,8.127-4.4,9.419A1.286,1.286,0,0,0,444.932,338c2.083-1.562,4.668-5.716,5.407-11.123A21.218,21.218,0,0,0,446.012,310.767Z" transform="translate(-412.61 -293.24)"/>
          </g>
        </g>
      </g>
      <g id="freepik--Thread--inject-12" transform="translate(180.538 48.423)">
        <g id="freepik--Spool--inject-12">
          <path id="Trazado_893097" data-name="Trazado 893097" d="M357.817,321.98c0-5.041-3.331-10.088-10-13.933-13.329-7.716-34.939-7.716-48.261,0-6.668,3.858-10,8.886-10,13.933v20.138c0,5.041,3.331,10.088,10,13.933,13.329,7.716,34.939,7.716,48.267,0,6.661-3.858,9.992-8.892,9.992-13.933Z" transform="translate(-278.662 -147.736)" fill="#37474f"/>
          <path id="Trazado_893098" data-name="Trazado 893098" d="M299.558,308.055c-6.668,3.858-10,8.886-10,13.933s3.331,10.082,10,13.933c13.329,7.716,34.939,7.716,48.267,0,6.661-3.858,9.992-8.892,9.992-13.933s-3.331-10.088-10-13.933C334.49,300.358,312.887,300.358,299.558,308.055Z" transform="translate(-278.662 -147.744)" fill="#455a64"/>
          <path id="Trazado_893099" data-name="Trazado 893099" d="M304.631,311.751c-5.877,3.273-8.821,7.568-8.821,11.863s2.945,8.584,8.821,11.863c11.76,6.552,30.824,6.552,42.577,0,5.883-3.279,8.821-7.568,8.821-11.863s-2.938-8.59-8.821-11.863C335.449,305.2,316.391,305.2,304.631,311.751Z" transform="translate(-280.893 -149.371)" fill="#263238"/>
          <path id="Trazado_893100" data-name="Trazado 893100" d="M362.625,241.942V118.05c0-17.238-20.144-31.21-45.008-31.21s-45.008,13.972-45.008,31.21v124c0,17.238,20.138,31.21,45.008,31.21s45.008-13.972,45.008-31.21v-.1Z" transform="translate(-272.61 -70.824)" fill="#916aab"/>
          <path id="Trazado_893101" data-name="Trazado 893101" d="M287.552,236.76V182.108c0-37.369.219-50.6,12.808-49.1l8.011-45.085c-20.388,2.97-35.691,15.515-35.691,30.541v123.97c0,17.238,20.138,31.21,45.008,31.21a63.216,63.216,0,0,0,13.689-1.472C297.235,275.241,287.552,249.227,287.552,236.76Z" transform="translate(-272.635 -71.209)" opacity="0.1"/>
          <path id="Trazado_893102" data-name="Trazado 893102" d="M293.248,97.966c-7.638,4.411-11.458,10.2-11.458,15.978s3.819,11.573,11.458,15.971c15.283,8.821,40.057,8.821,55.334,0,7.645-4.411,11.464-10.191,11.464-15.971s-3.826-11.573-11.464-15.978C333.3,89.145,308.524,89.145,293.248,97.966Z" transform="translate(-275.888 -72.434)" fill="#916aab"/>
          <path id="Trazado_893103" data-name="Trazado 893103" d="M293.248,97.966c-7.638,4.411-11.458,10.2-11.458,15.978s3.819,11.573,11.458,15.971c15.283,8.821,40.057,8.821,55.334,0,7.645-4.411,11.464-10.191,11.464-15.971s-3.826-11.573-11.464-15.978C333.3,89.145,308.524,89.145,293.248,97.966Z" transform="translate(-275.888 -72.434)" fill="#fff" opacity="0.2"/>
          <path id="Trazado_893104" data-name="Trazado 893104" d="M357.817,81.65c0-5.041-3.331-10.088-10-13.933C334.49,60,312.88,60,299.558,67.717c-6.668,3.858-10,8.886-10,13.933v20.138c0,5.041,3.331,10.088,10,13.933,13.329,7.716,34.939,7.716,48.267,0,6.661-3.858,9.992-8.892,9.992-13.933Z" transform="translate(-278.662 -61.93)" fill="#37474f"/>
          <path id="Trazado_893105" data-name="Trazado 893105" d="M299.558,67.735c-6.668,3.858-10,8.886-10,13.933s3.331,10.082,10,13.933c13.329,7.716,34.939,7.716,48.267,0,6.661-3.858,9.992-8.892,9.992-13.933s-3.331-10.088-10-13.933C334.49,60.065,312.887,60.065,299.558,67.735Z" transform="translate(-278.662 -61.949)" fill="#455a64"/>
          <path id="Trazado_893106" data-name="Trazado 893106" d="M304.631,71.432C298.755,74.7,295.81,79,295.81,83.295s2.945,8.584,8.821,11.863c11.76,6.552,30.824,6.552,42.577,0,5.883-3.279,8.821-7.574,8.821-11.863s-2.938-8.59-8.821-11.863C335.449,64.906,316.391,64.906,304.631,71.432Z" transform="translate(-280.893 -63.575)" fill="#263238"/>
          <path id="Trazado_893107" data-name="Trazado 893107" d="M278.68,188.316a82.969,82.969,0,0,0,27.294-3.466c13.219-3.974,26.021-10.017,36.765-18.768s17.887-22.2,17.431-36.212c-.238,19.347-13.014,34.3-29.313,43.239a113.622,113.622,0,0,1-38.469,14.145,79.513,79.513,0,0,1-13.708,1.061ZM330.856,238.2a113.622,113.622,0,0,1-38.469,14.145A79.518,79.518,0,0,1,278.68,253.4a82.969,82.969,0,0,0,27.294-3.466c13.219-3.974,26.021-10.017,36.765-18.768s17.862-22.2,17.431-36.212C359.957,214.3,347.156,229.26,330.856,238.2Zm-51.405-60.574q3.382-.18,6.77-.547c15.772-1.71,31.274-7.208,43.947-16.871a109.379,109.379,0,0,1-24.33,11.651,127.441,127.441,0,0,1-19.688,4.745c-2.225.405-4.462.682-6.7,1.022Zm33.64,25.436q3.215-1.138,6.34-2.443c14.647-6.1,27.962-15.759,37.376-28.618a109.342,109.342,0,0,1-20.035,18.061,127.952,127.952,0,0,1-17.534,10.127c-2.025,1.009-4.1,1.916-6.147,2.874ZM275.24,238.782c1.839.064,3.684.084,5.523.039,12.911-.264,25.866-3.626,36.823-10.564a88.825,88.825,0,0,1-20.575,7.716,104.014,104.014,0,0,1-16.3,2.456C278.943,238.615,277.079,238.672,275.24,238.782Zm37.517,19.932a127.63,127.63,0,0,1-19.668,4.771c-2.225.4-4.5.682-6.706,1.016,2.263-.122,4.5-.3,6.77-.54,15.772-1.71,31.28-7.208,43.947-16.871a109.3,109.3,0,0,1-24.343,11.651ZM304.81,169.58c-10.705-5.484-21.044-13.444-25.828-24.793a30.56,30.56,0,0,1-2.019-8.172,25.03,25.03,0,0,0,1.009,7.028C281.7,156,293.172,165,304.81,169.58Zm-22.5,23c9.439,17.244,28.207,31.415,46.994,36.88l4.244,1.022q2.154.367,4.3.7-2.122-.492-4.244-.952L329.435,229c-18.55-6.172-36.63-19.887-47.123-36.424Zm63.776,29.789-3.568-.746c-17.1-4.372-34.077-15.193-45.085-29.017,9.882,14.608,27.75,25.976,45.008,29.268,1.234.2,2.45.341,3.652.5ZM356.8,269.779c-10.789-2.225-20.774-6.88-30.264-12.4,8.719,6.642,19.276,11.528,30.271,12.4Z" transform="translate(-273.549 -86.187)" opacity="0.15"/>
        </g>
      </g>
      <g id="freepik--Character--inject-12" transform="translate(48.951 41.214)">
        <g id="freepik--Bobbin--inject-12" transform="translate(16.194 138.7)">
          <path id="Trazado_893108" data-name="Trazado 893108" d="M177.4,332.855c-19.289-11.13-50.524-11.13-69.8,0-9.644,5.568-14.46,12.859-14.46,20.15v4.173c0,7.3,4.822,14.589,14.46,20.151,19.289,11.13,50.524,11.13,69.8,0,9.644-5.562,14.454-12.859,14.454-20.151v-4.173C191.854,345.714,187.039,338.423,177.4,332.855ZM126.9,344c8.616-4.977,22.587-4.977,31.21,0,4.308,2.488,6.43,5.748,6.43,9s-2.154,6.52-6.43,9c-8.622,4.977-22.587,4.977-31.21,0-4.308-2.488-6.43-5.748-6.43-9s2.122-6.513,6.43-9Z" transform="translate(-93.14 -287.171)" fill="#916aab"/>
          <path id="Trazado_893109" data-name="Trazado 893109" d="M177.4,332.855c-19.289-11.13-50.524-11.13-69.8,0-9.644,5.568-14.46,12.859-14.46,20.15v4.173c0,7.3,4.822,14.589,14.46,20.151,19.289,11.13,50.524,11.13,69.8,0,9.644-5.562,14.454-12.859,14.454-20.151v-4.173C191.854,345.714,187.039,338.423,177.4,332.855ZM126.9,344c8.616-4.977,22.587-4.977,31.21,0,4.308,2.488,6.43,5.748,6.43,9s-2.154,6.52-6.43,9c-8.622,4.977-22.587,4.977-31.21,0-4.308-2.488-6.43-5.748-6.43-9s2.122-6.513,6.43-9Z" transform="translate(-93.14 -287.171)" fill="#fff" opacity="0.35"/>
          <path id="Trazado_893110" data-name="Trazado 893110" d="M177.4,332.855c-19.289-11.13-50.524-11.13-69.8,0-9.644,5.568-14.46,12.859-14.46,20.15s4.822,14.589,14.46,20.151c19.289,11.13,50.524,11.13,69.8,0,9.644-5.562,14.454-12.859,14.454-20.151S187.039,338.423,177.4,332.855Zm-19.289,29.158c-8.622,4.977-22.587,4.977-31.21,0-4.308-2.488-6.43-5.748-6.43-9s2.154-6.52,6.43-9c8.616-4.977,22.587-4.977,31.21,0,4.308,2.488,6.43,5.748,6.43,9s-2.128,6.533-6.436,9Z" transform="translate(-93.14 -287.171)" fill="#916aab"/>
          <path id="Trazado_893111" data-name="Trazado 893111" d="M177.4,332.855c-19.289-11.13-50.524-11.13-69.8,0-9.644,5.568-14.46,12.859-14.46,20.15s4.822,14.589,14.46,20.151c19.289,11.13,50.524,11.13,69.8,0,9.644-5.562,14.454-12.859,14.454-20.151S187.039,338.423,177.4,332.855Zm-19.289,29.158c-8.622,4.977-22.587,4.977-31.21,0-4.308-2.488-6.43-5.748-6.43-9s2.154-6.52,6.43-9c8.616-4.977,22.587-4.977,31.21,0,4.308,2.488,6.43,5.748,6.43,9s-2.128,6.533-6.436,9Z" transform="translate(-93.14 -287.171)" fill="#fff" opacity="0.6"/>
          <path id="Trazado_893112" data-name="Trazado 893112" d="M179.759,361.759c0,3.26-2.154,6.52-6.43,9-8.622,4.977-22.587,4.977-31.21,0-4.308-2.488-6.43-5.748-6.43-9s2.154-6.52,6.43-9c8.616-4.977,22.587-4.977,31.21,0C177.6,355.239,179.759,358.5,179.759,361.759Z" transform="translate(-108.332 -295.924)" fill="#916aab"/>
          <path id="Trazado_893113" data-name="Trazado 893113" d="M179.759,361.759c0,3.26-2.154,6.52-6.43,9-8.622,4.977-22.587,4.977-31.21,0-4.308-2.488-6.43-5.748-6.43-9s2.154-6.52,6.43-9c8.616-4.977,22.587-4.977,31.21,0C177.6,355.239,179.759,358.5,179.759,361.759Z" transform="translate(-108.332 -295.924)" fill="#fff" opacity="0.35"/>
          <path id="Trazado_893114" data-name="Trazado 893114" d="M176.716,368.927a7.317,7.317,0,0,0-6.635,0c-1.832,1.055-1.832,2.771,0,3.826a7.317,7.317,0,0,0,6.635,0C178.548,371.7,178.548,370,176.716,368.927Zm-49.984-28.863a7.355,7.355,0,0,0-6.635,0c-1.832,1.061-1.832,2.778,0,3.858a7.317,7.317,0,0,0,6.635,0C128.564,342.842,128.564,341.126,126.732,340.065ZM156.34,373.5c-2.5.392-3.986,1.871-3.318,3.318s3.215,2.3,5.742,1.929,3.993-1.871,3.318-3.318-3.241-2.308-5.742-1.922Zm-18.3-39.42c-2.5.386-3.986,1.871-3.311,3.318s3.215,2.3,5.742,1.929,3.986-1.877,3.318-3.318-3.241-2.308-5.748-1.922Zm2.43,39.42c-2.5-.386-5.073.469-5.742,1.929s.81,2.932,3.311,3.318,5.073-.469,5.748-1.929-.817-2.919-3.318-3.311Zm18.3-39.42c-2.508-.386-5.079.469-5.748,1.929s.817,2.925,3.318,3.318,5.073-.476,5.742-1.929-.8-2.926-3.311-3.311Zm-32.039,34.842a7.317,7.317,0,0,0-6.635,0c-1.832,1.054-1.832,2.771,0,3.826a7.317,7.317,0,0,0,6.635,0c1.826-1.048,1.826-2.745,0-3.819Zm43.349-25.031a7.317,7.317,0,0,0,6.635,0c1.832-1.054,1.832-2.771,0-3.858a7.355,7.355,0,0,0-6.635,0c-1.832,1.093-1.832,2.81,0,3.864ZM178,351.831c.643,1.447,3.215,2.3,5.748,1.929s3.986-1.871,3.311-3.318-3.215-2.3-5.742-1.929S177.359,350.384,178,351.831ZM118.8,361c-.643-1.447-3.215-2.3-5.748-1.929s-3.986,1.871-3.311,3.318,3.215,2.3,5.742,1.929S119.492,362.44,118.8,361Zm-5.735-7.253c2.5.386,5.073-.469,5.748-1.929s-.817-2.932-3.318-3.318-5.073.469-5.742,1.929S110.548,353.361,113.062,353.747Zm70.726,5.324c-2.508-.386-5.079.469-5.748,1.929s.817,2.925,3.318,3.318,5.073-.469,5.742-1.929S186.264,359.463,183.789,359.071Z" transform="translate(-99.007 -290.555)" fill="#916aab"/>
          <path id="Trazado_893115" data-name="Trazado 893115" d="M176.716,368.927a7.317,7.317,0,0,0-6.635,0c-1.832,1.055-1.832,2.771,0,3.826a7.317,7.317,0,0,0,6.635,0C178.548,371.7,178.548,370,176.716,368.927Zm-49.984-28.863a7.355,7.355,0,0,0-6.635,0c-1.832,1.061-1.832,2.778,0,3.858a7.317,7.317,0,0,0,6.635,0C128.564,342.842,128.564,341.126,126.732,340.065ZM156.34,373.5c-2.5.392-3.986,1.871-3.318,3.318s3.215,2.3,5.742,1.929,3.993-1.871,3.318-3.318-3.241-2.308-5.742-1.922Zm-18.3-39.42c-2.5.386-3.986,1.871-3.311,3.318s3.215,2.3,5.742,1.929,3.986-1.877,3.318-3.318-3.241-2.308-5.748-1.922Zm2.43,39.42c-2.5-.386-5.073.469-5.742,1.929s.81,2.932,3.311,3.318,5.073-.469,5.748-1.929-.817-2.919-3.318-3.311Zm18.3-39.42c-2.508-.386-5.079.469-5.748,1.929s.817,2.925,3.318,3.318,5.073-.476,5.742-1.929-.8-2.926-3.311-3.311Zm-32.039,34.842a7.317,7.317,0,0,0-6.635,0c-1.832,1.054-1.832,2.771,0,3.826a7.317,7.317,0,0,0,6.635,0c1.826-1.048,1.826-2.745,0-3.819Zm43.349-25.031a7.317,7.317,0,0,0,6.635,0c1.832-1.054,1.832-2.771,0-3.858a7.355,7.355,0,0,0-6.635,0c-1.832,1.093-1.832,2.81,0,3.864ZM178,351.831c.643,1.447,3.215,2.3,5.748,1.929s3.986-1.871,3.311-3.318-3.215-2.3-5.742-1.929S177.359,350.384,178,351.831ZM118.8,361c-.643-1.447-3.215-2.3-5.748-1.929s-3.986,1.871-3.311,3.318,3.215,2.3,5.742,1.929S119.492,362.44,118.8,361Zm-5.735-7.253c2.5.386,5.073-.469,5.748-1.929s-.817-2.932-3.318-3.318-5.073.469-5.742,1.929S110.548,353.361,113.062,353.747Zm70.726,5.324c-2.508-.386-5.079.469-5.748,1.929s.817,2.925,3.318,3.318,5.073-.469,5.742-1.929S186.264,359.463,183.789,359.071Z" transform="translate(-99.007 -290.555)" fill="#fff" opacity="0.35"/>
          <path id="Trazado_893116" data-name="Trazado 893116" d="M224.662,379.234a5.735,5.735,0,0,0-2.373-.874,7.014,7.014,0,0,0-4.809.874,5.825,5.825,0,0,0,2.379.881A6.989,6.989,0,0,0,224.662,379.234Z" transform="translate(-137.534 -306.359)" fill="#916aab"/>
          <path id="Trazado_893117" data-name="Trazado 893117" d="M210.162,393.646c.1-.051.186-.116.276-.174-.09-.058-.18-.122-.276-.174a7.317,7.317,0,0,0-6.635,0c-.1.051-.186.116-.276.174.09.058.18.122.276.174A7.317,7.317,0,0,0,210.162,393.646Z" transform="translate(-132.453 -311.447)" fill="#916aab"/>
          <path id="Trazado_893118" data-name="Trazado 893118" d="M178.61,340.364a5.826,5.826,0,0,0,2.379.881,6.989,6.989,0,0,0,4.8-.881,5.735,5.735,0,0,0-2.373-.874A7.014,7.014,0,0,0,178.61,340.364Z" transform="translate(-123.656 -292.481)" fill="#916aab"/>
          <path id="Trazado_893119" data-name="Trazado 893119" d="M219.859,361.94a5.786,5.786,0,0,0-2.379.874,6.983,6.983,0,0,0,4.809.881,5.652,5.652,0,0,0,2.373-.881,6.989,6.989,0,0,0-4.8-.874Z" transform="translate(-137.534 -300.496)" fill="#916aab"/>
          <path id="Trazado_893120" data-name="Trazado 893120" d="M183.413,402.555a5.729,5.729,0,0,0,2.379-.874,6.957,6.957,0,0,0-4.8-.881,5.728,5.728,0,0,0-2.379.874A6.97,6.97,0,0,0,183.413,402.555Z" transform="translate(-123.656 -314.371)" fill="#916aab"/>
          <path id="Trazado_893121" data-name="Trazado 893121" d="M203.526,348.411l-.276.18.276.174a7.317,7.317,0,0,0,6.635,0l.276-.174-.276-.18A7.355,7.355,0,0,0,203.526,348.411Z" transform="translate(-132.453 -295.423)" fill="#916aab"/>
          <path id="Trazado_893122" data-name="Trazado 893122" d="M116.089,380.115a5.858,5.858,0,0,0,2.379-.881,7.015,7.015,0,0,0-4.809-.874,5.786,5.786,0,0,0-2.379.874A7.015,7.015,0,0,0,116.089,380.115Z" transform="translate(-99.617 -306.359)" fill="#916aab"/>
          <path id="Trazado_893123" data-name="Trazado 893123" d="M111.28,362.8a5.678,5.678,0,0,0,2.379.881,6.983,6.983,0,0,0,4.809-.881,5.787,5.787,0,0,0-2.379-.874,7.015,7.015,0,0,0-4.809.874Z" transform="translate(-99.617 -300.493)" fill="#916aab"/>
          <path id="Trazado_893124" data-name="Trazado 893124" d="M132.422,393.646c.1-.051.186-.116.276-.174-.09-.058-.18-.122-.276-.174a7.317,7.317,0,0,0-6.635,0c-.1.051-.186.116-.276.174.09.058.18.122.276.174A7.317,7.317,0,0,0,132.422,393.646Z" transform="translate(-104.697 -311.447)" fill="#916aab"/>
          <path id="Trazado_893125" data-name="Trazado 893125" d="M152.533,339.49a5.735,5.735,0,0,0-2.373.874,6.989,6.989,0,0,0,4.8.881,5.858,5.858,0,0,0,2.379-.881A7.014,7.014,0,0,0,152.533,339.49Z" transform="translate(-113.498 -292.481)" fill="#916aab"/>
          <path id="Trazado_893126" data-name="Trazado 893126" d="M132.422,348.411a7.355,7.355,0,0,0-6.635,0l-.276.18.276.174a7.317,7.317,0,0,0,6.635,0l.276-.174Z" transform="translate(-104.697 -295.423)" fill="#916aab"/>
          <path id="Trazado_893127" data-name="Trazado 893127" d="M157.342,401.674a5.787,5.787,0,0,0-2.379-.874,6.957,6.957,0,0,0-4.8.881,5.7,5.7,0,0,0,2.373.874,6.982,6.982,0,0,0,4.809-.881Z" transform="translate(-113.498 -314.371)" fill="#916aab"/>
          <path id="Trazado_893128" data-name="Trazado 893128" d="M188.587,306.277c0-6.2-4.1-12.409-12.3-17.141-16.4-9.471-43-9.471-59.4,0-8.2,4.732-12.3,10.93-12.3,17.141v30.669c0,6.2,4.1,12.409,12.3,17.148,16.4,9.464,43,9.464,59.4,0,8.2-4.739,12.3-10.93,12.3-17.148Z" transform="translate(-97.228 -272.005)" fill="#916aab"/>
          <path id="Trazado_893129" data-name="Trazado 893129" d="M174.13,372.435c-1.254-.051-2.508,0-3.761,0h-3.6c-2.379-.051-4.752-.174-7.124-.386a97.209,97.209,0,0,1-13.8-2.186,75.593,75.593,0,0,1-23.147-9.644,66.871,66.871,0,0,1-5.613-3.961c-1.852-1.466-3.607-3.054-5.4-4.591-.206-.174-.463.058-.283.27a34.924,34.924,0,0,0,4.578,4.411q2.411,1.993,5.009,3.755a68.859,68.859,0,0,0,10.885,5.98,84.036,84.036,0,0,0,26.008,6.565c2.668.257,5.349.386,8.031.424h4.134a35.777,35.777,0,0,0,4.237-.244C174.51,372.8,174.3,372.441,174.13,372.435Zm9.169-5.845c-3.106.193-6.192.534-9.3.643a91.328,91.328,0,0,1-9.291-.174,97.165,97.165,0,0,1-18.222-2.971c-3.5-.907-6.893-2.07-10.326-3.215-.225-.071-.167.283,0,.354a67.637,67.637,0,0,0,8.828,3.073,90.242,90.242,0,0,0,9.13,2.1,93.552,93.552,0,0,0,18.562,1.46,63.65,63.65,0,0,0,10.776-.939c.154-.013-.019-.341-.174-.328Zm3.961-17.514a72.525,72.525,0,0,1-10.1,7.761,57.045,57.045,0,0,1-11.451,5.414c-2.353.81-4.758,1.447-7.163,2.077-.276.071,0,.437.193.405a47.039,47.039,0,0,0,12.377-3.858,56.5,56.5,0,0,0,11.059-6.61,39.161,39.161,0,0,0,5.433-4.887c.135-.167-.193-.457-.367-.3Zm-53.713,21.154a12.274,12.274,0,0,0,2.868-.3c.18-.058,0-.328-.109-.341a23.441,23.441,0,0,0-2.424.039c-.772,0-1.543.032-2.315,0a43.72,43.72,0,0,1-4.784-.309,48.374,48.374,0,0,1-9.407-1.974c-.849-.27-1.691-.566-2.533-.868s-1.832-.694-2.765-.945c-.167-.039-.1.212,0,.264a19.07,19.07,0,0,0,4.623,2.006c1.517.5,3.067.919,4.623,1.286a48.269,48.269,0,0,0,9.445,1.138ZM159.4,374.8a23.881,23.881,0,0,0-2.99.739c-.971.251-1.929.489-2.926.7-1.929.411-3.858.759-5.851,1.016a74.111,74.111,0,0,1-12.12.585c-2.25-.071-4.5-.219-6.751-.4-.1,0-.077.174,0,.186a55.354,55.354,0,0,0,12.281.836,66.692,66.692,0,0,0,11.869-1.472c1.151-.251,2.3-.521,3.44-.829.527-.141,1.048-.3,1.575-.456a7.477,7.477,0,0,0,1.614-.6c.167-.09-.013-.328-.141-.315Z" transform="translate(-99.636 -295.927)" opacity="0.1"/>
          <path id="Trazado_893130" data-name="Trazado 893130" d="M177.4,274.785c-19.289-11.13-50.524-11.13-69.8,0-9.644,5.568-14.46,12.859-14.46,20.151v4.173c0,7.3,4.822,14.589,14.46,20.151,19.289,11.13,50.524,11.13,69.8,0,9.644-5.562,14.454-12.859,14.454-20.151v-4.173C191.854,287.638,187.039,280.353,177.4,274.785Zm-50.5,11.143c8.616-4.977,22.587-4.977,31.21,0,4.308,2.482,6.43,5.748,6.43,9s-2.154,6.52-6.43,9c-8.622,4.977-22.587,4.977-31.21,0-4.308-2.488-6.43-5.748-6.43-9S122.588,288.409,126.9,285.927Z" transform="translate(-93.14 -266.438)" fill="#916aab"/>
          <path id="Trazado_893131" data-name="Trazado 893131" d="M177.4,274.785c-19.289-11.13-50.524-11.13-69.8,0-9.644,5.568-14.46,12.859-14.46,20.151v4.173c0,7.3,4.822,14.589,14.46,20.151,19.289,11.13,50.524,11.13,69.8,0,9.644-5.562,14.454-12.859,14.454-20.151v-4.173C191.854,287.638,187.039,280.353,177.4,274.785Zm-50.5,11.143c8.616-4.977,22.587-4.977,31.21,0,4.308,2.482,6.43,5.748,6.43,9s-2.154,6.52-6.43,9c-8.622,4.977-22.587,4.977-31.21,0-4.308-2.488-6.43-5.748-6.43-9S122.588,288.409,126.9,285.927Z" transform="translate(-93.14 -266.438)" fill="#fff" opacity="0.35"/>
          <path id="Trazado_893132" data-name="Trazado 893132" d="M177.4,274.785c-19.289-11.13-50.524-11.13-69.8,0-9.644,5.568-14.46,12.859-14.46,20.151s4.822,14.582,14.46,20.151c19.289,11.13,50.524,11.13,69.8,0,9.644-5.568,14.454-12.859,14.454-20.151S187.039,280.353,177.4,274.785Zm-19.289,29.158c-8.622,4.977-22.587,4.977-31.21,0-4.308-2.488-6.43-5.748-6.43-9s2.154-6.526,6.43-9c8.616-4.977,22.587-4.977,31.21,0,4.308,2.482,6.43,5.748,6.43,9s-2.128,6.513-6.436,9Z" transform="translate(-93.14 -266.438)" fill="#916aab"/>
          <path id="Trazado_893133" data-name="Trazado 893133" d="M177.4,274.785c-19.289-11.13-50.524-11.13-69.8,0-9.644,5.568-14.46,12.859-14.46,20.151s4.822,14.582,14.46,20.151c19.289,11.13,50.524,11.13,69.8,0,9.644-5.568,14.454-12.859,14.454-20.151S187.039,280.353,177.4,274.785Zm-19.289,29.158c-8.622,4.977-22.587,4.977-31.21,0-4.308-2.488-6.43-5.748-6.43-9s2.154-6.526,6.43-9c8.616-4.977,22.587-4.977,31.21,0,4.308,2.482,6.43,5.748,6.43,9s-2.128,6.513-6.436,9Z" transform="translate(-93.14 -266.438)" fill="#fff" opacity="0.7"/>
          <path id="Trazado_893134" data-name="Trazado 893134" d="M179.759,303.689c0,3.26-2.154,6.52-6.43,9-8.622,4.977-22.587,4.977-31.21,0-4.308-2.488-6.43-5.748-6.43-9s2.154-6.526,6.43-9c8.616-4.977,22.587-4.977,31.21,0C177.6,297.163,179.759,300.429,179.759,303.689Z" transform="translate(-108.332 -275.191)" fill="#916aab"/>
          <path id="Trazado_893135" data-name="Trazado 893135" d="M179.759,303.689c0,3.26-2.154,6.52-6.43,9-8.622,4.977-22.587,4.977-31.21,0-4.308-2.488-6.43-5.748-6.43-9s2.154-6.526,6.43-9c8.616-4.977,22.587-4.977,31.21,0C177.6,297.163,179.759,300.429,179.759,303.689Z" transform="translate(-108.332 -275.191)" fill="#fff" opacity="0.35"/>
          <path id="Trazado_893136" data-name="Trazado 893136" d="M176.709,310.857a7.317,7.317,0,0,0-6.635,0c-1.832,1.054-1.832,2.771,0,3.826a7.317,7.317,0,0,0,6.635,0C178.541,313.629,178.541,311.912,176.709,310.857Zm-49.984-28.863a7.356,7.356,0,0,0-6.635,0c-1.832,1.061-1.832,2.771,0,3.858a7.356,7.356,0,0,0,6.635,0c1.832-1.087,1.832-2.81,0-3.858Zm29.609,33.434c-2.5.386-3.986,1.871-3.318,3.318s3.215,2.3,5.742,1.929,3.993-1.877,3.318-3.318-3.241-2.308-5.742-1.922Zm-18.3-39.42c-2.5.386-3.986,1.871-3.311,3.318s3.215,2.3,5.742,1.929,3.986-1.871,3.318-3.311-3.241-2.315-5.748-1.929Zm2.43,39.42c-2.5-.386-5.073.469-5.742,1.929s.81,2.925,3.311,3.318,5.073-.476,5.748-1.929-.817-2.913-3.318-3.311Zm18.3-39.42c-2.508-.386-5.079.469-5.748,1.929s.817,2.925,3.318,3.311,5.073-.469,5.742-1.929-.8-2.919-3.311-3.3Zm-32.039,34.842a7.317,7.317,0,0,0-6.635,0c-1.832,1.054-1.832,2.771,0,3.826a7.317,7.317,0,0,0,6.635,0c1.826-1.048,1.826-2.765,0-3.819Zm43.349-25.031a7.356,7.356,0,0,0,6.635,0c1.832-1.061,1.832-2.771,0-3.858a7.355,7.355,0,0,0-6.635,0c-1.832,1.08-1.832,2.8,0,3.864Zm7.921,7.941c.643,1.44,3.215,2.3,5.748,1.929s3.986-1.871,3.311-3.311-3.215-2.3-5.742-1.929S177.352,292.314,177.995,293.761Zm-59.217,9.162c-.643-1.447-3.215-2.3-5.748-1.929s-3.986,1.871-3.311,3.318,3.215,2.3,5.742,1.929,4.025-1.877,3.331-3.318Zm-5.722-7.246c2.5.386,5.073-.476,5.748-1.929s-.817-2.932-3.318-3.318-5.073.469-5.742,1.929S110.541,295.259,113.055,295.677Zm70.726,5.33c-2.508-.386-5.079.469-5.748,1.929s.817,2.925,3.318,3.311,5.073-.469,5.742-1.929S186.257,301.393,183.781,301.007Z" transform="translate(-99 -269.822)" fill="#916aab"/>
          <path id="Trazado_893137" data-name="Trazado 893137" d="M176.709,310.857a7.317,7.317,0,0,0-6.635,0c-1.832,1.054-1.832,2.771,0,3.826a7.317,7.317,0,0,0,6.635,0C178.541,313.629,178.541,311.912,176.709,310.857Zm-49.984-28.863a7.356,7.356,0,0,0-6.635,0c-1.832,1.061-1.832,2.771,0,3.858a7.356,7.356,0,0,0,6.635,0c1.832-1.087,1.832-2.81,0-3.858Zm29.609,33.434c-2.5.386-3.986,1.871-3.318,3.318s3.215,2.3,5.742,1.929,3.993-1.877,3.318-3.318-3.241-2.308-5.742-1.922Zm-18.3-39.42c-2.5.386-3.986,1.871-3.311,3.318s3.215,2.3,5.742,1.929,3.986-1.871,3.318-3.311-3.241-2.315-5.748-1.929Zm2.43,39.42c-2.5-.386-5.073.469-5.742,1.929s.81,2.925,3.311,3.318,5.073-.476,5.748-1.929-.817-2.913-3.318-3.311Zm18.3-39.42c-2.508-.386-5.079.469-5.748,1.929s.817,2.925,3.318,3.311,5.073-.469,5.742-1.929-.8-2.919-3.311-3.3Zm-32.039,34.842a7.317,7.317,0,0,0-6.635,0c-1.832,1.054-1.832,2.771,0,3.826a7.317,7.317,0,0,0,6.635,0c1.826-1.048,1.826-2.765,0-3.819Zm43.349-25.031a7.356,7.356,0,0,0,6.635,0c1.832-1.061,1.832-2.771,0-3.858a7.355,7.355,0,0,0-6.635,0c-1.832,1.08-1.832,2.8,0,3.864Zm7.921,7.941c.643,1.44,3.215,2.3,5.748,1.929s3.986-1.871,3.311-3.311-3.215-2.3-5.742-1.929S177.352,292.314,177.995,293.761Zm-59.217,9.162c-.643-1.447-3.215-2.3-5.748-1.929s-3.986,1.871-3.311,3.318,3.215,2.3,5.742,1.929,4.025-1.877,3.331-3.318Zm-5.722-7.246c2.5.386,5.073-.476,5.748-1.929s-.817-2.932-3.318-3.318-5.073.469-5.742,1.929S110.541,295.259,113.055,295.677Zm70.726,5.33c-2.508-.386-5.079.469-5.748,1.929s.817,2.925,3.318,3.311,5.073-.469,5.742-1.929S186.257,301.393,183.781,301.007Z" transform="translate(-99 -269.822)" fill="#fff" opacity="0.35"/>
          <path id="Trazado_893138" data-name="Trazado 893138" d="M224.662,321.161a5.826,5.826,0,0,0-2.373-.881,7.015,7.015,0,0,0-4.809.881,5.729,5.729,0,0,0,2.379.874A6.989,6.989,0,0,0,224.662,321.161Z" transform="translate(-137.534 -285.623)" fill="#916aab"/>
          <path id="Trazado_893139" data-name="Trazado 893139" d="M210.162,335.575l.276-.174-.276-.18a7.355,7.355,0,0,0-6.635,0l-.276.18.276.174A7.317,7.317,0,0,0,210.162,335.575Z" transform="translate(-132.453 -290.713)" fill="#916aab"/>
          <path id="Trazado_893140" data-name="Trazado 893140" d="M178.61,282.291a5.729,5.729,0,0,0,2.379.874,6.989,6.989,0,0,0,4.8-.874,5.825,5.825,0,0,0-2.373-.881,7.015,7.015,0,0,0-4.809.881Z" transform="translate(-123.656 -271.745)" fill="#916aab"/>
          <path id="Trazado_893141" data-name="Trazado 893141" d="M219.859,303.86a5.786,5.786,0,0,0-2.379.874,7.014,7.014,0,0,0,4.809.874,5.735,5.735,0,0,0,2.373-.874A6.989,6.989,0,0,0,219.859,303.86Z" transform="translate(-137.534 -279.76)" fill="#916aab"/>
          <path id="Trazado_893142" data-name="Trazado 893142" d="M183.413,344.485a5.825,5.825,0,0,0,2.379-.881,6.989,6.989,0,0,0-4.8-.874,5.728,5.728,0,0,0-2.379.874,7.073,7.073,0,0,0,4.8.881Z" transform="translate(-123.656 -293.638)" fill="#916aab"/>
          <path id="Trazado_893143" data-name="Trazado 893143" d="M203.526,290.338l-.276.174.276.18a7.356,7.356,0,0,0,6.635,0l.276-.18-.276-.174a7.317,7.317,0,0,0-6.635,0Z" transform="translate(-132.453 -274.687)" fill="#916aab"/>
          <path id="Trazado_893144" data-name="Trazado 893144" d="M116.089,322.037a5.786,5.786,0,0,0,2.379-.874,7.072,7.072,0,0,0-4.809-.881,5.858,5.858,0,0,0-2.379.881A7.015,7.015,0,0,0,116.089,322.037Z" transform="translate(-99.617 -285.625)" fill="#916aab"/>
          <path id="Trazado_893145" data-name="Trazado 893145" d="M111.28,304.734a5.856,5.856,0,0,0,2.379.881,7.072,7.072,0,0,0,4.809-.881,5.787,5.787,0,0,0-2.379-.874,7.015,7.015,0,0,0-4.809.874Z" transform="translate(-99.617 -279.76)" fill="#916aab"/>
          <path id="Trazado_893146" data-name="Trazado 893146" d="M132.422,335.575l.276-.174-.276-.18a7.356,7.356,0,0,0-6.635,0l-.276.18.276.174A7.317,7.317,0,0,0,132.422,335.575Z" transform="translate(-104.697 -290.713)" fill="#916aab"/>
          <path id="Trazado_893147" data-name="Trazado 893147" d="M152.533,281.411a5.825,5.825,0,0,0-2.373.881,6.989,6.989,0,0,0,4.8.874,5.786,5.786,0,0,0,2.379-.874A7.015,7.015,0,0,0,152.533,281.411Z" transform="translate(-113.498 -271.745)" fill="#916aab"/>
          <path id="Trazado_893148" data-name="Trazado 893148" d="M132.422,290.338a7.317,7.317,0,0,0-6.635,0l-.276.174.276.18a7.356,7.356,0,0,0,6.635,0l.276-.18Z" transform="translate(-104.697 -274.687)" fill="#916aab"/>
          <path id="Trazado_893149" data-name="Trazado 893149" d="M157.342,343.6a5.786,5.786,0,0,0-2.379-.874,6.989,6.989,0,0,0-4.8.874,5.788,5.788,0,0,0,2.373.881,7.073,7.073,0,0,0,4.809-.881Z" transform="translate(-113.498 -293.638)" fill="#916aab"/>
        </g>
        <g id="freepik--character--inject-12-2" data-name="freepik--character--inject-12" transform="translate(0 0)">
          <g id="freepik--Bottom--inject-12" transform="translate(17.055 119.014)">
            <path id="Trazado_893150" data-name="Trazado 893150" d="M254.111,361.64s-2.18,16.241-.971,22.092c1.247,6.115.309,8.494,3.041,14.788.592,1.376,2.09,4.044,2.572,5.144a1.765,1.765,0,0,1-1,2.54c-2.475,1.228-8.1-2.572-11.573-7.375A160.493,160.493,0,0,1,236.1,381.3a8.487,8.487,0,0,1-.27-4.436,13.054,13.054,0,0,1,.643-2.5c.18-2.848-.7-7.953-.868-11.573Z" transform="translate(-144.865 -280.742)" fill="#ffbda7"/>
            <path id="Trazado_893151" data-name="Trazado 893151" d="M230.534,402.9a6.43,6.43,0,0,0-.186,2.16c.251,1.222,4,4.5,5.439,5.645a9.934,9.934,0,0,1,3.748,6.346c.868,3.916,3.511,7.163,6.822,9.7a27.3,27.3,0,0,0,15.431,5.189c6.893.3,8.275-3.466,8.275-3.466s1.177-3.575-.341-4.5S230.534,402.9,230.534,402.9Z" transform="translate(-142.982 -295.473)" fill="#263238"/>
            <path id="Trazado_893152" data-name="Trazado 893152" d="M234.727,381.439c-.2.045-.553.077-.894.81-.129.276-.547,3.433-1.119,5.182-.643,1.877-2.353,5.259-2.045,7.78,2.694,4.327,7.966,6.462,9.786,10.737s3.215,9.419,11.5,13.084,15.431,2.4,17.579.3,1.215-4.745-3.646-9c-5.144-4.5-10.763-15.7-10.763-15.708a40.359,40.359,0,0,1-1.974-4.867,34.569,34.569,0,0,1-.823-5.112,3.857,3.857,0,0,0-.907-2.18,3.954,3.954,0,0,0-2.218-.81,17,17,0,0,0-3.858-.276,5.787,5.787,0,0,0-3.5,1.376,20.082,20.082,0,0,1-1.884,2.032,3.356,3.356,0,0,1-3.517.27,2.874,2.874,0,0,1-1.71-2.848S234.727,381.439,234.727,381.439Z" transform="translate(-143.091 -287.785)" fill="#37474f"/>
            <path id="Trazado_893153" data-name="Trazado 893153" d="M255.77,430.052a11.247,11.247,0,0,1,8.513-7.934c7.266-1.858,10.738,1.183,12.409,3.067,1.987,2.244,4.578,6.578,1.929,8.7-2.855,2.3-6.719,2.823-13.387,1.4S255.77,430.052,255.77,430.052Z" transform="translate(-152.066 -302.128)" fill="#fafafa"/>
            <path id="Trazado_893154" data-name="Trazado 893154" d="M248.637,398.087a.759.759,0,0,0,.643-.174c.971-.862,6.584-3.646,10.873-1.337.354-.476.09-1.106-.72-1.884-4.713-1.517-10.03,1.087-11.207,2.135a.707.707,0,0,0-.032,1.035.784.784,0,0,0,.444.225Z" transform="translate(-149.286 -292.378)" fill="#fafafa"/>
            <path id="Trazado_893155" data-name="Trazado 893155" d="M263.249,402.948a2.327,2.327,0,0,0-.939-1.89,13.911,13.911,0,0,0-10.615,2.315.707.707,0,0,0,0,1.035.8.8,0,0,0,.418.231.765.765,0,0,0,.643-.18C253.695,403.623,259.018,400.987,263.249,402.948Z" transform="translate(-150.531 -294.711)" fill="#fafafa"/>
            <path id="Trazado_893156" data-name="Trazado 893156" d="M271.217,416.672a4.244,4.244,0,0,0-1.607-2.385c-4.661-1.382-9.857,1.164-11.014,2.193a.707.707,0,0,0-.032,1.035.8.8,0,0,0,.418.231.778.778,0,0,0,.643-.174C260.7,416.659,266.864,413.612,271.217,416.672Z" transform="translate(-152.989 -299.396)" fill="#fafafa"/>
            <path id="Trazado_893157" data-name="Trazado 893157" d="M255.521,411.191a.759.759,0,0,0,.643-.18c.964-.849,6.43-3.575,10.731-1.408a2.63,2.63,0,0,0-1.17-1.987c-4.552-1.132-9.484,1.286-10.609,2.308a.707.707,0,0,0-.032,1.035A.8.8,0,0,0,255.521,411.191Z" transform="translate(-151.746 -297.052)" fill="#fafafa"/>
            <path id="Trazado_893158" data-name="Trazado 893158" d="M272.234,386.15c7.458,16.576,6.738,16.717,14.049,25.391,5.626,6.655,8.449,9.831,14.949,14.274,1.415.964,4.5,2.643,5.652,3.421a2.024,2.024,0,0,1,.592,3.073c-1.652,2.7-10.93,5.684-17.206,3.131s-13.309-9.69-17.283-12.036c-1.492-.881-2.925-1.807-4.321-2.816s-1.382-2.237-1.845-3.613c-.219-.643-.611-2.533-.611-2.533-1.588-3.112-4.906-7.773-6.79-10.718Z" transform="translate(-153.369 -289.493)" fill="#ffbda7"/>
            <path id="Trazado_893159" data-name="Trazado 893159" d="M273.18,453.94a7.369,7.369,0,0,0,.874,2.328c.862,1.144,6.352,2.662,8.416,3.163a11.48,11.48,0,0,1,7.015,4.719c2.8,3.613,7.163,5.677,11.843,6.661a31.374,31.374,0,0,0,18.5-2.225c7.259-3.073,6.854-7.671,6.854-7.671s-.547-4.282-2.572-4.5S273.18,453.94,273.18,453.94Z" transform="translate(-158.282 -313.697)" fill="#263238"/>
            <path id="Trazado_893160" data-name="Trazado 893160" d="M268.807,424.544a1.37,1.37,0,0,0-.5,1.376,59.521,59.521,0,0,1,1.4,5.922c.289,2.237.154,6.6,1.717,9.053,4.932,3.151,11.438,2.758,15.431,6.282s8,8.153,18.35,7.876,17.154-5.144,18.35-8.359-1.087-5.51-8.211-7.5c-7.561-2.109-18.884-10.93-18.89-10.93a47.47,47.47,0,0,1-4.443-4.07c-1.357-1.376-2.244-3.3-3.376-4.88a4.4,4.4,0,0,0-2.012-1.807,4.5,4.5,0,0,0-2.7.251,19.643,19.643,0,0,0-4.089,1.6,6.655,6.655,0,0,0-2.951,3.157,30.723,30.723,0,0,1-.945,3.035,3.72,3.72,0,0,1-6.571.084Z" transform="translate(-156.533 -300.651)" fill="#37474f"/>
            <path id="Trazado_893161" data-name="Trazado 893161" d="M314.8,465.436s-1.7-6.905,4.9-12.416,11.7-4.076,14.357-2.951c3.163,1.344,7.986,4.552,6.295,8.056-1.826,3.787-5.568,6.237-13.168,8.05S314.8,465.436,314.8,465.436Z" transform="translate(-173.072 -311.941)" fill="#fafafa"/>
            <path id="Trazado_893162" data-name="Trazado 893162" d="M290.233,437.224a.894.894,0,0,0,.6-.508c.585-1.376,5.015-7.021,10.6-6.751.129-.643-.45-1.2-1.678-1.595-5.626.752-9.844,6.076-10.545,7.716a.823.823,0,0,0,.482,1.093.939.939,0,0,0,.547.045Z" transform="translate(-163.981 -304.567)" fill="#fafafa"/>
            <path id="Trazado_893163" data-name="Trazado 893163" d="M307.747,435.1a2.675,2.675,0,0,0-1.929-1.492c-5.266,1.08-9.175,6.044-9.844,7.632a.817.817,0,0,0,.476,1.087.9.9,0,0,0,1.151-.476C298.192,440.515,302.4,435.147,307.747,435.1Z" transform="translate(-166.397 -306.438)" fill="#fafafa"/>
            <path id="Trazado_893164" data-name="Trazado 893164" d="M322.8,445.322a4.88,4.88,0,0,0-2.848-1.672c-5.5.868-9.644,6.07-10.287,7.716a.817.817,0,0,0,.476,1.093.958.958,0,0,0,.553,0,.894.894,0,0,0,.6-.508C311.875,450.517,316.78,444.306,322.8,445.322Z" transform="translate(-171.284 -310.023)" fill="#fafafa"/>
            <path id="Trazado_893165" data-name="Trazado 893165" d="M303.843,447.434a.862.862,0,0,0,.6-.508c.579-1.357,4.925-6.886,10.41-6.751a3.016,3.016,0,0,0-2.186-1.485c-5.272,1.08-9.175,6.037-9.85,7.632a.817.817,0,0,0,.482,1.087A.842.842,0,0,0,303.843,447.434Z" transform="translate(-168.84 -308.252)" fill="#fafafa"/>
            <path id="Trazado_893166" data-name="Trazado 893166" d="M182.165,235.82c9.207,4.629,43.574,18.4,56.3,28.123,4.443,3.388,6.34,6.153,4.745,16.074-2.913,18.17-8.937,42.436-8.937,42.436-3.716,2.514-13.168,2.829-18.415.643l-2.321-27.365L180.3,283.637Z" transform="translate(-125.121 -235.82)" fill="#455a64"/>
            <path id="Trazado_893167" data-name="Trazado 893167" d="M234.7,329.551c.315-1.286,1.4-5.755,2.765-11.741,0,0-4.16-11.355-6.61-16.987-2.09-4.8-5.015-6.533-12.975-11.13s-28.933-14.949-32.007-16.807c.932-3.112,1.55-11.284-1.151-16.177,0,0-.1,12.39-3.446,17.688l-.058,1.517c2.3,2.572,11.284,12.48,21.475,23.211l11.175,4.064.688,8.191C222.762,319.611,230.375,326.755,234.7,329.551Z" transform="translate(-125.449 -243.278)" fill="#37474f"/>
            <path id="Trazado_893168" data-name="Trazado 893168" d="M151.524,235.82h0L94.48,259.61c0,9.972,3.421,18.3,7.33,23.43s12,12.506,28.425,17.309c16.273,4.764,24.285,6.372,33.614,8.744,7.5,1.929,11.573,2.128,14.325,9.561A56.966,56.966,0,0,0,189.208,337.3a147.4,147.4,0,0,1,13.727,17.392s9.644-3.6,15.868-11.213c0,0-13.309-32.888-17.611-42.976-3.176-7.452-4.173-10.017-13.888-15.637-7.773-4.5-36.263-17.6-36.263-17.6S160.2,248.93,151.524,235.82Z" transform="translate(-94.48 -235.82)" fill="#455a64"/>
            <path id="Trazado_893169" data-name="Trazado 893169" d="M196.232,343.053c-3.093-5.89-3.215-7.6-4.61-11.921-1.672-5.272-2.8-7.073-5.722-9.342-3.17-2.475-11.393-4.6-20.575-7.516-6.134-1.929-13.091-4.166-20.954-7.073-8.275-3.067-13.862-6.211-17.778-9.966,6.2-4.192,4.436-10.982.547-23.365l-.8.251c3.9,12.409,5.523,18.646-.366,22.5-5.073-5.189-7.15-11.573-8.719-20.5l-.817.148c2.842,16.183,7.311,24.163,27.647,31.7,7.883,2.919,14.846,5.144,20.993,7.073,9.1,2.9,17.264,5,20.318,7.381,2.713,2.122,3.742,3.607,5.439,8.937,1.382,4.353,1.537,6.1,4.661,12.056,4,7.632,14.82,18.279,18.646,23.314h0l.739-.379h0C211.007,361.326,200.238,350.7,196.232,343.053Z" transform="translate(-102.32 -249.405)" fill="#37474f"/>
          </g>
          <g id="freepik--Top--inject-12">
            <path id="freepik--Hair--inject-12" d="M109.427,66.163a5.7,5.7,0,0,1-.1-1.144c.193-5.568,5.041-9.831,9.754-12.049,7.169-3.363,15.508-2.784,22.568.572,7.362,3.5,15.618,10.05,15.052,18.948-.206,3.215-1.421,4.8-2.154,6.475-1.382,3.157,2.218,7.073,3.858,9.374,1.794,2.572,3.17,5.671,2.5,8.706a5.33,5.33,0,0,0-2.392-2.572c.643.328.682,1.929.784,2.572a10.647,10.647,0,0,1-.039,3.44,13.367,13.367,0,0,1-3.138,6.385,24.3,24.3,0,0,1-9.644,6.185,50.229,50.229,0,0,1-15.174,3.337,109.034,109.034,0,0,1-12.216.276c-7.831-.4-16.936-2.9-20.048-10.93a7.446,7.446,0,0,1-.476-4.649,5.24,5.24,0,0,0-.482,4.7c-2.07-2.353-2.218-5.928-1.177-8.879.984-2.778,2.906-4.713,4.5-7.073,1.447-2.122.643-5.067.437-7.433a20.71,20.71,0,0,1,.932-8.854C103.718,70.953,106.431,66.613,109.427,66.163Z" transform="translate(-78.066 -50.718)" fill="#263238"/>
            <path id="Trazado_893170" data-name="Trazado 893170" d="M223.7,167.887a8.1,8.1,0,0,1-.366-2.72,3.016,3.016,0,0,0-.122-1.222,5.143,5.143,0,0,1-.3-1.524,6.173,6.173,0,0,0-.206-1.749c-.322-1.022-1.2-1.151-1.987-1.852a4.16,4.16,0,0,1-1.241-1.929c-.6-1.44-1.46-2.4-3.144-2.18a8.609,8.609,0,0,0-2.572.919l-3.086,1.485a5.845,5.845,0,0,1-1.7.611c-1.337.186-2.231-.321-3.517-.315a2.758,2.758,0,0,0-2.72,1.929c-.418,1.331.431,2.463.952,3.607a7.522,7.522,0,0,1,.765,1.839,21.219,21.219,0,0,1-.064,2.572c0,.971.084,1.929.122,2.906a3.3,3.3,0,0,1-.084,1.151,10.506,10.506,0,0,1-1.46,2.572c-.9.862-14.4,10.525-14.4,10.525s-3.028-8.764-8.629-24.7c-4.128-11.747-7.336-16.4-16.441-15.939L159.4,169.906s8.275,20.974,21.218,37.523c2.72,3.491,5.439,3.819,9.9.894,2.572-1.685,7.311-6.545,10.551-10.384,6.713-7.947,7.748-9.387,12.422-15.232,3.311-4.154,5.433-5.857,8.14-9,1.286-1.472,2.5-3.279,2.218-5.214A5.088,5.088,0,0,1,223.7,167.887Z" transform="translate(-100.603 -83.966)" fill="#ffbda7"/>
            <path id="Trazado_893171" data-name="Trazado 893171" d="M221.427,168.639a5.786,5.786,0,0,1,.238-3.215l14.074-36.694-16.685,35.582a5.787,5.787,0,0,1-2.128,2.385,5.562,5.562,0,0,0-2.115,2.572c-1,2.34-.405,4.829,1.286,5.562s3.922-.572,4.919-2.913a5.549,5.549,0,0,0,.412-3.279Zm-4.5,4.359c-.971-.411-1.286-1.813-.739-3.125s1.794-2.045,2.758-1.633,1.286,1.807.739,3.125-1.8,2.045-2.765,1.633Z" transform="translate(-120.214 -78.571)" fill="#455a64"/>
            <g id="freepik--Arm--inject-12" transform="translate(78.709 97.906)">
              <path id="Trazado_893172" data-name="Trazado 893172" d="M199.616,205.51c-6.2,4.231-8.391,9-9.246,11.773.534-5.652,1.447-9.85,8.359-14.293Z" transform="translate(-190.37 -202.99)" fill="#f0997a"/>
            </g>
            <path id="Trazado_893173" data-name="Trazado 893173" d="M244.953,160.322a23.225,23.225,0,0,0-5.144-.727,13.679,13.679,0,0,0-5.9,1.736c-1.1,1.029-2.218,2.057-3.5,3.4s.675,2.411,2.077,2.173c2.18-.379,5.221-2.739,6.584-2.707a49.12,49.12,0,0,1,7.176,1.209C247.12,165.735,249.5,161.993,244.953,160.322Z" transform="translate(-125.808 -89.588)" fill="#ffbda7"/>
            <path id="Trazado_893174" data-name="Trazado 893174" d="M244.783,160.314a22.24,22.24,0,0,0-5.182-.643,13.984,13.984,0,0,0-4.977,1.37,7.4,7.4,0,0,0-1.929,1.627c-.643.611-1.228,1.234-1.832,1.865-.482.489-1.17,1.132-.321,1.7a2.5,2.5,0,0,0,2.231.244,43.7,43.7,0,0,0,4.719-2.16,4.089,4.089,0,0,1,2.7-.206c1.736.27,3.453.6,5.144,1.016.392.045.817.4,1.183.122a2.5,2.5,0,0,0,.4-3.459,4.777,4.777,0,0,0-2.135-1.447Zm0,0c1.646.5,3.311,2.083,2.572,3.929-.212.553-.727,1.466-1.44,1.209a44.494,44.494,0,0,0-7.073-1c-2.5.489-4.578,2.925-7.33,2.771-1.331-.116-2.739-1.4-1.543-2.649,1.035-1.087,2.238-2.154,3.356-3.157a8.686,8.686,0,0,1,3.671-1.53,15.7,15.7,0,0,1,7.786.424Z" transform="translate(-125.638 -89.58)" fill="#f0997a"/>
            <path id="Trazado_893175" data-name="Trazado 893175" d="M247,168.407c-.347-1.736-1.82-2.2-4.539-2.5a25.3,25.3,0,0,0-5.4-.3c-.694.167-5.272,2.508-5.877,2.868s-1.325,1-2.469,1.813-1.8,1.447-.778,2.3,3.916.1,5.253-.489,4.417-1.858,5.517-1.742,4.166.926,4.166.926-4.565.643-6.14,1.061-2.99,5.266-2.99,5.266c-.6,1.884-.257,2.385.418,2.733a1.736,1.736,0,0,0,1.434-.039,1.286,1.286,0,0,0,.688,1.627c1.112.476,2.488-.174,3.4-1.151s2.135-2.527,2.135-2.527a18.892,18.892,0,0,1,2.9.418c1.337.334.81,2.012-.444,2.8" transform="translate(-124.893 -91.712)" fill="#ffbda7"/>
            <path id="Trazado_893176" data-name="Trazado 893176" d="M229.561,169.815a33.024,33.024,0,0,1,7.4-4.1,33.991,33.991,0,0,1,6.037.3c1.53.167,3.536.54,3.858,2.328-.251-1.82-2.3-2.283-3.858-2.5a29.953,29.953,0,0,0-6.153-.482,33.082,33.082,0,0,0-7.638,4.025c-.72.643-2.1,1.125-2.238,2.321.289,1.858,2.72,1.575,4.057,1.286,2.72-.5,5.234-2.617,8.031-2.27.643.122,1.318.27,1.98.424-.868.135-1.73.276-2.572.431-1.016.225-2.437.27-3.048,1.286a16.074,16.074,0,0,0-2.186,4.932,2.7,2.7,0,0,0,.064,2.283,1.775,1.775,0,0,0,1.839.553,1.5,1.5,0,0,0,1.234,1.569c1.678.36,3.041-.939,3.967-2.122.469-.566.926-1.144,1.376-1.73a12.518,12.518,0,0,1,3.144.476,1.035,1.035,0,0,1,.309,1.4,2.835,2.835,0,0,1-1.048,1.222c.855-.476,1.9-1.974.8-2.72a10.062,10.062,0,0,0-3.35-.579c-1.389,1.472-2.771,4.057-5.1,3.652a1.19,1.19,0,0,1-.772-.527,1.138,1.138,0,0,1-.058-.836,5.183,5.183,0,0,1,.829-1.768l.476-.752a1.524,1.524,0,0,0,.206-.321,8.617,8.617,0,0,1,1.865-2.328,38.5,38.5,0,0,1,6.063-1.562,15.7,15.7,0,0,0-6.378.971,3.588,3.588,0,0,0-1.183,1.286,15.927,15.927,0,0,0-1.022,1.794c-.3.6-.534,1.228-.836,1.826-.084.167-.193.45-.36.54a1.421,1.421,0,0,1-.566.122,1.247,1.247,0,0,1-1.035-.437c-.309-.437-.122-1.189.058-1.826a20.509,20.509,0,0,1,1.569-3.858,3.472,3.472,0,0,1,1.234-1.434c.5-.167,1.46-.315,2.012-.424,1.389-.244,2.79-.45,4.186-.643a.334.334,0,0,0,.27-.238.328.328,0,0,0-.231-.4c-1.614-.334-3.266-1.035-4.925-.9-2.5.444-4.546,1.82-6.963,2.385-1.054.18-2.392.547-3.176-.321S228.989,170.381,229.561,169.815Z" transform="translate(-124.728 -91.629)" fill="#f0997a"/>
            <g id="freepik--top--inject-12-2" data-name="freepik--top--inject-12" transform="translate(16.586 13.091)">
              <g id="freepik--Chest--inject-12" transform="translate(0 46.777)">
                <path id="Trazado_893177" data-name="Trazado 893177" d="M156.69,189.59c8.59-9,5.542-19.81,3.253-24.111-4.584-8.609-19.893-21.649-19.893-21.649s-13.419.334-19.8,1.189-16.646,4.012-16.646,4.012a80.8,80.8,0,0,1,1.466,20.08c-.553,13.11-9.805,15.335-9.805,15.335s2.668,10.744,2.938,15.521c.283,4.9-1.029,9.117-2.141,13.322-2.887,10.93-2.3,15.1-2.193,17.585s2.418,3.5,3.581,3.858c23.713,7.831,65.351-3.286,65.64-25.2-.739-3.961-3.215-4.359-4.854-9.272S156.748,197.672,156.69,189.59Z" transform="translate(-93.751 -143.83)" fill="#37474f"/>
                <path id="Trazado_893178" data-name="Trazado 893178" d="M150.831,214.669s-4.989,6.346-15.862,4.629-13.091-9.889-13.091-9.889-.547,10.545,12.454,12.551C147.134,223.935,150.831,214.669,150.831,214.669Z" transform="translate(-103.792 -167.244)" fill="#263238"/>
              </g>
              <g id="freepik--Head--inject-12" transform="translate(10.615)">
                <path id="Trazado_893179" data-name="Trazado 893179" d="M120.856,116.878c0-2.115-.264-12.737-.264-12.737-.09.791-3.948,2.945-7.388-1.151-3.523-4.2-3.665-8.455-1.588-11.22,2.289-3.061,7.368-2.88,9.381,2.128,1.421,1.807,4.083-.276,2.913-5.144.315-3.414,5.247-7.124,2.623-12.917,9.754-6.43,20.871-5.973,26.8-.855a57.694,57.694,0,0,1,2.328,18.749c-.424,11.271-3.453,16.717-7.073,18.595-2.418,1.286-4.61,1.562-8.834,1.2l.045,1.826c.077,1.775.071,2.43,1.884,2.572l1.157.064s7.163,9.117-4.4,11.245c-17.36,3.215-21.784-8.14-21.784-8.14l1-.27C120.567,120,120.837,118.993,120.856,116.878Z" transform="translate(-110.26 -71.078)" fill="#ffbda7"/>
                <path id="Trazado_893180" data-name="Trazado 893180" d="M146.975,133.332c-7.568-.778-14.788-3.273-16.5-6.732,0,0-.039,3.768,3.035,5.581,4.3,2.54,13.547,3.343,13.547,3.343Z" transform="translate(-117.476 -90.901)" fill="#f0997a"/>
                <path id="Trazado_893181" data-name="Trazado 893181" d="M150.653,116.31l6.661,2.141a3.44,3.44,0,0,1-4.34,2.379,3.658,3.658,0,0,1-2.321-4.52Z" transform="translate(-124.626 -87.227)" fill="#b16668"/>
                <path id="Trazado_893182" data-name="Trazado 893182" d="M151.119,118.709a3.858,3.858,0,0,1,3.858,3.009,3.337,3.337,0,0,1-1.929,0,3.588,3.588,0,0,1-2.418-2.913,3.306,3.306,0,0,1,.489-.1Z" transform="translate(-124.674 -88.084)" fill="#f28f8f"/>
                <path id="Trazado_893183" data-name="Trazado 893183" d="M172.336,86.21,167.7,85.053a2.3,2.3,0,0,1,2.816-1.781A2.514,2.514,0,0,1,172.336,86.21Z" transform="translate(-130.768 -75.407)" fill="#263238"/>
                <path id="Trazado_893184" data-name="Trazado 893184" d="M143.148,86.276,147.7,84.63a2.328,2.328,0,0,0-3.022-1.5,2.572,2.572,0,0,0-1.53,3.144Z" transform="translate(-121.963 -75.331)" fill="#263238"/>
                <path id="Trazado_893185" data-name="Trazado 893185" d="M167.927,97.129a2.045,2.045,0,0,0,1.826,2.173,1.929,1.929,0,0,0,2.141-1.749,2.051,2.051,0,0,0-1.832-2.18,1.929,1.929,0,0,0-2.135,1.755Z" transform="translate(-130.848 -79.748)" fill="#263238"/>
                <path id="Trazado_893186" data-name="Trazado 893186" d="M144.687,96.919a2.045,2.045,0,0,0,1.826,2.173,1.929,1.929,0,0,0,2.141-1.755,2.045,2.045,0,0,0-1.839-2.173,1.929,1.929,0,0,0-2.128,1.755Z" transform="translate(-122.55 -79.674)" fill="#263238"/>
                <path id="Trazado_893187" data-name="Trazado 893187" d="M129.338,90.09l-12,6.52a4.964,4.964,0,0,1,3.723.823l8.641-4.61Z" transform="translate(-112.788 -77.866)" fill="#455a64"/>
                <path id="Trazado_893188" data-name="Trazado 893188" d="M166.855,89.042c-2.99-.373-7.073-.514-9.535.257-2.79.881-3.793,1.845-5.324,1.871-1.64,0-2.649-.939-5.575-1.775-2.34-.643-6.526-.431-9.529-.09-1.029,0-1.974.321-2.012,1.691.1,1.286.926,1.492,1.125,2.533.437,3.6,1.286,8.082,6.005,8.32,9.677.643,6.68-8.821,10.236-8.359,1.286.289,1.054,2.771,1.826,4.539a7.15,7.15,0,0,0,1.183,1.929c3.118,3.35,9.137,1.53,10.088-1.781.823-1.64.714-4.282,1.569-5.7C167.671,91.846,168.333,89.422,166.855,89.042ZM148.4,96.308a5.992,5.992,0,0,1-1.4,2.668,5.311,5.311,0,0,1-4.012,1.543c-2.09,0-4.173-1.009-4.694-3.041-.071-.193-.135-.373-.186-.553-.405-1.5-.926-4.706-.109-5.62,1.472-1.537,8.423-1.376,10.435.977C148.98,93.093,148.768,94.829,148.4,96.308Zm16.537-.707c-.244,1.042-.784,3.286-2.79,4.289-2.655,1.286-6.327-.071-6.854-2.643-1.53-5.4.579-6.635,5.954-7.137C165.659,90.136,165.9,91.28,164.939,95.6Z" transform="translate(-119.05 -77.384)" fill="#455a64"/>
                <path id="Trazado_893189" data-name="Trazado 893189" d="M166.278,104.594l-6.3,2.983-.977-9.7a2.668,2.668,0,0,1,.739-1.222Z" transform="translate(-127.662 -80.212)" fill="#f0997a"/>
              </g>
            </g>
            <path id="Trazado_893190" data-name="Trazado 893190" d="M166.4,203.054c6.68.881,11.573,6.43,15.637,11.329,4.681,5.587,8.686,11.316,14.666,15.733,4.887,3.613,10.236,6.539,15.431,9.644s10.429,6.494,15.431,10.03a22.71,22.71,0,0,1,5.234,4.6,21.98,21.98,0,0,1,3.086,6.61,9.265,9.265,0,0,1,.643,4.25,9.992,9.992,0,0,1-4.642,6.372c-2.4,1.138-5.407.855-7.4,2.868-1.37,1.389-1.736,3.485-2.88,5.073-1.691,2.347-4.848,3.215-7.748,3.086-4.276-.18-8.307-2.842-12.4-.958-1.672.772-3.183,1.871-4.861,2.63-3.356,1.517-6.905,1.222-10.455.746a44.256,44.256,0,0,1-13-3.858,44.721,44.721,0,0,1-5.909-3.369c-.939-.643-1.845-1.286-2.739-2.012-.572-.444-1.582-.868-1.89-1.543a2.5,2.5,0,0,1,0-1.55,54.009,54.009,0,0,0-1.929-28.605c-2.977-8.558-8.461-16.569-8.461-26C152.294,210.493,159.7,202.166,166.4,203.054Z" transform="translate(-98.036 -105.084)" fill="#916aab"/>
            <path id="Trazado_893191" data-name="Trazado 893191" d="M166.4,203.054c6.68.881,11.573,6.43,15.637,11.329,4.681,5.587,8.686,11.316,14.666,15.733,4.887,3.613,10.236,6.539,15.431,9.644s10.429,6.494,15.431,10.03a22.71,22.71,0,0,1,5.234,4.6,21.98,21.98,0,0,1,3.086,6.61,9.265,9.265,0,0,1,.643,4.25,9.992,9.992,0,0,1-4.642,6.372c-2.4,1.138-5.407.855-7.4,2.868-1.37,1.389-1.736,3.485-2.88,5.073-1.691,2.347-4.848,3.215-7.748,3.086-4.276-.18-8.307-2.842-12.4-.958-1.672.772-3.183,1.871-4.861,2.63-3.356,1.517-6.905,1.222-10.455.746a44.256,44.256,0,0,1-13-3.858,44.721,44.721,0,0,1-5.909-3.369c-.939-.643-1.845-1.286-2.739-2.012-.572-.444-1.582-.868-1.89-1.543a2.5,2.5,0,0,1,0-1.55,54.009,54.009,0,0,0-1.929-28.605c-2.977-8.558-8.461-16.569-8.461-26C152.294,210.493,159.7,202.166,166.4,203.054Z" transform="translate(-98.036 -105.084)" fill="#fff" opacity="0.3"/>
            <path id="Trazado_893192" data-name="Trazado 893192" d="M185.092,219.454a48.043,48.043,0,0,0-3.1-3.742.347.347,0,0,0-.5,0,.354.354,0,0,0,0,.5,47.583,47.583,0,0,1,3.054,3.691.354.354,0,0,0,.283.135.334.334,0,0,0,.212-.071.347.347,0,0,0,.045-.508Zm-26.426,6.835a.354.354,0,0,0-.682.186,27.6,27.6,0,0,0,1.633,4.5.354.354,0,0,0,.321.2.444.444,0,0,0,.154-.032.36.36,0,0,0,.161-.476A26.844,26.844,0,0,1,158.667,226.289Zm3.041,8.7a.357.357,0,0,0-.643.309c1.132,2.308,2.012,4.385,2.025,4.411a.36.36,0,0,0,.321.212.367.367,0,0,0,.141,0,.36.36,0,0,0,.186-.463s-.894-2.147-2.032-4.469Zm3.421,7.555a.354.354,0,1,0-.643.264,46.426,46.426,0,0,1,1.55,4.649.36.36,0,0,0,.341.264h.09a.354.354,0,0,0,.251-.431,45.044,45.044,0,0,0-1.588-4.745Zm3.382,13.612h.058a.36.36,0,0,0,.289-.411,44.568,44.568,0,0,0-1.151-4.854.347.347,0,0,0-.437-.231.354.354,0,0,0-.238.437,45.135,45.135,0,0,1,1.132,4.771A.354.354,0,0,0,168.51,256.154Zm.27,3.279a.347.347,0,0,0-.322.379,46.544,46.544,0,0,1,.09,4.9.36.36,0,0,0,.334.373h0a.347.347,0,0,0,.347-.341,44.42,44.42,0,0,0-.09-4.989.367.367,0,0,0-.36-.322Zm-.032,8.725a.347.347,0,0,0-.386.315,45.478,45.478,0,0,1-.778,4.842.347.347,0,0,0,.264.418h.077a.36.36,0,0,0,.347-.276,46.883,46.883,0,0,0,.791-4.925.354.354,0,0,0-.315-.373Zm7.336-58.33a.354.354,0,0,0-.444.547s1.543,1.286,3.511,3.253a.379.379,0,0,0,.251.1.354.354,0,0,0,.251-.6c-2-2.019-3.549-3.286-3.568-3.3Zm-7.156-4.5a.36.36,0,0,0-.405.289.354.354,0,0,0,.289.405,10.384,10.384,0,0,1,4.154,2.154.354.354,0,0,0,.437-.553,10.763,10.763,0,0,0-4.481-2.3Z" transform="translate(-100.095 -105.918)" fill="#f0f0f0"/>
            <path id="Trazado_893193" data-name="Trazado 893193" d="M176,207.876a18.11,18.11,0,0,0-9.554-4.822c-6.7-.887-14.107,7.439-14.107,15.078a30.554,30.554,0,0,0,1.82,9.94,7.966,7.966,0,0,0,1.132-1.363,43.393,43.393,0,0,0,3.376-6.372.919.919,0,0,0,.643,1.106,2.707,2.707,0,0,0,1.427-.071l2.424-.572a3.916,3.916,0,0,0,1.633-.643c.99-.8.971-2.289.868-3.556,1.228-.231,2.675-.643,3.048-1.839a3.542,3.542,0,0,0,.045-1.4c-.116-1.112-.238-2.225-.354-3.343s-.341-2.527-1.337-3.176C170.034,206.4,173.095,207.792,176,207.876Z" transform="translate(-98.083 -105.084)" fill="#916aab" opacity="0.6"/>
            <path id="Trazado_893194" data-name="Trazado 893194" d="M229.109,302.556a20.355,20.355,0,0,1-1.363-4.674,46,46,0,0,0-6.044-14.473c-2.572-3.993-5.587-8.031-10.082-9.908-1.125.386.977,2.334,1.826,3.3,6.835,7.806,7.638,18.2,7.272,28.014-.039,1.061-.1,2.122-.161,3.215.682-.4,1.37-.791,2.083-1.125,4.1-1.884,8.127.778,12.4.958h1.177C233.166,307.011,230.44,305.327,229.109,302.556Zm21.829-9.992a20.434,20.434,0,0,1-4.321-4.983,48.666,48.666,0,0,0-4.076-5.041,31.19,31.19,0,0,0-2.437-2.289c-.643-.572-1.537-1.646-2.52-1.524-.051.463.3.739.592,1.054.392.431.778.862,1.151,1.286,4.173,5.144,5.587,11.9,6.462,18.447h0c1.993-1.852,4.906-1.614,7.253-2.726a8.666,8.666,0,0,0,3.073-2.842,8.8,8.8,0,0,1-5.208-1.382Z" transform="translate(-119.132 -130.259)" fill="#916aab" opacity="0.6"/>
            <g id="freepik--arm--inject-12-2" data-name="freepik--arm--inject-12" transform="translate(0 65.07)">
              <path id="Trazado_893195" data-name="Trazado 893195" d="M117.813,210.05c-15.206,7-26.644,13.624-39.819,15.219-10.577,1.286-10.429-7.111-9.805-14.055.784-8.77,5.047-33.434,7.561-42.635,2.688-9.857,4.289-13.065,18.646-16.659,5.607,6.43,2.63,26.169.283,32.855-2.07,7.51-4.674,17.926-4.674,17.926a139.5,139.5,0,0,0,19.874-4.359" transform="translate(-67.954 -151.92)" fill="#ffbda7"/>
              <path id="Trazado_893196" data-name="Trazado 893196" d="M94.094,226.86l-.643,2.572c-7.259.643-14.64,5.144-15.881,7.966C78.554,231.451,84.829,227.869,94.094,226.86Z" transform="translate(-71.387 -178.676)" fill="#f0997a"/>
              <path id="Trazado_893197" data-name="Trazado 893197" d="M167.633,199.572c-1.286-.836-3.215-2.25-4.031-2.688s-3.993-1.967-3.993-1.967a15.16,15.16,0,0,0,4.128-.418c2.572-.643,2.842-2.572,2.154-3.4s-3.986.09-6.957-.694-4.552-1.723-5.832-.945-5.562,3.382-7.606,3.909-3.022.823-3.453,2.919-3.5,7.523-5.2,10.287c-2.913,4.764-4.932,4.2-12.448,6.867l.643,15.553s12.7-5.716,15.3-6.578,3.858-1.53,5.755-5.684,2.52-5.62,2.52-5.62a3.125,3.125,0,0,0,1.839-.8,4.5,4.5,0,0,0,2,1.022,6.924,6.924,0,0,0-1.569,1.517c-.842,1.067-.585,2.334.154,2.456s1.768-.405,3.395-.855,1.8-1.177,1.929-2,.36-2.019.36-2.019,1.852-1.042,2.045-2.411a18.755,18.755,0,0,0-.174-4.064c-.109-1.357-.559-2.572-1.434-2.79l-4.359-1.042c.219-.585.489-.746,1.8-.958s1.865-.547,2.5-.559c.817,0,.778.219,2.257.913s3.318,1.408,3.318,1.408c1.794,1.029,3.819,1.106,4.822.5C168.655,200.729,168.334,200.022,167.633,199.572Zm-14.66,5.787c.392,0,1.485.212,2.025.2a6.809,6.809,0,0,1,.161,1.44c-.135.206-.264.366-.341.482a22.186,22.186,0,0,1-2.385-1.511c-.354-.257.148-.6.54-.585Z" transform="translate(-88.107 -165.218)" fill="#ffbda7"/>
              <path id="Trazado_893198" data-name="Trazado 893198" d="M176.646,196.405a3.1,3.1,0,0,0,2.36-1.82c-.643,1.067-2.88,1.652-4.5,1.415a28.877,28.877,0,0,1-4.539-1.389c-1.087-.347-3.048.231-4.327.694s-3.594,1.241-5.1,1.807a16.607,16.607,0,0,0,4.083-.707c2.321-.579,4.076-1.054,4.854-.9a15.3,15.3,0,0,1,3.009,1.318,15.522,15.522,0,0,0,4.16-.418Z" transform="translate(-101.011 -167.124)" fill="#f0997a"/>
              <path id="Trazado_893199" data-name="Trazado 893199" d="M168.683,204.342h0s-3.376-.077-4.173-.842a3.928,3.928,0,0,0,2.6,1.762C167.288,204.7,167.551,204.535,168.683,204.342Z" transform="translate(-102.428 -170.336)" fill="#f0997a"/>
              <path id="Trazado_893200" data-name="Trazado 893200" d="M167.173,212.962a5.845,5.845,0,0,1-3-2.572,4.411,4.411,0,0,0,2.443,3.163C166.279,213.29,166.78,212.943,167.173,212.962Z" transform="translate(-102.307 -172.796)" fill="#f0997a"/>
              <path id="Trazado_893201" data-name="Trazado 893201" d="M165.855,221.31a1.537,1.537,0,0,1-.829-1.82,1.363,1.363,0,0,0-.244,1.659,4.5,4.5,0,0,0,2,1.022,5.144,5.144,0,0,1,2.186-.547C168.073,221.1,166.71,221.747,165.855,221.31Z" transform="translate(-102.461 -176.045)" fill="#f0997a"/>
              <path id="Trazado_893202" data-name="Trazado 893202" d="M174.545,219.756a2.327,2.327,0,0,0-.572-1.4,4.539,4.539,0,0,0-2.045-1.145l-.219.309c1.5,1.1,2.032,1.183,1.871,2.938A6.282,6.282,0,0,0,174.545,219.756Z" transform="translate(-104.999 -175.231)" fill="#f0997a"/>
              <path id="Trazado_893203" data-name="Trazado 893203" d="M158.384,200.834c0-.064-.09-.116-.18-.161a2.8,2.8,0,0,0-.572-.167,1.929,1.929,0,0,0-.964,0c-.643.148-.964.958-1.151,1.511-.064.193-.084.431.161.231a5.221,5.221,0,0,1,1.067-.894,3.437,3.437,0,0,1,.437-.135,1.073,1.073,0,0,1,.309-.1h.251a1.177,1.177,0,0,0,.572-.161C158.384,200.9,158.384,200.866,158.384,200.834Z" transform="translate(-99.202 -169.245)" fill="#f0997a"/>
              <path id="Trazado_893204" data-name="Trazado 893204" d="M159.5,206.819c0-.064-.071-.129-.154-.186a3.175,3.175,0,0,0-.54-.251,1.927,1.927,0,0,0-.386-.129,2.084,2.084,0,0,0-.566-.045c-.643.058-1.1.8-1.37,1.324-.09.18-.141.411.129.251a5.144,5.144,0,0,1,1.189-.72,3.611,3.611,0,0,1,.45-.064,1.119,1.119,0,0,1,.321-.051c.084,0,.161.039.251.039a1.1,1.1,0,0,0,.592-.077.142.142,0,0,0,.084-.09Z" transform="translate(-99.535 -171.302)" fill="#f0997a"/>
              <path id="Trazado_893205" data-name="Trazado 893205" d="M162.067,215.1a.368.368,0,0,0-.122-.212,2.837,2.837,0,0,0-.482-.341,1.768,1.768,0,0,0-.354-.2,1.864,1.864,0,0,0-.547-.148c-.643-.058-1.234.592-1.588,1.054-.122.161-.219.379.077.27a5.452,5.452,0,0,1,1.286-.5,3.516,3.516,0,0,1,.45,0,1.4,1.4,0,0,1,.328,0c.077,0,.148.064.231.09a1.183,1.183,0,0,0,.6.032.154.154,0,0,0,.122-.051Z" transform="translate(-100.409 -174.154)" fill="#f0997a"/>
            </g>
            <path id="Trazado_893206" data-name="Trazado 893206" d="M236.548,182a1.685,1.685,0,0,0-.733.611c-.2.238-.4.482-.579.733a5.845,5.845,0,0,0-.8,1.5,3.652,3.652,0,0,0-.18,1.7,6.5,6.5,0,0,0,.244.971,6.012,6.012,0,0,1,.212,1.054c0,.039.051.058.064,0a4.359,4.359,0,0,0,0-1.659,4.436,4.436,0,0,1,.148-1.839,5.645,5.645,0,0,1,.849-1.543c.161-.225.334-.437.514-.643s.463-.444.424-.752A.165.165,0,0,0,236.548,182Z" transform="translate(-127.317 -97.59)" fill="#f0997a"/>
            <path id="Trazado_893207" data-name="Trazado 893207" d="M211.253,199,204,220.15a.354.354,0,0,1-.334.238.3.3,0,0,1-.109,0,.341.341,0,0,1-.219-.444l7.433-21.674h0l.463.714S211.247,199,211.253,199Z" transform="translate(-116.283 -103.399)" fill="#e0e0e0"/>
            <path id="Trazado_893208" data-name="Trazado 893208" d="M213.078,195.888h0c-.148.54-.354,1.17-.643,1.929-.424,1.144-1,2.572-1.749,4.346-3.028,7.208-6.725,16.036-6.725,16.036a.354.354,0,1,1-.643-.264s3.691-8.841,6.725-16.042c.778-1.845,1.35-3.266,1.749-4.372a20.855,20.855,0,0,0,.643-2.038c.341-1.389.09-1.8-.424-2.09a3.736,3.736,0,0,1,.206-.643h.039C213.265,193.239,213.593,193.933,213.078,195.888Z" transform="translate(-116.263 -101.428)" fill="#f0f0f0"/>
          </g>
        </g>
      </g>
      <g id="freepik--Thimble--inject-12" transform="translate(26.58 231.231)">
        <g id="freepik--thimble--inject-12-2" data-name="freepik--thimble--inject-12">
          <path id="Trazado_893209" data-name="Trazado 893209" d="M75.573,358.613v-.341h0c-.489-6.468-8.2-11.612-17.649-11.612S40.763,351.8,40.275,358.272h0v.283a.18.18,0,0,0,0,.058c-.174,3-1.453,25.14-1.595,29.39a7.208,7.208,0,0,0,1.415,4.186l.18.251a13.335,13.335,0,0,0,4.051,3.427c7.523,4.346,19.72,4.346,27.249,0a13.323,13.323,0,0,0,4.051-3.427A7.343,7.343,0,0,0,77.213,388C77.033,383.753,75.753,361.615,75.573,358.613Z" transform="translate(-35.131 -346.396)" fill="#37474f"/>
          <path id="Trazado_893210" data-name="Trazado 893210" d="M49.171,348.854c-3,1.73-4.5,4-4.5,6.275s1.5,4.539,4.5,6.275c6.005,3.466,15.74,3.466,21.745,0,3-1.736,4.5-4.006,4.5-6.275s-1.5-4.546-4.5-6.275C64.911,345.382,55.17,345.382,49.171,348.854Z" transform="translate(-37.269 -346.25)" fill="#455a64"/>
          <path id="Trazado_893211" data-name="Trazado 893211" d="M70.653,360.035a2.276,2.276,0,0,0-2.006,0,.643.643,0,0,0,0,1.183,2.276,2.276,0,0,0,2.038,0,.643.643,0,0,0-.032-1.183ZM55.28,351.162a2.238,2.238,0,0,0-2.038,0,.643.643,0,0,0,0,1.177,2.238,2.238,0,0,0,2.038,0,.643.643,0,0,0,0-1.151Zm9.1,10.287c-.765.116-1.222.572-1.016,1.016a1.73,1.73,0,0,0,1.762.592c.765-.116,1.228-.579,1.022-1.022a1.717,1.717,0,0,0-1.768-.559Zm-5.626-12.126c-.772.116-1.228.572-1.016,1.016a1.723,1.723,0,0,0,1.762.592c.765-.122,1.228-.579,1.022-1.022a1.717,1.717,0,0,0-1.768-.559ZM59.5,361.45a1.736,1.736,0,0,0-1.768.585c-.206.444.251.9,1.022,1.022a1.724,1.724,0,0,0,1.768-.592c.206-.444-.238-.874-1.022-.99Zm5.626-12.126a1.717,1.717,0,0,0-1.762.585c-.206.444.251.907,1.016,1.022a1.729,1.729,0,0,0,1.768-.592c.206-.45-.251-.874-1.022-.99Zm-9.85,10.712a2.276,2.276,0,0,0-2.064,0,.643.643,0,0,0,0,1.183,2.276,2.276,0,0,0,2.038,0,.643.643,0,0,0,.026-1.183Zm13.335-7.716a2.238,2.238,0,0,0,2.038,0,.643.643,0,0,0,0-1.177,2.237,2.237,0,0,0-2.038,0,.643.643,0,0,0,.032,1.222Zm2.437,2.443a1.723,1.723,0,0,0,1.768.585c.772-.122,1.228-.572,1.022-1.016a1.736,1.736,0,0,0-1.768-.592c-.772.116-1.228.624-1.022,1.067Zm-18.215,2.816a1.73,1.73,0,0,0-1.762-.592c-.765.116-1.228.579-1.022,1.022a1.736,1.736,0,0,0,1.768.592c.772-.116,1.222-.534,1.016-.977Zm-1.762-2.231a1.717,1.717,0,0,0,1.762-.585c.206-.444-.251-.9-1.016-1.022a1.729,1.729,0,0,0-1.768.592c-.206.444.251.945,1.022,1.061Zm5.034-.283a1.736,1.736,0,0,0,1.768-.592c.206-.444-.251-.9-1.022-1.022a1.729,1.729,0,0,0-1.768.592c-.212.444.251.945,1.022,1.067Zm5.465-1.685a1.747,1.747,0,0,0,1.768-.592c.212-.444-.251-.9-1.022-1.022a1.724,1.724,0,0,0-1.768.592c-.206.444.251.945,1.022,1.067Zm0,3.131a1.747,1.747,0,0,0,1.768-.592c.212-.444-.251-.9-1.022-1.022a1.724,1.724,0,0,0-1.768.592c-.206.444.251.945,1.022,1.067Zm-5.144,1.858a1.723,1.723,0,0,0,1.768-.585c.206-.444-.251-.9-1.022-1.022a1.724,1.724,0,0,0-1.768.592c-.206.444.219.945,1.022,1.061Zm12.351-4.327a1.73,1.73,0,0,0-1.762-.592c-.765.116-1.228.579-1.022,1.022a1.736,1.736,0,0,0,1.768.592c.772-.116,1.189-.534.984-.977Zm-.283,3.311a1.747,1.747,0,0,0-1.768-.592c-.765.116-1.228.579-1.022,1.022a1.723,1.723,0,0,0,1.768.585c.772-.122,1.17-.527.99-.971Zm-6.963,2.392a1.706,1.706,0,0,0,1.762-.592c.206-.45-.251-.9-1.016-1.016a1.74,1.74,0,0,0-1.768.585c-.206.444.219.952.99,1.067Zm11.316-2.758a1.736,1.736,0,0,0-1.768.592c-.206.444.251.9,1.022,1.022a1.724,1.724,0,0,0,1.768-.592c.206-.444-.283-.855-1.054-.977Z" transform="translate(-39.174 -347.337)" fill="#37474f"/>
          <path id="Trazado_893212" data-name="Trazado 893212" d="M93,371.04a2.745,2.745,0,0,1-1.144,2.186c-.643.36-1.144,0-1.144-.868a2.752,2.752,0,0,1,1.144-2.193C92.491,369.805,93,370.191,93,371.04Z" transform="translate(-53.707 -354.741)" fill="#455a64"/>
          <path id="Trazado_893213" data-name="Trazado 893213" d="M85.471,375.391a2.128,2.128,0,0,1-1.2,1.929c-.643.238-1.209-.212-1.209-1.022a2.122,2.122,0,0,1,1.209-1.929C84.95,374.1,85.471,374.561,85.471,375.391Z" transform="translate(-50.976 -356.263)" fill="#455a64"/>
          <path id="Trazado_893214" data-name="Trazado 893214" d="M77.619,378.019a1.646,1.646,0,0,1-1.286,1.607,1.087,1.087,0,0,1-1.286-1.17,1.652,1.652,0,0,1,1.286-1.607,1.087,1.087,0,0,1,1.286,1.17Z" transform="translate(-48.113 -357.168)" fill="#455a64"/>
          <circle id="Elipse_11498" data-name="Elipse 11498" cx="1.325" cy="1.325" r="1.325" transform="translate(21.668 20.196)" fill="#455a64"/>
          <path id="Trazado_893215" data-name="Trazado 893215" d="M43.56,371.04a2.758,2.758,0,0,0,1.144,2.186c.643.36,1.151,0,1.151-.868a2.739,2.739,0,0,0-1.151-2.193C44.074,369.805,43.56,370.191,43.56,371.04Z" transform="translate(-36.873 -354.741)" fill="#455a64"/>
          <path id="Trazado_893216" data-name="Trazado 893216" d="M51,375.391a2.122,2.122,0,0,0,1.209,1.929c.643.238,1.2-.212,1.2-1.022a2.128,2.128,0,0,0-1.2-1.929C51.553,374.1,51,374.561,51,375.391Z" transform="translate(-39.529 -356.263)" fill="#455a64"/>
          <path id="Trazado_893217" data-name="Trazado 893217" d="M58.787,378.019a1.652,1.652,0,0,0,1.286,1.607,1.087,1.087,0,0,0,1.286-1.17,1.646,1.646,0,0,0-1.286-1.607,1.087,1.087,0,0,0-1.286,1.17Z" transform="translate(-42.308 -357.168)" fill="#455a64"/>
          <circle id="Elipse_11499" data-name="Elipse 11499" cx="1.325" cy="1.325" r="1.325" transform="translate(21.668 20.196)" fill="#455a64"/>
          <path id="Trazado_893218" data-name="Trazado 893218" d="M93.52,379.613a2.816,2.816,0,0,1-1.17,2.244c-.643.373-1.17,0-1.17-.887a2.8,2.8,0,0,1,1.17-2.238C92.993,378.359,93.52,378.751,93.52,379.613Z" transform="translate(-53.875 -357.797)" fill="#455a64"/>
          <path id="Trazado_893219" data-name="Trazado 893219" d="M85.833,384.034a2.16,2.16,0,0,1-1.234,1.929c-.643.251-1.228-.219-1.228-1.042a2.167,2.167,0,0,1,1.228-1.929C85.28,382.742,85.833,383.211,85.833,384.034Z" transform="translate(-51.087 -359.344)" fill="#455a64"/>
          <path id="Trazado_893220" data-name="Trazado 893220" d="M77.829,386.747a1.691,1.691,0,0,1-1.286,1.646,1.112,1.112,0,0,1-1.286-1.2,1.685,1.685,0,0,1,1.286-1.646,1.106,1.106,0,0,1,1.286,1.2Z" transform="translate(-48.189 -360.276)" fill="#455a64"/>
          <circle id="Elipse_11500" data-name="Elipse 11500" cx="1.35" cy="1.35" r="1.35" transform="translate(21.642 25.802)" fill="#455a64"/>
          <path id="Trazado_893221" data-name="Trazado 893221" d="M43,379.613a2.8,2.8,0,0,0,1.177,2.244c.643.373,1.17,0,1.17-.887a2.816,2.816,0,0,0-1.17-2.238C43.534,378.359,43,378.751,43,379.613Z" transform="translate(-36.673 -357.797)" fill="#455a64"/>
          <path id="Trazado_893222" data-name="Trazado 893222" d="M50.64,384.034a2.16,2.16,0,0,0,1.228,1.929c.682.251,1.234-.219,1.234-1.042a2.16,2.16,0,0,0-1.234-1.929C51.187,382.742,50.64,383.211,50.64,384.034Z" transform="translate(-39.401 -359.344)" fill="#455a64"/>
          <path id="Trazado_893223" data-name="Trazado 893223" d="M58.568,386.748a1.691,1.691,0,0,0,1.286,1.646,1.112,1.112,0,0,0,1.286-1.2,1.685,1.685,0,0,0-1.286-1.646,1.112,1.112,0,0,0-1.286,1.2Z" transform="translate(-42.23 -360.277)" fill="#455a64"/>
          <circle id="Elipse_11501" data-name="Elipse 11501" cx="1.35" cy="1.35" r="1.35" transform="translate(21.642 25.802)" fill="#455a64"/>
          <path id="Trazado_893224" data-name="Trazado 893224" d="M94.364,388.679a2.887,2.887,0,0,1-1.215,2.315c-.643.386-1.209,0-1.209-.919a2.906,2.906,0,0,1,1.209-2.315C93.824,387.374,94.364,387.785,94.364,388.679Z" transform="translate(-54.147 -361.019)" fill="#455a64"/>
          <path id="Trazado_893225" data-name="Trazado 893225" d="M86.4,393.252a2.231,2.231,0,0,1-1.286,2.006c-.7.257-1.286-.225-1.286-1.074a2.244,2.244,0,0,1,1.286-2.012C85.83,391.914,86.4,392.4,86.4,393.252Z" transform="translate(-51.251 -362.621)" fill="#455a64"/>
          <path id="Trazado_893226" data-name="Trazado 893226" d="M78.136,396.052a1.749,1.749,0,0,1-1.337,1.7,1.151,1.151,0,0,1-1.331-1.241,1.755,1.755,0,0,1,1.331-1.7,1.151,1.151,0,0,1,1.337,1.241Z" transform="translate(-48.263 -363.582)" fill="#455a64"/>
          <circle id="Elipse_11502" data-name="Elipse 11502" cx="1.395" cy="1.395" r="1.395" transform="translate(21.597 31.782)" fill="#455a64"/>
          <path id="Trazado_893227" data-name="Trazado 893227" d="M42.13,388.679a2.9,2.9,0,0,0,1.209,2.315c.643.386,1.215,0,1.215-.919a2.913,2.913,0,0,0-1.215-2.315C42.689,387.374,42.13,387.785,42.13,388.679Z" transform="translate(-36.363 -361.019)" fill="#455a64"/>
          <path id="Trazado_893228" data-name="Trazado 893228" d="M50,393.25a2.238,2.238,0,0,0,1.286,2c.7.257,1.286-.225,1.286-1.074a2.244,2.244,0,0,0-1.286-2.013C50.579,391.912,50,392.395,50,393.25Z" transform="translate(-39.172 -362.619)" fill="#455a64"/>
          <path id="Trazado_893229" data-name="Trazado 893229" d="M58.217,396.053a1.749,1.749,0,0,0,1.331,1.7,1.151,1.151,0,0,0,1.337-1.241,1.755,1.755,0,0,0-1.337-1.7,1.151,1.151,0,0,0-1.331,1.241Z" transform="translate(-42.105 -363.583)" fill="#455a64"/>
          <circle id="Elipse_11503" data-name="Elipse 11503" cx="1.395" cy="1.395" r="1.395" transform="translate(21.597 31.782)" fill="#455a64"/>
          <path id="Trazado_893230" data-name="Trazado 893230" d="M94.829,398.494a2.951,2.951,0,0,1-1.234,2.36c-.682.392-1.234,0-1.234-.932a2.951,2.951,0,0,1,1.234-2.36C94.276,397.144,94.829,397.588,94.829,398.494Z" transform="translate(-54.296 -364.514)" fill="#455a64"/>
          <path id="Trazado_893231" data-name="Trazado 893231" d="M86.742,403.153a2.289,2.289,0,0,1-1.286,2.051c-.72.264-1.286-.231-1.286-1.1a2.27,2.27,0,0,1,1.286-2.045C86.163,401.8,86.742,402.285,86.742,403.153Z" transform="translate(-51.372 -366.151)" fill="#455a64"/>
          <path id="Trazado_893232" data-name="Trazado 893232" d="M78.306,406a1.781,1.781,0,0,1-1.363,1.736,1.17,1.17,0,0,1-1.357-1.286,1.775,1.775,0,0,1,1.357-1.736A1.17,1.17,0,0,1,78.306,406Z" transform="translate(-48.305 -367.116)" fill="#455a64"/>
          <path id="Trazado_893233" data-name="Trazado 893233" d="M69.552,407.051a1.421,1.421,0,1,1-1.421-1.421A1.421,1.421,0,0,1,69.552,407.051Z" transform="translate(-45.139 -367.451)" fill="#455a64"/>
          <path id="Trazado_893234" data-name="Trazado 893234" d="M41.63,398.494a2.951,2.951,0,0,0,1.235,2.36c.682.392,1.234,0,1.234-.932a2.951,2.951,0,0,0-1.234-2.36C42.183,397.144,41.63,397.588,41.63,398.494Z" transform="translate(-36.184 -364.514)" fill="#455a64"/>
          <path id="Trazado_893235" data-name="Trazado 893235" d="M49.66,403.153a2.282,2.282,0,0,0,1.286,2.051c.714.264,1.286-.231,1.286-1.1a2.283,2.283,0,0,0-1.286-2.045C50.239,401.8,49.66,402.285,49.66,403.153Z" transform="translate(-39.051 -366.151)" fill="#455a64"/>
          <path id="Trazado_893236" data-name="Trazado 893236" d="M58,406a1.781,1.781,0,0,0,1.357,1.736,1.177,1.177,0,0,0,1.363-1.286,1.781,1.781,0,0,0-1.363-1.736A1.17,1.17,0,0,0,58,406Z" transform="translate(-42.025 -367.117)" fill="#455a64"/>
          <path id="Trazado_893237" data-name="Trazado 893237" d="M66.71,407.051a1.421,1.421,0,1,0,1.421-1.421A1.421,1.421,0,0,0,66.71,407.051Z" transform="translate(-45.139 -367.451)" fill="#455a64"/>
          <path id="Trazado_893238" data-name="Trazado 893238" d="M95.572,408.537a3.041,3.041,0,0,1-1.286,2.43c-.7.405-1.286,0-1.286-.964a3.048,3.048,0,0,1,1.286-2.424C95,407.149,95.572,407.605,95.572,408.537Z" transform="translate(-54.525 -368.088)" fill="#455a64"/>
          <path id="Trazado_893239" data-name="Trazado 893239" d="M87.248,413.335a2.353,2.353,0,0,1-1.331,2.109c-.739.27-1.337-.238-1.337-1.132a2.334,2.334,0,0,1,1.337-2.1C86.65,411.939,87.248,412.441,87.248,413.335Z" transform="translate(-51.519 -369.774)" fill="#455a64"/>
          <path id="Trazado_893240" data-name="Trazado 893240" d="M78.589,416.279a1.826,1.826,0,0,1-1.37,1.787,1.2,1.2,0,0,1-1.4-1.286,1.826,1.826,0,0,1,1.4-1.787,1.2,1.2,0,0,1,1.37,1.286Z" transform="translate(-48.389 -370.789)" fill="#455a64"/>
          <circle id="Elipse_11504" data-name="Elipse 11504" cx="1.466" cy="1.466" r="1.466" transform="translate(21.526 44.77)" fill="#455a64"/>
          <path id="Trazado_893241" data-name="Trazado 893241" d="M40.84,408.537a3.048,3.048,0,0,0,1.286,2.43c.7.405,1.286,0,1.286-.964a3.041,3.041,0,0,0-1.286-2.424C41.412,407.149,40.84,407.605,40.84,408.537Z" transform="translate(-35.902 -368.088)" fill="#455a64"/>
          <path id="Trazado_893242" data-name="Trazado 893242" d="M49.1,413.335a2.347,2.347,0,0,0,1.337,2.109c.739.27,1.337-.238,1.337-1.132a2.334,2.334,0,0,0-1.337-2.1C49.679,411.939,49.1,412.441,49.1,413.335Z" transform="translate(-38.851 -369.774)" fill="#455a64"/>
          <path id="Trazado_893243" data-name="Trazado 893243" d="M57.7,416.276a1.832,1.832,0,0,0,1.4,1.787,1.209,1.209,0,0,0,1.4-1.286,1.832,1.832,0,0,0-1.4-1.787,1.2,1.2,0,0,0-1.4,1.286Z" transform="translate(-41.919 -370.786)" fill="#455a64"/>
          <circle id="Elipse_11505" data-name="Elipse 11505" cx="1.466" cy="1.466" r="1.466" transform="translate(21.526 44.77)" fill="#455a64"/>
          <path id="Trazado_893244" data-name="Trazado 893244" d="M74.85,399.416l.276,6.925a6.211,6.211,0,0,1-1.382,3.736,12.73,12.73,0,0,1-3.858,3.253c-7.716,4.436-20.189,4.436-27.873,0a12.789,12.789,0,0,1-3.858-3.253l-.116-.161L38,409.852a6.082,6.082,0,0,1-1.209-3.517l.27-6.925c-2.379,1.286-3.9,3.337-3.9,6.925a9.644,9.644,0,0,0,1.826,5.62l.051.064c.051.084.109.161.167.244a16.44,16.44,0,0,0,4.977,4.244A31.971,31.971,0,0,0,55.934,420.3a32.013,32.013,0,0,0,15.746-3.787,16.286,16.286,0,0,0,4.957-4.218,9.844,9.844,0,0,0,2.1-5.922C78.74,402.753,77.222,400.722,74.85,399.416Z" transform="translate(-33.16 -365.23)" fill="#263238"/>
        </g>
      </g>
      <g id="freepik--speech-bubble--inject-12" transform="translate(134.867 30.966)">
        <g id="freepik--speech-bubble--inject-12-2" data-name="freepik--speech-bubble--inject-12">
          <g id="freepik--speech-bubble--inject-12-3" data-name="freepik--speech-bubble--inject-12">
            <path id="Trazado_893245" data-name="Trazado 893245" d="M242.236,77.655a21.707,21.707,0,0,1-15.714,2.906l-2.418-.643a21.751,21.751,0,0,1,9.7-42.269l2.437.5a21.752,21.752,0,0,1,6,39.478Z" transform="translate(-204.184 -35.72)" fill="#fafafa"/>
            <path id="Trazado_893246" data-name="Trazado 893246" d="M248.078,45.691a23.616,23.616,0,0,0-41.793,21.578l-4.436,5.877a1.376,1.376,0,0,0,1.357,2.173l7.208-1.389a23.61,23.61,0,0,0,37.665-28.239ZM239.63,76.714a21.707,21.707,0,0,1-15.714,2.906l-2.418-.643a21.751,21.751,0,0,1,9.7-42.269l2.437.5a21.751,21.751,0,0,1,6,39.478Z" transform="translate(-201.578 -34.779)" fill="#e0e0e0"/>
          </g>
          <g id="freepik--Heart--inject-12" transform="translate(12.11 13.644)">
            <path id="freepik--heart--inject-12-2" data-name="freepik--heart--inject-12" d="M234.794,79.1c-15.36-8.185-16.576-16.961-12.133-21.256,4-3.858,11.316-1.286,12.133,4.186.817-5.5,8.133-8.031,12.133-4.186C251.4,62.14,250.154,70.917,234.794,79.1Z" transform="translate(-220.412 -56)" fill="#916aab"/>
          </g>
        </g>
      </g>
    </g>
  </g>
</svg>
