<svg xmlns="http://www.w3.org/2000/svg" width="63.243" height="40.515" viewBox="0 0 63.243 40.515">
  <g id="carrete-de-hilo" transform="translate(0 -92)">
    <g id="Grupo_1101984" data-name="Grupo 1101984" transform="translate(0.926 109.324)">
      <path id="Trazado_893050" data-name="Trazado 893050" d="M19.371,244.5H8.73a1.235,1.235,0,0,1-1.235-1.235v-9.776a1.235,1.235,0,0,1,1.235-1.235H19.371Z" transform="translate(-7.495 -232.256)" fill="#ecbe6b"/>
    </g>
    <g id="Grupo_1101985" data-name="Grupo 1101985" transform="translate(50.43 109.324)">
      <path id="Trazado_893051" data-name="Trazado 893051" d="M408.268,232.257h10.641a1.235,1.235,0,0,1,1.235,1.235v9.776a1.235,1.235,0,0,1-1.235,1.235H408.268Z" transform="translate(-408.268 -232.257)" fill="#ecbe6b"/>
    </g>
    <g id="Grupo_1101986" data-name="Grupo 1101986" transform="translate(0.926 109.324)">
      <path id="Trazado_893052" data-name="Trazado 893052" d="M12.661,232.257v8.091a1.234,1.234,0,0,1-1.234,1.234H7.5v1.687A1.234,1.234,0,0,0,8.729,244.5H19.371V232.257h-6.71Z" transform="translate(-7.495 -232.257)" fill="#eab14d"/>
    </g>
    <g id="Grupo_1101987" data-name="Grupo 1101987" transform="translate(50.43 109.324)">
      <path id="Trazado_893053" data-name="Trazado 893053" d="M418.909,232.257h-1.687v8.091a1.234,1.234,0,0,1-1.234,1.234h-7.721V244.5h10.642a1.234,1.234,0,0,0,1.234-1.234v-9.778a1.234,1.234,0,0,0-1.234-1.234Z" transform="translate(-408.267 -232.257)" fill="#eab14d"/>
    </g>
    <g id="Grupo_1101988" data-name="Grupo 1101988" transform="translate(9.432 103.027)">
      <path id="Trazado_893054" data-name="Trazado 893054" d="M115.593,206.119H81.3a4.937,4.937,0,0,1-4.937-4.937V186.215A4.938,4.938,0,0,1,81,181.287l34.594-.009a4.937,4.937,0,0,1,4.937,4.937v14.966A4.937,4.937,0,0,1,115.593,206.119Z" transform="translate(-76.36 -181.278)" fill="#cbe2ff"/>
    </g>
    <g id="Grupo_1101989" data-name="Grupo 1101989" transform="translate(9.432 103.027)">
      <path id="Trazado_893055" data-name="Trazado 893055" d="M115.593,181.278h-.3v8.452a11.149,11.149,0,0,1-11.149,11.149H76.36v.3a4.937,4.937,0,0,0,4.937,4.937h34.3a4.937,4.937,0,0,0,4.937-4.937V186.215a4.937,4.937,0,0,0-4.937-4.937Z" transform="translate(-76.36 -181.278)" fill="#9dc6fb"/>
    </g>
    <path id="Trazado_893056" data-name="Trazado 893056" d="M61.072,108.4H54.528v-.434a5.845,5.845,0,0,0-1.759-4.182l3.4-3.4a2.589,2.589,0,0,0,.594.065c1.987,0,4.762-1.86,5.477-2.576h0a3.443,3.443,0,0,0-4.869-4.869c-.79.79-2.974,4.09-2.509,6.069L51.236,102.7a5.827,5.827,0,0,0-2.572-.6h-34.3a5.87,5.87,0,0,0-5.863,5.863v.434H2.16A2.163,2.163,0,0,0,0,110.559v9.778a2.163,2.163,0,0,0,2.16,2.16H8.506v.434a5.87,5.87,0,0,0,5.863,5.863H21.5a.926.926,0,1,0,0-1.852H14.369a4.016,4.016,0,0,1-4.011-4.011V121l.023-.021,10.844-10.844,1.453,1.453L14.971,119.3a.926.926,0,1,0,1.309,1.309l7.707-7.707,1.453,1.453-2.994,2.994a.926.926,0,1,0,1.309,1.309l2.994-2.994,2.994,2.994a.926.926,0,1,0,1.309-1.309L17.659,103.953h2.907L35.273,118.66,23,130.934a.926.926,0,1,0,1.309,1.309L36.582,119.97l3.838,3.838a.926.926,0,0,0,1.309-1.309L23.184,103.953h2.907l18.6,18.6A.926.926,0,1,0,46,121.241L28.709,103.953h2.907l14.7,14.7a.926.926,0,1,0,1.309-1.309l-4.212-4.212,8.044-8.044a4,4,0,0,1,1.216,2.873v14.966a4.016,4.016,0,0,1-4.011,4.011H33.388a.926.926,0,1,0,0,1.852H48.665a5.87,5.87,0,0,0,5.863-5.863V122.5h6.544a2.163,2.163,0,0,0,2.16-2.16v-9.778a2.163,2.163,0,0,0-2.16-2.16Zm-2.4-14.083a1.592,1.592,0,1,1,2.251,2.251c-.962.962-3.6,2.2-4.289,2.038C56.474,97.913,57.714,95.278,58.676,94.316Zm-22.329,11.75,2.113-2.113h2.907L37.8,107.519ZM2.16,120.645a.309.309,0,0,1-.309-.309v-9.778a.309.309,0,0,1,.309-.309H8.506v10.4H2.16Zm17.756-11.817-9.558,9.558V107.964a4.016,4.016,0,0,1,4.011-4.011h.671Zm15.926-4.876-.8.8-.8-.8Zm6.266,7.873-3-3,4.875-4.876h4.68a4,4,0,0,1,1.148.168Zm19.273,8.511a.309.309,0,0,1-.309.309H54.528v-10.4h6.544a.309.309,0,0,1,.309.309Z"/>
  </g>
</svg>
