<svg xmlns="http://www.w3.org/2000/svg" width="40.044" height="44.626" viewBox="0 0 40.044 44.626">
  <g id="hilo_1_" data-name="hilo (1)" transform="translate(-26.284)">
    <g id="Grupo_1101990" data-name="Grupo 1101990" transform="translate(27.156 0.872)">
      <path id="Trazado_893057" data-name="Trazado 893057" d="M312.419,225.021,308.182,204.1a2.613,2.613,0,0,0-2.563-2.1h-6.173a2.613,2.613,0,0,0-2.563,2.1l.02,24.046h12.951A2.615,2.615,0,0,0,312.419,225.021Z" transform="translate(-274.169 -185.265)" fill="#91def5"/>
      <path id="Trazado_893058" data-name="Trazado 893058" d="M331.7,142h5.23v5.23H331.7Z" transform="translate(-305.954 -130.495)" fill="#eefaff"/>
      <path id="Trazado_893059" data-name="Trazado 893059" d="M121.7,10h10.459v6.276H121.7Z" transform="translate(-114.258 -10)" fill="#eefaff"/>
      <path id="Trazado_893060" data-name="Trazado 893060" d="M61.609,115.623c-2.05-14.345-2.433-17.032-4.483-31.378A2.614,2.614,0,0,0,54.537,82H43.384A2.615,2.615,0,0,0,40.8,84.245l-4.483,31.378a2.615,2.615,0,0,0,2.589,2.984H59.02a2.615,2.615,0,0,0,2.589-2.984Z" transform="translate(-36.286 -75.724)" fill="#ffa2c3"/>
    </g>
    <g id="Grupo_1101991" data-name="Grupo 1101991" transform="translate(26.284 0)">
      <path id="Trazado_893061" data-name="Trazado 893061" d="M29.964,15.138v.006l-3.643,25.5a3.487,3.487,0,0,0,3.452,3.979h33.07a3.487,3.487,0,0,0,3.419-4.172l-1.237-6.108a.872.872,0,0,0-1.709.346L64.551,40.8a1.743,1.743,0,0,1-1.71,2.085H52.915a3.486,3.486,0,0,0,.426-2.236L50.52,20.9l.2-1.02a1.747,1.747,0,0,1,1.709-1.4h6.173a1.747,1.747,0,0,1,1.709,1.4L61.757,27a.872.872,0,0,0,1.709-.346l-1.442-7.119a3.5,3.5,0,0,0-3.018-2.779V12.377a.872.872,0,0,0-.872-.872H52.9a.872.872,0,0,0-.872.872v4.382a3.49,3.49,0,0,0-1.974.914l-1.2-8.4a3.494,3.494,0,0,0-2.927-2.954V.872A.872.872,0,0,0,45.06,0H34.6a.872.872,0,0,0-.872.872V6.316A3.507,3.507,0,0,0,30.8,9.269Zm27.3-1.889v3.486H53.776V13.248ZM48.616,19.9l.613,4.289-17.453-9.4.525-3.677Zm3,21a1.733,1.733,0,0,1-1.025,1.844l-21.18-11.4.525-3.677L51.374,39.2Zm-4.43,1.99H33.752l6.716-3.617ZM29.149,33.172l3.966,2.135L28.488,37.8ZM30.2,25.818l.525-3.676,19.73,10.624.613,4.289Zm.788-5.515.525-3.676,18.023,9.7.613,4.29ZM48.31,17.752l-4.674-2.517,4.006-2.157ZM28.046,40.894l.136-.95L34.953,36.3l3.677,1.98-8.555,4.607h-.3A1.744,1.744,0,0,1,28.046,40.894ZM47.133,9.516l.246,1.723L41.8,14.245l-3.676-1.98,7.761-4.18a1.747,1.747,0,0,1,1.251,1.43ZM44.189,1.743V6.276H35.473V1.743ZM34.254,8.019h8.075l-6.047,3.257-3.7-1.993A1.752,1.752,0,0,1,34.254,8.019Z" transform="translate(-26.284 0)"/>
      <circle id="Elipse_11497" data-name="Elipse 11497" cx="0.872" cy="0.872" r="0.872" transform="translate(36.208 29.809)"/>
    </g>
  </g>
</svg>
