<svg xmlns="http://www.w3.org/2000/svg" width="83.641" height="89.333" viewBox="0 0 83.641 89.333">
  <g id="maquina-de-coser-overlock_1_" data-name="maquina-de-coser-overlock (1)" transform="translate(-16.311)">
    <path id="Trazado_893537" data-name="Trazado 893537" d="M98.679,43.684a3.686,3.686,0,0,0,.995-2.52V34.038a1.31,1.31,0,0,0-2.62,0v7.127a1.083,1.083,0,0,1-1.082,1.082l-8.652-.035a1.083,1.083,0,0,1-.813-1.047V24.695a1.083,1.083,0,0,1,1.082-1.082h8.384a1.083,1.083,0,0,1,1.082,1.082v2.834a1.31,1.31,0,0,0,2.62,0V24.695A3.7,3.7,0,0,0,96.055,21V17.609a1.836,1.836,0,0,0-1.834-1.834H93.058v-4.2a3.989,3.989,0,0,0,2.672-3.76c0-1.371-1.323-3.687-2.292-5.2h5.028a1.31,1.31,0,0,0,0-2.62H24.887a1.31,1.31,0,1,0,0,2.62h5.037c-.969,1.511-2.292,3.827-2.292,5.2a3.988,3.988,0,0,0,2.672,3.76v4.2H29.1a1.836,1.836,0,0,0-1.834,1.834V21a3.7,3.7,0,0,0-3.516,3.693V41.164a3.706,3.706,0,0,0,3.7,3.7h2.811v9.8a3.061,3.061,0,0,0,3.057,3.057h3.772v3.556a1.31,1.31,0,1,0,2.62,0V57.727H51.294v5.644H18.32a2.011,2.011,0,0,0-2.009,2.009v6.8A2.011,2.011,0,0,0,18.32,74.19H30.265V86.275a3.061,3.061,0,0,0,3.057,3.057H65.38a1.31,1.31,0,0,0,0-2.62H33.322a.437.437,0,0,1-.437-.437V74.19H49.827A4.092,4.092,0,0,0,53.914,70.1V56.941a1.836,1.836,0,0,0-1.834-1.834H33.322a.437.437,0,0,1-.437-.437V38.922a.437.437,0,0,1,.437-.437h47.6a.437.437,0,0,1,.437.437V86.276a.437.437,0,0,1-.437.437H71.468a1.31,1.31,0,1,0,0,2.62h9.458a3.061,3.061,0,0,0,3.057-3.057V51.433l11.351.048a4.614,4.614,0,0,0,3.344-7.8ZM51.294,70.1a1.468,1.468,0,0,1-1.466,1.466h-30.9V65.992H51.294ZM53.752,21V17.608a1.836,1.836,0,0,0-1.834-1.834H50.755v-4.2a3.989,3.989,0,0,0,2.672-3.76c0-1.371-1.323-3.687-2.292-5.2h9.319V35.865H57.37V24.694A3.7,3.7,0,0,0,53.752,21ZM49.445,4.881a10.212,10.212,0,0,1,1.362,2.938,1.362,1.362,0,0,1-2.724,0,10.237,10.237,0,0,1,1.362-2.939Zm1.687,13.514v2.6H47.757v-2.6ZM63.075,2.62h9.153c-.969,1.511-2.292,3.827-2.292,5.2a3.988,3.988,0,0,0,2.672,3.76v4.2H71.476a1.836,1.836,0,0,0-1.834,1.834V21a3.7,3.7,0,0,0-3.587,3.7v11.17H63.075V2.62ZM75.636,20.992H72.263v-2.6h3.374ZM73.918,9.18a1.363,1.363,0,0,1-1.362-1.361,10.226,10.226,0,0,1,1.362-2.939A10.212,10.212,0,0,1,75.28,7.819,1.364,1.364,0,0,1,73.918,9.18ZM68.676,24.695a1.083,1.083,0,0,1,1.082-1.082h8.384a1.083,1.083,0,0,1,1.082,1.082v11.17H68.676Zm24.759-3.7H90.061v-2.6h3.374ZM91.748,9.18a1.363,1.363,0,0,1-1.362-1.361,10.227,10.227,0,0,1,1.362-2.939A10.212,10.212,0,0,1,93.11,7.819,1.364,1.364,0,0,1,91.748,9.18Zm-1.31,2.4v4.2H89.275a1.836,1.836,0,0,0-1.834,1.834V21a3.7,3.7,0,0,0-3.555,3.695V38.167a3.066,3.066,0,0,0-2.042-2.161V24.695A3.7,3.7,0,0,0,78.257,21v-3.39a1.836,1.836,0,0,0-1.834-1.834H75.228v-4.2A3.989,3.989,0,0,0,77.9,7.818c0-1.371-1.323-3.687-2.292-5.2H90.058c-.969,1.511-2.292,3.827-2.292,5.2a3.988,3.988,0,0,0,2.672,3.76Zm-58.823-6.7a10.212,10.212,0,0,1,1.362,2.938,1.362,1.362,0,0,1-2.724,0A10.226,10.226,0,0,1,31.615,4.881Zm1.31,6.7A3.989,3.989,0,0,0,35.6,7.818c0-1.371-1.323-3.687-2.292-5.2H47.754c-.969,1.511-2.292,3.827-2.292,5.2a3.988,3.988,0,0,0,2.672,3.76v4.2H46.971a1.836,1.836,0,0,0-1.834,1.834V21a3.7,3.7,0,0,0-3.555,3.695v6.5a1.31,1.31,0,1,0,2.62,0v-6.5a1.083,1.083,0,0,1,1.082-1.082h8.384a1.083,1.083,0,0,1,1.082,1.082v11.17H39.54V24.695a3.705,3.705,0,0,0-3.658-3.7V17.608a1.836,1.836,0,0,0-1.834-1.834H32.924v-4.2Zm.337,6.817v2.6H29.888v-2.6Zm-3,20.527v3.324h-2.81a1.083,1.083,0,0,1-1.082-1.082V24.695a1.083,1.083,0,0,1,1.082-1.082h8.384a1.083,1.083,0,0,1,1.082,1.082v11.17h-3.6a3.06,3.06,0,0,0-3.057,3.057ZM95.34,48.86l-11.356-.048v-4l11.351.05a2,2,0,0,1,.006,3.994Z" fill="#916aab"/>
    <path id="Trazado_893538" data-name="Trazado 893538" d="M177.089,246.441v5.139a1.31,1.31,0,1,0,2.62,0v-5.139a1.31,1.31,0,0,0-2.62,0Z" transform="translate(-132.726 -202.361)" fill="#916aab"/>
    <path id="Trazado_893539" data-name="Trazado 893539" d="M220.775,246.441v5.139a1.31,1.31,0,1,0,2.62,0v-5.139a1.31,1.31,0,1,0-2.62,0Z" transform="translate(-168.79 -202.361)" fill="#916aab"/>
    <path id="Trazado_893540" data-name="Trazado 893540" d="M264.66,246.441v5.139a1.31,1.31,0,1,0,2.62,0v-5.139a1.31,1.31,0,1,0-2.62,0Z" transform="translate(-205.018 -202.361)" fill="#916aab"/>
    <path id="Trazado_893541" data-name="Trazado 893541" d="M309.657,245.131a1.31,1.31,0,0,0-1.31,1.31v5.139a1.31,1.31,0,1,0,2.62,0v-5.139A1.31,1.31,0,0,0,309.657,245.131Z" transform="translate(-241.082 -202.361)" fill="#916aab"/>
  </g>
</svg>
