<svg xmlns="http://www.w3.org/2000/svg" xmlns:xlink="http://www.w3.org/1999/xlink" width="44.626" height="44.626" viewBox="0 0 44.626 44.626">
  <defs>
    <clipPath id="clip-path">
      <path id="path3093" d="M0-682.665H44.626v44.626H0Z" transform="translate(0 682.665)"/>
    </clipPath>
  </defs>
  <g id="g3081" transform="translate(0 682.665)">
    <path id="path3083" d="M13.333-636.908H34.775v-32.424H13.333Z" transform="translate(-12.462 -12.462)" fill="#ffa2c3"/>
    <path id="path3085" d="M181.333-565.487h21.441v-7.844H181.333Z" transform="translate(-169.479 -102.186)" fill="#eefaff"/>
    <path id="path3087" d="M349.332-461.955h20.918v-31.378H349.332Z" transform="translate(-326.497 -176.956)" fill="#ffa2c3"/>
    <g id="g3089" transform="translate(0 -682.665)">
      <g id="g3091" clip-path="url(#clip-path)">
        <g id="g3097" transform="translate(22.836 33.295)">
          <path id="path3099" d="M-299.081,0V10.459H-320V0c2.042,0,3.187,5.23,5.23,5.23S-311.582,0-309.54,0s3.187,5.23,5.23,5.23S-301.123,0-299.081,0" transform="translate(319.999)" fill="#ffda8f"/>
        </g>
        <g id="g3101" transform="translate(22.836 17.606)">
          <path id="path3103" d="M-299.081,0V7.844c-2.042,0-3.187,5.23-5.23,5.23s-3.187-5.23-5.23-5.23-3.187,5.23-5.23,5.23-3.187-5.23-5.23-5.23V0c2.042,0,3.187,5.23,5.23,5.23S-311.582,0-309.54,0s3.187,5.23,5.23,5.23S-301.123,0-299.081,0" transform="translate(319.999)" fill="#ffda8f"/>
        </g>
        <path id="path3105" d="M192.315-205.488H181.333v-7.844h10.982Z" transform="translate(-169.479 244.013)" fill="#91def5"/>
        <path id="path3107" d="M192.315-325.488H181.333v-7.844h10.982Z" transform="translate(-169.479 356.168)" fill="#eefaff"/>
        <path id="path3109" d="M192.315-445.488H181.333v-7.844h10.982Z" transform="translate(-169.479 468.324)" fill="#91def5"/>
        <g id="g3111" transform="translate(21.964 16.735)">
          <path id="path3113" d="M-316.772-6.361c-1.511,0-2.45-1.542-3.359-3.033-.565-.927-1.339-2.2-1.871-2.2s-1.305,1.27-1.871,2.2c-.909,1.491-1.849,3.033-3.359,3.033s-2.45-1.542-3.359-3.033c-.565-.927-1.339-2.2-1.871-2.2a.872.872,0,0,1-.872-.872.872.872,0,0,1,.872-.872c1.511,0,2.45,1.542,3.359,3.033.565.927,1.339,2.2,1.871,2.2s1.305-1.27,1.871-2.2c.909-1.491,1.849-3.033,3.359-3.033s2.45,1.542,3.359,3.033c.565.927,1.339,2.2,1.871,2.2s1.305-1.27,1.871-2.2c.909-1.491,1.848-3.033,3.359-3.033a.872.872,0,0,1,.872.872.872.872,0,0,1-.872.872c-.532,0-1.305,1.27-1.871,2.2C-314.322-7.9-315.262-6.361-316.772-6.361Z" transform="translate(333.333 13.333)"/>
        </g>
        <g id="g3115" transform="translate(21.964 24.579)">
          <path id="path3117" d="M-316.772-6.361c-1.511,0-2.45-1.542-3.359-3.033-.565-.927-1.339-2.2-1.871-2.2s-1.305,1.27-1.871,2.2c-.909,1.491-1.849,3.033-3.359,3.033s-2.45-1.542-3.359-3.033c-.565-.927-1.339-2.2-1.871-2.2a.872.872,0,0,1-.872-.872.872.872,0,0,1,.872-.872c1.511,0,2.45,1.542,3.359,3.033.565.927,1.339,2.2,1.871,2.2s1.305-1.27,1.871-2.2c.909-1.491,1.849-3.033,3.359-3.033s2.45,1.542,3.359,3.033c.565.927,1.339,2.2,1.871,2.2s1.305-1.27,1.871-2.2c.909-1.491,1.848-3.033,3.359-3.033a.872.872,0,0,1,.872.872.872.872,0,0,1-.872.872c-.532,0-1.305,1.27-1.871,2.2C-314.322-7.9-315.262-6.361-316.772-6.361Z" transform="translate(333.333 13.333)"/>
        </g>
        <g id="g3119" transform="translate(21.964 32.424)">
          <path id="path3121" d="M-316.772-6.361c-1.511,0-2.45-1.542-3.359-3.033-.565-.927-1.339-2.2-1.871-2.2s-1.305,1.27-1.871,2.2c-.909,1.491-1.849,3.033-3.359,3.033s-2.45-1.542-3.359-3.033c-.565-.927-1.339-2.2-1.871-2.2a.872.872,0,0,1-.872-.872.872.872,0,0,1,.872-.872c1.511,0,2.45,1.542,3.359,3.033.565.927,1.339,2.2,1.871,2.2s1.305-1.27,1.871-2.2c.909-1.491,1.849-3.033,3.359-3.033s2.45,1.542,3.359,3.033c.565.927,1.339,2.2,1.871,2.2s1.305-1.27,1.871-2.2c.909-1.491,1.848-3.033,3.359-3.033a.872.872,0,0,1,.872.872.872.872,0,0,1-.872.872c-.532,0-1.305,1.27-1.871,2.2C-314.322-7.9-315.262-6.361-316.772-6.361Z" transform="translate(333.333 13.333)"/>
        </g>
        <g id="g3123" transform="translate(0 0)">
          <path id="path3125" d="M-169.479-475.165h-10.982a.872.872,0,0,1-.872-.872v-32.424a.872.872,0,0,1,.872-.872h21.441a.872.872,0,0,1,.872.872v6.276a.872.872,0,0,1-.872.872.872.872,0,0,1-.872-.872v-5.4h-19.7v30.68h10.111a.872.872,0,0,1,.872.872A.872.872,0,0,1-169.479-475.165Z" transform="translate(181.333 509.332)"/>
        </g>
        <g id="g3127" transform="translate(10.982 6.276)">
          <path id="path3129" d="M-169.479-460.211h-10.982a.872.872,0,0,1-.872-.872v-31.378a.872.872,0,0,1,.872-.872h21.441a.872.872,0,0,1,.872.872v5.23a.872.872,0,0,1-.872.872.872.872,0,0,1-.872-.872v-4.358h-19.7v29.634h10.111a.872.872,0,0,1,.872.872A.872.872,0,0,1-169.479-460.211Z" transform="translate(181.333 493.332)"/>
        </g>
        <g id="g3131" transform="translate(10.982 14.12)">
          <path id="path3133" d="M-1.48-11.59H-12.462a.872.872,0,0,1-.872-.872.872.872,0,0,1,.872-.872H-1.48a.872.872,0,0,1,.872.872A.872.872,0,0,1-1.48-11.59Z" transform="translate(13.333 13.333)"/>
        </g>
        <g id="g3135" transform="translate(10.982 21.964)">
          <path id="path3137" d="M-1.48-11.59H-12.462a.872.872,0,0,1-.872-.872.872.872,0,0,1,.872-.872H-1.48a.872.872,0,0,1,.872.872A.872.872,0,0,1-1.48-11.59Z" transform="translate(13.333 13.333)"/>
        </g>
        <g id="g3139" transform="translate(10.982 29.809)">
          <path id="path3141" d="M-1.48-11.59H-12.462a.872.872,0,0,1-.872-.872.872.872,0,0,1,.872-.872H-1.48a.872.872,0,0,1,.872.872A.872.872,0,0,1-1.48-11.59Z" transform="translate(13.333 13.333)"/>
        </g>
        <g id="g3143" transform="translate(32.424 42.883)">
          <path id="path3145" d="M-24.923-12.462a.872.872,0,0,1-.872.872.872.872,0,0,1-.872-.872.872.872,0,0,1,.872-.872.872.872,0,0,1,.872.872" transform="translate(26.667 13.333)"/>
        </g>
        <g id="g3147" transform="translate(21.964 11.505)">
          <path id="path3149" d="M-91.543-460.211H-98.08a.872.872,0,0,1-.872-.872.872.872,0,0,1,.872-.872h5.665v-29.634H-111.59v29.634h5.665a.872.872,0,0,1,.872.872.872.872,0,0,1-.872.872h-6.537a.872.872,0,0,1-.872-.872v-31.378a.872.872,0,0,1,.872-.872h20.918a.872.872,0,0,1,.872.872v31.378A.872.872,0,0,1-91.543-460.211Z" transform="translate(113.333 493.332)"/>
        </g>
      </g>
    </g>
  </g>
</svg>
