<svg xmlns="http://www.w3.org/2000/svg" xmlns:xlink="http://www.w3.org/1999/xlink" width="107" height="107" viewBox="0 0 107 107">
  <defs>
    <clipPath id="clip-path">
      <rect id="Rectángulo_402500" data-name="Rectángulo 402500" width="107" height="107" transform="translate(327.051 12798)" fill="#fff" stroke="#707070" stroke-width="1"/>
    </clipPath>
  </defs>
  <g id="Enmascarar_grupo_1098714" data-name="Enmascarar grupo 1098714" transform="translate(-327.051 -12798)" clip-path="url(#clip-path)">
    <g id="maquina-de-coser" transform="translate(327.051 12798)">
      <path id="Trazado_893544" data-name="Trazado 893544" d="M96.3,103.433V89.167H7.133a5.35,5.35,0,0,0-5.35,5.35v8.917a1.784,1.784,0,0,0,1.783,1.783h90.95A1.784,1.784,0,0,0,96.3,103.433Z" fill="#f5f5f5"/>
      <path id="Trazado_893545" data-name="Trazado 893545" d="M90.95,89.167v14.267a1.784,1.784,0,0,1-1.783,1.783h5.35a1.784,1.784,0,0,0,1.783-1.783V89.167Z" fill="#cfd8dc"/>
      <path id="Trazado_893546" data-name="Trazado 893546" d="M60.633,89.167V53.5a3.566,3.566,0,0,0-3.567-3.567H10.7a3.566,3.566,0,0,1-3.567-3.567V32.1A3.566,3.566,0,0,1,10.7,28.533H92.733A3.566,3.566,0,0,1,96.3,32.1V89.167Z" fill="#f5f5f5"/>
      <path id="Trazado_893547" data-name="Trazado 893547" d="M92.733,28.533h-5.35A3.566,3.566,0,0,1,90.95,32.1V89.167H96.3V32.1A3.566,3.566,0,0,0,92.733,28.533Z" fill="#cfd8dc"/>
      <path id="Trazado_893548" data-name="Trazado 893548" d="M96.3,35.667h5.35a3.566,3.566,0,0,1,3.567,3.567V57.067a3.566,3.566,0,0,1-3.567,3.567H96.3Z" fill="#02a9f4"/>
      <path id="Trazado_893549" data-name="Trazado 893549" d="M101.65,35.667H96.3a3.566,3.566,0,0,1,3.567,3.567V57.067A3.566,3.566,0,0,1,96.3,60.633h5.35a3.566,3.566,0,0,0,3.567-3.567V39.233A3.566,3.566,0,0,0,101.65,35.667Z" fill="#0377bc"/>
      <path id="Trazado_893550" data-name="Trazado 893550" d="M37.45,49.933l-1.535,9.209a1.784,1.784,0,0,1-1.758,1.491H15.777a1.781,1.781,0,0,1-1.758-1.491l-1.535-9.209Z" fill="#02a9f4"/>
      <path id="Trazado_893551" data-name="Trazado 893551" d="M32.1,49.933l-1.535,9.209a1.784,1.784,0,0,1-1.758,1.491h5.35a1.781,1.781,0,0,0,1.758-1.491l1.535-9.209Z" fill="#0377bc"/>
      <path id="Trazado_893552" data-name="Trazado 893552" d="M32.1,60.633v5.35a1.784,1.784,0,0,1-1.783,1.783h-10.7a1.784,1.784,0,0,1-1.783-1.783v-5.35Z" fill="#f5f5f5"/>
      <path id="Trazado_893553" data-name="Trazado 893553" d="M26.75,60.633v5.35a1.784,1.784,0,0,1-1.783,1.783h5.35A1.784,1.784,0,0,0,32.1,65.983v-5.35Z" fill="#cfd8dc"/>
      <g id="Grupo_1102326" data-name="Grupo 1102326">
        <circle id="Elipse_11509" data-name="Elipse 11509" cx="3.567" cy="3.567" r="3.567" transform="translate(67.767 73.117)" fill="#607d8b"/>
        <circle id="Elipse_11510" data-name="Elipse 11510" cx="3.567" cy="3.567" r="3.567" transform="translate(67.767 58.85)" fill="#607d8b"/>
        <circle id="Elipse_11511" data-name="Elipse 11511" cx="3.567" cy="3.567" r="3.567" transform="translate(82.033 58.85)" fill="#607d8b"/>
        <circle id="Elipse_11512" data-name="Elipse 11512" cx="3.567" cy="3.567" r="3.567" transform="translate(82.033 73.117)" fill="#607d8b"/>
      </g>
      <rect id="Rectángulo_402503" data-name="Rectángulo 402503" width="21.4" height="14.267" rx="3.567" transform="translate(67.767 37.45)" fill="#02a9f4"/>
      <path id="Trazado_893554" data-name="Trazado 893554" d="M85.6,37.45H80.25a3.566,3.566,0,0,1,3.567,3.567V48.15a3.566,3.566,0,0,1-3.567,3.567H85.6a3.566,3.566,0,0,0,3.567-3.567V41.017A3.566,3.566,0,0,0,85.6,37.45Z" fill="#0377bc"/>
      <rect id="Rectángulo_402504" data-name="Rectángulo 402504" width="14.267" height="19.617" rx="3.567" transform="translate(19.617 8.917)" fill="#ff9801"/>
      <path id="Trazado_893555" data-name="Trazado 893555" d="M30.317,8.917h-5.35a3.566,3.566,0,0,1,3.567,3.567V24.967a3.566,3.566,0,0,1-3.567,3.567h5.35a3.566,3.566,0,0,0,3.567-3.567V12.483A3.566,3.566,0,0,0,30.317,8.917Z" fill="#f57c00"/>
      <path id="Trazado_893556" data-name="Trazado 893556" d="M23.183,8.917V3.567a1.784,1.784,0,0,1,1.783-1.783h3.567a1.784,1.784,0,0,1,1.783,1.783v5.35Z" fill="#607d8b"/>
      <rect id="Rectángulo_402505" data-name="Rectángulo 402505" width="14.267" height="19.617" rx="3.567" transform="translate(44.583 8.917)" fill="#00bcd4"/>
      <path id="Trazado_893557" data-name="Trazado 893557" d="M55.283,8.917h-5.35A3.566,3.566,0,0,1,53.5,12.483V24.967a3.566,3.566,0,0,1-3.567,3.567h5.35a3.566,3.566,0,0,0,3.567-3.567V12.483A3.566,3.566,0,0,0,55.283,8.917Z" fill="#00838f"/>
      <path id="Trazado_893558" data-name="Trazado 893558" d="M48.15,8.917V3.567a1.784,1.784,0,0,1,1.783-1.783H53.5a1.784,1.784,0,0,1,1.783,1.783v5.35Z" fill="#607d8b"/>
      <rect id="Rectángulo_402506" data-name="Rectángulo 402506" width="14.267" height="19.617" rx="3.567" transform="translate(69.55 8.917)" fill="#e91e63"/>
      <path id="Trazado_893559" data-name="Trazado 893559" d="M80.25,8.917H74.9a3.566,3.566,0,0,1,3.567,3.567V24.967A3.566,3.566,0,0,1,74.9,28.533h5.35a3.566,3.566,0,0,0,3.567-3.567V12.483A3.566,3.566,0,0,0,80.25,8.917Z" fill="#ad1457"/>
      <path id="Trazado_893560" data-name="Trazado 893560" d="M73.117,8.917V3.567A1.784,1.784,0,0,1,74.9,1.783h3.567A1.784,1.784,0,0,1,80.25,3.567v5.35Z" fill="#607d8b"/>
      <path id="Trazado_893561" data-name="Trazado 893561" d="M101.65,33.883H98.083V32.1a5.357,5.357,0,0,0-5.35-5.35H85.272a5.29,5.29,0,0,0,.328-1.783V12.483a5.343,5.343,0,0,0-3.567-5.022V3.567A3.57,3.57,0,0,0,78.467,0H74.9a3.57,3.57,0,0,0-3.567,3.567V7.461a5.343,5.343,0,0,0-3.567,5.022V24.967a5.29,5.29,0,0,0,.328,1.783H60.3a5.29,5.29,0,0,0,.328-1.783V12.483a5.343,5.343,0,0,0-3.567-5.022V3.567A3.57,3.57,0,0,0,53.5,0H49.932a3.57,3.57,0,0,0-3.567,3.567V7.461A5.343,5.343,0,0,0,42.8,12.483V24.967a5.29,5.29,0,0,0,.328,1.783H35.335a5.29,5.29,0,0,0,.328-1.783V12.483A5.343,5.343,0,0,0,32.1,7.461V3.567A3.57,3.57,0,0,0,28.53,0H24.963A3.57,3.57,0,0,0,21.4,3.567V7.461a5.343,5.343,0,0,0-3.567,5.022V24.967a5.29,5.29,0,0,0,.328,1.783H10.7A5.357,5.357,0,0,0,5.35,32.1V46.367a5.357,5.357,0,0,0,5.35,5.35h.273l1.286,7.718a3.554,3.554,0,0,0,3.519,2.982h.273v3.567a3.57,3.57,0,0,0,3.567,3.567h3.567v8.917a1.783,1.783,0,0,0,3.567,0V69.55h3.567a3.57,3.57,0,0,0,3.567-3.567V62.417h.273a3.555,3.555,0,0,0,3.519-2.982l1.286-7.718H57.067A1.785,1.785,0,0,1,58.85,53.5V87.383H7.133A7.141,7.141,0,0,0,0,94.517v8.917A3.57,3.57,0,0,0,3.567,107h90.95a3.57,3.57,0,0,0,3.567-3.567V62.417h3.567a5.357,5.357,0,0,0,5.35-5.35V39.233a5.357,5.357,0,0,0-5.35-5.35ZM74.9,3.567h3.567V7.133H74.9Zm-3.567,8.917A1.785,1.785,0,0,1,73.117,10.7H80.25a1.785,1.785,0,0,1,1.783,1.783V24.967A1.785,1.785,0,0,1,80.25,26.75H73.117a1.785,1.785,0,0,1-1.783-1.783Zm-21.4-8.917H53.5V7.133H49.933Zm-3.567,8.917A1.785,1.785,0,0,1,48.15,10.7h7.133a1.785,1.785,0,0,1,1.783,1.783V24.967a1.785,1.785,0,0,1-1.783,1.783H48.15a1.785,1.785,0,0,1-1.783-1.783Zm-21.4-8.917h3.567V7.133H24.967ZM21.4,12.483A1.785,1.785,0,0,1,23.183,10.7h7.133A1.785,1.785,0,0,1,32.1,12.483V24.967a1.785,1.785,0,0,1-1.783,1.783H23.183A1.785,1.785,0,0,1,21.4,24.967Zm8.917,53.5h-10.7V62.417h10.7Zm3.84-7.133H15.777l-1.189-7.133H35.344L34.154,58.85Zm60.36,44.583H3.567V94.517A3.57,3.57,0,0,1,7.133,90.95H94.517Zm0-16.05h-32.1V53.5a5.357,5.357,0,0,0-5.35-5.35H10.7a1.785,1.785,0,0,1-1.783-1.783V32.1A1.785,1.785,0,0,1,10.7,30.317H92.733A1.785,1.785,0,0,1,94.517,32.1Zm8.917-30.317a1.785,1.785,0,0,1-1.783,1.783H98.083V37.45h3.567a1.785,1.785,0,0,1,1.783,1.783Z"/>
      <path id="Trazado_893562" data-name="Trazado 893562" d="M71.333,71.333a5.35,5.35,0,1,0,5.35,5.35A5.357,5.357,0,0,0,71.333,71.333Zm0,7.133a1.783,1.783,0,1,1,1.783-1.783A1.785,1.785,0,0,1,71.333,78.467Z"/>
      <path id="Trazado_893563" data-name="Trazado 893563" d="M71.333,57.067a5.35,5.35,0,1,0,5.35,5.35A5.357,5.357,0,0,0,71.333,57.067Zm0,7.133a1.783,1.783,0,1,1,1.783-1.783A1.785,1.785,0,0,1,71.333,64.2Z"/>
      <path id="Trazado_893564" data-name="Trazado 893564" d="M85.6,57.067a5.35,5.35,0,1,0,5.35,5.35A5.357,5.357,0,0,0,85.6,57.067Zm0,7.133a1.783,1.783,0,1,1,1.783-1.783A1.785,1.785,0,0,1,85.6,64.2Z"/>
      <path id="Trazado_893565" data-name="Trazado 893565" d="M85.6,71.333a5.35,5.35,0,1,0,5.35,5.35A5.357,5.357,0,0,0,85.6,71.333Zm0,7.133a1.783,1.783,0,1,1,1.783-1.783A1.785,1.785,0,0,1,85.6,78.467Z"/>
      <path id="Trazado_893566" data-name="Trazado 893566" d="M85.6,35.667H71.333a5.357,5.357,0,0,0-5.35,5.35V48.15a5.357,5.357,0,0,0,5.35,5.35H85.6a5.357,5.357,0,0,0,5.35-5.35V41.017A5.357,5.357,0,0,0,85.6,35.667ZM87.383,48.15A1.785,1.785,0,0,1,85.6,49.933H71.333A1.785,1.785,0,0,1,69.55,48.15V41.017a1.785,1.785,0,0,1,1.783-1.783H85.6a1.785,1.785,0,0,1,1.783,1.783Z"/>
    </g>
  </g>
</svg>
