<svg xmlns="http://www.w3.org/2000/svg" xmlns:xlink="http://www.w3.org/1999/xlink" width="107" height="107" viewBox="0 0 107 107">
  <defs>
    <clipPath id="clip-path">
      <rect id="Rectángulo_402501" data-name="Rectángulo 402501" width="107" height="107" transform="translate(746.051 12798)" fill="#fff" stroke="#707070" stroke-width="1"/>
    </clipPath>
  </defs>
  <g id="Enmascarar_grupo_1098715" data-name="Enmascarar grupo 1098715" transform="translate(-746.051 -12798)" clip-path="url(#clip-path)">
    <g id="maquina-de-coser-overlock_2_" data-name="maquina-de-coser-overlock (2)" transform="translate(746.051 12798)">
      <g id="Grupo_1102327" data-name="Grupo 1102327">
        <path id="Trazado_893567" data-name="Trazado 893567" d="M74.534,28.724h-7.18v-7.73a.627.627,0,0,1,.627-.627h5.926a.627.627,0,0,1,.627.627Z" fill="#aa7a63"/>
      </g>
      <g id="Grupo_1102328" data-name="Grupo 1102328">
        <path id="Trazado_893568" data-name="Trazado 893568" d="M73.906,20.367H70.878a.628.628,0,0,1,.628.628v7.729h3.029V20.995A.628.628,0,0,0,73.906,20.367Z" fill="#845c47"/>
      </g>
      <g id="Grupo_1102329" data-name="Grupo 1102329">
        <path id="Trazado_893569" data-name="Trazado 893569" d="M95.853,28.724h-7.18v-7.73a.627.627,0,0,1,.627-.627h5.926a.627.627,0,0,1,.627.627Z" fill="#aa7a63"/>
      </g>
      <g id="Grupo_1102330" data-name="Grupo 1102330">
        <path id="Trazado_893570" data-name="Trazado 893570" d="M95.225,20.367H92.2a.628.628,0,0,1,.628.628v7.729h3.029V20.995A.628.628,0,0,0,95.225,20.367Z" fill="#845c47"/>
      </g>
      <g id="Grupo_1102331" data-name="Grupo 1102331">
        <path id="Trazado_893571" data-name="Trazado 893571" d="M45.183,28.724H38v-7.73a.627.627,0,0,1,.627-.627h5.926a.627.627,0,0,1,.627.627Z" fill="#aa7a63"/>
      </g>
      <g id="Grupo_1102332" data-name="Grupo 1102332">
        <path id="Trazado_893572" data-name="Trazado 893572" d="M44.555,20.367H41.526a.628.628,0,0,1,.628.628v7.729h3.029V20.995A.628.628,0,0,0,44.555,20.367Z" fill="#845c47"/>
      </g>
      <g id="Grupo_1102333" data-name="Grupo 1102333">
        <path id="Trazado_893573" data-name="Trazado 893573" d="M23.779,28.724H16.6v-7.73a.627.627,0,0,1,.627-.627h5.926a.627.627,0,0,1,.627.627Z" fill="#aa7a63"/>
      </g>
      <g id="Grupo_1102334" data-name="Grupo 1102334">
        <path id="Trazado_893574" data-name="Trazado 893574" d="M23.151,20.367H20.123a.628.628,0,0,1,.628.628v7.729h3.029V20.995A.628.628,0,0,0,23.151,20.367Z" fill="#845c47"/>
      </g>
      <g id="Grupo_1102335" data-name="Grupo 1102335">
        <path id="Trazado_893575" data-name="Trazado 893575" d="M96.559,60l-18.931-.08V51.993l18.931.08a3.962,3.962,0,0,1,0,7.923Z" fill="#efecef"/>
      </g>
      <g id="Grupo_1102336" data-name="Grupo 1102336">
        <path id="Trazado_893576" data-name="Trazado 893576" d="M97.4,52.164a3.958,3.958,0,0,1-3.871,4.8l-15.9-.068v3.021L96.559,60a3.961,3.961,0,0,0,.837-7.832Z" fill="#e2dfe2"/>
      </g>
      <g id="Grupo_1102337" data-name="Grupo 1102337">
        <path id="Trazado_893577" data-name="Trazado 893577" d="M75.969,52.074H65.92a2.861,2.861,0,0,1-2.861-2.861V29.479a2.861,2.861,0,0,1,2.861-2.861H75.969a2.861,2.861,0,0,1,2.861,2.861V49.212a2.861,2.861,0,0,1-2.861,2.861Z" fill="#c8ea73"/>
      </g>
      <g id="Grupo_1102338" data-name="Grupo 1102338">
        <path id="Trazado_893578" data-name="Trazado 893578" d="M75.965,26.617H73.912V44.29a2.865,2.865,0,0,1-2.865,2.865H63.059v2.053a2.865,2.865,0,0,0,2.865,2.865H75.966a2.865,2.865,0,0,0,2.865-2.865V29.482a2.865,2.865,0,0,0-2.865-2.865Z" fill="#b7e445"/>
      </g>
      <g id="Grupo_1102339" data-name="Grupo 1102339">
        <path id="Trazado_893579" data-name="Trazado 893579" d="M97.325,52.074H87.276a2.861,2.861,0,0,1-2.861-2.861V29.479a2.861,2.861,0,0,1,2.861-2.861H97.325a2.861,2.861,0,0,1,2.861,2.861V49.212a2.862,2.862,0,0,1-2.862,2.861Z" fill="#ac80dd"/>
      </g>
      <g id="Grupo_1102340" data-name="Grupo 1102340">
        <path id="Trazado_893580" data-name="Trazado 893580" d="M97.321,26.617H95.268V44.29A2.865,2.865,0,0,1,92.4,47.155H84.415v2.053a2.865,2.865,0,0,0,2.865,2.865H97.322a2.865,2.865,0,0,0,2.865-2.865V29.482A2.865,2.865,0,0,0,97.321,26.617Z" fill="#9d66d5"/>
      </g>
      <g id="Grupo_1102341" data-name="Grupo 1102341">
        <path id="Trazado_893581" data-name="Trazado 893581" d="M25.3,52.074H15.25a2.861,2.861,0,0,1-2.861-2.861V29.479a2.861,2.861,0,0,1,2.861-2.861H25.3a2.861,2.861,0,0,1,2.861,2.861V49.212A2.862,2.862,0,0,1,25.3,52.074Z" fill="#ecbe6b"/>
      </g>
      <g id="Grupo_1102342" data-name="Grupo 1102342">
        <path id="Trazado_893582" data-name="Trazado 893582" d="M25.3,26.617H23.242V44.29a2.865,2.865,0,0,1-2.865,2.865H12.389v2.053a2.865,2.865,0,0,0,2.865,2.865H25.3a2.865,2.865,0,0,0,2.865-2.865V29.482A2.865,2.865,0,0,0,25.3,26.617Z" fill="#eab14d"/>
      </g>
      <g id="Grupo_1102343" data-name="Grupo 1102343">
        <path id="Trazado_893583" data-name="Trazado 893583" d="M46.655,52.074H36.606a2.861,2.861,0,0,1-2.861-2.861V29.479a2.861,2.861,0,0,1,2.861-2.861H46.655a2.861,2.861,0,0,1,2.861,2.861V49.212a2.861,2.861,0,0,1-2.861,2.861Z" fill="#cbe2ff"/>
      </g>
      <g id="Grupo_1102344" data-name="Grupo 1102344">
        <path id="Trazado_893584" data-name="Trazado 893584" d="M46.651,26.617H44.6V44.29a2.865,2.865,0,0,1-2.865,2.865H33.745v2.053a2.865,2.865,0,0,0,2.865,2.865H46.652a2.865,2.865,0,0,0,2.865-2.865V29.482a2.865,2.865,0,0,0-2.865-2.865Z" fill="#9dc6fb"/>
      </g>
      <g id="Grupo_1102345" data-name="Grupo 1102345">
        <path id="Trazado_893585" data-name="Trazado 893585" d="M20.189,46.523V65.386a2.092,2.092,0,0,0,2.092,2.092H44.749a.628.628,0,0,1,.628.628V84.135H20.189v19.107a2.092,2.092,0,0,0,2.092,2.092H79.3a2.092,2.092,0,0,0,2.092-2.092V60L80.22,58.535l1.174-1.624V46.524A2.092,2.092,0,0,0,79.3,44.431H22.282a2.092,2.092,0,0,0-2.093,2.092Z" fill="#efecef"/>
      </g>
      <g id="Grupo_1102347" data-name="Grupo 1102347">
        <g id="Grupo_1102346" data-name="Grupo 1102346">
          <path id="Trazado_893586" data-name="Trazado 893586" d="M79.3,44.431H75.41V97.258a2.092,2.092,0,0,1-2.092,2.092H20.189v3.891a2.092,2.092,0,0,0,2.092,2.092H79.3a2.092,2.092,0,0,0,2.092-2.092V46.523A2.092,2.092,0,0,0,79.3,44.431Z" fill="#e2dfe2"/>
        </g>
      </g>
      <g id="Grupo_1102348" data-name="Grupo 1102348">
        <path id="Trazado_893587" data-name="Trazado 893587" d="M42.056,87.2H4.312a.836.836,0,0,1-.836-.836V78.213a.836.836,0,0,1,.836-.836H45.377v6.5A3.322,3.322,0,0,1,42.056,87.2Z" fill="#efecef"/>
      </g>
      <g id="Grupo_1102349" data-name="Grupo 1102349">
        <path id="Trazado_893588" data-name="Trazado 893588" d="M40.8,77.377V79.3a3.326,3.326,0,0,1-3.326,3.326h-34V86.36a.837.837,0,0,0,.837.837H42.052a3.326,3.326,0,0,0,3.326-3.326V77.377Z" fill="#e2dfe2"/>
      </g>
      <g id="Grupo_1102350" data-name="Grupo 1102350">
        <path id="Trazado_893589" data-name="Trazado 893589" d="M102.066,52.323a4.415,4.415,0,0,0,1.191-3.018V40.769a1.569,1.569,0,1,0-3.139,0v8.536a1.3,1.3,0,0,1-1.3,1.3L88.46,50.559a1.3,1.3,0,0,1-.974-1.254V29.579a1.3,1.3,0,0,1,1.3-1.3H98.823a1.3,1.3,0,0,1,1.3,1.3v3.394a1.569,1.569,0,1,0,3.139,0V29.579a4.437,4.437,0,0,0-4.334-4.429V21.091a2.2,2.2,0,0,0-2.2-2.2H95.334V13.868a4.777,4.777,0,0,0,3.2-4.5c0-1.642-1.585-4.416-2.745-6.226h6.023a1.569,1.569,0,0,0,0-3.139H13.681a1.569,1.569,0,0,0,0,3.139h6.033c-1.16,1.81-2.745,4.584-2.745,6.226a4.777,4.777,0,0,0,3.2,4.5v5.026h-1.44a2.2,2.2,0,0,0-2.2,2.2v4.064a4.436,4.436,0,0,0-4.211,4.423V49.305a4.439,4.439,0,0,0,4.434,4.434h3.367V65.482a3.666,3.666,0,0,0,3.662,3.662H28.3V73.4a1.569,1.569,0,0,0,3.139,0V69.144H45.31V75.9H5.815A2.409,2.409,0,0,0,3.409,78.31v8.146a2.409,2.409,0,0,0,2.406,2.406H20.122v14.476A3.666,3.666,0,0,0,23.784,107h38.4a1.569,1.569,0,1,0,0-3.139h-38.4a.524.524,0,0,1-.523-.523V88.862H43.553a4.9,4.9,0,0,0,4.9-4.9V68.2a2.2,2.2,0,0,0-2.2-2.2H23.784a.524.524,0,0,1-.523-.523V46.62a.524.524,0,0,1,.523-.523H80.8a.524.524,0,0,1,.523.523v56.719a.524.524,0,0,1-.523.523H69.475a1.569,1.569,0,0,0,0,3.139H80.8a3.666,3.666,0,0,0,3.662-3.662V61.6l13.6.058a5.527,5.527,0,0,0,4.006-9.339ZM45.31,83.967a1.759,1.759,0,0,1-1.757,1.757H6.547V79.043H45.31Zm2.944-58.818V21.091a2.2,2.2,0,0,0-2.2-2.2H44.664V13.868a4.777,4.777,0,0,0,3.2-4.5c0-1.642-1.585-4.416-2.745-6.226H56.282V42.958H52.588V29.578a4.437,4.437,0,0,0-4.334-4.429ZM43.1,5.846a12.232,12.232,0,0,1,1.631,3.52,1.631,1.631,0,0,1-3.262,0A12.261,12.261,0,0,1,43.1,5.846Zm2.02,16.187v3.112H41.074V22.033ZM59.421,3.139H70.384c-1.16,1.81-2.745,4.583-2.745,6.226a4.777,4.777,0,0,0,3.2,4.5v5.026H69.484a2.2,2.2,0,0,0-2.2,2.2v4.06a4.437,4.437,0,0,0-4.3,4.427v13.38h-3.57V3.139ZM74.467,25.144H70.426V22.032h4.041ZM72.409,11a1.633,1.633,0,0,1-1.631-1.63,12.249,12.249,0,0,1,1.632-3.52,12.232,12.232,0,0,1,1.631,3.52A1.633,1.633,0,0,1,72.409,11ZM66.13,29.578a1.3,1.3,0,0,1,1.3-1.3H77.467a1.3,1.3,0,0,1,1.3,1.3v13.38H66.13Zm29.656-4.434H91.744V22.032h4.041ZM93.765,11a1.633,1.633,0,0,1-1.631-1.63,12.249,12.249,0,0,1,1.632-3.52A12.232,12.232,0,0,1,95.4,9.365,1.633,1.633,0,0,1,93.765,11ZM92.2,13.868v5.026H90.8a2.2,2.2,0,0,0-2.2,2.2v4.062a4.436,4.436,0,0,0-4.258,4.425V45.715A3.673,3.673,0,0,0,81.9,43.127V29.578a4.436,4.436,0,0,0-4.3-4.427v-4.06a2.2,2.2,0,0,0-2.2-2.2h-1.43V13.868a4.777,4.777,0,0,0,3.2-4.5c0-1.642-1.585-4.416-2.745-6.226H91.74C90.58,4.949,89,7.722,89,9.365a4.777,4.777,0,0,0,3.2,4.5ZM21.739,5.846a12.232,12.232,0,0,1,1.631,3.52,1.631,1.631,0,0,1-3.262,0A12.249,12.249,0,0,1,21.739,5.846Zm1.569,8.022a4.777,4.777,0,0,0,3.2-4.5c0-1.642-1.585-4.416-2.745-6.226H41.07c-1.16,1.81-2.745,4.583-2.745,6.226a4.777,4.777,0,0,0,3.2,4.5v5.026H40.133a2.2,2.2,0,0,0-2.2,2.2v4.062a4.436,4.436,0,0,0-4.258,4.425v7.783a1.569,1.569,0,0,0,3.139,0V29.578a1.3,1.3,0,0,1,1.3-1.3H48.153a1.3,1.3,0,0,1,1.3,1.3v13.38H31.231V29.578a4.438,4.438,0,0,0-4.381-4.432V21.091a2.2,2.2,0,0,0-2.2-2.2H23.308V13.868Zm.4,8.165v3.112H19.671V22.033ZM20.122,46.62V50.6H16.756a1.3,1.3,0,0,1-1.3-1.3V29.579a1.3,1.3,0,0,1,1.3-1.3H26.8a1.3,1.3,0,0,1,1.3,1.3v13.38H23.784a3.666,3.666,0,0,0-3.662,3.662Zm77.945,11.9-13.6-.058V53.68l13.6.059a2.392,2.392,0,0,1,.007,4.784Z"/>
        <path id="Trazado_893590" data-name="Trazado 893590" d="M37.009,52.8v6.155a1.569,1.569,0,1,0,3.139,0V52.8a1.569,1.569,0,1,0-3.139,0Z"/>
        <path id="Trazado_893591" data-name="Trazado 893591" d="M46.139,52.8v6.155a1.569,1.569,0,0,0,3.139,0V52.8a1.569,1.569,0,0,0-3.139,0Z"/>
        <path id="Trazado_893592" data-name="Trazado 893592" d="M55.31,52.8v6.155a1.569,1.569,0,1,0,3.139,0V52.8a1.569,1.569,0,1,0-3.139,0Z"/>
        <path id="Trazado_893593" data-name="Trazado 893593" d="M66.009,51.229A1.569,1.569,0,0,0,64.44,52.8v6.155a1.569,1.569,0,1,0,3.139,0V52.8A1.569,1.569,0,0,0,66.009,51.229Z"/>
      </g>
    </g>
  </g>
</svg>
