<svg xmlns="http://www.w3.org/2000/svg" xmlns:xlink="http://www.w3.org/1999/xlink" width="107" height="107" viewBox="0 0 107 107">
  <defs>
    <clipPath id="clip-path">
      <rect id="Rectángulo_402502" data-name="Rectángulo 402502" width="107" height="107" transform="translate(1166.051 12798)" fill="#fff" stroke="#707070" stroke-width="1"/>
    </clipPath>
  </defs>
  <g id="Enmascarar_grupo_1098716" data-name="Enmascarar grupo 1098716" transform="translate(-1166.051 -12798)" clip-path="url(#clip-path)">
    <g id="maquina-de-coser_1_" data-name="maquina-de-coser (1)" transform="translate(1166.051 12798)">
      <g id="Grupo_1102352" data-name="Grupo 1102352">
        <path id="Trazado_893594" data-name="Trazado 893594" d="M36.5,24.023l-1.1-13.16h-9.87l-1.1,13.16Z" fill="#ffbecb" fill-rule="evenodd"/>
        <path id="Trazado_893595" data-name="Trazado 893595" d="M46.371,10.863l-1.1,13.16H57.337l-1.1-13.16Z" fill="#99ebfa" fill-rule="evenodd"/>
        <path id="Trazado_893596" data-name="Trazado 893596" d="M67.207,10.863l-1.1,13.16H78.174l-1.1-13.16Z" fill="#ffbecb" fill-rule="evenodd"/>
        <path id="Trazado_893597" data-name="Trazado 893597" d="M88.043,10.863l-1.108,13.3a4.4,4.4,0,0,1,3.3,4.25v8.773h9.869L97.913,10.863Z" fill="#fff2a0" fill-rule="evenodd"/>
        <path id="Trazado_893598" data-name="Trazado 893598" d="M100.106,37.182H90.237v8.773h9.87a4.387,4.387,0,1,0,0-8.773Z" fill="#f5fade" fill-rule="evenodd"/>
        <path id="Trazado_893599" data-name="Trazado 893599" d="M90.237,45.955V28.41a4.4,4.4,0,0,0-3.3-4.25,4.354,4.354,0,0,0-1.085-.137H15.667a4.4,4.4,0,0,0-4.386,4.386V45.955a4.4,4.4,0,0,0,4.386,4.386H19.64V41.982a4.193,4.193,0,0,1,4.18-4.18H38.767a4.192,4.192,0,0,1,4.18,4.18v8.359H90.237q0-2.212,0-4.386Z" fill="#b8ecbc" fill-rule="evenodd"/>
        <path id="Trazado_893600" data-name="Trazado 893600" d="M42.946,41.982a4.192,4.192,0,0,0-4.18-4.18H23.819a4.193,4.193,0,0,0-4.18,4.18v8.359H42.946Z" fill="#f5fade" fill-rule="evenodd"/>
        <path id="Trazado_893601" data-name="Trazado 893601" d="M61.038,50.342V69.818H51.306V74a4.193,4.193,0,0,1-4.18,4.18H23.819A4.193,4.193,0,0,1,19.64,74v-4.18H6.893A4.4,4.4,0,0,0,2.507,74.2V96.137h87.73v-45.8h-29.2Z" fill="#f5fade" fill-rule="evenodd"/>
        <g id="Grupo_1102351" data-name="Grupo 1102351">
          <path id="Trazado_893602" data-name="Trazado 893602" d="M90.237,56.659v8.773h6.58a2.2,2.2,0,0,0,2.193-2.193V58.852a2.2,2.2,0,0,0-2.193-2.193h-6.58Z" fill="#b8ecbc" fill-rule="evenodd"/>
          <path id="Trazado_893603" data-name="Trazado 893603" d="M96.817,74.2h-6.58V96.137h6.58a2.2,2.2,0,0,0,2.193-2.193V76.4A2.2,2.2,0,0,0,96.817,74.2Z" fill="#b8ecbc" fill-rule="evenodd"/>
          <path id="Trazado_893604" data-name="Trazado 893604" d="M47.126,78.177A4.193,4.193,0,0,0,51.306,74v-4.18H19.64V74a4.193,4.193,0,0,0,4.18,4.18Z" fill="#b8ecbc" fill-rule="evenodd"/>
          <path id="Trazado_893605" data-name="Trazado 893605" d="M90.237,96.137H2.507v6.58A2.2,2.2,0,0,0,4.7,104.91H88.043a2.2,2.2,0,0,0,2.193-2.193Z" fill="#b8ecbc" fill-rule="evenodd"/>
        </g>
      </g>
      <g id="Grupo_1102353" data-name="Grupo 1102353">
        <path id="Trazado_893606" data-name="Trazado 893606" d="M100.106,48.045a6.476,6.476,0,0,0,1.948-12.653L100,10.69a2.09,2.09,0,0,0-2.083-1.916h-2.3V4.18h2.3a2.09,2.09,0,1,0,0-4.18H25.535a2.09,2.09,0,1,0,0,4.18H28.38V8.773H25.535a2.09,2.09,0,0,0-2.083,1.916l-.937,11.244H15.667A6.484,6.484,0,0,0,9.19,28.409V45.955a6.484,6.484,0,0,0,6.476,6.476H29.2v4.847a2.09,2.09,0,0,0,0,4.18h4.18a2.09,2.09,0,0,0,0-4.18V52.431H58.949v15.3H6.893A6.483,6.483,0,0,0,.417,74.2v28.513A4.288,4.288,0,0,0,4.7,107H88.044a4.288,4.288,0,0,0,4.283-4.283v-4.49h4.49a4.288,4.288,0,0,0,4.283-4.283V76.4a4.288,4.288,0,0,0-4.283-4.283h-4.49V67.521h4.49a4.288,4.288,0,0,0,4.283-4.283V58.852a4.288,4.288,0,0,0-4.283-4.283h-4.49V48.045h7.78Zm0-4.18h-7.78V39.272h7.78a2.3,2.3,0,0,1,0,4.593Zm-2.271-8.773H92.327V28.409a6.479,6.479,0,0,0-3.184-5.574l.824-9.883H95.99Zm-6.4-26.319H88.043a2.09,2.09,0,0,0-2.083,1.916l-.937,11.244H80.1L79.16,10.689a2.09,2.09,0,0,0-2.083-1.916H74.232V4.18h17.2ZM47.546,21.933l.748-8.98h6.024l.748,8.98Zm11.715,0L58.323,10.69a2.09,2.09,0,0,0-2.083-1.916H53.4V4.18H70.052V8.773H67.207a2.09,2.09,0,0,0-2.083,1.916l-.937,11.244H59.26Zm9.87-8.98h6.024l.748,8.98h-7.52ZM32.56,4.18H49.216V8.773H46.371a2.09,2.09,0,0,0-2.083,1.916l-.937,11.244H38.424l-.937-11.244A2.09,2.09,0,0,0,35.4,8.773H32.56Zm-5.1,8.773h6.024l.748,8.98h-7.52Zm-14.088,33V28.409a2.3,2.3,0,0,1,2.3-2.3h33.55V48.252h-4.18v-6.27a6.277,6.277,0,0,0-6.27-6.27H23.819a6.277,6.277,0,0,0-6.27,6.27v6.27H15.667a2.3,2.3,0,0,1-2.3-2.3Zm8.36,2.3v-6.27a2.092,2.092,0,0,1,2.09-2.09H38.766a2.092,2.092,0,0,1,2.09,2.09v6.27Zm31.666,0V26.113H85.85a2.3,2.3,0,0,1,2.3,2.3V48.252H53.4ZM21.73,71.908H49.216V74a2.092,2.092,0,0,1-2.09,2.09H23.819A2.092,2.092,0,0,1,21.73,74ZM88.043,102.82H4.7a.11.11,0,0,1-.1-.1v-4.49h6.27a2.09,2.09,0,1,0,0-4.18H4.6V74.2a2.3,2.3,0,0,1,2.3-2.3H17.55V74a6.277,6.277,0,0,0,6.27,6.27H47.126A6.277,6.277,0,0,0,53.4,74v-2.09h7.643a2.09,2.09,0,0,0,2.09-2.09V52.432H88.147V94.047H29.675a2.09,2.09,0,0,0,0,4.18H88.147v4.49a.111.111,0,0,1-.1.1Zm8.773-26.526a.11.11,0,0,1,.1.1V93.944a.11.11,0,0,1-.1.1h-4.49V76.294Zm0-17.546a.11.11,0,0,1,.1.1v4.386a.11.11,0,0,1-.1.1h-4.49V58.748Z"/>
        <path id="Trazado_893607" data-name="Trazado 893607" d="M61.039,30.706a2.09,2.09,0,0,0-2.09,2.09v8.773a2.09,2.09,0,0,0,4.18,0V32.8A2.09,2.09,0,0,0,61.039,30.706Z"/>
        <path id="Trazado_893608" data-name="Trazado 893608" d="M70.771,30.706a2.09,2.09,0,0,0-2.09,2.09v8.773a2.09,2.09,0,1,0,4.18,0V32.8A2.09,2.09,0,0,0,70.771,30.706Z"/>
        <path id="Trazado_893609" data-name="Trazado 893609" d="M80.5,30.706a2.09,2.09,0,0,0-2.09,2.09v8.773a2.09,2.09,0,1,0,4.18,0V32.8A2.09,2.09,0,0,0,80.5,30.706Z"/>
        <path id="Trazado_893610" data-name="Trazado 893610" d="M70.771,89.867H80.5a2.09,2.09,0,0,0,0-4.18H70.771a2.09,2.09,0,0,0,0,4.18Z"/>
        <path id="Trazado_893611" data-name="Trazado 893611" d="M70.771,80.887H80.5a2.09,2.09,0,0,0,0-4.18H70.771a2.09,2.09,0,0,0,0,4.18Z"/>
        <path id="Trazado_893612" data-name="Trazado 893612" d="M70.771,71.908H80.5a2.09,2.09,0,0,0,0-4.18H70.771a2.09,2.09,0,0,0,0,4.18Z"/>
        <path id="Trazado_893613" data-name="Trazado 893613" d="M20.271,94.047h0a2.09,2.09,0,1,0,2.091,2.09A2.089,2.089,0,0,0,20.27,94.047Z"/>
      </g>
    </g>
  </g>
</svg>
