<svg xmlns="http://www.w3.org/2000/svg" width="85" height="85" viewBox="0 0 85 85">
  <g id="Grupo_1101873" data-name="Grupo 1101873" transform="translate(-1251.333 -413)">
    <g id="Grupo_1098742" data-name="Grupo 1098742" transform="translate(1251.333 413)">
      <rect id="Rectángulo_400898" data-name="Rectángulo 400898" width="85" height="85" rx="42.5" fill="#e6efbf"/>
      <g id="Rectángulo_400907" data-name="Rectángulo 400907" transform="translate(0)" fill="none" stroke="#0f1f33" stroke-linecap="round" stroke-width="2" stroke-dasharray="7">
        <rect width="85" height="85" rx="42.5" stroke="none"/>
        <rect x="1" y="1" width="83" height="83" rx="41.5" fill="none"/>
      </g>
    </g>
    <g id="de-coser_3_" data-name="de-coser (3)" transform="translate(1260.971 367.52)">
      <path id="Trazado_894438" data-name="Trazado 894438" d="M54.567,138.542h0a1.319,1.319,0,0,0-1.319,1.319v3.283h2.638v-3.283A1.319,1.319,0,0,0,54.567,138.542Z" transform="translate(-46.413 -70.656)" fill="#234c60"/>
      <path id="Trazado_894439" data-name="Trazado 894439" d="M351.085,73.152h-1.931a.952.952,0,0,1-.952-.952v-6.48a.952.952,0,0,1,.952-.952h1.931a.952.952,0,0,1,.952.952V72.2A.952.952,0,0,1,351.085,73.152Z" transform="translate(-303.504 -6.352)" fill="#ff6d3a"/>
      <rect id="Rectángulo_403017" data-name="Rectángulo 403017" width="9.01" height="3.503" transform="translate(52.549 77.735)" fill="#234c60"/>
      <g id="Grupo_1103099" data-name="Grupo 1103099" transform="translate(9.474 69.747)">
        <path id="Trazado_894440" data-name="Trazado 894440" d="M467.034,172.52h0a2.584,2.584,0,0,1-2.584-2.584V155.623a2.584,2.584,0,0,1,2.584-2.584h0a2.584,2.584,0,0,1,2.584,2.584v14.313A2.584,2.584,0,0,1,467.034,172.52Z" transform="translate(-414.303 -153.039)" fill="#2d5872"/>
        <path id="Trazado_894441" data-name="Trazado 894441" d="M73.8,156.55V165.9l26.837,2.277a6.278,6.278,0,0,1,5.516,7.362l-2.012,11.307h16.068V160.566a7.527,7.527,0,0,0-8.319-7.485Z" transform="translate(-73.802 -153.039)" fill="#2d5872"/>
      </g>
      <path id="Trazado_894442" data-name="Trazado 894442" d="M318.3,153.058a7.487,7.487,0,0,1,2.116,5.229v21.307a3.35,3.35,0,0,1-3.35,3.35h-6.2l-.7,3.909h16.068V160.572A7.527,7.527,0,0,0,318.3,153.058Z" transform="translate(-270.348 -83.298)" fill="#234c60"/>
      <path id="Trazado_894443" data-name="Trazado 894443" d="M65.653,414.715H9.26a1.973,1.973,0,0,1-1.973-1.973V411.9a1.973,1.973,0,0,1,1.973-1.973H65.653a1.973,1.973,0,0,1,1.973,1.973v.842A1.973,1.973,0,0,1,65.653,414.715Z" transform="translate(-6.352 -307.203)" fill="#ff6d3a"/>
      <path id="Trazado_894444" data-name="Trazado 894444" d="M65.653,409.924h-3.8v1.268a1.338,1.338,0,0,1-1.338,1.338H7.287v.21a1.973,1.973,0,0,0,1.973,1.973H65.653a1.973,1.973,0,0,0,1.973-1.973V411.9A1.974,1.974,0,0,0,65.653,409.924Z" transform="translate(-6.352 -307.201)" fill="#ed5729"/>
      <path id="Trazado_894445" data-name="Trazado 894445" d="M50.2,282.878h0a1.824,1.824,0,0,1-1.824-1.824V276.4h3.648v4.652A1.824,1.824,0,0,1,50.2,282.878Z" transform="translate(-42.167 -190.819)" fill="#234c60"/>
      <path id="Trazado_894446" data-name="Trazado 894446" d="M37.945,177.658h3.248a1,1,0,0,0,1-.953l.76-14.62a1,1,0,0,0-1-1.058H37.185a1.006,1.006,0,0,0-1,1.058l.76,14.62A1,1,0,0,0,37.945,177.658Z" transform="translate(-31.535 -90.255)" fill="#2d5872"/>
      <g id="Grupo_1103100" data-name="Grupo 1103100" transform="translate(45.679 84.073)">
        <circle id="Elipse_11536" data-name="Elipse 11536" cx="2.578" cy="2.578" r="2.578" transform="translate(0 0)" fill="#61aff7"/>
        <circle id="Elipse_11537" data-name="Elipse 11537" cx="2.578" cy="2.578" r="2.578" transform="translate(0 9.232)" fill="#61aff7"/>
      </g>
      <path id="Trazado_894447" data-name="Trazado 894447" d="M64.971,161.027H62.587v16.631h1.624a1.006,1.006,0,0,0,1-.953l.76-14.62A1,1,0,0,0,64.971,161.027Z" transform="translate(-54.553 -90.255)" fill="#234c60"/>
      <g id="Grupo_1103101" data-name="Grupo 1103101" transform="translate(46.433 84.827)">
        <path id="Trazado_894448" data-name="Trazado 894448" d="M365.366,274.164a2.578,2.578,0,0,0,0-3.646l-3.646,3.646A2.578,2.578,0,0,0,365.366,274.164Z" transform="translate(-361.72 -270.518)" fill="#55a2f0"/>
        <path id="Trazado_894449" data-name="Trazado 894449" d="M365.366,346.09a2.578,2.578,0,0,0,0-3.646l-3.646,3.646A2.578,2.578,0,0,0,365.366,346.09Z" transform="translate(-361.72 -333.211)" fill="#55a2f0"/>
      </g>
      <path id="Trazado_894450" data-name="Trazado 894450" d="M484.582,172.52a2.584,2.584,0,0,0,2.584-2.584V155.623a2.584,2.584,0,0,0-2.584-2.584h0V172.52Z" transform="translate(-422.377 -83.292)" fill="#234c60"/>
      <path id="Trazado_894451" data-name="Trazado 894451" d="M352.064,264.375a3.511,3.511,0,1,0-2.484-1.027A3.5,3.5,0,0,0,352.064,264.375ZM350.9,259.7a1.642,1.642,0,1,1-.481,1.161A1.632,1.632,0,0,1,350.9,259.7Z" transform="translate(-303.808 -174.213)"/>
      <path id="Trazado_894452" data-name="Trazado 894452" d="M349.579,335.283a3.517,3.517,0,0,0,4.968,0h0a3.513,3.513,0,1,0-4.968,0Zm1.323-3.646a1.642,1.642,0,1,1-.481,1.161A1.637,1.637,0,0,1,350.9,331.637Z" transform="translate(-303.807 -236.915)"/>
      <path id="Trazado_894453" data-name="Trazado 894453" d="M62.205,68.812a3.524,3.524,0,0,0-3.52,3.519V76.8H56.8a8.458,8.458,0,0,0-9.253-7.948V67.735h.03a1.89,1.89,0,0,0,1.888-1.888v-6.48a1.89,1.89,0,0,0-1.888-1.888H45.65a1.89,1.89,0,0,0-1.888,1.888v6.48a1.89,1.89,0,0,0,1.888,1.888h.03v1.286l-3.03.276a.935.935,0,0,0,.17,1.863l3.89-.354h0l.936-.085h.014a6.591,6.591,0,0,1,7.285,6.555v24.513H41.079l1.668-9.374a7.213,7.213,0,0,0-6.338-8.459l-.019,0L11.837,81.869l.412-7.924,24.783-2.257a.935.935,0,1,0-.17-1.863L12.348,72.057l.009-.179a1.941,1.941,0,0,0-1.938-2.042h-.009V69.2a2.255,2.255,0,0,0-4.509,0v.632H5.65a1.941,1.941,0,0,0-1.938,2.042l.377,7.258a.935.935,0,1,0,1.868-.1L5.58,71.781a.07.07,0,0,1,.07-.074h4.769a.07.07,0,0,1,.07.074L9.728,86.4a.07.07,0,0,1-.07.066H6.41a.07.07,0,0,1-.07-.066l-.079-1.515a.935.935,0,1,0-1.868.1L4.472,86.5a1.935,1.935,0,0,0,.8,1.471v2.265a2.764,2.764,0,0,0,1.824,2.6v4.885a.935.935,0,0,0,1.871,0V92.831a2.764,2.764,0,0,0,1.824-2.6V87.97a1.935,1.935,0,0,0,.8-1.471l.144-2.76,24.482,2.078a5.342,5.342,0,0,1,4.685,6.267l-1.727,9.7H2.909A2.912,2.912,0,0,0,0,104.7v.842a2.912,2.912,0,0,0,2.909,2.909H59.3a2.912,2.912,0,0,0,2.909-2.909V104.7a2.912,2.912,0,0,0-2.909-2.909H56.818V82.175h1.867v4.469a3.52,3.52,0,1,0,7.039,0V72.331A3.523,3.523,0,0,0,62.205,68.812ZM45.65,65.865a.017.017,0,0,1-.017-.017v-6.48a.017.017,0,0,1,.017-.017h1.931a.017.017,0,0,1,.017.017v6.48a.017.017,0,0,1-.017.017ZM8.538,69.837H7.771v-.632a.384.384,0,0,1,.768,0v.632Zm.385,20.4a.889.889,0,0,1-1.778,0v-1.9H8.923ZM59.3,103.658A1.039,1.039,0,0,1,60.34,104.7v.842a1.039,1.039,0,0,1-1.038,1.038H2.909a1.039,1.039,0,0,1-1.038-1.038V104.7a1.039,1.039,0,0,1,1.038-1.038H59.3ZM58.686,80.3H56.818V78.671h1.867Zm5.169,6.34a1.649,1.649,0,1,1-3.3,0V72.331a1.649,1.649,0,0,1,3.3,0Z"/>
    </g>
  </g>
</svg>
