<svg xmlns="http://www.w3.org/2000/svg" xmlns:xlink="http://www.w3.org/1999/xlink" width="120" height="120" viewBox="0 0 120 120">
  <defs>
    <clipPath id="clip-path">
      <rect id="Rectángulo_402527" data-name="Rectángulo 402527" width="120" height="120" transform="translate(320.051 16133.694)" fill="#916aab"/>
    </clipPath>
  </defs>
  <g id="Enmascarar_grupo_1098753" data-name="Enmascarar grupo 1098753" transform="translate(-320.051 -16133.694)" clip-path="url(#clip-path)">
    <g id="maquina-de-coser_5_" data-name="maquina-de-coser (5)" transform="translate(318.494 16132.139)">
      <path id="Trazado_894490" data-name="Trazado 894490" d="M110.671,32.389a9.618,9.618,0,0,0-9.618-9.618H12.533a9.618,9.618,0,0,0-9.618,9.618v20.92H55.787A14.427,14.427,0,0,1,70.215,67.736V94.908H58.147v18.275H8.714V94.908H7.723a4.737,4.737,0,0,0-2.376.63,4.808,4.808,0,0,0-2.433,4.179v15.721a4.808,4.808,0,0,0,4.809,4.809h98.14a4.808,4.808,0,0,0,4.809-4.809Z" fill="#eee"/>
      <path id="Trazado_894491" data-name="Trazado 894491" d="M90.443,54.663a9.319,9.319,0,1,1,9.32-9.319A9.33,9.33,0,0,1,90.443,54.663Z" fill="#afafaf"/>
      <path id="Trazado_894492" data-name="Trazado 894492" d="M61.514,95.014v18.275a3.364,3.364,0,0,1-3.366,3.366H8.714a3.364,3.364,0,0,1-3.366-3.366V95.644a4.737,4.737,0,0,1,2.376-.63h.991v18.275H58.147V95.014Z" fill="#afafaf"/>
      <path id="Trazado_894493" data-name="Trazado 894493" d="M32.014,53.415v9.137a4.811,4.811,0,0,1-4.809,4.809H7.723a4.811,4.811,0,0,1-4.809-4.809V53.415Z" fill="#7d7b79"/>
      <path id="Trazado_894494" data-name="Trazado 894494" d="M2.914,53.415h29.1v3.366H2.914Z" fill="#4c4944"/>
      <path id="Trazado_894495" data-name="Trazado 894495" d="M95.7,22.876H83.439V8.208a1.443,1.443,0,0,1,1.443-1.443H94.26A1.443,1.443,0,0,1,95.7,8.208Z" fill="#fc5d3d"/>
      <path id="Trazado_894496" data-name="Trazado 894496" d="M30.6,22.876H18.342V18.247a2.4,2.4,0,0,1,2.4-2.4H28.2a2.4,2.4,0,0,1,2.4,2.4Z" fill="#f0c020"/>
      <circle id="Elipse_11543" data-name="Elipse 11543" cx="5.953" cy="5.953" r="5.953" transform="translate(84.489 39.39)" fill="#71c1e8"/>
      <path id="Trazado_894497" data-name="Trazado 894497" d="M22.8,67.362V71.93a2.4,2.4,0,0,1-2.4,2.4H14.528a2.4,2.4,0,0,1-2.4-2.4V67.362Z" fill="#f0c020"/>
      <path id="Trazado_894498" data-name="Trazado 894498" d="M12.124,67.362H22.8v3.366H12.124Z" fill="#e8a61e"/>
      <path id="Trazado_894499" data-name="Trazado 894499" d="M120.2,40.147V57.864a4.811,4.811,0,0,1-4.809,4.809h-4.718V35.338h4.718a4.811,4.811,0,0,1,4.809,4.809Z" fill="#f0c020"/>
      <path id="Trazado_894500" data-name="Trazado 894500" d="M110.673,35.338h3.366V62.673h-3.366Z" fill="#e8a61e"/>
      <path id="Trazado_894501" data-name="Trazado 894501" d="M58.147,94.533v18.756H8.714V94.533a2.4,2.4,0,0,1,2.4-2.4H55.743A2.4,2.4,0,0,1,58.147,94.533Z" fill="#fc5d3d"/>
      <path id="Trazado_894502" data-name="Trazado 894502" d="M38.059,78.039c-1.771-.585-3.6-1.1-4.628-5.521-.946,4.075-2.461,4.805-4.628,5.521,3.533,1.168,4.066,3.1,4.628,5.521C34.4,79.387,36,78.719,38.059,78.039Z" fill="#f0c020"/>
      <path id="Trazado_894503" data-name="Trazado 894503" d="M32.272,83.854c-.513-2.212-.852-3.673-3.842-4.661a1.191,1.191,0,0,1,0-2.259c1.8-.595,2.989-.988,3.842-4.661a1.19,1.19,0,0,1,2.317,0c.872,3.756,2.175,4.111,3.842,4.661a1.191,1.191,0,0,1,0,2.259c-1.736.573-2.99.988-3.842,4.661A1.189,1.189,0,0,1,32.272,83.854Zm-.68-5.763a6.178,6.178,0,0,1,1.862,1.969,5.885,5.885,0,0,1,1.76-1.985,6.071,6.071,0,0,1-1.779-2.058,5.894,5.894,0,0,1-1.843,2.074Z"/>
      <path id="Trazado_894504" data-name="Trazado 894504" d="M105.864,116.747a1.2,1.2,0,0,1-1.2-1.2V114.1a1.2,1.2,0,0,1,2.4,0v1.443A1.2,1.2,0,0,1,105.864,116.747Zm0-6.252a1.2,1.2,0,0,1-1.2-1.2v-76.8a3.611,3.611,0,0,0-3.607-3.607H12.533a1.2,1.2,0,1,1,0-2.4h88.52a6.018,6.018,0,0,1,6.011,6.011v76.8a1.2,1.2,0,0,1-1.2,1.2Z" fill="#fff"/>
      <path id="Trazado_894505" data-name="Trazado 894505" d="M53.338,109.682a1.2,1.2,0,0,1-1.2-1.2v-5.29a1.2,1.2,0,0,1,2.4,0v5.29A1.2,1.2,0,0,1,53.338,109.682Zm0-10.1a1.2,1.2,0,0,1-1.2-1.2V96.938a1.2,1.2,0,1,1,2.4,0v1.443A1.2,1.2,0,0,1,53.338,99.583Z" fill="#ffcbc3"/>
      <path id="Trazado_894506" data-name="Trazado 894506" d="M27.2,63.754H13.976a1.2,1.2,0,0,1,0-2.4H26V59.633a1.2,1.2,0,0,1,2.4,0v2.918A1.2,1.2,0,0,1,27.2,63.754Zm-18.037,0H7.724a1.2,1.2,0,0,1,0-2.4H9.167a1.2,1.2,0,0,1,0,2.4Z" fill="#efefef"/>
      <path id="Trazado_894507" data-name="Trazado 894507" d="M87.262,70.306H84.977V68.022a1.2,1.2,0,0,0-2.4,0v2.284H80.289a1.2,1.2,0,1,0,0,2.4h2.284v7.695a1.2,1.2,0,0,0,2.4,0V72.711h2.284a1.2,1.2,0,1,0,0-2.4Z"/>
      <path id="Trazado_894508" data-name="Trazado 894508" d="M100.6,75.716H98.313V68.022a1.2,1.2,0,0,0-2.4,0v7.695H93.624a1.2,1.2,0,1,0,0,2.4h2.284v2.284a1.2,1.2,0,0,0,2.4,0V78.121H100.6a1.2,1.2,0,1,0,0-2.4Z"/>
      <path id="Trazado_894509" data-name="Trazado 894509" d="M17.464,99.582a1.2,1.2,0,0,0-1.2,1.2v3.847a1.2,1.2,0,1,0,2.4,0v-3.847A1.2,1.2,0,0,0,17.464,99.582Z"/>
      <path id="Trazado_894510" data-name="Trazado 894510" d="M90.443,35.222a1.2,1.2,0,0,0,1.2-1.2v-1a1.2,1.2,0,0,0-2.4,0v1A1.2,1.2,0,0,0,90.443,35.222Z"/>
      <path id="Trazado_894511" data-name="Trazado 894511" d="M90.443,55.464a1.2,1.2,0,0,0-1.2,1.2v1a1.2,1.2,0,0,0,2.4,0v-1A1.2,1.2,0,0,0,90.443,55.464Z"/>
      <path id="Trazado_894512" data-name="Trazado 894512" d="M98.449,38.539a1.2,1.2,0,0,0,.85-.352l.705-.705a1.2,1.2,0,1,0-1.7-1.7l-.705.705a1.2,1.2,0,0,0,.85,2.053Z"/>
      <path id="Trazado_894513" data-name="Trazado 894513" d="M82.581,54.9l.705-.705a1.2,1.2,0,0,0-1.7-1.7l-.705.705a1.2,1.2,0,0,0,1.7,1.7Z"/>
      <path id="Trazado_894514" data-name="Trazado 894514" d="M101.766,46.545h1a1.2,1.2,0,1,0,0-2.4h-1a1.2,1.2,0,0,0,0,2.4Z"/>
      <path id="Trazado_894515" data-name="Trazado 894515" d="M78.123,46.545h1a1.2,1.2,0,1,0,0-2.4h-1a1.2,1.2,0,1,0,0,2.4Z"/>
      <path id="Trazado_894516" data-name="Trazado 894516" d="M99.154,55.257A1.2,1.2,0,0,0,100,53.2L99.3,52.5a1.2,1.2,0,0,0-1.7,1.7l.705.705A1.2,1.2,0,0,0,99.154,55.257Z"/>
      <path id="Trazado_894517" data-name="Trazado 894517" d="M81.586,38.186a1.2,1.2,0,1,0,1.7-1.7l-.705-.705a1.2,1.2,0,0,0-1.7,1.7Z"/>
      <path id="Trazado_894518" data-name="Trazado 894518" d="M31.889,37.636H17.462a1.2,1.2,0,1,0,0,2.4H31.889a1.2,1.2,0,0,0,0-2.4Z"/>
      <circle id="Elipse_11544" data-name="Elipse 11544" cx="1.202" cy="1.202" r="1.202" transform="translate(35.496 37.636)"/>
      <path id="Trazado_894519" data-name="Trazado 894519" d="M64.895,37.636H41.508a1.2,1.2,0,1,0,0,2.4H64.895a1.2,1.2,0,1,0,0-2.4Z"/>
      <path id="Trazado_894520" data-name="Trazado 894520" d="M90.443,52.5a7.155,7.155,0,1,0-7.156-7.155A7.163,7.163,0,0,0,90.443,52.5Zm-1.2-11.746v2.237a1.2,1.2,0,0,0,2.4,0V40.752a4.751,4.751,0,1,1-2.4,0Z"/>
      <circle id="Elipse_11545" data-name="Elipse 11545" cx="1.202" cy="1.202" r="1.202" transform="translate(44.23 90.926)"/>
      <circle id="Elipse_11546" data-name="Elipse 11546" cx="1.202" cy="1.202" r="1.202" transform="translate(118.997 48.563)"/>
      <path id="Trazado_894521" data-name="Trazado 894521" d="M121.4,40.147a6.02,6.02,0,0,0-6.011-6.011h-3.517V32.494a10.833,10.833,0,0,0-10.821-10.821H96.906V8.208a2.648,2.648,0,0,0-2.645-2.645H93.84V2.758a1.2,1.2,0,0,0-1.2-1.2H86.506a1.2,1.2,0,0,0-1.2,1.2V5.563h-.421a2.648,2.648,0,0,0-2.645,2.645v2.759H25.676V8.5a1.2,1.2,0,1,0-2.4,0V14.64H20.746a3.611,3.611,0,0,0-3.607,3.607v3.427H12.533A10.833,10.833,0,0,0,1.712,32.494V62.552a6.018,6.018,0,0,0,6.011,6.011h3.2V71.93a3.611,3.611,0,0,0,3.607,3.607h1.733v9.617a1.2,1.2,0,1,0,2.4,0V82.99h1.621a1.2,1.2,0,0,0,0-2.4H18.666V75.537H20.4a3.611,3.611,0,0,0,3.607-3.607V68.564h3.2a6.018,6.018,0,0,0,6.011-6.011V54.616H55.787A13.24,13.24,0,0,1,69.013,67.842v25.97H59.277a3.616,3.616,0,0,0-3.534-2.885h-5.5a1.2,1.2,0,1,0,0,2.4h5.5a1.206,1.206,0,0,1,1.2,1.2v17.553H18.666v-2.646a1.2,1.2,0,1,0-2.4,0v2.646H9.916V94.533a1.206,1.206,0,0,1,1.2-1.2h5.143v2.645a1.2,1.2,0,1,0,2.4,0V93.331H40.623a1.2,1.2,0,0,0,0-2.4h-29.5a3.617,3.617,0,0,0-3.535,2.895,6.006,6.006,0,0,0-5.871,6v15.721a6.018,6.018,0,0,0,6.011,6.011h98.14a6.018,6.018,0,0,0,6.011-6.011c0-11.815,0-22.309,0-51.669h3.517a6.02,6.02,0,0,0,6.011-6.011V54.574a1.2,1.2,0,0,0-2.4,0v3.289a3.621,3.621,0,0,1-3.607,3.607h-3.515V36.54h3.515A3.621,3.621,0,0,1,119,40.147v4.809a1.2,1.2,0,0,0,2.4,0ZM87.708,3.96h3.727v1.6H87.708ZM84.642,18.515h4.929a1.2,1.2,0,1,0,0-2.4H84.642v-7.9a.241.241,0,0,1,.24-.24H94.26a.241.241,0,0,1,.24.24v2.051H89.571a1.2,1.2,0,1,0,0,2.4H94.5v9.01H84.642ZM25.676,13.372H82.237v8.3H31.807V18.247A3.611,3.611,0,0,0,28.2,14.64H25.676Zm-6.132,4.876a1.2,1.2,0,0,1,1.2-1.2H28.2a1.2,1.2,0,0,1,1.2,1.2v3.427H19.544ZM21.6,71.93a1.2,1.2,0,0,1-1.2,1.2H14.528a1.2,1.2,0,0,1-1.2-1.2V68.564H21.6Zm9.209-9.378a3.611,3.611,0,0,1-3.607,3.607H7.723a3.611,3.611,0,0,1-3.607-3.607V54.617h26.7ZM55.787,52.212H4.117V32.494a8.426,8.426,0,0,1,8.416-8.416h88.52a8.426,8.426,0,0,1,8.416,8.416V93.811H71.417V67.842a15.648,15.648,0,0,0-15.63-15.63Zm53.683,63.332a3.611,3.611,0,0,1-3.607,3.607H7.723a3.611,3.611,0,0,1-3.607-3.607V99.823a3.617,3.617,0,0,1,3.4-3.6v17.066a1.215,1.215,0,0,0,1.2,1.2c.189,0,49.316,0,49.5-.007a1.19,1.19,0,0,0,1.131-1.2V96.216H109.47Z"/>
      <path id="Trazado_894522" data-name="Trazado 894522" d="M86.475,110.042a1.2,1.2,0,0,0,1.2-1.2v-2.612a1.2,1.2,0,1,0-2.4,0v2.612A1.2,1.2,0,0,0,86.475,110.042Z"/>
      <path id="Trazado_894523" data-name="Trazado 894523" d="M90.443,110.042a1.2,1.2,0,0,0,1.2-1.2v-2.612a1.2,1.2,0,1,0-2.4,0v2.612A1.2,1.2,0,0,0,90.443,110.042Z"/>
      <path id="Trazado_894524" data-name="Trazado 894524" d="M94.41,110.042a1.2,1.2,0,0,0,1.2-1.2v-2.612a1.2,1.2,0,1,0-2.4,0v2.612A1.2,1.2,0,0,0,94.41,110.042Z"/>
    </g>
  </g>
</svg>
