<svg xmlns="http://www.w3.org/2000/svg" width="85" height="85" viewBox="0 0 85 85">
  <g id="Grupo_1102010" data-name="Grupo 1102010" transform="translate(-1251.382 -412.998)">
    <g id="Grupo_1098742" data-name="Grupo 1098742" transform="translate(1251.332 412.999)">
      <rect id="Rect치ngulo_400898" data-name="Rect치ngulo 400898" width="85" height="85" rx="42.5" transform="translate(0.051 0)" fill="#f3eff6"/>
      <g id="Rect치ngulo_400907" data-name="Rect치ngulo 400907" transform="translate(0.051 0)" fill="none" stroke="#0f1f33" stroke-linecap="round" stroke-width="2" stroke-dasharray="7">
        <rect width="85" height="85" rx="42.5" stroke="none"/>
        <rect x="1" y="1" width="83" height="83" rx="41.5" fill="none"/>
      </g>
    </g>
    <g id="pedal-de-freno" transform="translate(1269.575 430.376)">
      <path id="Trazado_893513" data-name="Trazado 893513" d="M342.512,7.6v6.944h6.944V7.6" transform="translate(-309.144 -6.858)" fill="#3b3d4c"/>
      <path id="Trazado_893514" data-name="Trazado 893514" d="M364.707,50.98v4.357h4.782V50.98" transform="translate(-329.176 -46.014)" fill="#5c5e70"/>
      <path id="Trazado_893515" data-name="Trazado 893515" d="M84.031,7.6V17.611h6.944V7.6" transform="translate(-75.845 -6.858)" fill="#3b3d4c"/>
      <path id="Trazado_893516" data-name="Trazado 893516" d="M103.344,50.98v5.787h5.063V50.98" transform="translate(-93.276 -46.014)" fill="#5c5e70"/>
      <path id="Trazado_893517" data-name="Trazado 893517" d="M296.641,78.879H284.829a3.738,3.738,0,0,0-3.739,3.739V116.6a3.738,3.738,0,0,0,3.739,3.738h11.813a3.738,3.738,0,0,0,3.739-3.738V82.618A3.738,3.738,0,0,0,296.641,78.879Zm0,0" transform="translate(-253.705 -71.194)" fill="#e6e6e6"/>
      <path id="Trazado_893518" data-name="Trazado 893518" d="M37.982,110.379H26.56a3.637,3.637,0,0,0-3.6,4.184l3.42,22.458a3.637,3.637,0,0,0,3.6,3.089h8a3.637,3.637,0,0,0,3.637-3.637V114.016a3.637,3.637,0,0,0-3.637-3.637Zm0,0" transform="translate(-20.69 -99.626)" fill="#e6e6e6"/>
      <g id="Grupo_1102301" data-name="Grupo 1102301" transform="translate(5.546 12.489)">
        <path id="Trazado_893519" data-name="Trazado 893519" d="M328.136,131.672h-8.681a1.736,1.736,0,1,1,0-3.472h8.681a1.736,1.736,0,1,1,0,3.472Zm0,0" transform="translate(-292.312 -128.199)" fill="#5c5e70"/>
        <path id="Trazado_893520" data-name="Trazado 893520" d="M328.136,205.016h-8.681a1.736,1.736,0,1,1,0-3.472h8.681a1.736,1.736,0,1,1,0,3.472Zm0,0" transform="translate(-292.312 -194.398)" fill="#5c5e70"/>
        <path id="Trazado_893521" data-name="Trazado 893521" d="M324.55,278.359h-8.681a1.736,1.736,0,1,1,0-3.472h8.681a1.736,1.736,0,1,1,0,3.472Zm0,0" transform="translate(-289.076 -260.596)" fill="#5c5e70"/>
        <path id="Trazado_893522" data-name="Trazado 893522" d="M324.55,351.7h-8.681a1.736,1.736,0,0,1,0-3.472h8.681a1.736,1.736,0,0,1,0,3.472Zm0,0" transform="translate(-289.076 -326.794)" fill="#5c5e70"/>
        <path id="Trazado_893523" data-name="Trazado 893523" d="M328.136,425.047h-8.681a1.736,1.736,0,1,1,0-3.472h8.681a1.736,1.736,0,1,1,0,3.472Zm0,0" transform="translate(-292.312 -392.993)" fill="#5c5e70"/>
        <path id="Trazado_893524" data-name="Trazado 893524" d="M67.346,156.395h-8.68a1.736,1.736,0,0,1,0-3.472h8.681a1.736,1.736,0,1,1,0,3.472Zm0,0" transform="translate(-56.93 -150.514)" fill="#5c5e70"/>
        <path id="Trazado_893525" data-name="Trazado 893525" d="M81.061,229.738h-7.2a1.736,1.736,0,1,1,0-3.472h7.2a1.736,1.736,0,1,1,0,3.472Zm0,0" transform="translate(-70.645 -216.712)" fill="#5c5e70"/>
        <path id="Trazado_893526" data-name="Trazado 893526" d="M91.187,303.082h-5.72a1.736,1.736,0,0,1,0-3.472h5.72a1.736,1.736,0,0,1,0,3.472Zm0,0" transform="translate(-81.12 -282.91)" fill="#5c5e70"/>
      </g>
      <path id="Trazado_893527" data-name="Trazado 893527" d="M7.6,7.6H55.952V9.9H7.6Zm0,0" transform="translate(-6.858 -6.858)" fill="#3b3d4c"/>
      <path id="Trazado_893528" data-name="Trazado 893528" d="M321.278,120.6H312.6a2.476,2.476,0,1,0,0,4.953h8.681a2.476,2.476,0,1,0,0-4.953Zm0,3.472H312.6a1,1,0,0,1,0-1.992h8.681a1,1,0,1,1,0,1.992Zm0,0" transform="translate(-279.908 -108.853)"/>
      <path id="Trazado_893529" data-name="Trazado 893529" d="M321.278,193.945H312.6a2.476,2.476,0,1,0,0,4.953h8.681a2.476,2.476,0,1,0,0-4.953Zm0,3.472H312.6a1,1,0,0,1,0-1.992h8.681a1,1,0,1,1,0,1.992Zm0,0" transform="translate(-279.908 -175.05)"/>
      <path id="Trazado_893530" data-name="Trazado 893530" d="M309.011,272.242h8.681a2.476,2.476,0,0,0,0-4.953h-8.681a2.476,2.476,0,0,0,0,4.953Zm0-3.472h8.681a1,1,0,0,1,0,1.992h-8.681a1,1,0,1,1,0-1.992Zm0,0" transform="translate(-276.672 -241.249)"/>
      <path id="Trazado_893531" data-name="Trazado 893531" d="M309.011,345.586h8.681a2.476,2.476,0,0,0,0-4.953h-8.681a2.476,2.476,0,0,0,0,4.953Zm0-3.472h8.681a1,1,0,0,1,0,1.992h-8.681a1,1,0,1,1,0-1.992Zm0,0" transform="translate(-276.672 -307.448)"/>
      <path id="Trazado_893532" data-name="Trazado 893532" d="M312.6,418.93h8.681a2.476,2.476,0,0,0,0-4.953H312.6a2.476,2.476,0,0,0,0,4.953Zm0-3.472h8.681a1,1,0,0,1,0,1.992H312.6a1,1,0,1,1,0-1.992Zm0,0" transform="translate(-279.908 -373.646)"/>
      <path id="Trazado_893533" data-name="Trazado 893533" d="M49.332,147.8a2.479,2.479,0,0,0,2.476,2.476h8.681a2.476,2.476,0,0,0,0-4.953H51.808A2.479,2.479,0,0,0,49.332,147.8Zm12.153,0a1,1,0,0,1-1,1H51.808a1,1,0,1,1,0-1.992h8.681A1,1,0,0,1,61.485,147.8Zm0,0" transform="translate(-44.526 -131.166)"/>
      <path id="Trazado_893534" data-name="Trazado 893534" d="M74.2,218.668H67a2.476,2.476,0,1,0,0,4.953h7.2a2.476,2.476,0,0,0,0-4.953Zm0,3.472H67a1,1,0,0,1,0-1.992h7.2a1,1,0,0,1,0,1.992Zm0,0" transform="translate(-58.241 -197.365)"/>
      <path id="Trazado_893535" data-name="Trazado 893535" d="M84.329,292.012h-5.72a2.476,2.476,0,1,0,0,4.953h5.72a2.476,2.476,0,1,0,0-4.953Zm0,3.472h-5.72a1,1,0,1,1,0-1.992h5.72a1,1,0,1,1,0,1.992Zm0,0" transform="translate(-68.716 -263.563)"/>
      <path id="Trazado_893536" data-name="Trazado 893536" d="M49.094,0a.74.74,0,0,0-.74.74V2.3H1.48V.74A.74.74,0,0,0,0,.74v2.3a.74.74,0,0,0,.74.74H7.446V5.693a.74.74,0,0,0,1.48,0V3.778h5.464v6.235H8.927V8.654a.74.74,0,0,0-1.48,0v1.359H5.87a4.377,4.377,0,0,0-4.327,5.036l3.42,22.458A4.352,4.352,0,0,0,9.29,41.225h8a4.382,4.382,0,0,0,4.376-4.377V14.39a4.382,4.382,0,0,0-4.376-4.377H15.871V3.778H32.628V6.944H31.123a4.484,4.484,0,0,0-4.479,4.479V45.4a4.484,4.484,0,0,0,4.479,4.478H42.936A4.484,4.484,0,0,0,47.414,45.4V38.917a.74.74,0,1,0-1.48,0V45.4a3,3,0,0,1-3,3H31.123a3,3,0,0,1-3-3V11.423a3,3,0,0,1,3-3H42.936a3,3,0,0,1,3,3V35.956a.74.74,0,1,0,1.48,0V11.423a4.484,4.484,0,0,0-4.479-4.478H41.053V3.778h8.042a.74.74,0,0,0,.74-.74V.74a.74.74,0,0,0-.74-.74ZM20.188,14.39V36.848a2.9,2.9,0,0,1-2.9,2.9h-8a2.88,2.88,0,0,1-2.864-2.46L3.007,14.826A2.9,2.9,0,0,1,5.87,11.493H17.292a2.9,2.9,0,0,1,2.9,2.9ZM39.573,6.944H34.109V3.778h5.464Zm0,0"/>
    </g>
  </g>
</svg>
