<svg xmlns="http://www.w3.org/2000/svg" width="60" height="60" viewBox="0 0 60 60">
  <g id="_01-Sewing_Machine" data-name="01-Sewing Machine" transform="translate(-2 -2)">
    <path id="Trazado_893969" data-name="Trazado 893969" d="M5,49H57v6a2,2,0,0,1-2,2H5a2,2,0,0,1-2-2V51a2,2,0,0,1,2-2Z" fill="#ff8a65"/>
    <path id="Trazado_893970" data-name="Trazado 893970" d="M57,49v6a2.006,2.006,0,0,1-2,2H5a2.006,2.006,0,0,1-2-2V53.73A2,2,0,0,0,4,54H50a2.006,2.006,0,0,0,2-2V49Z" fill="#ff7043"/>
    <path id="Trazado_893971" data-name="Trazado 893971" d="M5,57H55v3a1,1,0,0,1-1,1H6a1,1,0,0,1-1-1Z" fill="#757575"/>
    <path id="Trazado_893972" data-name="Trazado 893972" d="M55,57v3a1,1,0,0,1-1,1H50V60a1,1,0,0,0-1-1H5V57Z" fill="#616161"/>
    <path id="Trazado_893973" data-name="Trazado 893973" d="M7,33V25a6,6,0,0,1,6-6H51a6,6,0,0,1,6,6V49H39V37a6,6,0,0,0-6-6H24.243a3,3,0,0,0-2.121.879l-2.243,2.243A3,3,0,0,1,17.757,35H9A2,2,0,0,1,7,33Z" fill="#ffb74d"/>
    <path id="Trazado_893974" data-name="Trazado 893974" d="M57,25V49H52V25a6,6,0,0,0-6-6h5a6,6,0,0,1,6,6Z" fill="#ffa726"/>
    <path id="Trazado_893975" data-name="Trazado 893975" d="M10,35h6v3a1,1,0,0,1-1,1H11a1,1,0,0,1-1-1Z" fill="#eee"/>
    <path id="Trazado_893976" data-name="Trazado 893976" d="M16,35v3a1,1,0,0,1-1,1H13V38a1,1,0,0,0-1-1H10V35Z" fill="#e0e0e0"/>
    <path id="Trazado_893977" data-name="Trazado 893977" d="M45,3h2a1,1,0,0,1,1,1V7H44V4A1,1,0,0,1,45,3Z" fill="#eee"/>
    <path id="Trazado_893978" data-name="Trazado 893978" d="M48,4V7H46V4a1,1,0,0,0-1-1h2A1,1,0,0,1,48,4Z" fill="#e0e0e0"/>
    <path id="Trazado_893979" data-name="Trazado 893979" d="M15,15h4a1,1,0,0,1,1,1v3H14V16A1,1,0,0,1,15,15Z" fill="#eee"/>
    <path id="Trazado_893980" data-name="Trazado 893980" d="M20,16v3H17V16a1,1,0,0,0-1-1h3a1,1,0,0,1,1,1Z" fill="#e0e0e0"/>
    <rect id="Rectángulo_402585" data-name="Rectángulo 402585" width="8" height="12" rx="1" transform="translate(42 7)" fill="#ff8a65"/>
    <path id="Trazado_893981" data-name="Trazado 893981" d="M49,7H46v7a2.006,2.006,0,0,1-2,2H42v2a1,1,0,0,0,1,1h6a1,1,0,0,0,1-1V8a1,1,0,0,0-1-1Z" fill="#ff7043"/>
    <path id="Trazado_893982" data-name="Trazado 893982" d="M57,26h2a2,2,0,0,1,2,2v6a2,2,0,0,1-2,2H57Z" fill="#757575"/>
    <path id="Trazado_893983" data-name="Trazado 893983" d="M61,33v1a2.006,2.006,0,0,1-2,2H57V26h2v5a2.006,2.006,0,0,0,2,2Z" fill="#616161"/>
    <circle id="Elipse_11515" data-name="Elipse 11515" cx="4" cy="4" r="4" transform="translate(44 24)" fill="#ff8a65"/>
    <path id="Trazado_893984" data-name="Trazado 893984" d="M52,28a3.994,3.994,0,0,1-6,3.46,3.993,3.993,0,0,0,0-6.92A3.994,3.994,0,0,1,52,28Z" fill="#ff7043"/>
    <rect id="Rectángulo_402586" data-name="Rectángulo 402586" width="6" height="8" rx="2" transform="translate(45 36)" fill="#757575"/>
    <path id="Trazado_893985" data-name="Trazado 893985" d="M49.5,43.93A1.679,1.679,0,0,1,49,44H47a2.006,2.006,0,0,1-2-2V38a2.006,2.006,0,0,1,2-2h2a1.679,1.679,0,0,1,.5.07A2,2,0,0,0,48,38v4a2,2,0,0,0,1.5,1.93Z" fill="#616161"/>
    <rect id="Rectángulo_402587" data-name="Rectángulo 402587" width="6" height="4" rx="2" transform="translate(45 36)" fill="#ff8a65"/>
    <path id="Trazado_893986" data-name="Trazado 893986" d="M51,38a2.015,2.015,0,0,1-2,2H47a2.006,2.006,0,0,1-2-2h1a2.015,2.015,0,0,0,2-2h1a2.006,2.006,0,0,1,2,2Z" fill="#ff7043"/>
    <path id="Trazado_893987" data-name="Trazado 893987" d="M59,25H58a7.008,7.008,0,0,0-7-7V8a2,2,0,0,0-2-2V4a2,2,0,0,0-2-2H45a2,2,0,0,0-2,2V6a2,2,0,0,0-2,2v2H18V8a1,1,0,0,0-2,0v6H15a2,2,0,0,0-2,2v2a7.008,7.008,0,0,0-7,7v8a3,3,0,0,0,3,3v2a2,2,0,0,0,2,2h1v5a1,1,0,0,0,2,0V40h1a2,2,0,0,0,2-2V36h.757a3.973,3.973,0,0,0,2.829-1.172l2.242-2.242A1.988,1.988,0,0,1,24.243,32H33a5.006,5.006,0,0,1,5,5V48H5a3,3,0,0,0-3,3v4a3,3,0,0,0,2,2.816V60a2,2,0,0,0,2,2H54a2,2,0,0,0,2-2V57.816A3,3,0,0,0,58,55V37h1a3,3,0,0,0,3-3V28a3,3,0,0,0-3-3ZM45,4h2V6H45ZM43,8h6V9.219l-6,1.5Zm0,4.781,6-1.5v1.938l-6,1.5Zm0,4,6-1.5V18H43ZM18,12H41v6H21V16a2,2,0,0,0-2-2H18Zm-3,4h4v2H15Zm0,22H11V36h4ZM54,60H6V58H54Zm2-5a1,1,0,0,1-1,1H5a1,1,0,0,1-1-1V51a1,1,0,0,1,1-1H56Zm0-7H40V37a7.008,7.008,0,0,0-7-7H24.243a3.973,3.973,0,0,0-2.829,1.172l-2.242,2.242A1.988,1.988,0,0,1,17.757,34H9a1,1,0,0,1-1-1V25a5.006,5.006,0,0,1,5-5H51a5.006,5.006,0,0,1,5,5Zm4-14a1,1,0,0,1-1,1H58V27h1a1,1,0,0,1,1,1ZM48,23a5,5,0,1,0,5,5,5,5,0,0,0-5-5Zm0,8a3,3,0,1,1,3-3,3,3,0,0,1-3,3Zm1,4H47a3,3,0,0,0-3,3v4a3,3,0,0,0,3,3h2a3,3,0,0,0,3-3V38a3,3,0,0,0-3-3Zm1,7a1,1,0,0,1-1,1H47a1,1,0,0,1-1-1V40.816A2.966,2.966,0,0,0,47,41h2a2.964,2.964,0,0,0,1-.184Zm-1-3H47a1,1,0,0,1,0-2h2a1,1,0,0,1,0,2ZM18,24v3a1,1,0,0,1-2,0V24a1,1,0,0,1,2,0Zm4,0v3a1,1,0,0,1-2,0V24a1,1,0,0,1,2,0Zm-8,0v3a1,1,0,0,1-2,0V24a1,1,0,0,1,2,0Z"/>
  </g>
</svg>
